<mxfile host="app.diagrams.net" modified="2021-09-01T12:00:07.381Z" agent="5.0 (Windows NT 10.0; Win64; x64) AppleWebKit/537.36 (KHTML, like Gecko) Chrome/92.0.4515.159 Safari/537.36" etag="AR1x_uRfNpWRBmEJLbZ6" version="15.0.2" type="github">
  <diagram id="g9DS6ptHm-rfZdBFDqXK" name="Page-1">
    <mxGraphModel dx="853" dy="564" grid="0" gridSize="10" guides="1" tooltips="1" connect="1" arrows="1" fold="1" page="1" pageScale="1" pageWidth="827" pageHeight="1169" math="0" shadow="0">
      <root>
        <mxCell id="0" />
        <mxCell id="1" parent="0" />
        <mxCell id="KewHUWPRYiRtcH7fwYg7-7" style="edgeStyle=orthogonalEdgeStyle;rounded=0;orthogonalLoop=1;jettySize=auto;html=1;" parent="1" source="KewHUWPRYiRtcH7fwYg7-1" target="KewHUWPRYiRtcH7fwYg7-6" edge="1">
          <mxGeometry relative="1" as="geometry" />
        </mxCell>
        <mxCell id="KewHUWPRYiRtcH7fwYg7-1" value="" style="rounded=0;whiteSpace=wrap;html=1;" parent="1" vertex="1">
          <mxGeometry x="99" y="364" width="233" height="123" as="geometry" />
        </mxCell>
        <mxCell id="KewHUWPRYiRtcH7fwYg7-2" value="" style="shape=image;html=1;verticalAlign=top;verticalLabelPosition=bottom;labelBackgroundColor=#ffffff;imageAspect=0;aspect=fixed;image=https://cdn1.iconfinder.com/data/icons/space-outline-5/512/satellitecommunicationtechnologysystemwirelesssignalantennabroadcast-128.png" parent="1" vertex="1">
          <mxGeometry x="44" y="45" width="88" height="88" as="geometry" />
        </mxCell>
        <mxCell id="KewHUWPRYiRtcH7fwYg7-4" value="" style="endArrow=classic;html=1;" parent="1" source="KewHUWPRYiRtcH7fwYg7-2" edge="1">
          <mxGeometry width="50" height="50" relative="1" as="geometry">
            <mxPoint x="387" y="408" as="sourcePoint" />
            <mxPoint x="245" y="388" as="targetPoint" />
          </mxGeometry>
        </mxCell>
        <mxCell id="KewHUWPRYiRtcH7fwYg7-10" style="edgeStyle=orthogonalEdgeStyle;rounded=0;orthogonalLoop=1;jettySize=auto;html=1;" parent="1" source="KewHUWPRYiRtcH7fwYg7-5" edge="1">
          <mxGeometry relative="1" as="geometry">
            <mxPoint x="343" y="427" as="targetPoint" />
          </mxGeometry>
        </mxCell>
        <mxCell id="KewHUWPRYiRtcH7fwYg7-5" value="WM" style="rounded=1;whiteSpace=wrap;html=1;" parent="1" vertex="1">
          <mxGeometry x="207" y="387" width="75" height="42" as="geometry" />
        </mxCell>
        <mxCell id="KewHUWPRYiRtcH7fwYg7-6" value="" style="pointerEvents=1;shadow=0;dashed=0;html=1;strokeColor=none;fillColor=#505050;labelPosition=center;verticalLabelPosition=bottom;verticalAlign=top;outlineConnect=0;align=center;shape=mxgraph.office.devices.tv;" parent="1" vertex="1">
          <mxGeometry x="406" y="396" width="59" height="45" as="geometry" />
        </mxCell>
        <mxCell id="KewHUWPRYiRtcH7fwYg7-9" style="edgeStyle=orthogonalEdgeStyle;rounded=0;orthogonalLoop=1;jettySize=auto;html=1;" parent="1" source="KewHUWPRYiRtcH7fwYg7-8" edge="1">
          <mxGeometry relative="1" as="geometry">
            <mxPoint x="207" y="425" as="targetPoint" />
          </mxGeometry>
        </mxCell>
        <mxCell id="KewHUWPRYiRtcH7fwYg7-8" value="VG" style="rounded=1;whiteSpace=wrap;html=1;" parent="1" vertex="1">
          <mxGeometry x="109" y="420" width="78" height="41" as="geometry" />
        </mxCell>
        <mxCell id="KewHUWPRYiRtcH7fwYg7-14" style="edgeStyle=orthogonalEdgeStyle;rounded=0;orthogonalLoop=1;jettySize=auto;html=1;" parent="1" source="KewHUWPRYiRtcH7fwYg7-11" target="KewHUWPRYiRtcH7fwYg7-13" edge="1">
          <mxGeometry relative="1" as="geometry" />
        </mxCell>
        <mxCell id="KewHUWPRYiRtcH7fwYg7-11" value="internet" style="ellipse;shape=cloud;whiteSpace=wrap;html=1;" parent="1" vertex="1">
          <mxGeometry x="538" y="310" width="120" height="80" as="geometry" />
        </mxCell>
        <mxCell id="KewHUWPRYiRtcH7fwYg7-12" value="" style="shape=flexArrow;endArrow=classic;html=1;endWidth=23;endSize=2.5;" parent="1" edge="1">
          <mxGeometry width="50" height="50" relative="1" as="geometry">
            <mxPoint x="470" y="417" as="sourcePoint" />
            <mxPoint x="549" y="367" as="targetPoint" />
          </mxGeometry>
        </mxCell>
        <mxCell id="KewHUWPRYiRtcH7fwYg7-19" style="edgeStyle=orthogonalEdgeStyle;rounded=0;orthogonalLoop=1;jettySize=auto;html=1;" parent="1" source="KewHUWPRYiRtcH7fwYg7-13" target="KewHUWPRYiRtcH7fwYg7-15" edge="1">
          <mxGeometry relative="1" as="geometry" />
        </mxCell>
        <mxCell id="KewHUWPRYiRtcH7fwYg7-13" value="pirate websie" style="rounded=1;whiteSpace=wrap;html=1;" parent="1" vertex="1">
          <mxGeometry x="679" y="237" width="120" height="60" as="geometry" />
        </mxCell>
        <mxCell id="KewHUWPRYiRtcH7fwYg7-17" style="edgeStyle=orthogonalEdgeStyle;rounded=0;orthogonalLoop=1;jettySize=auto;html=1;" parent="1" source="KewHUWPRYiRtcH7fwYg7-15" target="KewHUWPRYiRtcH7fwYg7-16" edge="1">
          <mxGeometry relative="1" as="geometry" />
        </mxCell>
        <mxCell id="KewHUWPRYiRtcH7fwYg7-20" style="edgeStyle=orthogonalEdgeStyle;rounded=0;orthogonalLoop=1;jettySize=auto;html=1;entryX=1.08;entryY=0.398;entryDx=0;entryDy=0;entryPerimeter=0;" parent="1" source="KewHUWPRYiRtcH7fwYg7-15" target="KewHUWPRYiRtcH7fwYg7-2" edge="1">
          <mxGeometry relative="1" as="geometry" />
        </mxCell>
        <mxCell id="KewHUWPRYiRtcH7fwYg7-15" value="Security" style="html=1;strokeColor=none;fillColor=#0079D6;labelPosition=center;verticalLabelPosition=middle;verticalAlign=top;align=center;fontSize=12;outlineConnect=0;spacingTop=-6;fontColor=#FFFFFF;shape=mxgraph.sitemap.security;" parent="1" vertex="1">
          <mxGeometry x="332" y="56" width="120" height="70" as="geometry" />
        </mxCell>
        <mxCell id="KewHUWPRYiRtcH7fwYg7-18" style="edgeStyle=orthogonalEdgeStyle;rounded=0;orthogonalLoop=1;jettySize=auto;html=1;entryX=0.608;entryY=0;entryDx=0;entryDy=0;entryPerimeter=0;" parent="1" source="KewHUWPRYiRtcH7fwYg7-16" target="KewHUWPRYiRtcH7fwYg7-13" edge="1">
          <mxGeometry relative="1" as="geometry" />
        </mxCell>
        <mxCell id="KewHUWPRYiRtcH7fwYg7-16" value="internet" style="ellipse;shape=cloud;whiteSpace=wrap;html=1;" parent="1" vertex="1">
          <mxGeometry x="489" y="65" width="120" height="80" as="geometry" />
        </mxCell>
        <mxCell id="X7Wxf1JwcU2MH8IQoCk9-1" value="PallyCon Portal" style="shape=umlLifeline;perimeter=lifelinePerimeter;whiteSpace=wrap;html=1;container=1;collapsible=0;recursiveResize=0;outlineConnect=0;" parent="1" vertex="1">
          <mxGeometry x="178" y="1366" width="100" height="491" as="geometry" />
        </mxCell>
        <mxCell id="X7Wxf1JwcU2MH8IQoCk9-11" value="Provide URL" style="edgeStyle=orthogonalEdgeStyle;rounded=0;orthogonalLoop=1;jettySize=auto;html=1;" parent="1" target="X7Wxf1JwcU2MH8IQoCk9-1" edge="1">
          <mxGeometry x="0.0063" y="15" relative="1" as="geometry">
            <mxPoint x="119" y="1440" as="sourcePoint" />
            <Array as="points">
              <mxPoint x="184" y="1440" />
              <mxPoint x="184" y="1440" />
            </Array>
            <mxPoint as="offset" />
          </mxGeometry>
        </mxCell>
        <mxCell id="X7Wxf1JwcU2MH8IQoCk9-2" value="Content_provider" style="shape=umlActor;verticalLabelPosition=bottom;verticalAlign=top;html=1;outlineConnect=0;" parent="1" vertex="1">
          <mxGeometry x="86" y="1433" width="30" height="60" as="geometry" />
        </mxCell>
        <mxCell id="X7Wxf1JwcU2MH8IQoCk9-8" style="edgeStyle=orthogonalEdgeStyle;orthogonalLoop=1;jettySize=auto;html=1;curved=1;strokeColor=none;" parent="1" source="X7Wxf1JwcU2MH8IQoCk9-3" edge="1">
          <mxGeometry relative="1" as="geometry">
            <mxPoint x="542" y="1680.5" as="targetPoint" />
          </mxGeometry>
        </mxCell>
        <mxCell id="X7Wxf1JwcU2MH8IQoCk9-9" style="edgeStyle=orthogonalEdgeStyle;curved=1;orthogonalLoop=1;jettySize=auto;html=1;shape=link;" parent="1" source="X7Wxf1JwcU2MH8IQoCk9-3" edge="1">
          <mxGeometry relative="1" as="geometry">
            <mxPoint x="542" y="1801" as="targetPoint" />
          </mxGeometry>
        </mxCell>
        <mxCell id="X7Wxf1JwcU2MH8IQoCk9-3" value="Cloud&#xa;CDN" style="html=1;fillColor=#5184F3;strokeColor=none;verticalAlign=top;labelPosition=center;verticalLabelPosition=bottom;align=center;spacingTop=-6;fontSize=11;fontStyle=1;fontColor=#999999;shape=mxgraph.gcp2.hexIcon;prIcon=cloud_cdn" parent="1" vertex="1">
          <mxGeometry x="509" y="1352" width="66" height="58.5" as="geometry" />
        </mxCell>
        <mxCell id="X7Wxf1JwcU2MH8IQoCk9-6" style="edgeStyle=orthogonalEdgeStyle;rounded=0;orthogonalLoop=1;jettySize=auto;html=1;exitX=1;exitY=0.5;exitDx=0;exitDy=0;" parent="1" source="X7Wxf1JwcU2MH8IQoCk9-4" edge="1">
          <mxGeometry relative="1" as="geometry">
            <mxPoint x="486" y="1402" as="targetPoint" />
          </mxGeometry>
        </mxCell>
        <mxCell id="X7Wxf1JwcU2MH8IQoCk9-7" style="edgeStyle=orthogonalEdgeStyle;rounded=0;orthogonalLoop=1;jettySize=auto;html=1;shape=link;" parent="1" source="X7Wxf1JwcU2MH8IQoCk9-4" edge="1">
          <mxGeometry relative="1" as="geometry">
            <mxPoint x="458" y="1801" as="targetPoint" />
          </mxGeometry>
        </mxCell>
        <mxCell id="X7Wxf1JwcU2MH8IQoCk9-4" value="DB" style="shape=datastore;whiteSpace=wrap;html=1;" parent="1" vertex="1">
          <mxGeometry x="428" y="1366" width="60" height="60" as="geometry" />
        </mxCell>
        <mxCell id="X7Wxf1JwcU2MH8IQoCk9-5" value="PallyCon WM service" style="shape=umlLifeline;perimeter=lifelinePerimeter;whiteSpace=wrap;html=1;container=1;collapsible=0;recursiveResize=0;outlineConnect=0;" parent="1" vertex="1">
          <mxGeometry x="298" y="1369" width="100" height="498" as="geometry" />
        </mxCell>
        <mxCell id="X7Wxf1JwcU2MH8IQoCk9-14" value="Validate_URL" style="html=1;verticalAlign=bottom;startArrow=oval;startFill=1;endArrow=block;startSize=8;" parent="1" source="X7Wxf1JwcU2MH8IQoCk9-1" edge="1">
          <mxGeometry width="60" relative="1" as="geometry">
            <mxPoint x="457" y="1531" as="sourcePoint" />
            <mxPoint x="545" y="1484" as="targetPoint" />
          </mxGeometry>
        </mxCell>
        <mxCell id="X7Wxf1JwcU2MH8IQoCk9-15" value="return" style="html=1;verticalAlign=bottom;endArrow=open;dashed=1;endSize=8;" parent="1" target="X7Wxf1JwcU2MH8IQoCk9-1" edge="1">
          <mxGeometry relative="1" as="geometry">
            <mxPoint x="544" y="1510" as="sourcePoint" />
            <mxPoint x="447" y="1531" as="targetPoint" />
          </mxGeometry>
        </mxCell>
        <mxCell id="X7Wxf1JwcU2MH8IQoCk9-16" value="" style="html=1;points=[];perimeter=orthogonalPerimeter;" parent="1" vertex="1">
          <mxGeometry x="221" y="1530" width="10" height="49" as="geometry" />
        </mxCell>
        <mxCell id="X7Wxf1JwcU2MH8IQoCk9-17" value="validate" style="edgeStyle=orthogonalEdgeStyle;html=1;align=left;spacingLeft=2;endArrow=block;rounded=0;entryX=1;entryY=0;" parent="1" target="X7Wxf1JwcU2MH8IQoCk9-16" edge="1">
          <mxGeometry relative="1" as="geometry">
            <mxPoint x="226" y="1510" as="sourcePoint" />
            <Array as="points">
              <mxPoint x="256" y="1510" />
            </Array>
          </mxGeometry>
        </mxCell>
        <mxCell id="X7Wxf1JwcU2MH8IQoCk9-19" value="Store_URL" style="html=1;verticalAlign=bottom;endArrow=block;" parent="1" source="X7Wxf1JwcU2MH8IQoCk9-1" edge="1">
          <mxGeometry width="80" relative="1" as="geometry">
            <mxPoint x="447" y="1531" as="sourcePoint" />
            <mxPoint x="455" y="1552" as="targetPoint" />
            <Array as="points">
              <mxPoint x="256" y="1552" />
              <mxPoint x="383" y="1552" />
            </Array>
          </mxGeometry>
        </mxCell>
        <mxCell id="X7Wxf1JwcU2MH8IQoCk9-20" value="Validate" style="html=1;verticalAlign=bottom;endArrow=block;" parent="1" source="X7Wxf1JwcU2MH8IQoCk9-1" edge="1">
          <mxGeometry width="80" relative="1" as="geometry">
            <mxPoint x="447" y="1531" as="sourcePoint" />
            <mxPoint x="544" y="1531" as="targetPoint" />
          </mxGeometry>
        </mxCell>
        <mxCell id="X7Wxf1JwcU2MH8IQoCk9-21" value="Alternate_Url" style="html=1;verticalAlign=bottom;endArrow=block;exitX=0.3;exitY=0.49;exitDx=0;exitDy=0;exitPerimeter=0;" parent="1" source="X7Wxf1JwcU2MH8IQoCk9-16" edge="1">
          <mxGeometry width="80" relative="1" as="geometry">
            <mxPoint x="106" y="1556" as="sourcePoint" />
            <mxPoint x="128" y="1518" as="targetPoint" />
          </mxGeometry>
        </mxCell>
        <mxCell id="X7Wxf1JwcU2MH8IQoCk9-23" value="Play_URL" style="edgeStyle=orthogonalEdgeStyle;rounded=0;orthogonalLoop=1;jettySize=auto;html=1;" parent="1" source="X7Wxf1JwcU2MH8IQoCk9-22" target="X7Wxf1JwcU2MH8IQoCk9-1" edge="1">
          <mxGeometry x="0.0935" y="11" relative="1" as="geometry">
            <Array as="points">
              <mxPoint x="204" y="1622" />
              <mxPoint x="204" y="1622" />
            </Array>
            <mxPoint as="offset" />
          </mxGeometry>
        </mxCell>
        <mxCell id="X7Wxf1JwcU2MH8IQoCk9-22" value="Content_User" style="shape=umlActor;verticalLabelPosition=bottom;verticalAlign=top;html=1;outlineConnect=0;" parent="1" vertex="1">
          <mxGeometry x="128" y="1606" width="30" height="60" as="geometry" />
        </mxCell>
        <mxCell id="X7Wxf1JwcU2MH8IQoCk9-24" value="Fetch_orignal_URl" style="html=1;verticalAlign=bottom;startArrow=oval;startFill=1;endArrow=block;startSize=8;" parent="1" edge="1">
          <mxGeometry width="60" relative="1" as="geometry">
            <mxPoint x="231" y="1665" as="sourcePoint" />
            <mxPoint x="458" y="1665" as="targetPoint" />
          </mxGeometry>
        </mxCell>
        <mxCell id="X7Wxf1JwcU2MH8IQoCk9-27" value="return" style="html=1;verticalAlign=bottom;endArrow=open;dashed=1;endSize=8;" parent="1" target="X7Wxf1JwcU2MH8IQoCk9-5" edge="1">
          <mxGeometry relative="1" as="geometry">
            <mxPoint x="461" y="1678" as="sourcePoint" />
            <mxPoint x="381" y="1678" as="targetPoint" />
            <Array as="points">
              <mxPoint x="431" y="1691" />
            </Array>
          </mxGeometry>
        </mxCell>
        <mxCell id="X7Wxf1JwcU2MH8IQoCk9-28" value="download_content" style="html=1;verticalAlign=bottom;endArrow=block;" parent="1" edge="1">
          <mxGeometry width="80" relative="1" as="geometry">
            <mxPoint x="349" y="1711" as="sourcePoint" />
            <mxPoint x="545" y="1711" as="targetPoint" />
          </mxGeometry>
        </mxCell>
        <mxCell id="X7Wxf1JwcU2MH8IQoCk9-29" value="content download" style="html=1;verticalAlign=bottom;endArrow=block;" parent="1" target="X7Wxf1JwcU2MH8IQoCk9-5" edge="1">
          <mxGeometry width="80" relative="1" as="geometry">
            <mxPoint x="542" y="1751" as="sourcePoint" />
            <mxPoint x="622" y="1751" as="targetPoint" />
          </mxGeometry>
        </mxCell>
        <mxCell id="X7Wxf1JwcU2MH8IQoCk9-31" value="embed watermark" style="edgeStyle=orthogonalEdgeStyle;html=1;align=left;spacingLeft=2;endArrow=block;rounded=0;entryX=1;entryY=0;" parent="1" edge="1">
          <mxGeometry relative="1" as="geometry">
            <mxPoint x="347" y="1756" as="sourcePoint" />
            <Array as="points">
              <mxPoint x="377" y="1756" />
            </Array>
            <mxPoint x="352" y="1776" as="targetPoint" />
          </mxGeometry>
        </mxCell>
        <mxCell id="X7Wxf1JwcU2MH8IQoCk9-33" value="" style="edgeStyle=elbowEdgeStyle;fontSize=12;html=1;endArrow=blockThin;endFill=1;" parent="1" source="X7Wxf1JwcU2MH8IQoCk9-5" target="X7Wxf1JwcU2MH8IQoCk9-1" edge="1">
          <mxGeometry width="160" relative="1" as="geometry">
            <mxPoint x="333" y="1869" as="sourcePoint" />
            <mxPoint x="493" y="1869" as="targetPoint" />
            <Array as="points">
              <mxPoint x="288" y="1816" />
            </Array>
          </mxGeometry>
        </mxCell>
        <mxCell id="X7Wxf1JwcU2MH8IQoCk9-34" value="Play the WM content" style="edgeLabel;html=1;align=center;verticalAlign=middle;resizable=0;points=[];" parent="X7Wxf1JwcU2MH8IQoCk9-33" vertex="1" connectable="0">
          <mxGeometry x="-0.4917" y="-1" relative="1" as="geometry">
            <mxPoint x="-28" y="-11" as="offset" />
          </mxGeometry>
        </mxCell>
        <mxCell id="X7Wxf1JwcU2MH8IQoCk9-35" value="Alt_URl" style="html=1;verticalAlign=bottom;endArrow=open;dashed=1;endSize=8;" parent="1" edge="1">
          <mxGeometry relative="1" as="geometry">
            <mxPoint x="457" y="1571" as="sourcePoint" />
            <mxPoint x="232" y="1571" as="targetPoint" />
          </mxGeometry>
        </mxCell>
        <mxCell id="yzngNBAAONycKxXUEeyZ-16" style="edgeStyle=orthogonalEdgeStyle;rounded=0;orthogonalLoop=1;jettySize=auto;html=1;entryX=0.5;entryY=0;entryDx=0;entryDy=0;" edge="1" parent="1" source="yzngNBAAONycKxXUEeyZ-1" target="yzngNBAAONycKxXUEeyZ-5">
          <mxGeometry relative="1" as="geometry" />
        </mxCell>
        <mxCell id="yzngNBAAONycKxXUEeyZ-1" value="Web client&lt;br&gt;(Front end)" style="whiteSpace=wrap;html=1;aspect=fixed;" vertex="1" parent="1">
          <mxGeometry x="290" y="2377" width="68" height="68" as="geometry" />
        </mxCell>
        <mxCell id="yzngNBAAONycKxXUEeyZ-39" style="edgeStyle=orthogonalEdgeStyle;rounded=0;orthogonalLoop=1;jettySize=auto;html=1;entryX=0.617;entryY=0.958;entryDx=0;entryDy=0;entryPerimeter=0;dashed=1;dashPattern=1 1;endArrow=classic;endFill=1;" edge="1" parent="1" source="yzngNBAAONycKxXUEeyZ-3" target="yzngNBAAONycKxXUEeyZ-5">
          <mxGeometry relative="1" as="geometry" />
        </mxCell>
        <mxCell id="yzngNBAAONycKxXUEeyZ-3" value="" style="whiteSpace=wrap;html=1;aspect=fixed;" vertex="1" parent="1">
          <mxGeometry x="255" y="2601" width="166" height="166" as="geometry" />
        </mxCell>
        <mxCell id="yzngNBAAONycKxXUEeyZ-41" style="edgeStyle=orthogonalEdgeStyle;rounded=0;orthogonalLoop=1;jettySize=auto;html=1;entryX=1;entryY=0.75;entryDx=0;entryDy=0;dashed=1;dashPattern=1 1;endArrow=classic;endFill=1;" edge="1" parent="1" source="yzngNBAAONycKxXUEeyZ-4" target="yzngNBAAONycKxXUEeyZ-5">
          <mxGeometry relative="1" as="geometry">
            <Array as="points">
              <mxPoint x="588" y="2529" />
            </Array>
          </mxGeometry>
        </mxCell>
        <mxCell id="yzngNBAAONycKxXUEeyZ-46" style="edgeStyle=orthogonalEdgeStyle;rounded=0;orthogonalLoop=1;jettySize=auto;html=1;dashed=1;dashPattern=1 1;endArrow=classic;endFill=1;" edge="1" parent="1" source="yzngNBAAONycKxXUEeyZ-4">
          <mxGeometry relative="1" as="geometry">
            <mxPoint x="604" y="2783" as="targetPoint" />
          </mxGeometry>
        </mxCell>
        <mxCell id="yzngNBAAONycKxXUEeyZ-4" value="" style="whiteSpace=wrap;html=1;aspect=fixed;" vertex="1" parent="1">
          <mxGeometry x="538" y="2592" width="132" height="132" as="geometry" />
        </mxCell>
        <mxCell id="yzngNBAAONycKxXUEeyZ-13" style="edgeStyle=orthogonalEdgeStyle;rounded=0;orthogonalLoop=1;jettySize=auto;html=1;dashed=1;dashPattern=1 1;" edge="1" parent="1" source="yzngNBAAONycKxXUEeyZ-5">
          <mxGeometry relative="1" as="geometry">
            <mxPoint x="128" y="2585" as="targetPoint" />
          </mxGeometry>
        </mxCell>
        <mxCell id="yzngNBAAONycKxXUEeyZ-14" style="edgeStyle=orthogonalEdgeStyle;rounded=0;orthogonalLoop=1;jettySize=auto;html=1;entryX=0.431;entryY=0.035;entryDx=0;entryDy=0;entryPerimeter=0;endArrow=classic;endFill=1;dashed=1;dashPattern=1 1;" edge="1" parent="1" source="yzngNBAAONycKxXUEeyZ-5" target="yzngNBAAONycKxXUEeyZ-3">
          <mxGeometry relative="1" as="geometry">
            <Array as="points">
              <mxPoint x="327" y="2561" />
              <mxPoint x="327" y="2561" />
            </Array>
          </mxGeometry>
        </mxCell>
        <mxCell id="yzngNBAAONycKxXUEeyZ-15" style="edgeStyle=orthogonalEdgeStyle;rounded=0;orthogonalLoop=1;jettySize=auto;html=1;dashed=1;dashPattern=1 1;" edge="1" parent="1" source="yzngNBAAONycKxXUEeyZ-5">
          <mxGeometry relative="1" as="geometry">
            <mxPoint x="603.5" y="2591" as="targetPoint" />
          </mxGeometry>
        </mxCell>
        <mxCell id="yzngNBAAONycKxXUEeyZ-33" style="edgeStyle=orthogonalEdgeStyle;rounded=0;orthogonalLoop=1;jettySize=auto;html=1;entryX=1;entryY=0.5;entryDx=0;entryDy=0;" edge="1" parent="1" source="yzngNBAAONycKxXUEeyZ-5" target="yzngNBAAONycKxXUEeyZ-31">
          <mxGeometry relative="1" as="geometry">
            <Array as="points">
              <mxPoint x="226" y="2493" />
              <mxPoint x="226" y="2448" />
            </Array>
          </mxGeometry>
        </mxCell>
        <mxCell id="yzngNBAAONycKxXUEeyZ-5" value="Manager" style="rounded=0;whiteSpace=wrap;html=1;" vertex="1" parent="1">
          <mxGeometry x="264" y="2484" width="120" height="60" as="geometry" />
        </mxCell>
        <mxCell id="yzngNBAAONycKxXUEeyZ-42" style="edgeStyle=orthogonalEdgeStyle;rounded=0;orthogonalLoop=1;jettySize=auto;html=1;entryX=0;entryY=0.75;entryDx=0;entryDy=0;dashed=1;dashPattern=1 1;endArrow=classic;endFill=1;" edge="1" parent="1" target="yzngNBAAONycKxXUEeyZ-5">
          <mxGeometry relative="1" as="geometry">
            <mxPoint x="205" y="2612.1" as="sourcePoint" />
          </mxGeometry>
        </mxCell>
        <mxCell id="yzngNBAAONycKxXUEeyZ-31" value="" style="shape=datastore;whiteSpace=wrap;html=1;" vertex="1" parent="1">
          <mxGeometry x="141" y="2424" width="46" height="48" as="geometry" />
        </mxCell>
        <mxCell id="yzngNBAAONycKxXUEeyZ-37" style="edgeStyle=orthogonalEdgeStyle;rounded=0;orthogonalLoop=1;jettySize=auto;html=1;entryX=0.5;entryY=0;entryDx=0;entryDy=0;" edge="1" parent="1" source="yzngNBAAONycKxXUEeyZ-34" target="yzngNBAAONycKxXUEeyZ-36">
          <mxGeometry relative="1" as="geometry" />
        </mxCell>
        <mxCell id="yzngNBAAONycKxXUEeyZ-34" value="Video extraction" style="shape=process;whiteSpace=wrap;html=1;backgroundOutline=1;" vertex="1" parent="1">
          <mxGeometry x="282" y="2624" width="120" height="60" as="geometry" />
        </mxCell>
        <mxCell id="yzngNBAAONycKxXUEeyZ-36" value="Media storage" style="shape=datastore;whiteSpace=wrap;html=1;" vertex="1" parent="1">
          <mxGeometry x="307" y="2713" width="54.5" height="50" as="geometry" />
        </mxCell>
        <mxCell id="yzngNBAAONycKxXUEeyZ-50" style="edgeStyle=orthogonalEdgeStyle;rounded=0;orthogonalLoop=1;jettySize=auto;html=1;dashed=1;dashPattern=1 1;endArrow=classic;endFill=1;" edge="1" parent="1" source="yzngNBAAONycKxXUEeyZ-38" target="yzngNBAAONycKxXUEeyZ-49">
          <mxGeometry relative="1" as="geometry" />
        </mxCell>
        <mxCell id="yzngNBAAONycKxXUEeyZ-38" value="Video identifier" style="shape=process;whiteSpace=wrap;html=1;backgroundOutline=1;" vertex="1" parent="1">
          <mxGeometry x="546.5" y="2608" width="120" height="60" as="geometry" />
        </mxCell>
        <mxCell id="yzngNBAAONycKxXUEeyZ-44" style="edgeStyle=orthogonalEdgeStyle;rounded=0;orthogonalLoop=1;jettySize=auto;html=1;exitX=0.5;exitY=1;exitDx=0;exitDy=0;dashed=1;dashPattern=1 1;endArrow=classic;endFill=1;" edge="1" parent="1" source="yzngNBAAONycKxXUEeyZ-4" target="yzngNBAAONycKxXUEeyZ-4">
          <mxGeometry relative="1" as="geometry" />
        </mxCell>
        <mxCell id="yzngNBAAONycKxXUEeyZ-51" value="" style="whiteSpace=wrap;html=1;aspect=fixed;" vertex="1" parent="1">
          <mxGeometry x="21" y="2587" width="186" height="186" as="geometry" />
        </mxCell>
        <mxCell id="yzngNBAAONycKxXUEeyZ-48" style="edgeStyle=orthogonalEdgeStyle;rounded=0;orthogonalLoop=1;jettySize=auto;html=1;exitX=0.5;exitY=1;exitDx=0;exitDy=0;dashed=1;dashPattern=1 1;endArrow=classic;endFill=1;" edge="1" parent="1" source="yzngNBAAONycKxXUEeyZ-38" target="yzngNBAAONycKxXUEeyZ-38">
          <mxGeometry relative="1" as="geometry" />
        </mxCell>
        <mxCell id="yzngNBAAONycKxXUEeyZ-49" value="Anti piracy action" style="shape=process;whiteSpace=wrap;html=1;backgroundOutline=1;" vertex="1" parent="1">
          <mxGeometry x="559" y="2678" width="90" height="41" as="geometry" />
        </mxCell>
        <mxCell id="yzngNBAAONycKxXUEeyZ-57" style="edgeStyle=orthogonalEdgeStyle;rounded=0;orthogonalLoop=1;jettySize=auto;html=1;dashed=1;dashPattern=1 1;endArrow=classic;endFill=1;" edge="1" parent="1" source="yzngNBAAONycKxXUEeyZ-52" target="yzngNBAAONycKxXUEeyZ-51">
          <mxGeometry relative="1" as="geometry" />
        </mxCell>
        <mxCell id="yzngNBAAONycKxXUEeyZ-52" value="" style="shape=image;verticalLabelPosition=bottom;labelBackgroundColor=#ffffff;verticalAlign=top;aspect=fixed;imageAspect=0;image=data:image/png,iVBORw0KGgoAAAANSUhEUgAAAggAAAGhCAYAAAAEB0zYAAAAAXNSR0IArs4c6QAAIABJREFUeF7snQecXWW19v+7nTa9ZdIrwRAIELqARIo0QTqISkev7QNExWvBhlexXq8o2FCqKE2QLkV6DyRAeu/JZDJ9Ttvt+6333WdmMiSZmWQymejsGEMy55yZvfZbnvdZz3qWYRhGyFYvAydVRtXJX6bihEshUbT1lw59RUUgDMCoX8LKP32VtrnPYIYGIZuH2MAgWTOJaUd9geKq8fIujKH4vS8CEjczBIMAz/CpW/oKC1++nXy6Qb9WfQ3CKHhmLIU1bQb+QacShBBuY2QPhRtMbMxsM+bbD+HNe5nQd9ER7bxM02Tq1Kn88pe/5Oijj8YwhkZqT2Mnl8sxb948TjnlFNauXdvl5Wq0qjXBjtmUHlvD+G/vD+VmTx/5H/91mctm1mf17xay4eal+EFI953LMA2K4gG3/a6ajx7jYxvG0HjdwsgJon+TtdUz4N1FBp//Sguvz3QJfROMwiuQ+PUAEJKlVH70y1SecNkQQOjFNBWAYG5awoo/foW2ef/aJkDYd8YXKa6aAASYQwvvVgGCxMcN3d4DhANPJTSGFt2tDdcwDJHfRmhhZpswZz2CPwQQejG7e/eS3gEEh5Jjq5kwBBB6FdS+AITb/1DDKcf4WEPHri3Gtt8AgpxrYwIQhEE48TKMIQahx8E8BBB6DFGvX9CVQcgPAYRex62nFw4BhJ4itGNf7xkgmIpBGAIIvY/zEEDofax6emW/AQShG61kKdUnfZmKk4YAQk+BV6z3EIPQmzD16jVDAKFXYerzi4YAQp9D1qc3bA0g6ERiiCnJHUdSDO9nEOQV2+J0+/SD/Bu9WFKGRq53KYYhBmHbD34IIOzCiTEEEPov+EMAof9i2fWThgDCzolr4VO3CRAMSe2YOFsBCJIYGwII738+/hBA6LdBOwQQ+i2Uff+gIYDQ95ht7R1DAKH/YjkEEHZOLLf0qUMAof9jPQQQ+i+mQwCh/2LZ508aAgh9DtlW3zAEEPovlkMAYefEcgggDExchwBC/8V5CCD0Xyz7/ElDAKHPIRsCCP0Xsl590lCKoVdh2u4XDTEI2x26rb5xCCD0X0yHAEL/xbLPnzQEEPocsiGA0H8h69UnDQGEXoVpu180BBC2O3RDAKH/Q/e+TxwCCAMQ5K19iyGA0H/BH0ox9F8sh1IMOyeWQymGgYnrEIPQf3EeAgj9F8s+f9IQQOhzyIYYhP4LWa8+aYhB6FWYtvtFQwzCdoduiEHo/9ANMQgDENNef4vdDSCIG7Eyzy34FW9WY6W9irsbQYt5dOEqfG1nGPAONgahIw7K4jnyee71yBg8LxwCCDv3WeweAEF7kYeRg6t2aNjyLC78ayhrRMf6UHB12Pw9O2MdkKc1xCD035gdYhD6L5Z9/qTdDSD4as4b2IFseQG+pVocKItoWQtkwgfdeknoL/h6QQntyPylz6Hq8Q2DCSDIvSr7ZgWkZIrJAhv9KYus+L7vJphhCCD0OPR26AW7A0AwcNX4DQxbzWMrBN+0NutfojZ7NbRNArWrhJiGH419fbQIsAnU3AgwxTJeeibsBIvjIYCwQ0NyszcPAYT+i2WfP2n3Awgy0WWJkMVCbcmYoY1tmFjy38razdOLgroESJiE+ARhiO/Lf3vKHa57o58+B6/bGwYTQJCVU+5UTlEKGAk2inoamBKk3aiXxhBA2NGRue337w4AQbEH8ss0sHCIGTEcwyFJnGIjRcpIEDMdpLGcNErLhXnavTSZMI0b5smr3z6eIccKBREwBBoISN4JNMIQQOi/MTsEEPovln3+pN0NIIiFqS9sgRFiWR42LmWpONWVpZQWO6QS1vsaSclW6ROwdkOaFavbcEMP0xAmoX9XhsEFEKTJmSyXYbQAalLW932k46H8o5ALhUxNnwfOAL7h3wkgyL10vQZDt8nBDxAMQjNUTfsqwjLGO2PYs3gPxjqjqIqVU24WU2QksbHVePaNQAGCdj9Do9fCeq+exZkVLEkvZ52/jozVio+PGQigkLnQ/4P53xogFBDVALWf/Q8GCEL7Fg66epR25Nj7f8xu8RN3P4DgK4CQsALGD7f40MHjmfaB0ZSVxrEFNMjv0Io2f70pyokhE/g888oK/v7EItKBcA2KaujXKA8mgGAEIXEjpDRuU5GywHepT4e0ueD5IYZpEhgQ7AZNJHdHgNAVBnSMMjXdu8x5GYHC5nSsAfJV/eqOPHq/j9L3D/ldDRA6ub4u65+EydB9IATo1hpVHFwyncMqpjPRGUexUUzcjGEZpga8iknsEj0BwH5IEPjkDY80aRq9Zt5tW8jzm15mjr+IFjOt1gFZLfTaK+/vqlja/hViMAKETv3WFpY9Lezaqq6jMEg7R6deW7tvWF2fZX8trv95AEFoX8mNGZ4a/DJIA0My5070gIQC07929rX7AARD5Rtl0ahKhRw1fThHHTaOkbWlFCVjUS/1wkzvjJ0MWAEIWc/l8eeXcds/5pNxJRXR/7HdtQBBgiMNYwMcx2Cv8hgfnT6eAyePp7ooRhj4rGxM8/hbS3l24Trq2nJKmRCoxXVwX7sDQFCJrwgAqC1Ga+qUHkaBgiDEDPQGFMEEjQss2YQMtckJm6C3uGhsygcY7JSx2vWJDwaAIGBV6H5hAEwZmAYqhTDSrOXA1H4cVjadSfFxlFulKr2gYqeEBhJdHWWZ5/KnSjUKy6jSiHquS2rCJSAXZNnoNjA7PZdXWt9kbmYRrUEbnuki+iYzkAcSbIYMRKfQ12twAQQ1AlWqVe02gYxNT7Gqvm/hBwkyOZ+WdEhrm0lrGnJZnZ4UDYcd8ylKmZSkDMqKLVIJA8cSJjLAFGbH8BVLKZ8v8Za9TPp3WKEX5W92bK39jwMIWl3ra5AQWhFulaDKAi9KXb9jcPd1YPb19bsPQNBjrSRhcvzhozjlqElUlcUxLTs6QcjX3z8QFUAIA3Kux6MvLOW2BxeQdXfOorvrAYKNGXqMr3a4+viDOXn/CdQUJYhbelPKuAErW3Lc+MRM7n51EQ15yen2dcQM/Ot3B4AgaEDGmZq5ov8IQnwvg9vSgtfQSNjSBpk0eK6KueHYEI9hl5VhVlRglVViOAm1wCrhveTKjUCdbk2jwIjtnNjvaoBQYFBEU6TFxgZJI8VByX2ZUXoY+5RModIuIU4MK9BphDwujW6TYgUa3EZagjZyoUfoQ9ywSFoOxXaKSruKarucYrsEwxDoECjarD1Is9pdwyvNb/F8+g0WustU2kFJerstIyKI7Os1qACC0h7JmJIbsxQD25IJWLHaY8kym5WrHFavybFug0d9o09Lq086ExDIGdYIiScMSotjVBbbDK91GD0yZPRog/ETDCZOtKku83DIK1CgcJsle5lAEdGC7Xgq9z8QIBSwbqdYTBYFOxDmQNS5EmZ9ouh+FRZL9Yp+OP0NfoAQ1SWEPrYd8MF9hnH+KfswdlgRtmGpSa+UiVsBqTIv/DAg7/o8+sKSf2OAEGAEFgkr5OyDRnPdWTMYXpTAkmoFpdyUU0OAH3q8tHgD37n7NV5e1awm82C/BiNA6K4lkNgGoUeQy0PDJtwli2lfOBd/3Tqspmas9jaMXJbQ93Spnm1ixhzCVIqgvArGTKRoyj7Y4/eAsgqMmIxtWQXAtPpfUDvoGAQ9QokFMarCSk6smMGHyg9mojMGx3TU6V6qGNqDNpbnVvFOy3yWustoDFpoClppMzJ4wtAEWqwcMy3iVpxys4xR4TD2LdmTKUUTGO7U4IRJtVGGZkCL28K7ufk80PgUszLvkSNL0G3d3d0BQqCERj5536SpuYw3ZuV45sU25i/0WbUa6jblaW/1cb0CC9O1hFTe25mQFdagOGVSWRljZK3DpHEmRx7qcORhcUaNyJOI5xRjI+8ITRdDVY3t2CnkPw4gCDTzlEAsIBnkKLFCUo5NDINcaNLkW2R8IYvlEkFe5+6nF0v9FdMsZM+2f4kf3AChcN9SgZCnvMzmko/tz4wDxxCzwRJaVomMtk5h/ecABL04VqZsvnHqAfzXkVNI2FaUQhDKNeLAjRzLGzNc9/e3+Mvri3Ej8LD9I2jnv3OwA4QwCAhyWfLr15F7522yb7xCuGw+VlM75PMq7WMq2lWX6KoDaSQQ1bS6SRBLYVRUYk/aC/Pgg4ntNw27ajimk0AwsEo87KRntasZBJXqEswU2owLR3NS5QxOqDiGCrMIIb9806DJbWVhZjGvtc1kVvo91rrryZo5/CgvoVITkeJWrY5qTTDUnLBxqKKIifHhHFyyL9OL9mdUbDQpK6nodtfzWOwt52+bHubV9Nu0GK2bDWqZO30lyQcLgyBjLedb1DU7vPZGwGOPubzyeoY1dR6ZbEAYyH4iG7hOxupkhAZr0faj8z5RPDu/Fqr1N2lZVFaYTNvH4fjjS/jIhy3GjmonYcq+Ffmv7OASMXgBQqTS1OYcWsAhevjOyHXJF24jCOqdaoGWiAnFJXnikOFFHnuXw741CcaWOiRNk5Z8yPLmPG/V+SxuDqnPGeSVGl2LcGKmT8oBNwxp9mIYoWYdVM37dgiaBjdAKATVU4nJqRMr+fTZ05k8ulzFUZ2OOzjyLvVKXdS1hWGfy/s89uISbv3HfLJ5ya31dcr3PMp3ZYpBs9ImNcUO137sIC49bA9ijuQDReZlKYCgsuGGx+rmLNc/+Aa3vDSfvCkIf3Bfuxog6DGkFzu9vRs6/S2/fQ+/cSPuu7NpfewR/CWLibe1YgvdHZrq5Cv5b0W5ymQzhEEQpb1eDmRTlGVZSnDVRmSa5CXtsN8BlBx/MsbkKTglZaq231KPSrMJ/Tl6Bx4gRAK3qAxX1kZJrg63R3BGxQmcWH4kSatCxcMLsqz01vFsy2s81/Qi68L1ZAyhs4UB0M9CrQGFtbVwrFKbuo6VMIhKzBiiSiGn2HtySuWxHJjamyqrHIEQXhiw2FvJPXX/4Ln2V8lY2ShvL8Bjc4DQm9jvSoAg/LSMEwlJa5vNe4sS3PNgmsceb2flmgAvyOuRHEg6S2+/qqJJ/Vekv1AxlQNoNPpV+kfHQXRgeho4GOoffQVeK0tifHB6ggsuinHo9JDaihBH+VDow3CnHLRv682gBQgSPNlrpG58WNIn6/k05qKacqG3O4SEPQ2ZADMQelfJESlzPA4daXH8+DjTa+KUOiL60DSOOvEGsDHj8fLaDP9ckWNevTwMm+FFBnuW+VQUWby0NseClgRG6CuGPZCHtR1kzmAGCBqSSURE7BLjIweN4oKP7UV1ZTJCp1q4qEwClcgzAmCF41kBC6sUg9Yg3PLQPDJ5S4GL/r52KUBQpyeD4pjBpw6ZyHfPPISyhFZ565GqxZry/7NXNXLtPS/x1KKNuDshDv0e18i/QTYFM9uEOesR/HkvE/ru+yCxpN2mTp3KL3/5S44++ugtpun6+vOpOakAmLAAevHNyz9mcoTLlpJ+7nG8l1/A3LhRzfPCyIqGZpeSBFl8OwVwGtRpfYHe6jSNrhZrM0Y4Yhz2sUeT+NBRWCPGEIvLa+VpSvqxr3ex9dcPJEDQmiBJn/jKp6MAvKr8Ss6sPpmTKo+m1qpUaoBWr5XZ7XN5pOlp3s7OJW1mlPeJOggprcKWxAHR17d0XBKtqBmq32PCERxb9EGOrjiCMfFRJIwYXhCwOLOMO+ru42X3bVx8JV5UUKOLWEetsz3oEnYlQBAthRc4rG8weewpg7/d5zJzdivZjK8qmApwV+/cXTSx0T/ooRUxXZEbZRcOu8tAilKXkYrOwibh2IyeYHLWaUnOO81iyjgXWzYoM69M6tR438z9tudxPCgBQmFyyyCsiQWcsaecxHzum5enwXPwFECQyR7R3Fu5T4mFGfgEhkfeMKk2fY4fa3LmlGImllnE5Xwn+5rKM3bsaKpevd33WdDoM3NNHjtuM7nKZnjM5IW1eW6e49LsaVENpqUcwv79AEJhbXUxzBinz5jIuSfuQXlxrGPh11uelDaqKn98KWtypbypM5xBKP/m8+QrK7nr8YXk8g5mHwdpz8NYn9A1ypY6bJe6pa+w8OXbyacb9Ns7ELj+qxlLYU2bgX/gqR0MUG++z5ZeE8rmiZyUAvYZVsL3zzmCwyYNpyQm01afOeUk1ZjNc9tL8/jVP2ezJt2VUtze77zz37erGQS5Q/HfEHW9nPSFDndz7fhz5pK+/16Y9zZme1qBA/lZCynB7mI3fTrrpvnoKMnVcbQCPadFEe4aFmFlNeaxx1F69sexqypUbrentFpfn8iAAwTlhChAKMSzQirCEk5MHc151adQHavCxqLZb+H5ljd4oOlJFger8AJXzW+1dUXoSISgfb5CS/kk2JiUkOKQ1P6cXX0SU5xJWIZFLsizKL+KG+vuYI47n7yRiaqDOrfIwQ4QPN9g5foYt9/j85d72lm11lUHpK76tT7HrRdvEL2BpB3MGFSX2xz74QRX/1cRkydkScZE8eiqg66Au75cgxIgqEVB5bACpleFfPkghxFlMf72ThMPLPLZ6Inlpy+rvBbKbe1SwhkPz/CwbIOjawI+N72MSZVxRRva0aaxmd5QTkyBr6xElSxX6nkJ8HyfWZtMbpyVZn5TDs/L45sJPEN+hoJhaN+CP7gZhIg+NHJYVoyzjpnE2SdMoiTpdCwUnqIpQ+wwJOt7rK5PM3tOHelMXpeNGbIxCiUZsnBZM7MWNRF6Uk66eSlTXwbs1l67awGCgxWKnXRA0nY4cnSCL3z0IA6cUEvKEshi0ZgNuf/1BfzhuXdYXJ9V4LajCLw/ArCTPmNXAwTFIIQhlm+QN0TdnSWY9RYtt/yJ5Px5uCqFK+V1m8+9LQOEDl4hAo2bVygo1tIQtlF0CzZuqhzzuBMp/8SnsKrK1camqNq+TfNtPpmBBggyTxwfXEusjmMclTiIL466hBqjktAOFch/tu0Vbq1/gKXBGsTTo1AA2vVGtkc8KPSMYh6UC2tAPEhwVOxQLh5zDqOcWpWO812DF/Nv8duNt7LWW6eeRdc9bdACBMNQAHZDs82Nvw34423t1DWK46yc3nXp/M69IkZBkZkGcdvm6MMSfO/bJey/VwZH0S6S1ugbsBu0AEFtzmHICWMtvjQ9RnXCoT7n8+CiNA8u9VibFaSvlfRbahyiKUOBEZ5UnFLruFyxfzEnT0iRcLSmQL3ElDNBJ8hQS4jUkOptUHkluJIja8nz4MJ26jIBqQTMbjBZ1RiSN+JdJlDfFKODHiCoPGIey7Y565iJnH385M0Aguq7IKe2wGdja47bH3qbF2ZuwlW6DU2TCbhSdGYg6RsLW06CmpHv12tXAgQCYZB0RbhsIFLNUF1ksNfIMkZWlJJxQ5avqmdpQxtN+QBPUYuRTD7K2ypasRt3LdBC10936pY6KEI1UCOBU0c8u0/+HQ/yYAAIgQL6BnmvDX/Ou6TvvANj7hxw84r2ls2qM7UQ2QJrek8BsdC2MWxT/VVFSAajF2AICxjlgXU+XfK14vRp4JfWwNEfofTUszBGDFcnM1vq9OVD+jbNBxVAcJX2Qm/6k41JXFJ7Hh8sPhDbsMn4aWbm3uGmNbezJmwkY+WxQ1fFV/Q0BUV9GArTUtjy9Kjv1QYYGlrYGPkuiLAxESQ5qvhgLqj9GKPtMUqT0Bg087f6h3io+RlajOZIv6MngfopejgFD2SKoSAsFM1Lc3uc394Bf7y5mVXr8hHzUvDf6DIM1CAsVH91mbNdUg5dHLzeZ4jU+UmReYXSGRTMLCQFJt/TJp60OP3EBF+7Is7UyQIS5NDbtzVh0AIEqRawwpDTJtlcOT1BpSP0VEhdxufZ1TnuW5RhZZtDPjBVDbS+b00QyrZkKhGIqSoWxB/88Mo2rjmshinlMbUAdIRpM4VodLBQf4ijhf7MvBdQl/VoyPo0uiFPL8/w2HLISG8BJXPu1fR430IxuAFCIRPmY1k2Zx07nrOP/wAlyc4Ug9o8IhZhQ0Mbv7tnNq+924AvC7rERPQZkQJH/70Qp76h2N4giV0JELQSWcabVHzIyUz8IQIcM8C2ZHyKmaIAA6OjskHfk5wsxJNDpxsUfa0GcgReVSpGRI56R9LnX6XOi4Sz8iyUzE5Rxp0EepQL7pgTvYngll+z6wGCeBoIwAzJLZ9P+u6/Yr72CqTT0Ror81SDK12lEOCbLlYsSZAqgdoR2GPGYldXY0lZox8QpLN49U0Eq5fgb1iLnUlj+B66+Bz8ymqsGcdR+tHTsYePVr4JWiu99ZLe7Y3wQDMIAtelpDtpJ/hYyYmcV3UqFU4lQegyJ72Q2zbcxZveQjWHpRQRXNVzodysotwqEy6VulwdLUZaAa3Q9FRpotKo9BSEaD/r1HxoIWOFVcLHyo7l9PKTGGZXKdbg3ewCflt3O3PyC9QhQ9Z+ebaa9d12BdlAAYTIhktNzKY2g4efSPD9X9SzerWP60Z6A/Vzd71EU1HoUSO3r3UzBe2hmuNqg9c7lAZDYuZXEOgXPqugA9Ff1w3idJ8LvQ/q6oeaKpsLzy/mi5fAmFopu+4q9O9ZkjCoAUIcn1MmmlxxQAlVjiyuAmV9WlyDuU0+Dy7M8+rqPM2elJRJwAq340WLraObCvl5PrOfwyf2SlEdd7adltjsYWqTiyAQ9alMjIAHFme5e75LvRvTD3AH/BAGP0DQwi3Ldjjr2LGcffye7wMIhUx6XX0rv7v7HV5/r1EDBFUGqev/1eYXAYSe1pDt/fouBQiKSXHUBmKELo6IYrvqLAoqZVUPZilRqz7OymongELK8bwucmY9zVVzHKHPFdCV92mU4IRZEhaUFZeQtC0FYFuyedpdD0/leYVVE4uKAgDp26mh6zMYDAAh7/uQydPytz/hPnQvsbbM5pJgdcItLIwWmaIUiYMOpeiAA7D2mIxRXo0RT2I6wmWJ7jaAbI6gfj2ZRfPIvvgC5sJ3sbI53LJhOCefTMlHT8Epr8UUU6X+VCV2G+ADCRAUyJTNyXSZEpvMp6sv5IDk3sTMGJu8em6vu5/HW56mxZTkoa5eirkm0xPTOLn6RMY4w2kNMzzX+DqPtT9JNswpPYOU66rkS5/pa1M7N5oBk6yxXFJ9DkeVHq4snhv9Zh5oeIw7Wx+mLWiL4LF2aYye4laXioECCAqYhjZeYPLmHIOvfKORme9llA5Lj8YIMnUnCSLgHpl1FhSynWbL6vWWBgpKNyNrxeb6GcWlKFtGtQupWMhhQ196oVDaMNtiwhiHH32zhlNPcHEcEX7qo0ZXALK1YA5agCC5EifI86GxIVdML2FCkYlnW1iBcghXxhwbcwEvr8nx93lpFrZYZIjhi889AhACDF+3Cor7OX54dBUzRqFyxNvULXSPlAijfJ8NGY+/LmrRGohcHENK1LZ/3VXfZTABhC2KaNSBKcCy4px93FjOOX5PipMaGGlr2sIvWL+xmd/d/S5vzmnEUymGCBbrQrLOqMoEVx4SOxi8bs9pVwMEEQkJrTeyxOLYvUYRi3Xes8qbyngMYdWmdl5ZtoGGnFQohSTjJoeMrWavqiL8uJTddV6y6bk5l3dWtDBnXRuO6TO23OSE/Sdx7P6TGV1ZQsyEXBDSmPGZs3gVT74xj5mrWmiQEl1CbEvOgHrB2h4wu6sBgpwmA9fDnfUeTb/7GfEVS1RqZbO8tFim+yFezCA3chwl551H6pAPYhaVYMRiirXRZ6ooT1tYHgMXL58BAQqPPk3jG29R8qHDKfnoR7EqqqNeA/07TrsvLwMKEJT9tLBa8LHkCVw+4kKKzSICP89r6bf4Tf1fWOGvxPBjhGZWMbB7eGP53PgLODA5HUfasxk+i3Mr+e6Kn7DarMfyQjwF/nUqsS+XvNqXFJDhUeybHJE4jC+OupRKo1xpm5bmV3Lt6l+x2lxLYHqYkspTa0shBbzl7zZQAEGBrSBPfVucX9zocePNGdrSOTU+TctCzo7Sj0IOmJ2XqGVi2uo/cvM15cAgTLef0zU7Bd9rw8AyteYrEKFoFwCmdW8igRY9l6rz0aBC2VXL/4QR8wgsg5gV59jDHf7vZzWMH9mKYUbfW1I2wbbdFgcxQBB6xWdiRY6rpqc4YlgMU0a2skSWYATqpJr2fFa2Bry5weOdjQGLG13WZkMyQs0qIwqI+Xl+cVwVH6yFuGWr022vrxDyns/Ta3L85I1m1uccwsDB2oaDYG8/e7ACBDkwJeIWlq1PoKblcNqMsZx29AcoTsTfDxBC2LCphVsemMusBZuUqKzrJX9zPZ98Tk4m4oMgg75/F95dDRDER17ozw+OLeaGT3+UyuTmY0yTgAb/em8lP3jgVRa2eIReQHWpxZc+sh8fP2hPYnHti9AZvZANbWlu+OfbvDh3NcfsPZYzD53C1OEVVCZi2KKliTZ/NwjJuh7rGtt4fs4q7ntjCa8u30TOENPVqK9AX8Z99AB3JUBQ3ztwCdJrqL/tp4T/ehOr2cAKNtdraIt0G2/v/Sg64wyc/Q/CLipWJdIqnkp7EPkh6No+BTCUhkZSPJ6L39BKbn0dsWGV2DU1WKYAvk4nzN7O6b6+bkABgipa9hht1vKF2os4svhwDNOi0avn5o138c/WV8iQ1rbzhktxUMrHK0/n9MrjqbBLorEZ0uy3cuP6W3mq/SXcIINviHyzb+BAPkxSv+Co98pmOSIcweUjzufY5GFqg82Eef5v7W38q+1l2u1mTAEHqvKkWzVKt6APFEBQzHIY8MrsON/4XpbX33LVJi9OkmNGJhg/xsR2lJS74ydU8MZzWLPGY9kql3jKZMJo6WdjsXRFmuaMdK3QWqbihMmUyQkybSFLVrWTdfV9y6guL40xYUKS1haXNatcdWAWvFBUYpFIWDRu8shmXd10y7CpqTS57psVfOosg5gjInJhEiQVLwe+ra/FgxYgKOoJKHIyfGJPi0unFpGKFWqRNWeraRydm0oHJhszPosb8sxv8lnW5rOp3VPeCflsjqvOr5G8AAAgAElEQVQPLefIEXHlPrVZWWNPMzqEjOdz37I8P36tlbxoDkJbNSja0T1usAKERNzkmMPGMG5EMVIBKpN10qgSJo4qJ2brTayDQYieQyabZ+7SRuoa0yrn3nWny+Y9Zi/cyNvvrcMTdK3aPffvtUsBghJmWzgEHD2+mNv+3xlUpsSbs6vUSAfl0VnL+NrfXmFBU16dLGrLHL550r5cfPhUUnHNznQsJ6HHqtY0t/9rpuqO96kZBzKqslgV1SqIHFG7ahYUQFkY0JbzeXbBGn71yBu8tLKNvAh+JdUmzI3SgRRylT0/g10DEPSgUskpP41b9yT5F75L/vVWvMWlOG1iUqbvQjWqiTm4Y8ZTctFlxPc7SKcTZOBGqdhCTFXZcyG4igGLNB3CUkRbnOrlEAEKxTvsxPSC/FwDCRBkjkhF1xHxg7h6xOXK0VDq9t/LLeCHK29grb8RX062kYPseGscV9ReykGpaViW5M714MyS45mWF7i57i7W+xvxlCFY35dDKXlU2gXlkRAQD+McmTyIq0d+hhK7RBHmL7W8wW/W38Fqczm2AITohLytkTtQAEHi2ZIxuO0ehx/9vIkNGzXgHFZh8l+Xl3PCcRbJuLACBdJf/0fejfHqmwHX/bCJQw9PcsG5ZZQkYtx8ez1PPJslnQ2JOwYH72fyra9Vs2ypzy9vqmfx8lDZtTuWwSknlXDJxeUsXJDlD79vY+U6j4qakIvOL6dmhMVf725j5sw2PEmnCddgw3lnFPOT7xVRW55VQkZhMcxADny7IUAQiK9uzQjZpzjH1YcUMb1GTI0ErXahqKMJrMZuEJD3A9J+SFPWpTnr0eYaZPMhE6stRiVt4pbTN4BASNoNuHtJnl+83qYAgqKM+4EmH0wAQaFWJTqE0pTNFZ/cl4P2HkEsWmiVsLPLYqkAQlfXxOi9HRM34oDlmWxsTXPPPxfyzxdWKFGpGTlP9rw99f4VuxIgqFwklhqVx4wr4s6rTqcyGSvUH+hNP9IbPDRrKV+96xWWNGbUBlhbmuKbJ03j4iP2pjgRAYTIgUpKzuozORau2UBNSTGTasqVYFSLPeUUrYWNm01vSYkF0JzN8vyidVx79+ss3CTNdJTrmBYxqff17sQ30ABB/VSqLEw3Xwpz68gs/Rnx9bcTrDfIzi8i/14RRmupmu+2GZAbNpaiiy8ndvjh2IlSvVlZvVTW936I7ZRXDjRAkLFzTvmpfLrmXIrMYtq8dv5e/wQ3N9xL3sjiW77aiENi7J+cwpXVF7NnchKWZXbMd9EVLc4s4aa1t/CaN1d1JuyCxbY7TvIZw4JhfHf81UxJ7KEOEmvza/nBmpuY7c6OqlV6/k4DAhCi9W9NPfzPzwPuvLuVtjRYVsDIKodrv13NiceGpOIecccnZrv4nknGS5LzDN58N85VV63mJ9fXcswHA5KOweMvOFzzzQ0sXe6TSplccn4RP/lBkvkLDL703028+FqAG2aJ2wbf+XoZn77IYMGSgO/+IGDVGpfLL6/ivFN90h5863/SPPhAC/m87KJaAzZ93zg3/qKSA/bK6m6Qap7tpikG5WpmhpQlQmrtHGOLTD63fzFjS+OkLH0S0rmWzksvZlIeWbDw0Sc7RT+aOUVRiTd4XxgEhRLdgDvmZfndW1lcKZdS/u473ilr0AKEIpurCgBB0joRY1CIdPf+FIUNUHLcm+XJJFJ+wMr6Fm596D1enbUJ0ZttTy68p1Vn1wMEsZgJI4BwBlVJcdfsHJ1bAwjDSlJ866R9uPjIfToAQiGeUhHhSe8Q8ZowI1jc4bkRRUSas3QFXKqroeQsPRrb09z41Dxu/NdcNuW0yZCJGKbIxOldmm2gAYIiDlUZnksgG1XLTLILryHW8poWvKbj5BeV0DK7FGdTCaadxDz2FEo//XmCeErFSfLhGkT17h57Gls78+sDCRDkPlKk+PzwCzi17DhsbNa467hh+Z95MZiFL2oVaTEcCPsSV3bI/6/qAvZITlAsYidLBRvzddxc9xceyryAH0SOhzsYKAHMRWExn6k8n5Orj6bYKKItaOXn62/mybbnFGTUSpJtpycHBCBEiY4FK0y+cHUbL7/h4roy7kKSMYcDpyc4aP8k1ZUBR88wmb6vz+o1Nn+7x6exzWDOApcg6/HbX5czrDKPZfpsbInz9W+nueeBdpJFJpdfWMwPv22xYJHF1f/dynMvB+QDMT4K+dG1RVz6SYeFy3xu/L04mMa58Pw4Rpjl0adMfvzLVhYsyeJ5EjMNEEbVOvzPtRWcd4b00pHy1ahyahvPbdCmGELfV/T2seNCjhsjDS9chscDDhpTRnVSTlEFMUYXgBAtLvrI1lGlqP7qKcMKqbK1e98LIKI5N2Y9bprZyv2LTXzbVIIZ3R56x/Logx0gHLz3SGKO5CO34z6VRYI0JAmYu7Ke3/39HeYvTWP6Zm/3pj4tN4MLIJxOlZSD9gIg1AhAOGEqlx61L0URgxAN30jVLB4AUeuBMCCby5FVYmVt7ezYMd04q4NJ88XbS5t8BXleWtLIV+58jnfWp8mr5ITkHxUF1qv4DjRAELspVeKMpxr5+BvuIVz2A2KZlfimesoYroO7poTsm0UE8emkLriK5HRRv0cpR1MWal162vXSZbn9c3WW7O7Y5w0sQDAYRi1fH3U5BycPVEySdFO8bvkNrLLWqzGjVPOq10KcabHJXFVzCXul9oias2kmTJithdll/LHuTl7OzVaHsp7P9T3HSRgxx4hzcuLDXDLiXIZZ1fh+nps33slfmx4lY4qyV/c92daKNFAAQdQFs+bHuPiyRhauAN/XOX+9N0gVkc+I4TG+fk0lF3zc4PWZJhdcvIGGhpDSUotvXF3J+R/Ps3adSSJpMGp4yF1/tfn29fXkfLj8wlJ+9B2TBYtMvvS1Np59GVwBCPGA679VyqWftKirN1myMsnUvQxS8TYe+Wec//tNC+8sCHHdnCq7Lizf5SUWX72ynKs+F8Mxs5qR6aF0d/ACBCUwNDhuTMhVB8SoEdFXiDKhkTSDamXZbVTqya/FYF38TyKdgqyqUb16T/tdtIrolFvIihaXn7xcz/Mbk6q9sT6J9W6B3da0GEwAQS+dWtRZGjEICiCIZqOr3qKn2MkNd2iIQjVp3ly4gd/c/Q7rN0opn6QY+muZ7goOd53Vsk4xCIPgc8y4Yu688kzNIHTrBCo7ffcUw7YAgj5NSyvpkJacz7z1Dcxcuo769hy2ZTGxtoIj9xjOiOK4MrPS6QMdfmU7HPisakrzvftf5t6319KmepnLJiAnip4X7AKToT5rgHoxCF0tIhZJMbhuC96qn2Gs/gOO26LrvEPxldDNbMJNZeQT5+LM+DKxytFa7BbFoNBYqXCXAjpasz5rGsT1U8/ryLOnd4Ho0IZo5VNNicnwUgNbe7X3+jO6v3BnAwQ1qyMxjKyLk63JfHPUZ5jsTFIW9C9kZvL9Vf9Huy3iRB0/td0bDqONWq6svZQPlhxAXJgrMToKQxr8Ju7b9AQPtjzGpqBFxVGqdHbwvNSxdh+c2J8rR17OOGe07Lrc1/Agf2i4V3svKFp8cAAE4U1eezfJJz5Vx9p6mXhi3KWfsMoSmjBquMO1Xy3nwvNMXnsr5PyL62luNpk83uK231cxbEzAX+7OEY+ZnP8xgwXzQ77xgwxzFnlc/Klifvxtk3mLDa76WhvPvSS1CTmSsYAfXlvCZZ+0sW0TL7AwfYOZs02++u1m3lmYI5cXga9OLxSuVBI+e2kx3/16CQkrh63EYtvW0g1agCDGKEI5TSuHrxwYY/8am7jkfdQxQXtKb8HjaLsnascbJWaR0jlQaDrk7bo833mxjsX5Yp23CRM68L1cZLf2Qw0ugKBLGmXMFADCIVNHEpOUSiHQvTkmdPNo9wOP595ey01/nU1bWpzUCiK5HX9Um50Od2EvBgIp1VJGsQog3HHl2VQrgNAFwGxFg7A1gKChrkxyj3TO4+n31vCrx99gTl276iYqrEFx3OHSIyZw6VH7UV1WhG3Kxq+ZrUIuvzmT57dPz+Yn/5xHYy4f6Q+ExekdSBtoBkE1tVL/kxLPdbD4W5h192KFWuxVWHyVMZJZizf6y1jjL8F2SvV5QcX8/RMz9AMWrMtxx/NZ1rXq8lztS9/HSSyn5RCO3MvmrEMSFCdE9KxL0bbn2pkAQS1lXW5PSgRl8/3qyMsZ5QzHDfM81voiP1l7E4FV2AokLnoBdEKLcyvO4BPVp1NpiebDwAs9ZrXO4Wcbfs8qczVBYEVrsVKMbE8INnuPxHaPxDj+e8T/4wPxSWqjfbzxKX6z6Q4NRiLf3MHAILihySuzU3zi4nWsqxc3NOkWGknno74gBYBwwcfhlVlw/sWN5LMO551SxPXfM9mULeKHP2sknQ75/lcdUgmPn91gcM+DOc4/N8FPrnWYuzTgS9e08dzL4IU5xO3+B98RgADxmFg8mwQ5k9lzUnz66o0sWu7huX6ke+p8JsmkwWcuTnHdN0pJWnksARA9iO0HLUAQZzNB/aVOwMX7xLhkrxiO1I+Kz0FEj/ZDpeH7B7RyRpKyKV2fK7Tbw0uy/OjNdurDOPHQwwpsPNEg9PYYtpVpM7gBwjQO3meEAggdVLmibXtYUIXa7nLlvZCHnl/Gn+9/By+IqQVrS97uO7qy7NIUQyA6FwPL8DhmrACEc/oFIKhSXs/n7RWb+P69L/Hk4g24kcGSqPTlyUwuM7ju3BmcsP8EYqI0V/bj+hnJ5p5xPe5+YzFfu+d16tKZqIph8AIExWQFoWrq42VWwfxrsBoeUZqEToAgXIGFkZhAOOlarGEfw7SS6stbS4dJl9ZZK11+82iO1c3SYE358m3Rpn1bY1H8FmQPOHxKjs8dl2B4mdW3suluHz7QAOHokkO5atgl1Dg1pMMMf296ml+v+xOhVWh0pcXKcpPCMEwJJ/G50ZdzSHI/dSQWH4Rl2RX8cNUNLPaXqBJHSf3IwcnZQXxQePYTEmP5xogrmJqYrJjgp1uf51cbb2Fj0Ky7evawCg1UisEPLWbOTfKpy9azdHWAgNBCn5lC47AOgHA+vPK2AIQGksk43/96Jeed0sbKNUlu/kuOljb4/EUxJk10ufch+Pkv03zkuCJ+cq3N3GUeV1/TxosvS08gl1gi5LrvFCmAEAZFtOVjlBS14eU8/nhbCT/7dQMbNwlNFnkqRGNODn5Xfq6U/76yiLiVVjYC2o586yN+0AIEK5DNWUqzTPar8rjywBR7VySISWmXsDmiwhSvg542rD7vPDoHKp8ujZ6aXZ/fvdPOXxZBTmxKxUpXkQz/pgABg9KUxRXnT9NVDLaIk6LWAeJWGW0+3asYpGRPWJ/uoKkt63LX43P5+1NLMUINEAoVaH1+NNt4w78bQJAFRoSGmazHn59fwPWPvcX6vK8aienqO53iqohbXHnsND53zFQqipIRQNCBks8QF8JH31vJFXe8yJrmdjWfFEU7SBmEAvMhS63fvpRgztVYLU9hCFiPLmVQI86SyWkYe16HXTED04xHcdnyaieGS7NW5bjh0Qyrm8RhFWy/r4ZdUmYW4hoO08e18aUTU4ytcKKKpu0bzQMNED5cfChfqr2UGqeKdJjlwaZ/8esNf1LraUd8o8p9w/JI5eMcVzKDi2vOZIQ1AtOyyQZpHm55htsbHqTercdXvhLStG37YtD1+wqrMzY2km+NvJK9Enuq/Mgzrc9zw8ZbqPObdRdflQrZ+jVQAEEs1hcsj3PpFU28OTunTu3dmeXuAOFTlzUob4OffDfFvnvlyfsh2WwCP3QosnM4TsDcxUl+fkOaMWMsfvgNi/nLQr56bZrXX5V9Jy8Dl2u/VsJlHzdZujzkvocdDj08YMbBLmvWJrn+f/P8/bF2Wlp0KXVhzR5ebfO9b1Rw4bm20iDofkS7JUCQASAMgq10CCnb5fBheS6dVsLE8gRFqoghUG6G/a9U1h0KFWHme8xvdvnFzDZe2yDuYvL4dYOc7t3jtmdqDEoGQbwn4hYXnrIHe+9Rq3oJyFWSilNeGtc514IPQpcyR2lp2tjcTkaMxArClxBaMjnu/ud7vPZuE9L8WBYSZTLVz9fuDRD25tKjpm0mUlStjcOAhtYMP31kFr99fj75IK/alusjlPwZUmSZXHjgJP771P0ZWVmmii0LxJaMY6mCeGreKr5w23OsaErr1uSKnu/daj7QKQYNEORp+vhtizVAaH0mcovTg0bguwAdP3kg1geuxy49OGIQNi/F7TrE/NBn9qocvxYGoVEcK6T+vrvhTk8kuT485Emw35g0V5+YZFyVgxnNie0Z0gMKEEKDw1MH8eXhlzHCGUYuyPJw83P8YsMfCJRHv56XkloVzYlSVgQhVXY155afyCnlx1JqV6hT/Or8Ou5reJh/Nr9Es9GiTs6d2oCC1bA+6+ukYqQPidLeOoGmVpLNwiZLw1h7FN8adSVT4pPVe59sepYb6m+lPowYhB6G7oABhCBk1Ub45g/h/odbSWfc6G4670kBhGvKlUjxlbdDPv35Rk49vphrvhinpCzkvTkG6Yyw1QaJWMjkyXk1tm+506C1zeO6a0w21Js88HjImlU++TwsWBjysVMczj0tZMHikB/8HIqKPb57TTXDqxt5Y3aCb/+0hddfb9eVFVGY9/mAw69+VsURB+SwRMgr6aH3P4LNnsegZRB0FrLQfi0kZbgcXGlw+t5JDqy1KTEjsaKIZ3aQ6u8+sUNFcYr7X8AjS9v5zbs51meissZCemN7VoNu7xlMAEH/aHrSynpXXS75MN2kRk6rxx46mhOOmEhRoov4rtCsCahvauOeJ+YzZ3GzFuiodd7ADwI2tWRpz0QNSPofG3T85LLnyVKUD13qlr7CwpdvJ59uKNyamgwFi14zlsKaNgP/wFNVOmmHrh1IMWy1zFGVKgZsaG7jRw/P5OaXFpMPJcepbYa1VUJAyrI5c9/xfO+MAxg3rEIxal1TDNKm/NlFa/nsrU+zrEEqeZS8uteVJAMOEKL7kvSen16CN/cq7KbntC1tdIlYUfmkFE3H2PNHWGWHY5oJnT7ZyloghkCzV+b5zSMZVjQ7EIhPRXd/e52zF/tfOckqe+zN8uq6aZS0eN93VJovnZRgfJWNJWXX23ntTICgZ3TnJZvt9NjefHXUZxjljCEI8zzd+iLXrfs/BRCUl0co5vSF/ozahk6cZ/cyx3Nh1dkcUnIwMctRzZ3WuGu4p+4xnmp/mVazRVXb6MZZvvo8aVpW5BUrq9+WsB3f1JVkyhjJcKN0Y2fsJHFkGwGT7T35xsgrmRAfrayV/9H4BDc13EmT0YLtq59om0mGgQIIAlSb0iF/viPFT3+1ibqmPLJ3KA1QpEEYOTzGt1QVQ8DrMx2+ck09X/xMBaed5LNkmc1Xvt2ixNvynKrLTK75UjEf+UjIk89ZzJoN3/xSiO/6tIsExw3IujavzUwSd0KOPDLNwoUO117nM3teO6edmuL71ziq2dXvbrf42f/V054W4ytpHudz+keT/PxHVQyvapZif0xh0OSh7Y4phu7zTdB+pZlhbHGWg0fH+MiYUiaUp4hLjryfAYI6vQUh69o9bnyrhcfXGGQFbfVzw6HBBxA6o64FcjJ4xLtdN2s65/gpiknoiLfSamhQsW6Tbtb05ntitaw/Z/PnspOQQWHT2KUixe3XIIhRkvggXHTE5j4IclsCENY1t3H9Q29y88tLyMmAiZR4yt89FAbB4bR9x/H9Mw9kwrDyDhc8DdBCPD9QAOG/bn2K5Y3izx5q0X0vH8dAAwQtQdAub0F2Bd480SA8ocozC5dUMhA45Iv2wJj8bZyqkyKAsHUNgqRm3luR51eP5lnSZkdM8OYqbxVzSR2KU6pqkiWdITsDpUR/8m+hzQFj27nypBRjBCAM4iqGruuogJ6J5li+NvbzfEDoewLeaH+L7678X1rsFjFVxxKw202ALZqLZJjg0Pi+XFR7NpOSk1V8fD9gnV/HQ81P81TTc6wPN+FZwoDr5kKVZhmnVB7HPqmJzGyew6tt77LSr1PaLmEp5HdXaC5wJG6EHGIfzFWjP8OI2DDlo/KXTfdzS8N9tFuZQQUQZG5Ia/vnXkvyte80M3thjsDVLEIBIJSUWHzqExVc8IkyXng+zY031XPZRRUcfXQl99zdyG1/a6G5LauEhkXxOOecUcJnP1fOK6+38OADzXzjKzWUFhtKRCqiwpwX59kX8zRsynLmWeUsmR/w059uYNk6j7ISkys+XcYhRxRxx13N3HVvE7m8xNikrBS+cU05/3WJQ9xsxxagplwp/00AgsiK9qvIcvKEOMNTBhOKHUaWJZXtZH8CBEVuiq+9H/Lcqgy/fSfH0jaZNP37fdQCHoC5aQkr/vgV2ub9K2oDujl/Jmg0WTOJfWd8keKqCZFJUy9X9+081XSePHRJh2nanC0A4YQpm3Vz1GLOzQHCG3MalJNffz6T3tzG7ppi0ABhGhd1cVLsOCkHAWuFQXjoTf60VYBgc9p+E/j+GQf8WwAERSCoSqEAP78Bd+F3sDbejRlKB8cCGSQUioPrDMMffxWxURfgWOVbB/BRumb+qjx/fCrD8jYHQ1oVdxPdKppcauxVijEkk5FGT11BswYIBBYf3CPDF05MUVtm7TYAQe6kJqziqrGf5kOpQ9TGsSC7hOtX/IaFxhJcEdoWWoZ2XWKiOskyUhyROJjzhp3GxNhIbOJqDdtobOSltjd5vvlN5ueX0Bo0URQWMaPkKD457FRGWtU0BS0syazgzbY5vJudx/L8SlqN9OYMRxiSxOHM5El8cuQ5VNilZIOcavv89+YnyJl5VZqn2qtvYwkcKAZBbj4wTFZvtPjpDQF//msL6XZXe/BEDIL09KutjjF2VJx1G1zqNrqMHmZTOSzB8hVpGhsNJTwMpIzYtKmpgQnjYtRv8qjbEDJqmEc8IalZ3exNnJM3NVpqjR03NkZbc54VK3LkfBPLchheZVA1zGLNmiwbG3UfiJhp86HDYvz4h6VM2zOjyoGlK6YC2j1sJYM4xdB9WwiZXO5y9fQkB1fHVBc7sTvWG5HCbDtcVVDYGOXUtToT8PvZzfxzBWSl41U/sxS7A0AouNVL6Zzq5hgBhA52IAIIMojWRwzCG8IgRABhIEHC7gwQulstbwkgKAYh8DFU6Y6hO8SFoUoxnP5vBBBU/wUxSgrAdRvxVvwcc83vsfyWjsVMtXb2E2wwq1lf8ykm7/E5ShPDdYvxjgWvs5JDsyk+9S155qwKaMnL6UlKbgt1kXr9kF9iHiPpiGXNBk++IWVlnRS4eoX0avDgI/t5XHpsgoqi3QsgxInz6WGf5OyKE3HCOOu9Om5a+xeeyb9AVjgEdaDcvIS7QOorxios4ajkQZxdfTITEuNJGQnVPlpaMi/PruHt9ALmphdSbJTw0eqPMDU+joTpqJSY6EAa/TYWZRfyWMu/eCk9i/Yw24UZCikJivlq7eV8qPxwEmacJr+VH6+5kefTr+GbPpYqox4kAEHUMJavaP/nX4vz399pZu78bJT3j8afApgCOrVDj3RelM1ZA2FpyaRbhkl6p9NARk72cviSP2R11bo3dalHI2lG+cCCukMlhlXbbJ23KTw/SQ8ZjK5x+ObXKvj46R4lsShtpt6vv8+2rt0KIKTsLCeNMbloWiljEmhbVdVZJQqgMoDZnnxgIfi6/0PO87l/aYab322nLh3TD297PraHo+9gZxB6AghKaR8N3A2bWvnt3e8wBBD6Vua4pV4MfQEIScvmDAEIpx/AxGHlm+Xhd8cUgyoUi1TqvtuKX3cXLLkex12jUldi8pTDZqU/ksfTNdQVHczH9/sM06r3VroKpb2MRJydTpZRZZIvLpOFiazz610vEYrJP7V7IuzM86cnPQLVzKbzEmAm6c6PHwHnHZogFZfWvtuvYdnZGoTN7k+2kdDk9NJjuKz2k5RalaSDdh5veZ7frL+NrJHRMOl93jkFzwgNo4rCJIemDuL0yhPZN7knjpRIiiYkNGknQ4MregSL2ngVCWElpI+D6u8Q4oobqN/OI83PcGfDw2ygXgFdKR0X7dOosJYfTbyGcbHRqqPhEimpXHMj87zF0TZaMLzb+tF3oBgEFSvTxTdCNjYnuetui+t/0UBzs0fgSzz0YCx4IwgA6Gw5XnBc1FVJ6pWd21CX8lu92avSU3VpfUyHyDMas/Jm1VFThP0yh0SEaJmUpCzOPLWEa65wmDza05UmKq0QAa0evCt2K4BgBHmqbJezpiY5fUKK2qSlVPbqJKAxlOrh3rdLgqpzkRJiESbOa/D4n1cbeK8tQehpENLnj+3FD/HvAhBkqNXVaw3C65EGob/1Gj2F8z+SQSAkYdqc2QUgqAWo0OZ4N9UgCL0vPgh4LmHrS7jzv0W87S1yhkEutJgf1vJw40he9aox7VLO3PNELtz7DNXK3VHVHZpl6W6FrmhfTX9tcTip8uYwYFWzzx8e38TLy1JYRqKThVVLRUDCcfnCiTbH7aWreoxBLFLsfqOyuRwQ25P/N/q/mBCbqNa+xd5y/mflDSz3lqvGS0G3+Ei0CkUvepsKcXDY396H04edxN7xSVTZZapFtmyWyi1FnWR1nAu9V4JQuBmfjJfj3obHuKvxIZpp0nL00KKIOCeWHcVnh32SYrMIN4RHG5/k9/V/ZRONihKX5uUCHLbFjQ8UQNB7a4Bvu+TDBM3tVXzzuo088lCGTQ0enpTq73jT356WPvV1TRpop2ABBwJKYrEYRxwc51tfK+aw/X3iUrsjYt8+ZKh3H4AgCErtqB5llsdp45PMGBdnXLlNiSMe3ppRsLajlbDKeeKTC2Blq8fvZrXx9HpDWdPaUkcqpWG99K7v1dOMXjQEEPoSrW2/dncGCN86eRoXHd7ZzbFwp7IZFTQIW0wx/JsCBJVmUABBSo3qGUgAACAASURBVImWkV58Hc7Gv7PJt3kjX8VD7aNY4NeQlWqM0GN8agJXHHQB06smk7KTamNSGKnbQljIC29tJIlrZdb1eWZOnj//K0NjrrhbIyxd9jemvJ0rP1bEtNGS0oj6wmznUB5IBkFt7WFItVHFJbXnc1LZDMR+rsVr5fZND/Bw8xO0hi0EqlNt59UVIGh4EOKachq1mBCO4ZiyIzmsfDpj4iMpMoqwpBdB5ChYOCho/zlp3x2w0lvPn+r+xr/aXyQkr07LUjky2RnDFbUXs19iKrbh0EQr16/6NS97b+KFLvgSa2Fwtm3YNnAAQZ/kfTNQDrHCTi1dmeTnv8rw4KOtNDV7qqqhi/f8do6Snt+m+z+YKg1jmjFidsi+H7D5+ldLOfZDeeW+qLQHfQAHGv7oSwCiTMd3Fxl8/istvD7TJRQxqipd0Zdh6Ke+lcvASpZSfdKXqTjpMoxEUc931ZdXRCVsgZFXNcylhsEe5Xn2HhZjrzKLqeUm4yuT6hTRlxgo3KFoTZ+lrS5/X5jhweU+Da5Qi5Lz0gBB0Y/9fA0BhP4L6G4LEMqKuPbkaVx4+FSK47rdc+H6jwQIagfS+gqhrP2wGXfDA6xaeD3PtCV4Nj2SNUGREtRhuGpziRnF7FfxAS6adjp7V04iYTnKiron3VDXzqPybbP5gLlrXO5+McNbqxztdrJZFYNoFFyOnZrjwmNKqS0RgCCbaV9Zy85nPLAAQcSXATGSfLjocC6rPZeRVo2yV38nPY8/bbib2f57igXoyr68HyDoInS5HGxSQYI9iidzYPE+7Bvfk9HWCEqsYuJmTDG6wiB4oU/Wy7LOW8+TTa/xRMszbAg3YIlNOQZFlHJK6VFcXHu2akOdCzzezM7iZ+tuZgPr1UYsuhFdmjpIGIRIPVBIy8heknMd5iyKc8sdbTz0eJ4N9XnEI2an67GivJCkFSpLExx6gMPnLy/lsIOzlCVczYALcN625OB9C/LgBwhdOrCJoENQjBnoXvEJy6fM9tm/2uD8qUXsXxUj7mzeZneLW1DXXI8q1/FodAP+tijP3xfk2JAX1KD91RUsCE0tc+jnawgg9F9AdzlAEOJTrJZVL4beWy3XDhBA+OytT7GsQbuTDuoyxwJAKHSwNPJkc+u4+ZUf80RDHQ2+OHtqzZE4wcmCJ3+17Lg6xX5qn5OZUjmamJPSxj1RflfN5YIJRjTslHlP5OUhjnbL6/Lc+1KOV5c5pD15t36/PifqNtLF8SyfPznG4RMtUrZ2b+wJiGxrlA8kQFAHIRHJBTbj7bFcWnM+h5fsi23Gacu3c1/zP7m9+V5yYUYr3KOrO0Do0MspXtsk9A0cU9bjBLXWMPa0JnBQyTSmpCZTZCXV5iiujXPTS3ii8SXm5xeqSgelAVFqf5v9nWlcVnMW+yWmCBVMvdfErXV382j7i+SCjGKUrFA2WnmXeNJs/RowBkE1qIr8OVS5i06AeK6Itk3+cr/Bn+5oYu16j1xOK14ibWGfF76Cd2QkfYzeX0j4CJyzkExXRYXByR8p43OXxZk22cNxPJVW0FV4gS5t7MMRetACBOXGp2rxVX83FXyRC+pOdPIYfMYX+xw9Ls7Je5QyLmXiKIe4HtSEYlWrqBNpPCIljQGbMj73Lcxw/0KfZs/AMxUZ0xnI/icP1M8wBBD6PE+2+oZdChCks6BqbuNx9Phibr8qAghdflp1Wt1CN8fhCiDsxwUfnEJxl3bPenz0U4ph8Vo+++enWN7gEcqO2nN1U8dPPuA+CHpmaMMd2bxFlOj6PLvuZX47+2+sTa9XLqabm+2KuNhSgrj9y/fgnL1PYd/qqSStuEo7qg6ssoR2aRMsS6s0vTL9PDkyzK1r4qGX88xaXEGOhGIMBVBoJbmI7GJYdpYDJ2T5zHFJxpSLYZgcRnaIQGCgAYKioH1beZucU3IiF1afRZlTSt7zeLTlBW6q/zMtYetmm8j7AELnI1JPq1NcJ09FjJAMYmGMcrOUaqtSAYEGo5kGr4F2tdHLswgIQ0+lKkYaw7mw8lw+Un6UAhR58rzW9i43bbiVFf7KTqCi5pD6joMEIESBKPw0UXWC/HRiVpQP4jz5os/v/5Dj1TddmtMCznw8VWLb7RbUXq/3vI7bK5z2FcjVgE3HWtc9KMBhCkNjkLBNxo+yufSSKs45w2B4eSt25NtTEOPqb9m3zWzQAgRCj5gRqHJGcfKT34mYT5WTZ0zKY+rwYqYPSzAmZVAeN3W/ctVRb9tHfREhKStlaf/qBixucvnHolaeXGPSFkg5TqQ52AHasLfb3hBA6G2ken7doAIIwiCkJNUVTcYojbVVgPDR/bjgsO0DCElz8yoG9T2jY682ctFGSZ+/5SmWbdpdAIJ+3gogCJj3QxrdJm5+914eX/E86SC9mcW6ymEL7WzkSRoO1XYNh486mANH7s2E0uGUx4pxzIIDaGSl7vtsyrexPr2et+rm8uLyxdRtGg5NH8TOjlHsQRjGlWBP6e0CqC3OcP6H4hyzl0kyLuBAd87ckaViIAFClExVFH3CLOaTJadyXtXJFMWKaHbbuKPuQe5ve4Q04jnRuZFsESD0MCXFZVCGYUxU9YYcunxlPifMr2RtlMYkCJUvw8klx3BOzclUWiWqdfZKr45b19/P8+kXyZJ5n9i0p9Vg4BiErf8ksrHK/bblTFatL+LOe13+dFsTzY0eXkfXx27vj/BBJ0hQgeryVy2sUTDMDIk5DmVFFmPHhhx1eJyzTitj0qQMxQmPmEBmtRX2DRB0v6NBCxBs8owr9ThohM2IhEWRY6nGNFVJg5qURVXcJi7UompGrms/JRTi99/16p5nDDxfucvVuyEvrnR5ckWWdxs9WkQAY9qKtlQGKjtBc9A9+EMAoaep3vuvDwaAYAddGYRuWhh1KA54ePZSvnrXKyxpzKg8rmIQIoBQFN+8bbCM3XXNrfzoH2/yp1eWbuakGG2hJAyL0/cbz/dPi8ocu8mmXXFSXCwA4WmWbXJ3Ewahy3MXcZt4Ihg+c+vnc9u7D/BG/RzcLs6KymBbHfVFNR6qErukmaA6VcXY4lrGpWqpSpZjxxJq0XbdPC2ZdlZn61nTuob16Xragjx+EMfJTibecih2Zm/wKpQiXERoJQR8eGqOc48sYVSpdJxXNVPqtLw7AQSdUjEZbo/isopzOKbsMGWFvDq/ll+vv4VXsjNxuwjPCltMX3PXigSKaG29SenafXFPlLXV8k3KwxJOKjuW0ytPYGRMmAaf5iDNQ5ue576WR6kL65AWEX1digcDQCgc/sPAJBea/OUfBt/6fiOb6oKO6oYOMyXpKaRyYbrEV1fVFTZ22YtMJZYV0yXL9HHskOpKk/33KeawQ+McMN3lAxNdassFFBTKILt6gvR+Hd1tAIL4eRfbHlPLAk4Yn+DwEQ7VyRiOMkiK1JhS06wYmYhEUZTK5v0d9SlETg1akdmc9Xh7Y57Hl+Z4qw42uSCyRzOQz7TVyUEUqX0eldvxDIYAwnYEbStv2fUAQSpeXD7ckWLYOkC4ZgsA4VOHTSEVi97T2W2Jtc2tXL8tgGBanLbveK7rAhC61rHn/YDnhEGQXgwCEGSBltK8XoZ+16QYOn84WWilg6L8yrlpXln3HrfOeYDFLUsQw6TCoauQhlTnhUjQrPRKpoAFh4QV0yAiunNfKhb8HGHgKk1DoTTMCBwsdzh222HYrUcQ+pWKwt2nJs3lxxSx52iHuK1TD7LpKYDQ22BuIeYDyyB0MtjTYnvz2WEXMCU5SVUFzMnO52d1N7Ekv0K5A3a9J7nHDn+JbYybQkZcsT+RnNA0XN1YLHTU4UvAlhnEGRHWcGLZEZxc+WFGWMOQc117kObN1jn8dv2drDbWRGxuLwdql5cNBoBQ+HFEANrSbvO/v3f535vaSbd72o1TtBTK18PEti3KKiwsG7JpHzcnVv/CwITYMZNU0qKixGFEjcXECQb7TUuyzz42o0Z6VJblKU0a2AqnFs77AjbE3K/gd9D3GHb8/NF/DLoqBiWoAZVmGBbzmVgGh46ymFqTYFyRTakdarAQGUcpAwlD8paFzV0bVYh6tt0PWZ8JmLsxyxtr88zZBOtzFjklLInyQao5S7SA9BWybmf8hwDCdgZuC2/btQBBFkQbyw85oDbB18+bQamzOVAVECv06ktL1/GHp2exLu2q06yA3guPmMKxe41RfUU0ARBlC32oz+b5y0vzeGzOanKGUNqdTYskDDEj5IiJw7j4Q3szpjSlXRa7rO6is5m9ehO/euwt1rTJZ7vKca23VTmDASAUcqiiyWhx0zy7eiZ3v/MIS3KrlEe9I7ohdTq1dU294SknxkJat0Ox8D4FdyGXG+V31ZpjqrSC7VbgtB9ALHMkE5O1XHx0EfuPtnQDsy6VDb2HWlse6wMKEJQmULv5nZCcwWdHXkK1WYEbZHmq7Xn+WPdX1hsb1diQ1IATOCQNqZ4PyQQ5PDGgViddQzVj6oBbUQpNGQIpEaE8Cw3dxBpZOf+JiE6lamwm2ntwcvnRzCg9gGrpDolJJmznrcwcbll7D4vCFXjktah0O8DXYAIIonFbtMbiez/xuP/BNIEntsqGYvJMw6E4aXPIAXHOPbeYMaN8su0Bubz0TIkAgm1RlLJVnwXpp1BWElCS8oglhC3Qo6+D3VGxipzCtHhmhxfYQZtiKNyZXqBEghRSEvcYWWwxucxmQolFdSL4/+xdB3gc1bk9U7avVl2We+82BozBDVMDCdUQIAUC4UEgkMIjEPIIJZD2QiCUhDxKIAm9JIQQQgvFEGwDBmzjBgZbttwkq2ulbVPuvO+/d0ZayZK8K62KyUw+Q7BmRzv/3Ln33POf//zI98kIqhJ89FJLol97iklImBKakyZqUiZ2xyVsbWLYHdXQqMnQmciLCQMPO6B9DmX2F3ABQvYx6+4TgwkQOG1LdcgWld+aGJHv42pm3uCWz3EiS07/EdeAhqSOBCNlMbj6uzigIuIVuy6njx7fnxLAhTi/WRO11h06EPLdsoQ8r4RCv8z7kvCKG8rHtwmmGC8Z20sTD+XMLU00383Q+WuwAUL683bYwOZUK1bsWoO/b12GT6PbYZhkEqzx9vAEkKgZkFi8slxdbFqcngPNDH4rH9ODS3DWlBOxcEKEOwKqCjn+ZXndHob5gAIEruuQEVK8ODeyFF8pOxM+y4uo2YyHa/+GZc0r4FWAYk8ZStVSjPQMwyh/OaKsBWtaN2BLYivqWQsf20wmn/9922V3vFUCEULsSbbJIzzDMdM7HYvz52FmYCLypTDXHJBN8+rYOjzb8C+sSa7nZkrZPrr03zuUAILOLLy5SsX1P0/iw7UpyIxglgRVlTC63I+TvuDHl88M4uDZKYS8Jp9D+PhtW9vFWBOYVPzl/pqS525WPUB8ELiOwBZ3UogUmAiqJkJeD4IeFQHVglcyeKvQdoAgI64ztGomEqYCZpG+QISYiIN+r0vN4Cm5ACGDIGV4ymACBFFxQ4svTYZimTchGqU4+JNe/LYli+uObOaKE15CiEQmMuIQk4KwaBVldEJ32HlXQFU+4hSHbOcfcWxZbRqctDWOQpq+EwcrGa5xQwkg8PukPK3JEDfiWFdfgZe2voUPa9ah1mgU7AvfxGbezrrD8LJkGJyFlFGoBHBI2TScPPF4HFY6g/e8YKQYp/z5AQwQCGSOlYfje8O+iQV5h3EHwyYzimW1y5FQ4yhXizFMHYZ8byHyvHkISH7oLIU9qWpsTGzG6sQGfJLchkazGSmWgg6yGqa0FZWMypCY6HPBqXNJQdgKY7RnGGbkTcTBgZmYEpiIYrnANlOS0MqieDf2If5e9xo26xVIStTXuG/H0AEIFuK6jMeeUXHzLVHsrVV4ib4/bGHubAXnn5OHY45kKB8GeJSkALVtJfjt1XgZvqp9C1o3nx7yDILzvUWZmGHnFwWNBfi4kphMjgh1iTpTQW2Jf5JXtpiwBTjgHccHRF+QydP6fAAEXk3+H221TOyB3QWeAwS+Q7c6pgKoPbFF5bMylek6uwEGEjYSeKA2wzSO0w/KizuAgYOILjzyxZug8iYtEjVz4rXZadQi31ELlzV+gTQxX0ZjlLMjwjdeTjZBXvsCzI9XwjL1fRTSxMjNmDEDd955J4455picg3BHcCwqvajjqo7trXvwzq41eHP7+6hM7EaM1/Db4uVMbjDtHAIGquTHqEA5low8BEePOwLj80fyZkMEzuj3kh4hlxP2QDII9P0N2cJ8zyG4esS3MMY7kj/DJDOQMFrgVRR4JT8lA9qdY+1SU/psytRRa9Rje2o7dmq7sDfRgGqtAVHqwCDHQLoxldISchD5agTlailGeYdjoncURvmGIV8ugCrTWGcwTWCvUYPXWlfi1aY3UZWqQoo6FlK3rD4eQwcgANWNKm77rYn7Hm6FYXowrJjhhBP8+NqZXhwxW4bXG+dmUlzAKRtQTNpoUO68j0HI0ccPKIAgBMNEw9CkSJOe44KIts5sYhdHWVjRtcoihWgbLeNkzXL5ivf+SRxoAOGcE6chFBBuf0Lv4QA1hpq6KO57eiPe+w/sxSDWYzHieDqBe/rbqSs+1GjxVni5HCXHudkL+cpTPTgjYKuCSVRiS4uuyIuLhZwar1CsTf5H0GjpY1ewAQQuLKZAMenapLq3x6STjuTkBQnFnHcj8zE7FBkE3hhIAk+/EBBL6Ulsb6nCyxXEJmxEo9GCmBaHzmNLsbOp2Q7F53YdOXdiVOFXA4h48jCjaBK+NHEJZudPQlgNcvEcib1oZ8ydZfkclLvZe2ABggVDBs7MOwnfKTkXeWqYDwSDC7gtXhFGIlYaVYZlIGlosEwLPtUr3Cl57Z7YfhFzQB4GcTOGJEuC/kdJM4/khV8KwC/7EbD88FjkudDOnpFAj9iHz1I78XLDm1iRWIMGudm2tFcgO8ZDbdA487HqnDmUAMJHn3jx45vjeO8jg5cjfuOrEZx9hozSfCpFpBJeg4NOJpNuQ2xheZz7oztg9qE8gKyWO9xcR91Ad5hzaMCA7p/KUAcI3E6KaENFwlnHjcbZJ05HiEy9nZdXbOV4/XlNXQz3Pf0x3v0PBAgZv3fOuu98oMPAFXC345H2d10OZjuFkb6n7XReV1fM+Ps6XgRDhEHo/L1FNsWuUGKM+yNsaazER3VbsKV5N2pb69CQbESr2Qqd6XyRJ+aBmA5FJifEAAo9EZQHSzC2cBRml0zBlMJxyPMG4HFSQlxZZxs3dbIgziaO3Z07kACBvoMHXny35AKcVnAiZwzo4KY+BAgsDTEjjhqziTMEO5J7kDQZxgVGYXZwLMrUYgTlMFSyUObAlXfNELZztpMgXY/7Rth0ORcsmgbvpdBstmBnajdWJdZhResa7ND3wORaBjFK+fPsNH57QygMFYBAQGrFWgW/vS+J4lIPvnyaB4sPluBVNGH412lQOFHILUfVt1F6wDAIfbvNofnpoQ8QaMdpAirDyUtG4/SjpyLkF5OKw5LTZECUYUNDEo88uxGrNzfZbXkpDzlwEG0wNQhDc3Tl5lsNNQZhH5DgmClRAtG0YJg6UpaBhEmC5Chq4g2oTzShRY+BGcQ5iNLHoD+AEm8RioOFKPJFEFT8PJVAu12qOQd3U7WrpHITyi6vMqAAwZIwCiNxzYhLMN0/FSkpgVYzhkazBVX6XlRqVahM7sFOoxp1Rh0SiHGNQh7CGOsbiRnBqZgcmIjh3jIUK2H4ZWr15OF6AtJmcFaRczYkFjehmTparRhq9XrsTu7BpuSnWB//GHvYXsSpmsa2sEnHy5xlSzsObIBAKQYJO6s8KCuRUFaowa+QURSlAftxUOXw0i5AyGEws73UUAYIvFTOImdKHUwxMG54CBPKI/AIe6628c3pSKJ7k8CnO2KoamgVOWt7wsg2Jr093wUIvY1cz58b6gDB2Xm2pWWILqfdGc/IkBSU/if+LQSaYvDyHS6vChHl0fy/hXpZWDPbPRyyc67P/hkMJECgFswLgofj7NIvotXUsTn2MbbEK7HLbEarGUVSikKTE1B0SnlR1QwFkTwQRC8aRfEh3wrzBk9jvSMwPDAM5d5SFMj5CKgBbnOvm6RnSKJJj2JnbDd2pvagku1BHRqRQAtI1S9sg6kro6PHEXHjXMTnCCDQPVGHR4v5IIMaJpErJDl+ps+g2Y+ZgfyECxAGMtqdftdQBwiUJ/dYJnQZdp8L6hUvboKn0+2yMJOEoAZ5j1N5najCdwHCIA6sHP7qAwEgtIMEms5EAyAbArRpQ+iczm6A1LUw/eAyTiH6aEPA/b3RG0iAQNbGw9RiBJgPDWYLklIShmJxDwluMc/jJmInxN4kcKV/U9WLyb0NKD4qecYoKmQmQzVlwSJIJP6WYTDhPWPyjQV127R9Efi8YPCeGbwM19HrpD2DzyNAECo5LluGRd4RzGsDo76LMXP4mnd7KRcgDESUu/kdQxkgiElXlO05062zC3NuRwABUuDSxOoo4mwAMYDpBfFdRaUKvYqapaOm4h18uvIRaPGGtu0Jz+jbM77sDUKZfRTMuadm7AkwiENl0H71gQIQ2vegDlxwBMntyo7OvjG2trRDbAVAGLhwDyhAsJdluj3RrlncLC+nJQGrfdvpIWhXB9hltnYJbZuHUdtr316d72gKxN+0PwdK2jjLYnd59r5qZsSuHZBSJnbd9yn2PlgBk8yaOl2YzK5CPoZH/lCKU46lTh799dDb71mo6oeSwmD/49wFCPuPUb+dMdQBQucbdxaLNoAwwGmEnh6ECxD6Z5geWAChf2LQn1cdaIDQX/fCuZv9rLECwPf/MbQAQv/fb3/+Bhcg9Gd093PtAw0gDGKo9vurXYCw3xD16gQXIPQqbBl/yAUIGYcq4xNdgJBxqPZ7ogsQ9hui/jvBBQi5i60LEHIXy/QruQChf+LqXNUFCLmPrwsQchdTFyDkLpZZX8kFCFmHrNsPuAAhd7F0AUL/xLKrq36eAML+8gdZt4zu5WNwAUIvA9fFx1yAkLtYZn0lFyBkHTIXIOQuZBldyWUQMgpTr0/6vACEXgegHz7oAoTcBdUFCLmLZdZXcgFC1iFzAULuQpbRlVyAkFGYen2SCxB6HbpuP+gChNzF1AUIuYtl1ldyAULWIXMBQu5CltGVXICQUZh6fZILEHoduh4BAlImdg+JMsfc399AXtEFCAMZ7U6/ywUIuQu+q0HIXSzTr+QChP6Jq3NVFyDkPr6MbB3SAAIjSqHTMXA+CLm/v4G8Yk4BgicQQdFJV6HwixdB8ocG8j4OyN/lAoTcPTYXIOQuli5A6J9YdnVVFyDkPtbk5cRsgFD9xwpY1K7SBQi9CnTuAcLJV6HwRBcgZPI0XICQSZQyO8cFCJnFKduzXAYh24hld/7+AYIEj8eDyHElGH/jwUBBe6vpNmvo7H7l5/7sNoBw/6eoftAFCH154C5A6Ev0+vhZFyD0MYBpH+81QDjsVDCyPx1ga+jc3fkAXcmUISUbIa99AebHK2GZ+j6exNRGecaMGbjzzjtxzDHHuDHN4NH0CSAMkDNhBrcxpE7JBiA8fB9ZLetQJNG0yz06RiBHAEEElqcYTr4KRSdeBLgphp7Hmt1TRq7fisoHrkZs0zK7fUnnBjIS/KUTMfvoyxEunsB7HlBrVfdIj4BoCCPqrBl0y0Dt1new+Z2eejGEoMxeApMDBNFcamCMYA/MJ2cxGUqiCdLaf9oAQbROTj9cgJD9s+0eIIjhKFsSFI+K/ONKBYOQTx0nRRsFziBk/ys/95+gjZelMey6fzOqH6iA1Y0GIeyz8ND9xTj5GAOqCxC6HBcOQKBeFqYErP9MwuVXR7HqAx00J4BaV9uHJEmdW17QT6ihD/VPN+EJF3INQtFxF8Dyhds+6LQF+dyPzP3cYDs5KOJmULPZus3Y9eBViG/6N/9052yZCgm+0qmYdcx/IVQ8kT8lheLtHp0iQN3SDN6ZTjYk1G1djk/efQRaIr1ZkwwmUwsqC4qaB3XWQpjzlsJEehsZN7BdRYBazKiJZkirX4Tx8UqQ8MuCgfQpwQEId9xxh8sgZDiMkskkNm/ejJNPPhlVVVUd5kwalTJBAJ8HRUcPx/ifzILFUwzts4QLELoINC1cSQu77vsEe/60BeiMZam5nCIhzyfhQWIQjk/Cw+R9Gjpl+Ag/t6c5o0w0OKVZU8L6zcDlP2zBex+mQN1+O4zFrgGCDNlSYUkmPIEAio/8KgoWnArLG/zcBi5XN8abmzRVovKvdyCxbZM9QDtCBBUqPJGxmLngFATzhlMXdTDJBQgdn4HoG8ckEwaBWk1GdNdabPvoH9BT0XaEaxFAoJ0Xg6KG4J0wG9b0I+32s7l6qp+v64gOwBZUer+TrUhtfhepyo0w+eDVOdhyDgIIEydOxNVXX425c+e6lG0GQ8EwDOzYsQOXXnopGhpsMGtPu8SIyRJgeRUUHDYcE789DVaIt07N4Mr/oacQG8g8kFISdj7zMfY8v406VXfaeUmAIiPokXDTzROwYJ4GLyhlRie6R3oE+Otvo1ACCVu3MdzymyjWb4zD6tSdq0sGgTev5ADBgkqTc6QMcjDCe4M7h0veivG572utAEYCVnMVtGSC92AnoNXhIJrRE4AvUABV8nIq3aRZwz06hokPVguM4sUUQI8imWgEY+3xpPjSz2lRkyUVlj8MKRBKezDuxNv1sJIgW4qYKZJNsFItMKCAtmbpAIEmEL/fj7KyMgSD7gYhk1eURKC6rmPnzp3QNK3TmCaAIMasnOeFv8TLd77uKO0+ss7MSO2sjUYNer1Os0IXk68MVVZRPhwIh2mTS+e00+WZPLv/hHM6AgQglQKqaxji8X1j1U2KwYYYdk9xUAtgGsLpo9hdz9rHUqe4cJLGsgRKE23ZOxxE69BB5zle5rx/u3t0CpQdQD7waPFioud9HA7SOQAAIABJREFUml6DwiYAgtiEWfQzu7+9G86eI0BUNxHevLu9RJGlEcncHHg/DRxnjNLlBcWbQT/lfvouB95lxXzqTJM0XzrzaNu9tKVpxbwhNrHuvNr5We+zseXLUddx6gYg8CnD1s2IxSz9n91f7sAbdn39xh3XfppoLbFQ2UNUDNDOaErmJzgDmAa+O4y7ehLpQzkDRErAgJ/m8lv7H9c0TsXY5GMvg/Du/5ruGT1FoG0ednCviw+yGzD2QOVAocsZ09mROXl0dx7oLsAdN60EprpmWrpnELJ7dO7ZbgTcCLgRcCPgRsCNwOcoAi5A+Bw9TPdW3Ai4EXAj4EbAjUCuIuAChFxF0r2OGwE3Am4E3Ai4EfgcRWD/AIEc6fgNd8ySdxbefY5i0qdb6RAtRyzXKb9Lyvs2ZxQ7rq4GYd+wCw2XiAxlyURsO0WKV4mIvxNRdWVJmQ5gilSnt7obMQL5oqTpFVzFTJch5mPPUdFRxZeoJ830cbjn9TkCtt6rTfblCpYzCmkP+qOuyxxJDWrHluwqZYkU5O2lZRR/Uo67BSQdw09xVqh0jKsULZjMFOU4nR6ADBWq5eWThwXd0eZn9Cz/k05yAAKfZmUPFHI7YCkwu3RJQAbyQaCRKPGfS5IPEo1Vy3SLGXocLBYUyYKpSpANBjKmo7HaDrVspb1MEabIUkwlmHx8k0uNu/Clh7dtLEoMEs2XVL5sJmH1UGZHHhNU7cQBsFt50+NopXJb+sMYa4tVuo0yzRUqOQPKChSLqp1k7hLI5wL36D4CbeU04LHtbE3drZOiGLUSZD8QnKkiMEGC5EmbFFxw3HXQZQmsRUHrag2p3SYYTRidEAJtLhT/aPhGHA0rVMYHvFPu6I7l9AhQaRPFRoLETJjNm5GsXgFTbxGMAU0aduUCLWOyLwTPpDnwTpvNwUHn/bEb206AVlIhaUnomz7gpl4Wc2r22zlDRVEgFwbgmVcCa4QfJu2SycfaPfaNAC1gMoNsyFAbGFJvbIPV2tEHwRm31Kxp7Nix3J2SfCbco+cI0BxJBlSrVq3C6tWruwRUZK1MW9mFRUUY7fWJDRgvh3SPniLQRHFtakYNGSJ0svzvEiA4FaQ0TXhCQPHZXhSfZEEKtO+G3aDvG3LOrBD7UhXAzt/HEV+rCxvgzsGSZaj5hyJ/0S/Aime7JWbdjF4Hg6qWBclMwtz+PJo//BXMeLVIOohC8rbkgxwsQN7J5yF8zvf5QuYGtqdpwYLEGJRoPWJ/vRcNrz8Ny0h2+ADFX1ZkeCYXwP+jI6DNL4FBMWfODOFOvE4EyKKWHD2JV1U0IPxxM5queBVsb6LLIBFAOPHEE0EW1gUFBW4g9xMB2t0mEgnceuutuOeee/hut/NBBlQBAFdOnYbF4RAUOsU1qO0hsqIevyKZxF3bt+PjWGwfMNUNQOAWPpBlE/6Aisi5QPFSEzIBBPvowVvhP3qwG5IMVuXHrt/oSH5ANsFOvXl7WCRZhlJ0KEJH3w2p8FCOel2jpK6GjdjJypQuMFKwtj6N5vd/AiNO/vaOYZIAAjK5fgbzETrzWwieezVM5nZz3M+eDKppAs31iD95B5peegymroM8bJ2MGAEEhcDs9HwoP10Ec1EJ91k0uXGae3SMgDAzkSxiEIC8DU2IXvQyWFWiy2yM1+vFSSedhPvvvx/FxcWuhfV+hpNpmojH4/jZz36G22+/vUuAQKMyKEu4buo0HJ0X5hZgkmth32NkiQ3ckkzgV9sqsLE1Q4BA4ECkJhh8QRX55wElS1lHgOC2Je0y8JTxMqv82HG7gcQHplj4OzEI5KoslxyK0FG/h1x0GGROk7tTbueAOk3FDIVBTWkwtj2F6KobwBLpDXDID5DAAAMxCJHTL0b4G1fBcNs97wcf0LhkYM0NSDx5O6IvPQqmEx3e0Z+ONEjqtHxIP18Ic1EpDCIQ3KHaZWxJfEzvsmQYCK9vRctFr3QLEHw+HwcI9913nwsQMsCamQKEkCzhhslTsSSfAAItYi6F0F14eb9cC9iaSOCWigpsjMW4rjDdsbJnDQIYPGEFhd+QUXIag5LGIGTwTP8jT+Fpht1BbL9dQ/xDo71YIS0anJ8pnYvwUXdDLprrqMH+I+PV0007qRldYfAlU9C2P43oquthcQbBPmx7VepAKIUKUXD6RQiddxXf6bq94HuKrgWLCYCQfPI3iL70GJie4h9IX/9lSYbHBgjGYgIIbpVI11ElppD8/wHZSCG8LoboxT0DBOr2eO+997oAIYOZL1OAEJYlXD9pKo4sCPGeFyRddo/uIQJjFrYmk/h1RQU2tLZy8N8rgFB6WkcGwQ16d9PE/gECDVnJBQj7HUKdAUJq+9No6QYgUIqBAEK+CxD2G1dxQi8AAjEIsgsQugUITBb9VQwN4fWxHlMMxCC4ACHDoUqsbIYpBhcgZB5TOpO0HAQQbq2owHoXIGQXvN6cnQmD4AKEzCLrAoTM4tS7s7IECD9bAMNOMbgC5W4iTgyCAxA2xNHSgwbBBQjZjVoXIGQXr0zPdgFCppHK0XkuQMhRIO3ujHQ1J8XgMgi5i23GDIIsQZ2aD+mnBBBKeFW5a5LWPUAgfkUxdIQ4QPgXrOquRYouQMhuLLsAIbt4ZXq2CxAyjVSOznMBQo4C6QKE3AWyyyvtn0EQZY6AOiUfys8WwFxYLDQIrkixi4iSuFPhoi9FTyG4IYbWi153AUKORrELEHIUyE6XcQFC/8S126u6ACF3AXdTDLmL5b5XyhYgzIe5kHwQXA/F7p4KmXXx0lBdQ2hDDC0Xvw6rmzJHl0HIbmy7ACG7eGV6tgsQMo1Ujs5zAUKOAukyCLkLZA4YBPmnR4AtLIHuAoTu8gttinkuUtyQQMvFr7kAIUej2AUIOQqkyyD0TyAzvaoLEDKN1P7PcxmE/ceo92dkxyAQQOApBrcZVtchpyoaKqnjZY4awhvjPMXAXA1C74do2iddgJCTMO5zEZdB6J+4uimGAYirCxD6M8iZAgSJaxDknx4Oc2GRbWHdn9/rAL02H6zClEfWBUBouWiZCxBy9DhdgJCjQLoMQv8EMtOrugxCppHa/3kuQNh/jHp/RoYAgayWp0ZsgFAoeuO5dY77hp2nXuyejoaGvI0JRC96A6w62WW8XA1CdiPXBQjZxSvTs10GIdNI5eg8FyDkKJCuBiF3gezySpkCBAXq1DwBEOYXwuCoze3F0DmkomegzSAYGiIEEC4mBsEFCLkYyC5AyEUU972GCxD6J65uimEA4uoyCP0Z5OwBgjG/ACYvcXQBQtcAwW4upmuIbEq6ACGHw9cFCDkMZtqlhjxA4Ljb7uvLqIsRNTvhc5Do0seRuUUtJMhbX+Z0He/xzVcP+ik1SOk8ZQ0eBzqkGASx2YMFJpof230LnGY7bW2oe6pr5x3qAKuLttUUe6cmvj9K412A0D+TgrhqpgCBjJIikG+eB3MBMQj0WWqQNfBH+lvtdJNtG3/2D7vyaBiI7yoYBPElSIMQ2UQMwr9dBiFHw2ToAwQ+GzorFjX9pkmzrfkZb4zkdJ+zY5LekF6MHJGiGshjSAMEvphKgEKgwJJArZJlRthAvG6MQAItUJT4pLhxkbAEybLaQAGjVUTq2GBGvKiDAxKGEkBgAl5B4i18TchMhcwUGISz7LjzpWJ/nSQtehY05E0BFoShrABw/Bf0TzdKFyD051SRGUBQZAmeKXmQfnoYjAWFvNWzQ6X357fr6to0Zp23mr4FH91UPWCDWPo3bTLS+1EKYNz/31RM/vRHAATSILRcvBysOuVqEHIQ/iEPEPgyxGDRYsXXL/GeWJYEi0mgdYrJVAMkNsT8D3X1FRO0DbwVyPYmLgchy+gSQxsgcLivwAK1RabXS0XA8iIoBRBU8hBQw/DJAXrroSGFBIshbsaQMlugWXE7HyqWq47AywUIFBIxXVFoaGE3oND/JAspzimokDmzYCOvboYTBzy8vZfObWAIwHlkwUmI3n8E1hRIUu67prkAIaN3vJcn9RYgOOxeL39tHz7GwWjbu+6847xBrfhrzi6qdju69l/U/3syvj9s69zKAQJZLX9rxZAFCBZtyuyNAf3/9CO9C2pPP+vDo8z6o0MbIFDbZMY3UbSWeRQF8PkhhfIg5xVACubB8nloJwyZWUBCg9HaCrO1GVZrDLKu86ZJ3GiLiecyUJ1ohzxAkGQfFMgIShHksTLMCMzCzKJZGB0ejyJfOfxKiL94SSuBmB5FTXwPPm5ajQ0tH2E324WEGYXBEoDM9dX24QIEsXbbk6cE+C0dIyIaxo9m2FGfRGVtAZKmAkmWIVk9L+40aCGnAKYgX01hzhgNHp+KD7cDTYZHJHrMQM7pMRcgZD2PZvGB3gIEeyHM4jfl7FSbOVQschwQdCyTCQiLBVqAWU5xie2ZAx36HSE4KU+i5izImu2D8K2VQw4gdF7waeFNpVJIJBLQNA2GYcA5R6YKFlWFx+MBVV3QH/pv+nvnnIFayIY2QKARaMDjD8HwByGVlSJy0MEonDkb/uHDIBfkA16PaD9tMliGCa05ivjuXahZuxaxTZ/As7cGUrwVpq6JOTlnL03PFxp6AIHzhDLPx0jwokQZhamhmTg8/0jMLV6MEYEx8MtByJIHClSOqoh2oT2rZRn8cykrjga9AZua1+PD+uVY37ISldpniEmtkGgxo2s7OUmeO7fDPQBc4+CmGGxgZHOxlmxCkk3kezXMHZ3EmfO9mDc1gIq9Ov74ooZV21VETT+nwSApPE78CpzKteNGzI5lQlaSKA/pOHmOifOO8sPv9+Cl1Sm8sMrE5t1etMIncmiWzOUj9LzEro6etZizsx30Qx0gOLHiNDalxmzKuz0bmSkZLwhzZycsyuXaD1uBY2+ec8WXZwYQZEoxUBXDTXNhLiyAQbukbB9kpznK0Q903LbSWBEDRfSjt8GtJcMrqQjBi3yEkS8HUCD5EZZ88MEDVfLykabDhMYMNFqtaDJb0WzF0CqlkIABXaJ5w6kzoNjKYDxv2Z75TU9L9G5upmvZRkl6SqQYhhhAcBZ1BxTU19ejsrISn376KbZu3Yo9e/agpqYGsViMA4BAIICSkhKMHDkSEyZMwKRJkzBu3DgMGzYMwWCwbac7ECBhqAEE8bYSeyqDebyQho9CcPZMFB8xDwUzpkEqKoTk8UAioErAwNbJtWVzLQbJNGEZOrS9NahftxHR995FbOMmsLo6yKYudHhpL5tsWSLt3sf3L318DymAwBcd5gHgQUTOx7TQPBxfcioOLpqH4d7R8Kt+yBKBAqKs22kWZ7qkm+GPhW8SGFIshRajCVui6/FK3d+xovlN1Gt7YEoJKIxDCxiKDonRomUnKnv39mf8qUEFCHy+M2FZJh9bXg/D+JIkTpgNnDYvgHElMoJeGaYhY+MeHQ+/kcAbG1TUJih75oFs0bOxYIrEmD2o6ZoGJhTF8eX5Fk473I8xJTJUSUFz0sLq7Tr++a6JNz9jqGnxQje9oKsYNjBTGE3GQmuS7bge6gCBKEUh+JThodQjnzKEIJT+ySSxE+jxvu2Jg8liH0yLpNDlCMrctPNnkh1AelICTmQbzc5DOBuAEIZ006FgCyIwJcuuZMj4lejyxM5YnQTIKiPRq1i0faaMiBLAcBRjqmcUpikjMNk7CuVqIYqUMAKyHx4CCHb/A2YxGJaJqBFDldmILXoVtpjV/N8VrAp7lSbErIQQ6loyDJmBwbC/W19jKS7jiIAV7qRIAOHdIcMg0NxJiywt/jt27MB7772H5cuXY926dRwYJJNJzh7QeWKepfVJgqIonDXwer0cLMycOROLFi3CkUceycFCXl4eZxi6Agm5BA5DCSCQBs5QaEegwpNXBP8hh6H4mOORN2MSlOIIVJXiIQttXPo6lr5LojWMQDDNjRR3TYfZ2IimdetQv+xNJNatg9US5SywA2M9jN49ekdyM17pGQ8pgMCnQMmHUnkETi77Mk4ddgFGEDCQglBltV25YQ/Ofaa0TrkyZyBrTMNeYw9WNL6Bv1Q+iApjPZilcQEI3ylIFoiWHIhjcAECIUzKYRmIeBI4YoKEc5eoOGI8UBTwQFJl0I6QFpuUqaGyFnj87SSeec9CdTIMBhkKMTBcIKoAkgGfbGFkfiu+e5IXx8+QUBJWoXjoZyokpvPr1LZ48NomDU++pWFTtR+aKUGHl6cu6HpCy8ulJFkdQx4gcFGSQPkEBZwRJllCVcsX8f0OOz5T8NjQtbj0U6bnIKpzCGjRPCLTxM13wRRPunaWwdwn8hkCBIVEigQQDhEAgQPI/d7Ufp/zvgBBgZcxyLKFEAtjFhuHL+Ydirm+CZioliOCCPwSQQIZfO51gBPt2vlBGwcLlklkL4NmGUhARw1rxHq9AsuSa/BG7CPUehNISgZMAmJtqJXmCEexs9+v3s0JBO7ou1C7Z+rFkETLJUMHIFAaoa6uDi+//DKeeuoprF+/Hs3NzdB1nQOHdE1CdxGgxY7AQDgcxpQpU/DlL3+Z/ykvL28DCemg4PMKEGgTBlWGOnIsyk4+HcXHHM0ZA8urQFZVqGlZuJ5i0Dndw0wduqEjtacKTa+9jpqXXoZVUw1YBgcGtNniILTvr1/bIx5iAEHGMM8knDviUpwy7GxEvMN4LpGnDO1JR+z7s4sAYxY0GNDMBNY0L8cft92ODbH3kVRaxQJF1Lld7dDb1z/Tzw0mQKDdqyLrGFsQwzlHyDhrcQTleRI8is0GyMym/1UupmEGQ3PCwtMrk/jjvy1U1Af4bpgWACprDCOB2cOT+MHSPBw+EYiQzgYevqtl1AeYXhTL4NqElKZh4x6Gh5fF8dImL6JJHxhT+aTJCQlaTPkzzvzZDnWAIHb1FhQYiEgWChWSJTPUQ0KTqcBktJxRBUnPB2EyeiKFkoExXgMlYQl5PhWqJCGuG9jdwrAjoaIRKnRJAe0kmAhqH44sAcLNh8JaEOGLr6hk6NvRGSCoYDxtMBljcGZoCU4JHI4xSjE8xCzY5WOQvKKCgvc9MG0FOI1DR29gwXR2XDw8omza5KmHGFazSjzd9Cbe0tegRmpGUjbsUrRctLBuBwiyRimGJFoufW9QGQRagGjxpz+URvjd736Hv//97xwYpGsNsn2StOiRDiE/Px/HHnssrrrqKs4s+P1+zjjkEhg4320oMQiWQu6ikzHqvPNQNO8IyP6gYAt4MZdYz/ZPHXYRdRO8msGABrRG0fDWCuz882PwVO+GaemgWYKn4fr++g09gEDIZ5g6FmeM+BZOK/86Sr3lkHg6wb5fm4YWO7H0HGx32Wv77/kGzASjPCOTETda8W7TG3ii4j6sTS2HoaQ4SGh7aNm+DVmeP7AAoX2R8MgMxcEkFk9iWHq4B4dOUFEQUqAqpAFwJlTKkZKwiyZEBoloR2aiMS7hzU0GHn8zhY92ehAzPQgEkjhuWgrnLQri0IleBLwSPHxups8KCMcJddrVEqo1TehGCruageWbLfxjVQobdnnQmApxe15aKGVLPeABghh1Iu5Uf1MmJzG/2INFpSGMCwgWbFfSxOtVCbzdADQygsDOHnffd5vUNSWKiYUFCpaU+TEloiLfI8MnCwZBh4V6jWFVfRLP70lgXUzhNdZ9J8SyAQh5kG46GGx+Hq8c4n4lfTrs8mV7NHgsFeOsEnzJPxenhuZjmjoGRXIQXtnTdp+OVwofanyOJL6LthPpAlsLlGpom535YxLvvmlZSJgpVLFavBlbh+dal+NdaStiks7vyakuE5UQvQNfIn1hQeYahNSgAwTaHTY1NWHlypUcHHzwwQccHNBim4tFnMBAcXExFi9ejCuvvBKHHXYYT0Xk4tqdh9fQAAgWLFWFb8YsDD/nLOTPmwtvKGKPUfFOOPtQzpbTWKR0DTE0pkliLnFbdKos8z+SqkCiqgdbv0Vjj1hvOt+IxtD8/hrsfvRRmJVbAF3/fDEI9ApTKZ1lKQhahTh72EX4+vjLUeop5zQq7ezbp0w7t8l3JwyKbTJBdaW0h+gwtfIdFJXu0RRN59MuTSxUhJqjrBEr617D/316M3bLWwFG0+zAlGcNHEAQBlI0oFRJx5zhGpbOk3DMbNIaKPDRak7pBC6QEZKa9llQqOo4JUvPhwEtCRPvV5h47G0NG7drOPZQL85a5Mf0MgVeL0FjlU/FzjPjmo42QaPMc1kkoqEdXMKQsHGXgZdWa3juIwnbm1Qu5iEfhmyMQIYSgyBiSAifxq0Ov8QwJc/CmSOCWFIaxHCfggDJ5aiM1JKwrknDvVtb8HqDAkWmz9HCLkExJchc6EeFphZGqgxfHePHsWUBjAtK8MmOPt+umuM7ChNNho5XqhK4Y3Mr9iJsP9O+rNL7BwhiMlOgTgtB+ckcsPlh6JTy6DODQACB0k8MHlnGDHk8Lgp+ASeHDsMwuRAqKQskC3J66SxHZkIg6SQDnM1EexSccW7PKw5AsOvSabTT+GxicaxPVeDP0TfwmrYGtUqzSM1x3YfQlWQPwARTydNNVOa4SUf00sFLMTh6A0op3HnnnVizZg2vUuhMa/d2BNG8QgzCCSecwNMM8+bNw6hRo7heoT+OwQIIQhckVn4OHidOwOgLLkDxwkVQAgG+jtmzKJ9feTEdbVh1HVpjI2LbK5HcsxtGYyOQSPCfE8hAJAy5rAiRcWMRHDkKUkgI80m7IDw1LI4tjHgSTW8tw+7HHoWxcxtkSjPkkEIYtBQDR+222AqWD4cFj8EPptyMyYGDoCqiVEZIrWxZl2Vy6pJq6mnR40YSbbxNe76VX5d/jhYk2peK6YJKJZ3DsAw0pGrw7O4H8GjV7xAzm3jQs3/psx/qAwUQeJUA01HiT+Hkgxm+stiPScNkRIIqFFqROEjdf56a05B0LdNEcxJ4a4uODz9J4suLgphaTukJBSoHa0LoyRX2XHjTMTadJx5NN7G31cSq7Rb+9GoLVu/wQzeDByyDQJMDeUDoigUvTBxdCJw7LoS5eSryvBIkmeg/e3dNgEvT8WqdgZs2NKLV8sEkjQ0Ar0HCWSFIHO3VcNmkCE4s8aHQK0OlOmkOhjvuYMVuJImKBMMvN7XgtVoFHHX06cgSINw4B2xBCDqJKYUAoPcHlSkySpWkcIhnCi6LLMWJ/rkoViN8S9FWXdBnILLvVySGgUohDWbis9Q2/KHldTydXI56pVloQTiTafPFWd0hzUcOQDAR2aSheZAAAr2LJDpctmwZfvWrX3HmgP47lwdpERYuXIif/vSnmDt3Li+BpPmmP9gD+t6DBRDonVYZg6FKQF4+Rl16CYqPOw5qJF/gZ55SoMWcqhIkWKaBRMU21Cx/G41r1kKpqQNLtsI0k5B0AwoBBNoskLAzEIAcicA/eQpKjz8W4RkzoYbyRDGMrTciCZ3Z1IDqf/wDe558AmpL7PMDEHTJgseSkS+PwnfGX4uTi89B0JOfpuzkmJ7vYE0kwUwJikT1ojaAsMvt5LQJiS9oRNVYTORliIngBkBi0uIPjBTNmo5d+hbc/PH3sSn2PnQ5sY/VZS5fGOdaAwcQaDHRsGiChmtOVXHQGAt+/pK2U66ZAARmUnkYUBc1sPIzA8+8b6Bit4kFk4GlCzyYM0ZGXoBAAoECFRaBjrR8W+cYtpVS2WroaNLAC+sZbv2bierW0AENEGjd9ssaji+ScP64CGZHPAhSuoa0B5xZoN2n2L0ypmFHErjqwyqsToZg0o6Z6GdT7BBCHhNfGe3FpWO9KOXlUJS7Fe6UYhyLyArigtS2OpoMhmfrLfxiTRNSKtWK9OXoLUAgU7O+mWLRrRHonMlG4IcFX8GX/PMQUUI2sO1r+qLnmHDalxMNEnSWwmZjFx5segmPGyvQKDXCYioY7Qp5GWQ2x9ABCLSY7tq1Cz/72c/wxhtvcI8DWsAcTYLjeUDzA5UyUlqgu8NZ8Oma9DkSOzolkJdddhn+53/+B0VFRW1zen8ZKw0uQLCgB7zIP/5YjLzwIvjLR0BW2sEQaeAMXYdeX4/6t1eg4dXXoG/bCsTjHIwy0oCpEsf09IabOq15ojrBojUvEIIyshz5Rx6NYSd8AZ6RwyGrJASnOV6BwRiSlRWovO+PSK1cCRh6zoDY4DIIvKDRh8PCx+OK8TdgRt7BYqfVtjNgMEwDjUYDNkXfQ622F2MD0zAlNAsRTyGxkDyIVMrUtgAzCyktie3JzdgcXw+fFOLXLfeP4pUQ/NpEnVsWNJbEQ7t/i0d3/A5Ra++AeK4OHEAgwtpAaUDD6YcBZy9gmDoiiJDP08HopPOLTwPW0Q/Q4hON6/hot4XX1+p4eXUKO5qDME0PFDWGmSN0nHq4D0fNkDCxVEWeR4HFAYjY5zmALP138AmCyvM4I6Fj1TaGB183sXKLF5pJi1rmC8BQSjHQ4k9agaOKJVw0OR8TvTI8qsLFtbwfCOF60roQu8KTZCYadAt3b67Bo7V+xA1ixUj3QX6WJuYXMVw5JQ9zI3QNDwcYTokjDeEOe3SaZCwGjZlY2Qp8771aNHPfib4cmQMEZVoI6o0HgS2gFEPfAYLHUjCRleBH+Wfj1MBiFChh0LASNRz9e4g0MD0LkdI0mI5NWiV+2fgUXmUfoNXShcajg/FaJt8pHSAYiGzSB41BoHePShnfeuuttgWdqhV4+jUaxTPPPIONGzdyP4NTTjkFU6dO5eLCzkf6Yt/a2opXX32V6xnoWlTJcM011+D73/8+L3XszpWxqzkik2h2PmewAIJtbQJp/DiMuvxiFB6xAKpKOov2agJD19C6fTvqnn8RTS++AinZwnVX3sJCqCNHQSkfDk9JEbxBP1/ctcZmaLW1SFXthLazBopBHK4JPRRAwZFHYdSZZyM4aQJkjwxJUbmTrRGPo2nVB9h566+BpkbRsygHDNugAgQi/wNWIb5WfhnOHX0ZSnylYjK0D3LoS+lJvNX4Ch7ZeTvUCkm+AAAgAElEQVR2JysxNXQoLhz735hbsAgK0bI0WaYFgibKPclK3FtxG1Y2/gshKYilI87H0uHnI99TzGdWKlG1JINrQt5tfAu3bf0RKlIf8bRE+5H5QpXNgB4ogCAysWQIJSGoalg8w8DXF3mxcLKCPB8NXsp107+E6puDJlKEkJWnxZBkDDvqgNfXGXhhrYlNu2XENBJZiSYjTGFQJIaioI65EzWcNMeDo6b7UJYnQ5UVYVRHlCpVNPB/2eV6Ig2PqqiBVz8y8MRKho92q9CZJ+sFYHABgl2mSC+iImG4msDp5X6cPTqIsQGVijjtOmfRh8Kpr7fRF6cIW00LL+yJ4qZPya+Dr4BcN1Pi1XDpGBVfGRVARBbsgamQ+4djAthxqaSKfRLZmYxhXYLhkvdqUWcIY6reH5kABJqEZChTw1BunN0OELJcyJ0aA6LgiYUqN/NxWfBLuDD/RJR4inh6cKDsZZ1KaeGbLxiaVpbCO8kN+EXjY3jX+oxXagijr/RUz/5ibZfzUh7aIIBgIDoIVQxcV0SAMs3LgMYIGSBt27YN27dvx+9//3u8//77GDNmDP7rv/4L8+fPx4gRI7ivAaUOnIOuQaWR9BkyVKLyyJdeeolrGYh5uPDCC3H99dejrKysw2LFN2eaxi9D18tF6mHQAAKNAtWHglNPx6gLvgZvaZFN8dtOnqYBbc8u7HziSbS88RbUpmakImH4Zs5C8cIFyJs5A77h5VBIY0AgjPQJGrENTWjZshUt73yA6PIVYNFabvfFvGEUHHksys87B4HxE3j8OOllMhitLdjxu7vRvGwZrEQrXxdFw7z9jc3uZ4nBAwjc5EVCKcbginE/wQnDz4JfDsBJFzgCuWY9iqd2PoBHqu7gWoEiaTguH3sDThv5NXhlr5h801TTpmViU3QNrt/wHWw1NiDIvDi2eCkuHX8dRgUmwFQpZ0RTJ5WFyNgW34JbP/sfrGp5BYz/Xf8eAwcQ0u7DsuBVDBw0MolzFgNfmqOiKCBBVr1QyCGRlLG8JFGCYVpoiDGsrjTx7DsprPzUg/qEl9eFty846Ts5YiqSmFCg4YSDFJx0uBfTh0vI89hsjWrrErgmQoZmGKhqBp5+N4Fn3gEqmwKgFiWWlc4DZfYMBhUgkNiMdAcyw3CfibNHeXDasDBG+FR4iC7kt+Cg+K6901PMwodRDZetqkE9o1IomVOO8yNJfH9iGJPDlHZQ4PdK8CvEtqnCZtVmIZwo0ZinhYxAwto4wyV0vQECCPS+EkCQb5gJtiAPukJWvNnJpARjRcBdgk/y4gvqYbip8HxM846Gx2b9crEbymxUdTyL5iHD1BGzNPyp5SXc3vRXVCn1XLTY8eh5EhauegTZZSimifAmHS2Xvg+rWussKeGXpZz9ySefjHvvvZdXAuTi/mmyd8oX09MGdI8ECH7yk5/gs88+Q21tLeLxOF98yPyIfj/pCH7+85+jtLS0jU2ga61atQq33norNmzYAHJeJAaCrkdiRAIWt9xyCw499NA2HwQHnFCKgyompk2b1pbC6Ms9DipAKCrB2CuuRPFRi2F508C7CeiNDdjz7DOo+dvfoDTHwQJBRI5ejBFLT0Ng3ERIZL3M9wbCH1Wwi3aWK2VAb2pAzd+fQ80L/wQaG3ivBqmgCAVnnoERXz4D/qJiMdMQ8DMMtKxdi+233W4LFoV3Chmy9fYYNIBAMwLVdE7yzcE1k2/BvPxjeLMgx++AW75YFuJGHG/VP4+HKu9EtbEHkz0zcdGEKzGv8Ch4nbpnyvHaB91QVbISd3xyA1bF3oZP8mPp8K/jnBHfQsRTyuv3iR1k0GAyHXu0nXhg661Y1vx3pKREp11B78qZenoYgwIQnC8kmyiPxHDREhVnHS6jLEKliT4OEAwq89IZdjQwPPeegWfeNbCrOQiDWyNbaf7q6UBBJMEFmANCSgozRiVx3pIAjpqmoiSPwaeKagkqNU3qMrbWGvjDi614aZMPdUmyY6Usml0jnmX52GADBFLGFCjABWO9+Nq4AAopOUCTAiz4FBl+RW7TCnY1+RkWsF1n+OZblag087g+QWY6Di+SMK/Ih8aERhw3ZpX4cFRpACNpt0WJyk4AgfKV9BxSFrC8xcT336tFC3x9FN1mxiAIgBCCfMMswSBwgJCdU4lYPEUp1yglDz/OOx/nBI9BWApAcQBRH3ZBvZ0c7ZkXlkmljjI+07bh5oZH8A9tFVJK581E5gCBGITQJh2xb38woACBdu2ffPIJp/yJDXAOen/JSvnSSy/F22+/3cYupJsjUbrhj3/8I5YsWcLZATpoUd6yZQuuuOIKvP76622fo5/ReCdw8cMf/hAXXXQRr2gQ+i/BXqxevRoffvghzj33XP59nM/09lkNGkAg07LpMzHpRz9EeMIEsb7YpbQsaaJx1XvYctutUBpqwLwBhBctwvhvfwuesuGcWjX1FJihQfWoUHxBSMQY2qWMNL/xebm6ElUPPoTosn9DTiZ5Iz1l/BSM+963UDR/fpsgiTMz0Xp8dtudiL/1FlSdLMQ7di/NNr6DChAoDzMntATXTr4dM8NzBN2dxgbQrohEck1mDT6sX4m98SpMzp+OafmHIE8paFPhp88dlJbQjAS2Jj/G2toV8HvDOKToCJTLYxCXNDTodahJVaFW34Om5F5Ua3uxunEZKpIbofOpXSx4ElkB99k9bd/HMVgAgf9evrYzFHoSOHMuwzkLPZg6nAx3GPZGTSz7lOHFDwys2epHC9na2umEjv1wOwIEui4BPYXzXES3U+VEEkdPV3DKYSoOHiujOCwjljLx3qcMj/47jnc+DSBheUXZqWNsQyAjTYSXyUAeTIAgPAsl5MkSlg6z8M2JQa68/yhqYGNzHAfnebCkNIQ8Sg0o5FC5L4qn8V9nMnz33d14r5V6BogdBJU5cgaC78QtFKsM354QxDkjIgipNmOWth5xWpyZaDYYnqhO4JaNLTBkX98yDHR/JCRtbkDyyd8g+tJjYLroz9n+q6nUUAAE5cZZMKnMsRcAgTMtlsLtuU+Qp+Onxd/GLM8EqP1kqpPJ2Go/h/QdBqhXacKM45HWl/Hr5r9gj9RgOyg4Z2YBEEwToY3agAOEqqoqPPDAA9zZ8Jvf/CZnApxxSX4IN9xwAwcBJDbsfFBvhe9+97vc9IgWfjpo8SDtwS9+8Qvcfffd+1RCEAMxa9Ys/Pa3v23zQOCMjGFwQPHXv/6VpyDGjh3b5xTSQAOEtlSNqqLwnLMw5hvnw2+DIMdbI7WrGhX33YfY669wobJn8nRM+tGV8IybyCueEtsrEV21GnptDZRhJcg/fB58EyfBr6o8BS46hKtI6lE0LXsT1Q8+BHP3LtG/JpiH4nPOwJiLL4LMrZuF+0pST2HvU39FzSOPQCYr5rSqn+zGvTh7kAGChPnhL+CaSb/B5NA0SPbuqA3ZUqbPNpNImilYzISH6u1VlVcz8OmUr1fpUxZ5hWvQmSGUo5KGBFpQGd+ODxtXYXP0YzQZtUiZMe42J0shKOSzaMWgmxoSZgJxsxVJKQYDSZjcj10wCWJBooVMfMPeZHYGCyCIb847KXAGJT+QwoLJGi5Y4kXAAzy1QsPbW2TUtqjQDCq7o9EpdnVcP9B2dAYIFA+jreMjqcBJm+BXTYwtNvDFgxlOOyKITVtj+PObwIYaD5IaXUO43lGaiYw/iH4lOj2bqA42QDAlSgFIGOlJ4fhyFYkkw6omCzUApngZrpyYh/mFHgSoU5sNENLHDGWyY6aJ6zfW4R97JV4twl9o7t9BXh+U+JHgly2cN1LCf08qQIGPGJ32Wme7sh8WM7AzYeKXH9fjxXoqhew9rSgedTYAgTQIM2yAQGr4TJ+iEw3qwSJxxuBHwTNxUf7pKOEbgIFra9vT5MmrnqjHhGnivfg63BR9BCuMTbz8N/PSaLtOngS8JkNwYwqxb384YAwCLWjkdUBpBBIQ0oJOu3rH2ZDKHB955BFelki9FzpXG9B55Ip42223cVfEdDbgn//8J2cRdu7c2SGMdA4BC2IJCAiQjsHRH/ztb3/DXXfdxdMWxx13XJ91CAMFELhci68BomuY5vFi4s9uQPHhC6H6fbaQWOJrVePby7HtzrsgVe+Cml+I4q9+DWVfPQuK7EHrp5ux8/GnkVqzBqYWgxQIoegLJ2DUhefDFynkTqCiyB9ImSkYFZWovPV2xDeug0zMgyIjtGABJv34x/ASMOFlzRJ0g6HlnXex6/d3Q9tR2e4S3Bt0MKgAgbuXAYeHj8WPJt+GycGD+E3uyyQK1bszYDlVK5wpxIrH55iO2ylC/JTLNQ0TW1Mb8Pzep/F27TI0a40YF5qIuQULMSU8EyXhcuQpRQhI1LHQgmbGUZeqxmeJzdgUXYsNDR9gD9sJXUlAMRn3u5ckEwaneO12OFmihEEDCBb1mxDdvqjrpSpZGBaO49xFJnyyifveBOpTEZimcOHjjv6cKu4sme9ipPEtrMgk04ujcPdEMrnRcMioOM45zodVG6J4ZU0EjWYApsEAhRJKQrxn8D4D4M14sgnnYAIEjq7tZZjAjU/mKg5onBUBQrKF08pk/GBCAKVBUV7aufqA19vrKfx2Vwz3VwAxk+JN9r6OF6NI3QQlE98cKePyyYUo5I1v7OFvK+roe5Bd8MoGHT9cG0U1AQyO6bKJZufnmhlAUEiQyhmESTDnR6Dz8ZXZbNSedjG5m2m5Xo4HRl6NRb7ZCEqU+hJU9WAf6aW5u7QG/KL5UTyhvYIkS3FNgTCu6fl7kuiRGmxRCSh16QtsSCF22ZoBAQhOgyUyRSJHQ9I3kLYh3dmQdvXkh0CVB++8806HdAEfSZLEOzaS3uCkk07qIFYkcSMBhBdffLFLYEHAwElPEFAm1oEACv259tprcfnll/fZgnmgAALtm4hZpmod2VRh5BXioPvuhn/MaOF6SE609F6n4tjzxGPY+/DDkJMafJOmYNSVVyF/zkFIxVux84nHUPe35+CPtvBW0FQxE5pzGCZedy18o0bbFuzUyE7iLDoao9jyq1+hecVy7r5Ir5h/ylRMvuHH8I2fyMskObPAGOIV21B5111oXb1KGAr24R0aPAaBNJmWhRm+efjRtFtwaN6Stkm0qwmhDSCI0drtnEE7ZCpNShkpvNP0Nv6y435UprZgUmg2vjTiTByUdyjypAJ45TAXQCn2tWjHLNHcbFK7aI0zCNXGbrxZ/SqW172A7cn10MhXQdJoD84dIB3ntmwmsEEDCNQkhpHlNGkFRffFcxf6cPZcL3dCXLVLwoOvxPDhbi9aNJnv6KjLpVDQdL8bJaMQmQAZTxUIkEAvUFE4jmOmajj/yDxMKpewNy7hgdfi+Mca6vIYAiPwQYY4TuPnXliIDzZA6Om5031N8Bm4ZXYBDsn3gsqWhXYgrSSXg1gdT9clcdvHSVTrpNdvX11poiEYOky1cPUkP84Y6YffQ2JOAaScd4Jb5hoMD1bG8LstKeFD0FcCIUMGQQCEMJSfTBAAge4gS4BAu6UAk3Awm4aHRv8Yo+VyyrJy8fFgAwS6FW4Fzq1VGFqh4a7mv+C30ScQlRMwSNtrdzftCSS0AQS6L9NEcGMSrZetHTCAQP4ExBBcffXVfHGndAHpA5y2zDSGGhoaOMPw8MMP8zRDZxaBGIfvfOc7/HORSKRt+FMHyPvvvx/XXXfdPm6M9Pzo95Hnwre//W3++6qrq/GDH/yAN4aiSgcSMvbVgnnAAAKn7BgMxYRieaCMGIOZv78TamkpFxDTQT48yaZ67HrgATT/41n+DocOnotxV12N8NixSOytRsWdd6F15UqoNIBoQ8UYArMPxaQbr4Nv1ChAIu6QAILMbZWllhi23vJrNLz5RhtAUEaPweTrfoTgjNmQqREUt/JmMOrqsf3uu9Hwxr+48VJP8/f+1q5BBQgk0hqpTML3J92ELxSfAQ9v59z7HYOwSjU4C/Dq7ufxfN0TCMghHFNyCuYXL8Eo3zj4lQB/20WlvvhdDk3L/4YrjSlfT6kKEy16EzbH1uLfNS/hjdqXUSvthCZpUElNykFCdt938AAC3ZzJSx7njkniK4s9WDLDj5KQEJRphoVPqw28toH8Dkx8uteHlEktcoRLYvcHsSoknPFwViLiSeHQCTK+eAhw5DQVI/JV+FQLOpNQWWfi+bUpPP62hapGLwzmIdgiLs13YdmtakMZINAt+SwDP5gawrkj/Cig6jA+gdj1DfYqapo6VjRr+OmmGD6OdzQHJoCgWgwLwhaunV2EGXlkpkIlpHavC/saGrOwOprCrZ+2YGWzAtVZ0fb39vf488wYBGJGlCkhyDZAMDjky+4gVi7CvDjVswh3Dvse8uUC4Xw6BBgE/r466UXaGUomHmt9FTfX3Y9dSg0sk/pB7F8/wwEC98FQABIpbkyh9bKPYO3t/yoGWjxbWlo4pf/LX/6SPxyqSiDAQGJFSh8QGKA0w+OPP85pf/JJ6AwQiHkg1uHBBx/kbIJTnkjXJ1dGAh0VFRU8FZN+EEggoSKBBKqIoMqHiy++mJdVnn766fjDH/6AUCiUkbNrdyNroACCmHPI8MyEJHvhmTAJM+74DVTbDEoABIZ4zV5U3f8HtL7yEnRFRsHCxRh9xX8jUFaGxPbt2HbLrUis+0ikaiSCyEBk0WJMvOYaeItLuC0rbQM442uYsKIt+Ox//xfR5W+3A4RRozHp2msQmn0wFC+taKLXhxltxs7770Pt8/8AdJqfs5tX02M8aACBv3gMiGAYLhh1Bb4y4hLk+YXwsG3J5cnMzBdguplGoxYv7H4Kf618CGWREfjyyAtxRP7RCCt59oAWuIB2ryJRIP4/3/bQToAWKlttK3ptS9BMDY1aLd6o+SeeqXoQFfqnkJgGSuZnnoMUYR9YgJCWioGFiD+J46ebuGCJgoPGyQj4HPEc3T95IJioj5vYtFPH8+/reH2TjD3RAC9B7JDR4TfipHoIlmm87fPUsiS+dKiEE+aEML5Mht9Ljr8UZdIoqCTIR33CwL83Gnj0jSTW7vAgboWFFoRMgmzNQ6bLy1AGCGKjYeLYYoafTC/CpCA1aqKhlQYQePbMxGexJK7f2IqVTYKCdt4A2lUUyAa+M86Lr42NIOyTeBqGuwbZB03idRrDw5XNeGhXEnWGn7MQmb813UU7Q4DglDneOAHG/DBMu7dips9QgEMD+ZYf5/m+iF+WfgshOWjbqA+VFINtVsn7PDD8s3U5rqv9PT7xVEI2fbbXfs+NxgSDQJ8mBsFAkESKAwQQHL8CWqDvuecenj4gbwICDKeddhqvSnDEg+vWrePpAkozdAYINDfTAk+pAUoz0OccLQJ1gyQG4YUXXmjzOEgfA2eccQZ+85vfcIEkAQxKLRAgOf744/Hoo49yPURf/BAGCiDw4cp73JiwFC/UadMw+9e3Qi0oECZoVG7sAIT7/oD4qy/BkGUUHnkMhl/xPfhLihDfVoFtv7oViU3rue6KSQp0vwelp52CMd+6BD5/Hixuq04AgRriGtBrG7D5f3+JxKr3xMIpSfCNn4DJ118L35TpkD2izzGtY0ZrFFV//iNq/vZ3WEntQGUQJEimAo8UwJKCk7lPwYTwNK74Fg0wSLhEuy5hINPtYesTSDCkGxreaHoWj227BxGrEJdMu4ZrG4KKqDEX1xH1pm1ef/Z2h15dQoV0jsLoZaeHYAtFeIs4hkazBq/v/Sce3vl77DI28zRDx7a6DhfR49cF2x3E9ts1xD80nNR9hw9wNrp0LsJH3Q25aK6ttcgOBXIhDS281LyDmSgJxPH1+QbOWpSHcWWAzytq9CWn0RWBIm63qsOAgd0NMlZ9pnPx4prKAKI6DWR7CWd05/RcTCgyQ54nhuNnM5yzKICDRisoCJIVttCIcLMOG5BxZoYxpHTgo+06HloWx6sfB9CSJNrcBOMmWZkvbUMZIPCdhCVhhKrjltkRHFXkJdkFZLvnAh+JnLamBd7Arz9pwTPVJjQCVHxMyvBaGg6OGLhtTilG+RUoinBktMlH0SjaZHinIYnbNzdibVxGCgHObgnauy9HBgCB+0AodpnjOBjzqTOno3/I4nfLDPlSAF/zL8Uviy9EnuztJIzN4lr9eardUfbF6Lv4Uf09+EStEP763A2sZ3tpKl0j8S4HCAYBBB2xy9cPSIqBFnqi9W+88Ub8+c9/5jt8Eip+4xvf4JULjrcBnUfeBET/P/HEE9xlMf1wWjhT58elS5fy9s0OQGhsbOS6hl//+tecreh8OACBWAjSOTz55JMcgBx99NGctSA75r60gh4wgEAbS/5qWTBUBb7JEzDr1jugFBaA2jzTa0cdcBMN9ah64I9ofvE5ri8Iz12IcVdcAd/oUujVe1Hx67vQ+v67UMgYCTKM0lKMvvB8DD/1NCiKl+taSABNoMNImYhXbEHFrbdC37RRuHzKErzTZmLKjTdBHV0Oj0K+MzSnMJitcez605/Q8OwzMBNJbrTW22PQGARuDcFEn4QyZSwumXgtvlh6FkJyyLYxZZDJepf72PcEEBhVeEGHhsrkZ/jtpzejIVWLi8dfiSNKjoGPdiN8m8/7RvL/z0sY04PGa3NtMSSnCwW9Qzkd4bku8vEGUqhJVePxnffh2Zo/oZXVd5HeSXdj3Pd7DxSD4LRa9qo6JhXH8JXDJSydF0J5vgqVGovwbngUl7TBI1Ysfs+024+ngM+qiU1I4Y2NMirqJWgGtSIiIaOMAm8Cs4Zr+NJhMo472I8x+WToQ8CB/oiH1jmH7Di4JQyGj6t1PP5vDf9aq6CmxcuR9OcJIJCHRBA6/meSF+eOzQPv9ix17GZH4y5mmPjzthju3WGgiRGRRXkuGZN8KVw5I4ITS/3wUHtnSlHQj/gQM3n53e4U8IetUTyzO4VW2Q+i+D1UnjhgAEGFMjUI5Yax0DlAEBqEzGGeSH1FpCC+HjgNvyy+CHm2N0dvJ7X+/Bx1e3yx9R1cW3svNiuVwnuVbtYUXTa7PWjC54ZkKiRTR3ADAYSNAwYQyCmRAAKJBekdJF3A4Ycfjttvvx1z5sxpEx2SWPGhhx7ibAB9Jv0g86PJkyfzBZ0Mjuga9H7T9WiBJqtl0icQm+C8587nL7nkEtx0003ch+F73/seNm3axH9ElRF0vcLCwgMGINCqxRkX6ok2fBjm3PU7qOVlXHhN6wsxCEYihj2PP4W6xx4DM2LwjJ+KMd/9LiKHHQSrOY5t9z6A5n+9DElroVcdnukzMebyy1Aw5zCeRqQ1iK5FS1cqpaNpxXJU3XMfjJ07+PxA82/oiIWYdP0NsIrDvLqPN8sjgBBtReW996PxhX/A0rU21rI378WgAQQh/rE96uHFgrwT8P0JN2KqfxYnDcjKV7ZI/d3zVEOTJJVDNOmNeHLPA3hxz1M4ZdRX8NXyixH2FYjF3QIaU/Vo0moQ9hSi2FcGVWnvS84ftqVDMmQ0s3o06HsRUiMo8ZBYygOLvotJix6DrhvYnFyH2z75Mdan3oEpdUTZ7c1mu34cAwcQiAHRMX1EApcdr+CLs73I84scNvEAPMHCZeJp31O4IYtqBItMNkQDl6aYjFVbknhuVQLvbPWjPq5gdIGF46aaOPUwD2ZNUOEj62VqjCUJ8MDj3kV6qE0RTt05mY5djQwPv23g8eUKGuNkwJL50jL0GQS6GxPnjVDw31MiGOYl46R2gMDHgsWgWzrerNPxvx+34LOU2JEWKQznj/TgovF5KPQI3YFYi6gjnEhNxE0Tf6lO4v+2xLFHJ1dR+xwqDe6zh0emDEIngEC7GK7PyeKQLOTBj6/4vohbyi5FRKamXWIcDrWDOIDnWt7CdbX3oELaC4P7ldMDIQV7D9+WN9ahFJIKySCAYCD2nQ2wqvV+d1Kkd45cDkl/QOkBAgH0bo4cOZLrAs4+++y2dAEt9NSHgcSIK1as6HBDpBM466yz+GeIJSArZhIdOp4AZLZE5YzPPfcc78fgbBCIGSCvBPJeIJaB2ksT40B/T+2gSQtxoKQYeMtvW1ht0oIcDuOgu+6EdxL5dlDlDbmh8o5LqPv3Cmy/6x6gthJWOIT8L56McRd8k/dP2PbQQ2h6/jlIiWbukRA59jiMuewyeMtG8sXetDeplJqKt7Zi75NPovEvz8KKNok3Q/Kh+JRTMP7K74MFvJxt4GlgZkKvqUXl7+5G05uvC2+aLLVd6Q99UAECUSucklEsRMwyLC07D18fewmGe8Zw5oBa2+6v4yBjBkjotTm+ATd/fCUiahiXT7wes0PzeNtoEhDVp2rx/J6nsLbpHUyOzMLpI76Okf6xfLG0l0NOC8W0Frxa9yxWNLyGsf6JOGP0NzDGMwmWKnLofGDQzpq14u9Vj+DhHXegxtrRaVYYOgwCcR4zR8Rx4TEKjj/Ii+KQLJwNuQGS0yug/esLQRaldwhUkbjFEJoJU0bSsFBRZ+Kl1RrWbdPwpUP9WDxNRlmeAo+XSviEpsOxDO1OOdtmMAITKcPC9joDT72j4emVMupjoayy50MdIPA2zBKwMN/CdVPDmJNHaYZOAIGXLJnYoTHcubEe/6w3OW3/hRIZl44LY2rYBy8XJtqCWkF0QWPkuZDCbZ9EsdY2WRLKZ5olRPqnbwtsZgCBAI88hcocx0CfH+Qt2ck1MyuAQD1Z4MUXMB//N/oqlMgFomog03KIAUIRNMZpUXio+Xnc3PQAahCFSelHmRodOUa53W8MuNUydaIlDcIGHXFiEPb2P0CgSZ4qDajHws0339xWaUCL+3nnnce9DyjNwO/PNLldMlUW0ELuNHGiuyL9ADELixcv5n0XaMEnRsE5KD1Bv4NaSNPvo4Pmb2IHyKBp+vTpXHtAvgl0XapcIHBCugjSMxwIGgTavdPcSKXZvP236sH4a69F/tEL4fGHIUnUWI3wuYXknmpseegRtLzyAhSmwyofjdeGU80AACAASURBVOk/uQme4kJsv+f/EH3rDSi6BssfQOnZZ2PU+RdACoW4/T0vcOaLu4notu3Y/f/sfQecXFX9/Xllys5sTXbTeyeQQid0EAgqTaSoIEgRUARRkI4K+LNTFEREFGn+FQRFkCJVSCiBACGkJ5ve+7Zpr/w/53vf25bN7szu7GYS3sOYbPLmzcz33Xfvued7vud7332oe/cDaFzvyFuVVmHwxReg/+lfEoAh6QiZq23ULVqAVXf/Bg2ffCzaslx0fK1H7y4FCHRPk85+MrGZqDIG4qsDvolT+30dFbJ7N6S+s92yRrYZtWrxwpZ/4ZcLb8SZfc/DecOvRKXeT8qkbM3CnK0f444lN+PDhmkYFd0b3xt5O6b0OgYhrzGUyOzsDNYnV+LX82/B63X/wUh9DL4/7jYc3ut4T1Gq6ti5ZFLMtyK5GD+fezVmNrwufQzUetvxzqnnGASOLwshw0JVcRpfPtDBGQfHMaKPKeJBf4evSAS16qjqDVLcLEHkT9RIsJrDRNoGNtZYeG5mCm/P346vHNMbU4ZrKI7qMMyQZ5esnBEbF4cWfhX0YCA9zt2Wg60JG5+utPHY/9L434IwttWHgWa762zm/EIHCFxMGI3BEQvXjyzCF/rFETZbAgTXVp6MCdfGm5uS+POiWumT8Y1hpZhcGkKEIFYMRpX5AdfMtOtgedLC3fO34r9bTNgZDS59GAQU8JmiqDTXdsStI54tQDAUQLhlCDJTYkoXIZrs3A7TNbF3ZiQeHfEjDNf7I+T1/tjVHIKXKFP9zDQHtUjgrk3/D/ckn0CdloYr9qQ0U2sfEvF7cBKX5KWUOdo9ChDIGjzxxBPSXZEAgBM/d/A0PXrooYcwceJE+dlPF/z73/8WzwSaJvHvCB54DlmI9evXS1kjSyZPPvlk6bvAg+9BkSLfY/Xq1Y09GVgxQeDAazHNQSEkr0kdBD0QCFr8pk25jZqms3tKg6DE1KrTp3KONRE75VQMu/jrCFdUCkMkMyDHSzqNunlzUX3v/bCrl0CrqMBev/wZXCuDZb++A/VzZonpkRYvQ9+vfQ39v3I2xWHQTVUCznJJzUpgzbPPY91Df4K7ZauMMqY2YuP3xbArvo3iiRPk7yQdIcSFhU3T3sTq++6Fu3pVo8C8s3HdZQCh8QN7OyIVUx1DzJE4s//FOL7qDPQLD4TOwcfd6U6qGSis25Rch/tX/gr/WfN33L7XfTi86nhEtZi8BRfvFfXV+OPiX2Na7cuYED8Al428FnuVToYheRvlD06B49bUJjyy/F68vOEZjI1NwKXjrsb44v0EhOkO67LVPCA5JjeNO+bfhH9svB8ZLSUsCMuYOnKh7ymAoJgR1YBJTIu0FI4YkcRXjorisHEhlEcBk33e+d0EFav4i7BR0jIUaLJsFLAtC+u223h6RhJvzknBjBYhWVePrx1VimPGh9GnlKkgVR8sElDpyqcAAd+f5iJMGTmOjoSVwYYaCy9+ZOEf09KYuzGGNMKeMDS35HWhAwSaBrFMke4A3xgawWUjSlAWbinE9DfJZLAyjotlDWnEDAP9IyZMXYmRuIuQvKc4ixrYmErj8eU1eHwlsNlWYKBpIc11776zqSMbgMAeHarMkQDBPiSmGm/l2FNDVRIBfZxy/K7yWhwXOwARYVry9V06Oz2q19ESXE3AaSy0VuG2rQ/j2eRbyHgMW7afUqoYNE76DmKfuqi/fG6PMAg+a/faa6/hqquuEh2ArxFgVQLpfzIJfrqA33n27NkiVnzzzTdl4ecCTjBw4403giJFmiKxdwMrHsrLVfUZ32fBggWy6Ps9HZiW4HuyzJGsA50Yme7wUxwEBxRLdkWgyM/bUwDBGxGNA4pVSea40Rh+/XWIjRqj+tbIuqM8CZBIo3bBYqx85mkBz2OuvhzJj+di6W/uhr1mpaR7HSOC3lOnov83zofWtxIR04RGMXdDA1ILFmDxPffCWTRX5nE+6FppGfqceRYGnP1V5aLYzBPFTlhY+ehfsPHvf4XRkPDE5J2H2bseIDR7diVbooXR1xiEEyvPwMl9v46hxaNgSgOLth9Dx7WxrH4R7lr4Q/Er+M1+T2JU0XiYjWIwFxk7her6BVhWPx8D48MxKjYeUZN5TgU8ZA/nWMhYFlZmlmBp3WL0ifbDqKK9UKQVwzG5+CvjFgEyVJG6Nh5ZfS/+uPQnqHO3yQ5OFtosdhI9UcWgwqo0BP6gZkfHAeUZnLyfgc9PNDFmoI5YlDGndsBPEXh5bqprXQcN9EdYm8KLM9NYvi6F4/YvwYShEbwxuw7vL0rjoNERnLhfDP3LgJAI41S3wca0l7RoYLw0bKwFZq5I45l3bUxboGNrMgLWTDBdrjtec6FsZ1u/Np2GW4aDSDKF1LInUDvjZrgNa5tGFdGd9DdwocUrUHbqRYife7UsZN1twsMJgYuCCQtTK3VcN7Ycw0sibY4Q5XbHls3MrvF+KOJMvE8E7BF8ZVDnGnhhTRIPLq1FdZ0hE4Cjemt3bRXc4dVZAARCStpNj4nDvGWwVDGIMXkO95Bvy4ol7s5jbhiXhU/H93p9Bb1DFS36suT5y+V2Ofl8FhzLwX8bZuC2mr9gtl2tzHBzKMP2AYJuOSjqQYCgQI4r2gJqBGhQ5LdbJihgySK1CUwz+AfbOFPAyL9nZ0fu9q+77jpJL9DvgE2aWKLI9AT7LfheCtQW3HfffQI6CCzY5IkaA7opEgw89dRT8vcEFBRJEjCw62NHqeSObljPAoTmn0aDVlqOQVdejorjjoHJhmregyvriu3CyaRh120HMjbcvr2x6fEnsOaxR4Ha7WJIp+thuH37oPKkz6N0yhSES0rg1G1D3aL5WP+vl2BVL4Ft1asySj2E4gMOxsCLL0TJ6DGyyePjxvmDm+XMxk1Y9Is7kJrxtvRnEQCSI2Bv/u0KCiBwZmEpHXvCV7r9cUjZVFy7109RYpY1irRaDxTmO+fWzsIdC29CjbMJd0/+OwaEhjXqC1S3Qe742YopDVMLgf9JPbqf1xU+iAHmXs2SxZ8WlRQocqa2ddoUezbQHkCgWOnf6/6G3yy5GZvtVaoqQKjVjqnGngQILePFxcpBPGRjn0FpnHpQCMdOCKOqGCgKq0oPyZ8JvZXC9pSDj5cDf32zHkVh4IyDY5g0JIR4BNieAqbNT+OF9+vRvyKErx1dhAG9IBQ6STaKS5WrJZCwgFWbXfzrnTRe/tTC4g1FYsKkVhKmMch0UC/SUuHf0aRQ6AyCODuQidEMTChxccPoGA6rLFIWXTsRcHJcccfqd2wUZ0VJRzpI2BY+qHNx57zt+KSGvhUaLJNpIb7PLgYINw+GdXAMGT4fuQIEudE2n0oc4IzFrX0uxUFFE8GRVBAH02x6Blsz9fj99qfwh9p/YauWyAmSqadLWeSyF0NPAwTGkTt36gq46LM5E8cgF3Yu4v/85z8xYcKERkdDAohnn31WQAF7LHCBZ1qBIIOLP18/ePBg0Ruw5JF6Ar/PAtkH/h3PmTJlihghkbVgSmLevHlySwlMvva1r0llA6/d1WPXAQQXmhlB2fHHYeBF5yPcp4/Xkp2aNa/dMoEk0wW2Mt9b/JPbUfPWG9DSGamOs80QnJCLUHEM4X5DYJfGodXVwF6/HtiwVTQHXIN0swjhoaMw+OJvoGz//WFEI9LdlXGn9sBJp7H19dex4oGHoK1b7VUy5VYe3/o+FBRAUKV5XFjoBhfBUH0sHjzwOfSOVDXuzJs3SpLduuNids2H+OWim5BxanHHfo8JQODOxj+kHa5YnJA89+r/m7lLKXGeasIhXkmyN+CszPN12aGpHKJ6LSdr/vuLG57FnQuvx3qnWgCCqlAXwnSn470nUwytKyrEEIrf1KWK2UVFNIMTJmRw3vFxTB6iSUUpa27onVDjpPDShzYee6UO44eFcO6xpRheaSBMAw+CJkdHQ8rBvFUZ3PvcZkSjOs6fWob9hugo0kLKI0JzsDVt4N1FCdz/ko3Zy0zxU2AMdddUPuNiNqVKSsUqNIdjtwEIbhi9whauHx3CGQNLILIaGoK1GipKjcD7o6gDOgxy52qzt4LjYnGDjVs+2YZZNVEkxfZblYXahqVUzHk9smAQaLPtpxhuHgTr4CJYXpoq149CFinsaCgzw7io5Ax8q/RM9NJUG+CeP/xYKtDFMUor9hkNc/CjTQ/gfWeeJH1yOugZ4djCCDEVWfQpeizF4H9OLqIvvPCClCIyFcDDBwkEAtQOMOXgly5SK0BRItMFRx11lFQvkFVgF0Z6JNAHgdUO9DVgh0c/lbFx40axVX7vvffESpmpCnZ05C/qH3iwgyM9GM4++2xxUezqsasAgqRhNRdm1UAMufxb6HX4FLjRiLimmt4zyVQrWTLRcmytwcwrLoe2olqlXjkg+lVJCtZesx5hWvFIuaQSu0v5vU4QYSK0994Y8o0LUTZxX+hR1kwrBo+n0rI9s3UrFtz4QyTnz4Vu08hPWaaxB0hnj4ICCKTombflw1fsFuOIXifgR2PvRUQrQYNTi1XJxaiuX4q0k0ZxqBilZimKQzGsT6zBX6rvRcqqxx0H/RWDw6OapRgYGr9+z1OCS6ag5YSqaFx/aW/6iYuqMlokePAtVQXT4V9r/h/uWfJjbHZXSfxd3fIARqEAhObDwh8lHh3N7wMX8VASYwfU46wjYjhmnIGqIh31lovnZzl4+f1aHDJKx6lTytG3wkAoxD0xY0R7WfpYuEilbSzbksFDrzRgW4OL0w+N4oDhOiK6hlVbNDwzM4Hn3geWbCkCfQGaYuxXkPhx7yg5s+MQL3SA4H9Xbu5DsHHRsAguGx5HhaGJuImfX7ID3nBR8ECBTCWK4+6AHdpsLG1I4/7qWjy3yUWK/iBeu2m1S+k4tZX7BJENQPCMksbQB2EArIMjAhA6o5rmZGmyo6emYZw+FDdVXoAjzYmIGnHFKqonLPev0alXaDCkcRg9QRxhFLfq9fj1pkfxSMPzqNcyUq3REVvY4unj80YamJO67aJojoaGy+f3iAbB/xyc7NnymQwA3Qy5qPLvSO/TQvkPf/iDpAv4s+++SPdDihupNSDDwBQFmzr5XgoHHngg7rrrLuy3336NLZvZjIlVC+zpwPbQhx12GL71rW9Ji2f/dfQ/oJMjrZ6pb+jqsesAgsAsGGYYRYccjMGXfhPhoYNgmmIWLr0UmM7kzGenLKTnzsK8G38MCIOTgRuOoOL0L6FsyAisfu552EuXwkg00FYDbKRgogjoMwjFUw5CvxOPR3ToEBhROliqdgCy6XM0pLZvwdrnnsfGhx+Dlqj16tXVU9OVrUNhAQTmYBFCRtdQqVXhgkFX4bT+52BNcjXe2vRfTNv+EtY2rIRjO4gYUUT0KKJmkRgfrUwtQ9iN4VeT/ozJJVMQ0iJdHXMtXy9bf1doG0XBZ/DQyt/iTyt+hXptc2MeVU0bhQgQdgwH+1YM7JXEwaPSqN1qYUhVFJNHmli6IY1FS10cO9nEcZMoQqS5kkqxqBbbavck1Bbr+Knx2KTh2Q9SWLgqjQP3MhENGXjnkyQaMjpKyuN4+h0dGeo4Gqn13CbYtm5moQME/zOLDsSxcXRv4Kbx5RgX1eCaYWUvLerOpvGiuCsPIFAg6jpY3WDjkVX1eHptAhtsUxiejsSwXR/8uQCEoq4DBFLv1KKwE6YbxbHRA3FDr/Mx1BgsLIWvHu/SbJdtUMR1XSnRufurc+rxz8QbuGf7P1DtrJBdme015sn6kgIQVLdTAoWiOXqPAwS/38K0adNkV09DI+oB+Pe0XiY78OUvf7kxXUCWgGwBzZXYn4HmRmQRVq1SGyICCTIHrGxgusBvuOR3hqQWgUJGlj+yIoK6Bb6GfRzYFOr000+X1zDN0dVjVwEEWYBdHbbhwI2VoOrM0zDgtFMR6dW3sQeCI208AashgY3PP4u1DzwEu64OOtnBil4YefX3ULrf/qhfvgx1CxbCWrtRhKxaOIxQVSWiw0eiaNgQRCrKRLQv7GPj/OvCTSWxdcYMrHrwIdEreE5qXQ2pvL6gAIIi7kOSgx0cHobLR94q7XBfXf9vzGp4BzX2JrZbVF0USWKLspiaBQoEgbBWjmtG/Awn9T8LcaM0JwFRh9EUEsJLPdgaat0t+PWiW/DspsdgaQ0wvVbKHSG2nk0xtP+tHDeFSUOSuOYUE7pl4cWZwNJ1NiqKbZx5dBwHjzBREVMTATUbUpbaal1nusVxM5JyWLvNxiuzknjx4wQaUjomDjHwuX1jSCVDuOTBNFIOzXz8xfCzAxAUmHIwIJTG98aU4Iz+RWKYpIsZSpMWRh5ImnYxGUY62nawznbxl6W1eHq9gw0ZZXGtxLDdfeQIEG72GASxNM/t0wnTIuW1PkjQUOIW4Zzo8biw4ksYavRTLnE5XrczEVL8miPisZCtoU5L4s3kJ7ij5jF85CxEmoXOApBzSzEIAykAgdd2EJ9joL6HGQR/wqeQkP0PuLCzgyMXAS7UdDhk+sFPM/AzExTQt+Ccc84RkEALZjIE/sESx/POO0+uRbDgV4VR5PjGG28Is0CgwFJKmiuVlJTgwgsvFG0D36cr3gfN7+8uAwgcs9Ck/TNT2U7fSgw+91z0OeHzMIrLRI8l7cA1F5nt27HsvvtQ+9/XkUnVy3gwJuyNcddfi/DwUbLrdzMZOMkENJvpOxN6JAyw2oy+QJ6Y3N+ccbXMZFJIVC/C8j8/jPS779IgJefnr73npLAAAicBCtxsHb1CVdi75EgsrpuHzekVyGjMXSmKUeX5vcyB5HfYb4B5mghOLP0qrhx7EwZGhygHqdzmqnZixd1yRlyybMvFp4kZ+PmCazEv+b4IrMLMA4nwsTCMkrKZHPl99hmYwG1nhnDgUAMrtjqYv8JCvyoTEwaGEQ7p0OmQKBdrvvtvuroqhfR2vJaN7QkLHy51UNdgY98RIRTFdEyr1vGdP2SQYY+LRu3HZwsgMGLsXXlUmYVbJ/aWMkbS6dJuvFnKm5OMrVuwbBfV9TYeW74Vz64HttlqUVI9MPI4rHc6UHIECDf1R+bgiNpZ59g9Tp5mLwbcbImgy7VQpZXga/Ev4ILyUzBQq/I0F91soMTNh1C3JlwrgTetOfjDlqcw3fkE9UjAYQdSAczZPGHNnhMvxUBFORmE+FwD9d/u2RSDv7Bwh08vA5ohPf7446IL4EJ95JFHyt/tu+++jZsrVjBwsafx0VlnndXIOjT/9uPHjxcBI6sRfIaQIkcCAuoRWMb46aefynuceOKJIkykaZLvn5BLJcjOor4rAQKHAo2TuODzMIcOQ9+vnInKY45FqLjMw5IOMpvWY9EttyI5ey4cJy0b3PJTv4gh37oEZlmlLOwihhfBsVrofZZU6ZY9My4hJFgdYSG9fh1WPng/tk+fBq02obqF5jo42xnKBQUQVC2+12mRO1bEkEQChmQ2GTD+u5dXabGLonBQF9vTUaGJuGLkD3F4+XEIm1GZrJStcG4PdOuzVQ06AYKDmvR2PLbyXjyx7gFsczfIXsIQbRnvYvt50oJiEOCgLJTC58ZZ+NIUHRMGm6go1qCHXEScsPI2oEDTW8RUO+yWq5OKiyesc1gaSTbdQtrSsK7WwfQlNv7xto0Z1UUitmuZYujaPdldUgz+t3RdAwPCKVw+PISTBpSh1NBhUoXsDXzu2NhYq9ZxMK/WwpMr6/HcRht1dgSGiBKVKlopDro4oDsMfRYAQYaHDmNsEYwb+yNzSAR2Y1O0Dt+g6QTF5ivw71lhiFGX5mKIOwBXlpyBs0qOQ1SjFbcHECT12jSB+g105BrtPOwt3Rk97095f2VJq8S1FmrdFD5IfII/1TyL6dbHqEdKPd9sytT4nOegifCAj+hFLAIEHfXfWdijGoTG2IH+/ilZtNlciWWPBAJ0SuTi/dWvflWqDPzzCSBYnkh2gZUJrY/S0lLxOiArwGZMvsgxkUiI7TJFjEwzEEBQ9Mjf/fPyAQ74eXYlQOA4FS5QuScJIHBHDEPf005H1eGHw6zqLWMrs3YlPr3qarhrVosmwYrEMeS7V6DyC1NhMm4iuldriLQQV0+E6s7qlYs7Im52hGVoqK7Gmn/8C3WvvwYjVa865sp8ncOz18GpBQUQ1Ihs+sT+zqLp+yrZV0vxt/d3XJhcV3wLjq48FZcMvh5D4qPFDMng7jc3RnCHsPFdaJCUsuowY9tr+N2in6Da+hSWllJTdauFc2dxLySA4NduhLUMhvWqw+cmGDhuchH2ZkdG7nC9PhhclCiIEQpYXKOa3REBdXw8bDi2JmzClroMPlrm4PmPbExfoGHNNhMZ0L4xv94DuxtAILjS2R+j2MK3RpTjiAoTZWHVOZSGVElHw8aUhbe3JPH82hQ+2uaihsV/jV3P1aTR/eBAPYhCmW7fguTf7kDNC4/Dyai+I82fR+4KjTFFMMggHMJGXswV5GGGYlULRbR2FJfGTsZlFaejRCtrIeiUSHg6Ad8jf2dNwpovjo3Ppk9EyrysvE64C1zjrMfLDe/hidqXMc9dgjpaKfsuaZ2de/ns2AQ1LnTLRuxTA/VXLupxgOB/fAIlgoSZM2eKyPCVV14RPQJTCbRDZp8F3/yImgOWKLLskS2aWx9kAj73uc+JgRJFh74nAlkKph5okDR58mSpkmD3Rr9qIV/gYJcChObBaCS2bQHKWr9B6HXUEag67ijEBg+DtW4NPvz+92Fs2YiwFoY2bDRGXPsDFO+zF+iALw0EvcVNVdEpNtrXG9Ajhe6K9rZtqPvoQ2x86UXUzfwQWiotVUw8T9pD5+Hx879W4QGEzj6AyvlSUhTlZj+c2edinDX4IvQ2+sKg0ZJH0XT28lLja6Uwp/YDPLzyLsyoeQ1Jp061iM7hKCiA4NXOC7bRbJSE09h7YBrHT3Rw/IQSDO1lIEprcS8boCiulu23pbRJ2kTb2J50MH+Ng1dmOXh9joPFG0NIiqjOgeV5HORzUtjdAIKqprER1oEJpS5O6xfFxPIihHUX29MWltRZ+HC7hQ+22libDMFiBYOekY6neXzmsxyt2QEEadDVCiB0dYJSnVS5E2rAYLsfvl9yDr5cehxCWrTxs0tLKxpwcSemA6YwsqqsKxsGwWcSVPGzciioQT3mpRbjpYa38VLiPazTNkqPFls3lLVuFw4BhyxrKxCA4AMm7vLpTcA20CyBpFkSWYVDDz1UAAJ35h999JH0TKB9Mn9ufTDeY8aMEQHjSSedJHoGLizUL1C3wD4L559/PljxQGYiH6LE1p9hlzEIbYwJblQ5z/O5dUuKEdl7DCoPOQzRijgW3HEX9Npa6JE4ep9yMgZ+/VyYbHXN870+Lf7YVOX0TW3hrbp6NCxdhq3Tp6P23enIrFoBjR740j5VAYQcOK2sRvMeBRDkG0sOJ4peVh+cN/JKTO37ZVSG+8I0VClNZxYosWJ20qhumIc/Vv8K/6v5j3guCDOcY1vdQgII0pBJQIJqakUvf+5wY6jDocOAC6bGMXGkidKojigXAtUUoDFdI1UMXPxTGWxMuPjvpxk88kYCCzcUIWGRMvM1B0qj0NU0zw4Tk/c0FKqTYuvPy8XBpCeH4yKtO6jQNfSNsCTUQV3KwmbLQD2rb1jt4ROM0vtdpdd69ugsQMjPJEXRL1Xex+JgXF95PsaHRrXo1UHWKuOmJY7cPcVs2oQTzXZMFardGWDZyhQt5WawytiMl+qn4/na11GN1UhKzxAdjiGtcXIWJe5wr1zVUKcJIOiov3LxLmMQ/M/nP8PUCrCckSJEOiWywoA+BxQksiSSaQIuwm010CKQYDdG2imTfeCfyUbMmDFDDJKmTp0qZkxkGrrqmLizZ6CQAALBpJQwez0bBIBGS6H1qYC+ehls20Vo4GAMufIylB1wEBAKC3tget4oAgo4r9o2bIoW6+phbdqGje+8g7WvvozQ6qUwM2mBtgY9UjwCW/kt5Heq2PMAAqdWh/aSBoqNXji7/wU4rf/X0T86BGHQltLP3zbl0punLCT347vSMV/olZqtTa3EXfNvxtvbX0a9vkXEiLKxznG7VEgAQZkmqVpdfhcpJXOpoSdkAPqXJ/D5A1x88cAI9upvopSiRWpDFOcFy9FQk3Dx6aoM/t9btXh1noHNiahQtZxchWZjjloqPLpYkNvGzLC7MQhkmxhbzWWljmK7GG8RxQk/SB2eWvBUR0bVOa7L9HankEX2AEEbUwRTRIphMY1RuC2XvYw/OFRdN+FR1NExwK3Elb3PwSlFhyOiFynRMccSW+AiiaXOOqxs2Ih+0RIM1MpRrJfC0MICZFmFrnqLqkOKR/1x62ZQ7yZR49ZjqbUc7yY+xlsNH2N+ZjXSIbJhlgilLeF91S6ua4fifRUr4oBWy7FPfYBgtRkq5ui/+MUvSntkv6qga5+h7Vf7cx0XWD/lQL0ABYvUFlRXV0uJIpswtdddk6zAMcccI9bJFCByI8Z0BP/eb8QkDGS+dwne1yokgMABo8yJ2CxQg6UxfSXLOUykkTJDKB42CqWfOxbF48Yi3KsMejwGzQyp+diy4CQSyGzZhLrly1E3ey5q5sxDZsNaRJyM2LdTNE5Nk+g9lBWCynIHAKGDx0SaEyklNSeUCqMSh1WcgGP7noyx8YmoMKoQ1iMwJedAgZgSfQkRIJOPJY2YlIMVrYlJk2fwv63P42fzrkSdtgWu7rXV7cQTW1gAwZ88m1Cn8sVXkMnQHBSZDRg/II2TD4jg8HEGBvcyUGQCdWkbC9cDb8yy8fRMB+vrTCQyHLS8Jm2UjUZZhjL96USwOnjJ7gYQ/IWqeYlcU7ybvmxLTUtLxU3+o7izK2YDEFTe1BgbhXFDX9gHGbCaCQ6z/6wKIPBJLHbCGGT0wT7GMJxYfjimhPdBKYphM0XlOEi4tVjjbMJH6cX49/Y3sMJag2KjCGPNYRgXGYGqcC9UkNSiAQAAIABJREFUGCUo1WKIgYI5GqCzi4Uj7pN1Vj3W2xtRnVmFBenlWG6txVaNPRpZwNgEBgRLqBvh/a/rA5j6HdHyUKTIMscrq+Gu37UAoTmTwD+z+oBAwF/UqVFgv4VZs2aJkJFtmv1GT1z8yQowhUAwweoHOiuytLF1hUJ3AQP/8xcaQPBHi7+7F7ggi7eSw7Kls8NUTDyKUGkx9NISuBQqsuFf2kK6phZWbY2IEQ3bgUa/Cjoxqn6gHqhU7+LPrd0xU+x5DIL4Faidq6jCoSOqFWNgdDgmlUzBob0/h7Gl+6DMLBMzJdLgwgKQKUAaCdRiS3oDNiU3QDM0DIoMk9dP3/Qqfrrou0jqNdBI+TbWQee2vyhEgLDziZyfNoOQBlQVOdh3WAonHxLCuKEhTJvbgP+8D8xZHcb2ZJN5kkwE3P3mWCee/WLSbCHdzVIMnfmOu+412QIE0wMIfRRA4IOUK1skM5vaXfbKlGK/8BgcXbwvJsbGotIoV5bddgJr0pswp34ePkkvwGJ7BTa4W8RIiiJkAvkYDET0iBiokS0MS8N4BRAsGnrBlqooViQkNZaSWrDZL0Tq1Ls30jITOR5AsG3EPzULCiC0Bgr+z/RJoKHSihUrpF0zf2bagXMr9QQVFRXo37+//GJvBlZCNNcZdDcwKEiAkM1QkpJI6bcrxkcsXpAKF6Yf+HoKEj3FYnelZbL6mI6DJckkflVdjdl11Nw1MRUCejQ6lOxw+E+Tg1CxgYqv66g6xYFe1L4HQDYfKD/ntHzaFdtDKBBGmVWBQeZoDC/dBwNLB6F3uAJhhJBAChtT67Fo21wsrVmAGnsrXF3D8NhYHNfvixhUNhS3z7sam1KrAD3jfczcZSG7E0DgZyVlrGkWQo4Ok/0bYvWoKMlg+WYLSbu3MC30oWjshd14A7t5xvUQOd9ud9Eg5Gds99RVsgMIuhmCNioC44YqAQgcL57lZtYfVIC8RlbOlh4dIRSBS3zULUKElQUukNbSSOgZJGEhjYyiu8lS6UzReBSVWE4zK9BE57sGn1WV4pJ5wOuv4p3pCbyy/qidPnF3AQitv6DfX8G3ZVZdRz11vQfqyCTwV75MjzoT5IJiELL4Av6i6qcEXKYf5RnwmQbVk6gnNlrtfdw9j0GQb9sS0/DhVJ0HWBbF/UZIujpGzTBC/FnTkWKVgpOG5SaRttPizsjSJxMRVOp9UFk0ACvTy1GX2gToqtzLK0DJYjg0nbI7AQT1qVVeWJXQEO8yX85+AK50zKRIxu8CmVMg8nDy7phiyMPX7qFLZAkQ2FNitAIIjjAIyjsjlx25Yvw4xjLKTU60GXxW1S5LSCnf/0GwgCZmRcJUuQpYqH4p6plUBIbSHKgSXO+gvkEEoGq3ZtP9rkc8JfjZVEMy0ZtYNuJzCpNB6KHBlfe32d0AQpPxR+Pg9Ma7+lmlDToW3OY9kK0uuIcChOYgQU0Xqlsj0Rktg1Ur4paC52ZsgNpqeH20maTwuusJovPaE3fyzuxuAEEMazhaOR9LWBQd65ATE6NKTuStF4Tc0i6dDGWjJ1XAIHQ2gu29LkuAoBvQxoRh3tDHAwiesVZOH0kB+GZPqdd1VDEDMleKXsh7rr0VXwEJLvHq6fays802CL6plPowClB6fURk6+Y5s+X0WTt/MpkQRSNTg0CAsBTOOoFUOxw9JVLs/LcprFfubgCh0SGxmWZHxocM1MKJ7R4MEAonyM0/ye4GEAozis0n/CDF0D33KBuAoFgkCINQCfdAihSVjCo4dowAq3lYFk0hmgIIywOAkKeBsrsBhDx97W6/TAAQuj3ELd8gAAj5C3iQYshfLHe8UicBgjBNPcMgdee3z+e1/WhQ2yxljtKLIYz6K1fCKZAqhnx+311xrQAgdE/UA4DQPXHd6VUDgJC/gAcAIX+x7CpAMG+oVCkG8ZEvFLFyd8Ynt2tLaRvbxRMg2DZicyKo/+4quOtpyLTjtYIUQ27xDQBCbvHK9uwAIGQbqTydFwCEPAUyqGLIXyDbvFJ2DAKV6/roKMzre8E+2EAm304t3fwte+ryfO4NR4Oj29AzLmJzQwFAyGPwA4CQx2A2u1QAELonrgGD0ANxDRiE7gxydgBBM3QYo6IIXVeGzCEGLJ1OpLtefd2dkenctckgsN7dc1KcawYAoXOBbPNVAUDIYzADgNA9wczmqgGDkE2UsjsnAAjZxalzZ3UGILDlOq2KA4CwY8xViaUwCLaD2BwyCKuDFEPnBucOrwoAQp4C2eoyAYPQPXENGIQeiGsAELozyFkCBFOHPjKC0PXlsA4mQFD+b8HROgLKSZGGOHTLizPFcOVauOtVP5TWR6BByG0EBQAht3hle3YAELKNVJ7OCxiEPAUy0CDkL5BtXilLgGDo0EeFFUA4kABBzJaDo40IaAQIwiBoKJ4XQt2V6wKAkKeREgCEPAUyYBC6J5DZXjUACNlGquPzAgah4xh1/ozsAIJh6MDoMIzry2AfoIk74Y62253/FHvMK8W3nD5NrGIA4gQI3w0AQr7ubwAQ8hXJltcJGITuietOrxoAhPwFPAAI+YvljlfqCkBQdsbB0RQB2kDTqZwloIYDxOaGUXdVkGLI1xgJAEK+IhkAhO6JZJZX5UThrIlh2Z1pNMykbfMOrSPE0Fmr2h/FR90Lvdf+nkd0IPxqHeJOAYRTLkL861fDokV0N/Wmz3IoFPhpWQIE9kQYHYJxfTnsA8kg0DqYIzg4WkSAAMGhDTWNkiAahLqrAgYhX6MkAAj5imReAYKrujmeq6HqVL+bY5CBbO9WCUBYHceyu3YOEAgF9KoDUHzUPc0AQrAn2xEgqJhYhotwMoHUsidRO+NmuA1rm23dFLDSiSZi5Sg/9eIAIGQ1lzQHCHei5oXH4GRUk7KmkeiqDn7NAYJGDUIwVncMsS9SJECgSJEMQgAQshqKWZyUDUDgZUp0HTePGosjyoul+4fX6SOLd/hsnuK4bufaPbMNCv9nFofR+xwHvU5zocUCB7X2hpFMmw6gr4ph6d0p1H5IBqGxD23jS7mz1Sv3R/HRv4VecYDXDCkAXm3FVkVFQyhdj9TSp1FDgJBY03iqagKkS8tgLU6AcB7iX/9BwCB0NN8RyLJ3wPbNSP7tLmx74TG4mbTq5tnstab0YjCh31AK+wBdetgrJ8VgvDYPMRuaGS4ZFkeqGEo/jaDm++s7FCk+8MADqKio6Ohufeb/nbnyhoYG3H777bjzzjsbW1K3CIwGxDUdt4wZjyPLSqC7jvT4DY6dR4BzQHUyiV9UL8XsujrVNp29+bywaRp7+7ZxcJLQeWaJicpzHVScCmhFQag7igC7z+mrI1h2l4X6D9im1g9vszBrGozKA1By9D3Qyvf3LhnsynaIrdj6svmNDtPajtTyf6L23R/CbWgOEFQqgedoxRUoPe08FJ97NSx2CWzZzrOjW/eZ+3fXtaBt24Tk336DbS/8FW6G6YOW3QcNQ4M+igAhDusgV7p8Sh/7YLg2jRd/MnVtOIYrDELJ7CjqvrcRTgdljgFAyO6xywYgcKtQomm4edxeOLI0ri6sWoQGx04i4HoMwi+qq/FprgBB6JlSHVXnAL1OdqEVBeRixyNNg7YmhqV3pVH/ATPhbG3TEoPpBAi9DkTpkb+B03s/uJIrDzQIrWOrYqcecs3ZjvTyp9Hw7o/g1jcDCAQQHkBAcS+UnXY+4udcBzuYGNofqhqhgAtj2yak/3ontr/4KLR0WhgCf/Fn9A1ThzkqBO3aEmQOseEIs6harAdHywjo1CCwsbWkGDyAsI6lDTse9EE46aSTcP/99wuDEOhl2h9NBAj19fXCINx1111tMghUxhTrOm4aOw6Hl8ZkRpVNbnC0HQGv/fSSZBI/r16aA0CQOYI8A1MMIVSeoqNiqgZEHWHMg2NnESA/owObIlj6x3o0fJwR+pud7JtTsrpmwCgbh/JDfgS3Yh/51yBX1kZMZS1yPMorgdSq19Aw8w449evkZDWpqgHJ/zfiJSg//gzEzrgcthuQix09pxndglm7Hamn/4itrz8NpAkZmgACx6xhmDCHRhC+tAT2vhlYhgOXPGRwtIyApisWy1XGSEWLwqi5dQOcTW0DhHA4jOOPPx4/+clPUFpaGgCEDsYTAUIymcTdd9+NP/3pTwIQWoMqEoYx3cT3Ro7B/vG4mhOCrHi7keUGbEUqifuWL8W8+lrZrHaYYmA+TW3cXIRDYYSGujD7A5oBkJIIjh0j4C/w/N1N60gstJHezP3WjvlaTTNhREph9p4MLVQi5zCXHuzKWs25jZtVWyYDMgfpzZ/CySQaJwfNNUQ0p2k2zFAI5qAR0AeNlqgjGKvtP6osyctYcFcsRHLdCthcy1p1ajQNE3rMhDZWh1uuRmoQ1jbC6pGAPusV3mYi9UkCTrLtFcowDPTv3x8TJkwAwUJwtB8BrjsEBQsXLsTixYvbZBAIEBjXiUXF6GWaoqZhA60Azu48tlzq620b8xpqsS2TEXDAFd6P2U41CDtc0n+F0BIBSGgdnxZotpnsQHLoOx2i/nQSDOGOJkgPsnpMTHvxaq7BD8Zpe3FtGpcdxyl45jsaoU3/Likvj77N/lXBmfmKQLOlKgAHWQZ1ZzNAhwChNWMQ5MrajnhbzMrOYtV0Lne+Wd7Bz/hpfszaG38t70EQ246GTC4xDZ77jqLZ9O8CppipCR7u7IOWpzMDhjv3QPpygrZe2SFAyP3tglcEEQgiEEQgiEAQgSACu3sEAoCwu9/B4PMHEQgisFtFoDmdGxCIOdw6X5MUqLVyCFrXTg0AQtfiF7w6iEAQgSACWUdgh6q7juUfWV97zz1R6hE8Bx+KPh3QbyYQGHT/HQ8AQvfHOHiHIAJBBIIIKGl3MwWd/DEACFmNDIkVK5kkYH7QAv4lq+B14aQOAUIgtMktus2FX9kIZoL4di6+7b1KSiK9WrwgvjuPVDbj0391ENPsxynj2jxe/it9gCC24EQKrvL4CHBCx7EVO3VoUmbrsCLc2blpXzBWO45n45jsoGa5Q4DAGt1Ro0Zh6NChME0z+3f+DJ9Jz/BPPvkEGzdubDMKHMBlZWWYOHEiysvLA2+JDsYK48Ua6LVr12LOnDlimNLWEQqFMGLECIwZMyYACFnElKekUimpLV++fHnbteWaJkY+e++9N3r16iVXDUBXx5MbXf/eeecdJBKJxpN9gMCeDRFNR5mhYWQoBOWCsLvshpt/zh6kP/i2jobldgZLrTSIElRPkJYH54B9990Xffv27fgmBWdIBOrq6jBr1ixs3bp1h7WoQ4DAyeGSSy7BxRdfjFgsFkwOHQwq7h5WrlyJ733ve5gxY8ZOAcLo0aNxzz33YPz48cEwbScC/i43nU7jueeeE+e5TZs2tfmKeDwu4/Saa66RgR4sZB0PLcaS1rV//etfYVkt+zDw1ezmyLFKi9tDDjkkiGnHIUUmk8GiRYtw7rnnttgk+I3HDOiIaMABsTguK69AWRbX/KyfQj+ZFDQ8uX0bnq7bBksAQkuAwue9qKgIv/3tb8WlkmM3ONqPALtkLliwANdffz0++uijHU7uECCUlJTIhPvd734X/HMw6bYfcGl+sWQJLrroIrz11ls7BQjckT388MOCdoOj4whwJ/bkk0/i2muvxYYNG9p8AcHsFVdcgVtvvVX1Zwjq0NsNLMfqunXrZPGnfS0XttYHJ1mCWFrcHnPMMUFMOx6qwsrMmzdPei2sWdPUN4QvpWMq/wtpLo4uKsLVlZVgL8e2W+Zl8WaflVM0BwkXeGj7djxauw02+160Il34vHMT++ijj+Lkk08WV8XgaD8CZGbJdl922WVtbmhzAgicgIMjAAi7YgzkAhBuu+22YCHL4iYFACGLIHXilE4BhE68z2frJQ6YWPzzto4BwiOPPIJTTjklAAhZDJC8AYSrrrpKGITgCADCrhgD2QAEjs8rr7wSAUDI7g4FACG7OOV6VgAQco1YNucHACGbKOV6DgHC7NmzGxmENpyT2ye3/BRDABCyC32QYsguTrmeFQCEXCPW8fkBQOg4Rp05IwAInYlaR68JAEJHEerMvwcAoTNR68JrAoDQheC189IAIOQ/rgFAyH9MecWuAITAG6Hte8KKhSDFkP/xGgCE/Me03SsGAKF7Ah4AhPzHNQAI+Y9pPgBCIFjc8b4QILBglBqER2q3wWlHpBhoELIf1wFAyD5WeTkzAAh5CeMOFwkAQv7jGgCE/Mc0AAjdE9MAIHRPXAOA0D1x3elVA4DQPQEPAEL+4xoAhPzHNAAI3RPTACB0T1wDgNA9cQ0AQg/HNQAI+Q94ABDyH9MAIHRPTAOA0D1xDQBC98Q1AAg9HNcAIOQ/4AFAyH9MA4DQPTENAEL3xDUACN0T1wAg9HBcA4CQ/4DvSQChkJpzdbWKIRAp7jjWA4CQ/+efVwwAQvfENQAIPRzXACDkP+B7CkBobu5SCPbaAUDohrEaVDHkP6gBQOiWmLZ70UCk2D0xDwBC/uNaWACBnfk06dgnHvtay/6G0paH/9eiPS1b/mpw5T92mVSnSCtltgbmNVygZcse9lru3s6JAUDohrEaAIT8B3V3AgiFRBF25U4EAKEr0dv5awOAkP+4FhZAsKWRkUuAAMcDCRoMV7X0daDDgQ3HcWG7GiwHcLyOnXyFrrkwdB26ZoBN6QkSHCgAIQBBeHt1LU3j33QfSAgAQjeM1T0YIPA59LvP9jQDttukGLqbJuyp9r8BQMj/5MArBgAh/3EtJIDgswAyWYJgwUUGBjTXQsbW0GAbqIeF7ZaGjUlgQ9JGTcqGq2nSGbE4pKNXLIIBEQ2lOhDXXMR0B2FdhyGdPQk6dIEM8nP+w9l4xQAg5D+4e6IGgYtzMplEQ0ODzG/l5eUoLi7u0UZzBQsQfEDAD8hf7EvNdrPpdFp+ztfhX4vILBKJIBwOIxQKSa/w1mgtH+gtAAj5unMtrxMAhPzHtRAAgj8PcH+vu4DLucBxkHZd1Do2Fid0zNxqYdaWDObXGlhf56LG0pFwQ7DIBGgadNeB4doCFMoiFgYWudi7xMW+FWHsUx7CsCIXZbqDCBkGIwTd6wKcj+e9rbsSAIRuGKt7AIPQfM3jWsdW66+//jqef/55VFdX44c//CG++MUvShfK7hqbre9MQQIEn1Lh77W1tdIzff78+dJDfenSpaipqRGw0JxV6OyQY6D5i8Cgf//+GDNmDPbaay+MHj0alZWVAhb8m5GPm1KwAMHP3crWKdf9k2SA5eAOrOnw/757d2SFwiB4mW4vEOq7M1/uR6T7o9DZp6Dt1+1KgKC0AqRWOabIGRAcAImMi2UJF7NqbPxvo4NPNqaxOm2i3jWR0UzYDl+jIq5YQb1RlyB6BEk1AGHNRjFc9A1ZmNTbxZF9NBxYYWBQ1EA8ZCgWQVfXyfVp6OguBAChowjl/u+7O4PQHBzU1dXhnXfewUMPPYS33noL/Ll379649957ceKJJ7a5ec09Ytm9oqAAQuNuwXWFKSAQ+Pe//43//Oc/+PTTT7F582ZpdEI2Id8HF3/TNIXCGThwIA4++GCcddZZ2H///RGNRgUkkFWQCaMLIqaCAwiS37JhO5ZMrCoj6wnB2ghyi2YxzNvyf5otr5NfmqFmVBGEuXAkt6vBlH/vvmNXMwhKH2dLjlwtUqSsNRgGd7Ce8I10drdGIb/x3ZUAwaEewLWhuTocF0jZDjZZGt5Yl8FzqzOYVWNidTqMlE0tgYJe1Cg0B6ccfyJMbMSpGjSXsENBWRIFhusiYlroG05jcjyJEwdHcGT/IgwyATPE8zywkMfQBgAhj8H0LrUnAAQ/pUBQ8LOf/QwfffQR6uvrZZM6adIk3H333TjkkEO6tP7kGvmCBAgEAGQMfv3rX+Oll17C9u3bBRjkgzHIJkAECkVFRRg+fDguv/xynH766SgrKxNqZ88CCMLZwoGFulQGazckkWjInpkRoCQ7LSAeDaF3RTGKoyZM3ZGJXURlnkycU3h37qB3NUBgFF0bSNrAImsjLDuFAaFyVOpxmIYGlzHRqJinRG73OHYpQCAq0CyhYDKuhpk1Nh5ZmMSLa01sdEKwOGodruDNYKfHHLSIbmvTgNbneC/XXAdR2KiKpvH5AS4uGWliXCnFjSGYmpFXeBsAhPyP/90dIPhp9OXLl+Oyyy7Du+++K7oDPoPcoJ599tmSYuCa1JNHwQAEBoIfxrIszJ07V8ABcy9MMfi7dwaqoqJCfvHP+Th4bb4naZwtW7YIa8GfCVKI3IYNG4ZvfetbOPfcc+V9/ZREZ9+7oBgE4gPXxdbaBJ568RM8/sws1CRk76bqwdo6WtEACiToiEc1VFVEMGZ4Xxw4oT8mjO2D/lVliIQAUyf7Elba8S6wL+3FfFcDBDIGW9M2XtiyFX/eOh0pfTmGRctwQsVETIkOQT8jjohuIqTJtrTb4tDZcdnW63YFQPA3ASQJGdNtVgb/2+jiwSUW3t2moc4KqxSCJrUJrWLp1TH6X6bN3sgtzxEAqwGGR0pqmotyM4P9yzK4aKyGw3obqAqHYPrChDwEOAAIeQhiq0vsCQBh06ZNuO+++2TtozjRfxaGDBmCm2++GV/96lcRi8XyH7x2rlhwAIEaA1Ipf//737F161b56KT9J0+ejCOOOAJ77723pAC4w8/HYsNrEAxs27YNixcvxsyZMyXvs2zZMtE5kE3ge1533XX40pe+JFqFrrxvQQEE7nodB4uWbcV3b/0n3py9HUmbxV8+QmgLJXj5g2bnCEaAC1PTEQ2b6F0G7DehL6YePhafO2QkBlfGYJgRDyDI8pj3Qb6rAYLj2liezOC2RdvxVHIlEH0foehaVIVjODI+HMdFRuHAoqEYaJRLnHQppSvsY1cBBElN8Zm0dPx7VRIPL7bw8fYI6hCSdIKUJDbJW7znkQt/G+OqAwaBAEGgBl8r6TJAd1xE4GB8eT0uGmnilIER9InqUiaZjyMACPmIYstr7AkA4b333pPN6OzZs+XLMaXNTer555+P73//+xgxYkQji53/CLZ9xYIBCPx4zLc8+eSTQqVQmMgPx107KX7u4CdMmIDS0tK8Bqm5IJKAgO87bdo0/OEPfxCwQPDA6oZ9990XDz74oNwkgoTOHoUEECRP7mTw/uz1uOC6f2DxRguWY+e4fitZojKqUeBBg41wyMHwvqW48NT9ccGZk1BREhOmQacUXe378goUdjVAoP5gUcLGVQvTeKPBhW0shVE6A4hVI25oGKpXYEp4KE6KT8SB4UEoQVRCQKDAZUctU/w5x/B3diBm8bqeAwgEpaIYkJSX5biosx38Y6WDB+anMbcugpQbEU2H6AlkwKmdf8ujLeDZGuS2psC8K3iFUWQQDEdd2tAs7B1P45IxGk4f7KIiGoHuUkHu3agsYtjWKYUGEMQBQr63Zx7FZ1jivDMasZNfvBtftrsDBK49jz/+OK6++mrZrBIccGM8depU2ZyOHz++y5vTzoS/oADCggUL8J3vfAdvvPGG0PxkCZh7ueqqq6SyoHlFQWe+bFuv8csnWWtKtoCLP+kdlpcQqFALwSCVlJQIiqMmoVevXp1mEQoKIHCnZll4cVo1LrrxaWxsANzGBbyTEfbmbZrZhDUT4wbEcNN3j8Gpx4z3Ug1qIcy3HmGXAwS4WJSw8O3FaUyri8ByktDDS2FWvA03ulzpNDQDI81e+EJkPL4QHo8RoT4o1sIwZFPsKeYVe14QR08BBFX9QVEi01s66jIO/rsqiZ9/nML8dAwph8yBKQChuw9Z+1ku4a2NEc3GhJJ6XDs5hGP6RlASUoCuKwxQIQIES3dheHaUIhsSMWcBodUObvzuDhC45rBK4Uc/+pGsLUwrnHTSSbjwwgslzc1NaleY684+NwUDELhQP/roo/jBD34gWgAu1iNHjsQjjzwiFL+vOchnkDgB8r2mT58uZSVc+I8//ngpcSRAIZtxww03SKqDiO6AAw4QFmHcuHGNFQ25Br6QAAIn5WTKwt+en4vLb30WSYoKvdKuXL9X4/kECBQoatyG6SgygMlj4/j7b76BPmVhhPSQGNKotET+joICCPVRWLTy09LQYguhl70Pt2glYCShmUDcjeIQfTi+HJ2MI4yhGGDGEUUIuqu8N2QdzGdwOhnmHgMIYn7Ew0HadvDRZgf/NzOBaXVx1KUBTXa2Bpz8MPztR0PYg6adMx+HkJbBlPIEbjsoiv16a4hIisjsNMgtRIBAtkDdBRe25sBksL3x2Mnh06MvK0SA4LPTMrIdRwyPyJKTLaDgnQxBPB6XtYRVe//617/wxBNPSAr985//vKTVuQ5SH8f1iHMDN81k0alFaF5Vl891sfmNKwiAwA9BMSIX4z/96U8SjKqqKlxzzTWyY/fLDPM14pqEUDb++9//4pZbbsGcOXMEpZ1xxhlC6VAtumjRIvnzyy+/LDewb9++uP/++6UWtbNahEICCK5roaY+hd8++gFu/f10OMKt5mF1chVproxsNfSt0PGHH30Bxxw0DMXhqGIpWDYqhWb5OXY5QHBdLEpauHwJGYQoMjZd/CxVAhpbAr3ifWhFy+Hqac67CLk6+rlxHBEahS8Yo3BgZCj6auWIsiBUWITuE3RmG/GeAgisY6RG0IaDtQ0Z3PtJGg8vDWGzG5FUguaQjyLozPaTd+08z3zZu4gLQ7MRRQIXjcrguxOjGBw1pLqhs/eo0AACn1VHo7rDgBaLIxMJw6xNwE0nBSx11+LTtbvU8tWFBhB80T3BAMWHs2bNEvH9qlWrZMHnAj9o0CCMHTsW++yzj6x3PDg2eKxfv15K+/maFStWCLAgqKAfAhkFgge+jl49BAoEEt1xFARAIHuwcuVKKe945ZVXRL3JANAogrmXjpyjmpc/8oaQruEvXtcXehBkEADwZ2Wgosmi/7vf/Q6//OUv5Sby3/bVDMvpAAAgAElEQVTbbz/83//9nwgiWdFAQMB/5w0i4mPa4dJLLxXk15kHp2AAAqtGXBvrNtfjx/e+jj/9cz6g27J47bB9lZnZVSWLkprsYKb2zhd44AIVJQZuvuQwnP+lySiLESBYgJSOESDkZ9YvBICwMGnj8uoUpjcUIWMpfwlOXK6WgR6vhlH+HhBdCddMeyWPFqJuCIPdXjjGHIOp4THYL9QfFVocIYSURkGwlNrZKX8KT7nfHbNBq2v2FECgnMByHaSdDP6z0sHPP3Qwry4sVsrSd0E0iflOSrVaYNTI9v7SS/fIT5wruHg6GB3P4NoJGs4YEULMIEjwOkDlmDIrRIAg8MwIwxwzGqXHfw7Wmg2o+3Am7HXrobPcTlJA9PTwdAqMiUwH+Xl+uzqcCwkg+OCA6wd1bE8//TTefPNN0bf5TsD+utSnTx9MnDgRU6ZMwahRoxrbK7PMkZtWev9wHfPXOL6OaxlTEGS7mYIno+2L9juzJrUX+4IACH5p48UXX4wPPvhAFmru0h977DHxH2jvS/s3g4HnIsFd/9tvvy3oizfId0ik8dFBBx3UWCJJPQPf9y9/+Qtuu+02sbXk+x566KG4/fbbxSiJ137qqadEA0EAQYBBjcT111/fWPKY68AuBIDgDzY2tlm4Yguu/um/8Mp7m+BoGhydLEIzZ0RXh/wVHDiaqgUjQNj5dK0WM/l3T0xWVhzB1edPwbe/uj9KiqNqShG/+/xNLrscIAAgQPjO8gTeqo8hbbHzoAv4pl66BS2+BFqv6XD4u2aISY/lmUwVuyGMsYpxanQivlg0GSOcXohqIa/JkBJ+8jlwCRya1qVch19O5/cUQBAjJMfClrSNa6bR66AItbapKhZ65PAEkh4goIOHqGRknDuwpcBBRxFsnD4wiZsOCmFUKf0RfNBMXUL2+Y9CBAh8tjU9hMikSRh08w2IDh6Mmk8+xrqnnkFixgcwarbBsRzoNALTaV3tiJjTB6w9cpvaeZNCAAhN86ojLMEzzzyDO++8UxyAudY038j6X8Vnobi2cOHnOXxtc1DQ1tfm68hCkEX4xS9+0Wjo53v15Ot+FAxA+PDDD3HJJZfgk08+EcbgtNNOw8MPP9xuOSODyUBu2LABLBFhaSRLFGms5OdseI6P1pg24HVPPvlkET3yplCEeNddd8nrmNv5+te/jnPOOUeACY8XX3xR0hykhng+2QPWpHZWqFhQAMEFZsxeiat+8gxmLqxTKnHRDjQNL9K7WsaClsnABnf+vt6+nSHoeeDzQrquoaK0CNdcdAQuOWt/xEtinshrDwUIKxJ4qyGONLEUlfEOK0U85gUZ6EVL4fZ+C258NaCnlX+wGCipWBVZIRzsDMGXiibiiPBwDEcZIkZY4i4el5IX7pmNW88BBAd16TReXefie68nsNYuQ0YaJ/XQIcJaNa5Ff+ADYK8qh8wZb6WpuxgdT+DG/YDTR5iIsNWDZ3wlDqJZHoULEMICEAb/8CbE9p4Ay7bhbNmA7dPfxroXXoIzdz60LZuRcZJS8WCIKKSnQFz7wS0kgMAF/rnnnhPmmSkCrlEd9Q/ygYJfdu+z3O19a55LJpuVDmS9WWGX71RDwQAE2kp+85vfbAQI1AIwxbAz9aZffcAmFiwP+ec//wm6UDV3XPSZB//mkE3gws+SRapDGVgyCcz38LVMITC/4xsi8SZRo/Dtb39b8kA+QKBmgQChM0dhAQQXz70+F9f94kUs3GipFa3F884dsMVWidDTaeWIL8Yy7U/dMs16Hvi8XHFpFBdcOhWXnnEghpVHETHpUEfT4ewn1Y5ivcsZBBdYkLRxxcoE3krEpcMgGQQRKhEgMK3lck+cglu0FFrlB0C8Gi6owqPlr/qGjFsEIfR1S3CQNhhfjIzFoeZQVCGOGCseDA9Y9cC83BMAQQm5HKyoy+D2GQn8bWUxkg7Zgx5aezyanDtiEzZ0smQ6kHFN2K4JjffN7zGiuYjqaVwwxsa1kzUMjNIdk34sfovojkap+vfCBQghhCdNwpAf3YzivSep7paODbu+DvVrVqFu5keo+9901M/+GCF61KQzcp96YCh2GNhCAAi+GyLTA2SlyWRzXsrlEJaw0Ru8/Vdy7WL/IK6bF1xwAZiu2CMBAhd7Mgi5AAQyBDQzoqkSczxMAfDvfLaA9AspG16b+gE+lLyBvAEMLMUhTB2QUeC5/De+1v/lK1ApUCRAIIAgwKBOYk8BCBTS/eXJd3DrvdOxtoFPOre9zR93F3DScBvqoGfSssCJn0yHJj8eOcwFkgZKJXEMP/dUfPmIkfjmhF4YFNNh6qZqpJOno2AAwqoEpiXjyFiaZBjkYfcAgrAFHINOBogthVb1Dpz4UrHxI3FDvQHV+gbTCaD1bwQDnTJMMYfj1NA+ODQ0FOVGRPpaKBrBS+X43gB5iqV/me4GCP5EaDsZTNtg49uvZrAwWQzb07DkYpXhWxPwdwm3J5NV32UnS5gHDgi5TNdCXLMwIJ5BScTBgi1hbHejkl7jx+FmWYEFBwdUJPDLww0cUUUgHFHMjrBm2d2AwgcIt6B4n4lw2NFWtAcubMtGQ20tEitWIjlnNupe+x+SH34MvaYWuqPabzd+/Uawm3VIsgtcO2cVAkDw1xpS/tS2kUnoiDno7Bf3SyGvuOIK0SFQ5EjmfY9MMeQCEBhwTixMI/z2t7/FPffcI3/m3/kL/6mnnopjjz1WFJ/UJixcuFBKFonoKPrguQwkhR6///3vpQEGRR7Ny0Z8bcOeCBBkp+o6qE+k8NuHp+HXD81ATZq5xdYEggvdSsCprwUcCzpXsR2a4uw4xF2DAMGFYRuStrB7VyD8ja9gcEURvjuxFOePKkVxONTYLa+zD0nz1+1ygABgUcrGt1clMD0ZR4qhIilj+7OlyPS9cn8HukEmYSXQ91XoRSu8XYP0L1RLmtfkijggqpkYmSnFSeGJuDA6GQNRAUMPQ9OZdmCunOY9HkqQ31SJaVeP7gYIahy6SFg2Hq22cO1bGdS6MegOhcTtrbZksRzpbyHNlBwbMS2N4TELZVEdG5PAqlQYDbYhfUZUWyYTOtvEi8hOl8WeTbRojqjDRtxI49CqFL5/cByW7eL2dzN4Z2uxaEgcEUv6ihkXfSIp/PggBxeO4dtT+Mz7wLLH7I5CBAistoHexCCU7DMJYO8ZX5jM4Ww7cCwbtdu3IL12A9IfzsKGZ54H5s+DkagRMaekHVzGXZkvZZWSzC5s7Z61KwFCI9C1bdDL5xvf+IaIE7vzINtNFvzHP/6xePRw7cq3QJGfvyBSDLkCBFYqMMdz0003iSiRgSEYYK/s8847TyoffHEjbx5BAnUKND9i2oLpDFY5EFDQpZFBpoL0swQQbMfBpi11+MUf3sAfn/4UCduVHUOLJgycQFMNcBK1srrpivjtcPHx66k5WejhKPRJe8E67nMoMh0cXmXj7mOGYUQ8BKOrngvNnsCCAggpAgSmZ7j19ECBR9Bw7SY4E7SgpeBGVsKofFvAgmtI0X/jPVCiRAeGlkbvtIYTGrbh5rSOQWVHIRQ7FHqkv/S40KTiwesYKQCBSKTrFSI9BRC2JB3cMSuJ33xiIgEDOhf2DiplBIBSLKe5GBVP46tjNRwzWEdxyMGGpItXVjp4bomDxfURpF1DpXuoE6ABEMe1wAZX2j4PiqVx2ijg7HE6hpXoeH+9i+vfdPFJTYzSXPEDaILOLor0FL69VxI/nFKEmBGCLo24si8zK1iAYIQQnqhSDKWNAKHpIRNWlSPXspBqaEBq8xakV65AwwczkZj+DlILF0BraBDwRQv3ptqTbKFT55fUQgEIdOC99dZbhdHuroObW3ry/PSnP8VRRx3V6XLbbD7fbgcQmEZYvXq1VBJQd0CwQDDAVAFLEGky4ZdF+kIPP11AyofdIdkM4+OPPxZ0ROEi80V8fXMzpj2dQbBtB9Urt+D2372Of7y6GCkyM9Kq2QMBansHPVkPN1WnWu9mCRA832VlV9urCuGpRyM5bDR0zULvUD3+PHUojqqKIWp2fZfrD/KCAQirPQbBMweE49nucP0mm+A1IZLaPW70HQta8SK4vWYAxUvg6pnGvaoIl+AgbmdwdN0aXLb9ExyZWAc9OhB6yXHQy6bCjO8HGJVwBdwpkyV5x92IQVhWZ+OWtxN4sroIlhAobPHc/qLCuJi6hcqIg0snuLhgvIaqaEgAA7UyG9M6Xl+ewePzLHywwUStZUj6hqOYbAABQkzPYN9KG2eP1vCFYQb6xWxsTGq4/8MM/jgvgi1WWJkzSb6i6fOYWgZfHlKPu44tQd+woezDd/MUgzAIHQAE/1mTudG2kUmnkKLxD0XhK5ahZsb7aPjgQ2QWLIBZU+MlHbq3zXvjZ9IcMNv/523b8UjtNjh87loNIV/5T/O9U045JW90vL++EPhddNFFsi75fgbZLMK5nkNhIgX9XAPpg9AdzIH/mXY7gMDA0yuB7IFf8XD44YfjJz/5CQ477LA2Y+1TQPydKQaaMbH8hH9m5QIpIV6PLISid9Uug8HZU1MMZG0+mrcWP/zNG3h15mpYLgVH1AW0BAhasg5IJwDXgsZ+xlkxCKS9bWiGDmP8XtCOPQqZ4jKZaEv0JO46vBJnjihHPLTnAYTLVycxPRVDUukSpVRO1jyCAZsaBFW4oLZi/D0DaBmgaCn0Xu8A8WWeT4Tas8ZdC4fVrcblm2fjsNRylLhJaLoOxyyDXTQKWulxMMqPhxsZB11jt1HeQ9bud11h3t0Mgr8jnb3ZwrXTUnhtVUwWd0Xpt38QIISNDI7rl8KPDwthn17UtYQ8Yx+SNxpq0w5mbcjgiXlJ/GcpsNaivoHpGB2Veh2mDrXxlb2LcEClhpIw0ODoeHVpBj9/z8ac2ggyUtBA0U2zWIo3hYOjK+tx/4lxDC8mQGBjnex3ybsrg9AcICj62ZVKh0wygXRNDTI122CtWIH0nLnY9uZ0pBdUw0zWK+vqbj52NYPAtYKsAfUArIjLVmjYmbBwE3zjjTdKE6fu7u642wEE2lWSxmEJCasPyB5QOEjXRX+Bbx305jeLX3jGjBniZ0AWgZUJ9EeghTLZBD+Xs2cCBKU55sJlOxb+N2MpbrzzDXy0ZBssJAGXNsjeDlTcaRxoyVpAHNX8la3tInza4QrpwN2fboNZSK2iHMaRh8MZNx6WSUc8HWW6g58eVIavja1ASXjPAQiO62Jh2sZ3CBDSXopBmg8JolJgQRgEqvaVfbCqbmBcLWFoWAKp9Z4uJZCankKxm8b+9Rvxg43v47CGlZJn1w0bjikFpHANHU64DJniCdBKv4Bw0VRo5mhAN6FLe+KuxbenAMK7a9O45i0bM9YXKUMe+nG06rugJJmeEE4qDlz0CzXg50eFcdJwA7Ew2S8a+ZDuZ/MnBfLTlgMyFE8ssPDX+cD6RAh9IxmcOlrH+fuEMbzYRcgIwXXSWFKv4YfTbLywIowGEdiqe6fi2BRLahcOqUjh9yea2KtCCZuNHPpE7CkAwXW4EVCMjZXJIFFXh2SyHmDFU/VybJ/2Nurefgfa8mXiythYPtpqgs4eWu18Od3VAIEbLnYiZok8vXy686AxEr16mFL3We/uer/dDiDQ/IjBYd9s0spc1FlVcNZZZ2WFpjhpMEXBng/0vSZbMHjwYBExTpo0ScpE9kwGgdMdVXMUgOkCEJ55bS5u+PUbWLo+CVtPipDLlbpuKu25cGWgJWqhZZLtypGlKsfn82SStmCUxIHJ+0A7YH/Y0VLYpiWLWoVm467DeuNLI8r2KAaBAGFB2sYVa5KYlo4jLWWNBAG+CaKmpAHisKhq7dXvgtbk+aZYTo8sh1b5DuKxBTi8fgm+s/FjHJlcjjBYocNSB94mTQSeLrs86RpsU0fG7AstdhxCFRfDDe0Hw2TH0a7ZNfcEQOA3f3ttBlf/z8KHG6OSAiD9T2vl5kdTfwTG1UVFOIOzRydx0yFx9Ika0AxqDCiQ84cqWRQFwOgYujml4/UVKUxblsSkviGcMKoYA6KaGFHxFZtTNh6bn8bP3gW2OEVSCdF4tNAgkEFwsW+vFB44wcDESjIXRNXZg7HdHSDssBiJKys9aSwkkw1I1tVBS1lAfQLp6iXY+uqrSM/6GPba9UAi5QlqPTJSvD26vrwVAkCgHo5dh6lx686DvYnImNNMkBvc7jx2O4DAxklMBzBNQP0Bg0WTiBNOOCErNMVJj9f42c9+JmkGX+BIx0S6J+7ZAEGVMRIgpDM2Hn3mQ1x/56vYmuSOLQ3dNSVPK+Ii14JrpcAUg26ndzoGVapd5cqlCxxr+ouKYEwYB/eAychUVKh6avl3A4OMJP50whAc3jeGCBe4PB27WoPgMwhXrE3hrXRMAQSyKgIEvMnQSyt4+i2PPfAqHQRQ0A8hhXJ9AQ43nsI3M8/g0MxixGnVLDS2o9YhUwEDaaxl0P2SgSejUAG75HSYVbdAN/oK5OhKfrKnAMI7a9L4/usWPtwU9cYSQRTHTMuSW3+THtUyOLRfGr86Vse4Mh1hk30RFDMj8EBepn4X7CplehlZ9OvtECIahYbKi4NBTzs2/rvSxq3/S2Hu9jjSLUya1D1suq4oJDCpPIkHphqY3McMAIIXY0bdoW9COoNEbT3SiRScjA2kGtAw9xPUv/kmkm+/B2ze3MLUek8BCEuWLBGA0N0VDGxiyK6P9AoKGIRWbS7ZK5sAgSkBAgRWLBAg0PQom2C1BRAo9KCXwoEHHrgHAwR5fOUXJ9/a2jTuffxd3P7gdCQlr2BDp0GNrEAKIMBKAYk66E77AEFRvwY0MwSjrATRvccCE8eioaxE1PTiisASKJiYEEvgkc8Px9iSiJpY83QUCkC4cl0ab6WKkPJEiFS5NbLPHmHQyCpwxRKhIsGE2pkWJ+tw9NKP8c1Fj+GQ4W8gNmIljNBOAIKkxzW4TN9w2TKKkYwfhqJ+d0E3h0vsCx0gcAEnQLj6NQsfbCRA8NZ31RSkaROvpIvya1S8HlcdYuD8vU2EmErRyXypdALTNiFDg+hfWWLLV3iu1zRDkpJQH3po3PU6WFTr4NfTM3hioYkkFPPS5qbWG64Ew5N6p/DHE01MqjJUeuGzzCA0v0/CmDnIZCykUkmkGxqgN6SQ3LwGqRkzsO0f/4K1fIWwQB6M2yMYBO60yUx/5StfEVff7tQgcL26+uqrxZ+H5Y4SxxxSXLlMubsdg8CujywjoX8BFwU6H7J6geIQehl0dPDGsWkGA8wUAyse2FWLAGHChAktKiD2OJEi84XMzzrAug11uP2eV/DgCwtgcaF2bI9B8Ax4CBAyZBBqodmZZuWPrfo087WsLQ8XITxiOMIHTIQ1oC8sk6wEUxWcoGmwYCNqhPGFwcCdU/piYCSck7Cro/taOAAhhTfJIHhuPbRG5uGnFeTPvmbLcaF7jovcRUUzGRxVPRtXvfQEDls6G8agjTA/vx7ukHVAiI3HFIOgCYPAuCrKxjXpYRFBSh8Ds/eliJSfA82I7RYpBi4T763J4JrXMpixISLZFlWFwYW8CUBSVaA7FoqNDM4em8FNh4UwsIzeAyEZfw1wsaLewfrNCQyuiGJAiYGI7tuCqxJHAbpaSMajUinQ4tnGIx+ncPf7GtYkimGJQKR1ukAtZqpplGredEBfCw9+wcT4Cs3TH+zeRkm5VDG0Bm4tUBwzk2JWRfCVgVVbi/TcBVj5jyfRMO0NGFu2tuhbIdzMHpBi4PPNtenMM8/Ea6+91m0GSYw1WW6+D8sc6eUTAIRm6IgixQceeEAaVPgiRZZ8UKRIZNVesHgTyTrQCvPKK6+Uhk70QmAnLTISBBu+F8KeKFKUDSsV7k4Gi1dswTW/eBkvvLdCdviSifVV26xFd2wYVgNc04EWMtSi5lG3mqHBDRnQI/+fvfeAr6O80oefqbeqF1uyZcm23OTewLiAjU0nhFCSDSRZyKYnELLJshtSdpPdbAgpJBu+/VIIkJAlheKAKcE2YMAG2zT33iUXuajfOu3/O+87c3VVbN0r3StdwwxxXDR37syZtzznnOc8R4FIfcmLq2BWV8AoK4DpUXm4m0UHbEk7+6PDvBK+Ps2Pf5qQjzyFGhG9jyIIMBlJ8Y6TMUZSZFUMLGDj5BccTQQe9yY+ApMuMElcxkQwFsGCvZtx14tPYk7DPviNKOv6aA5rB5adgjC2CZI3DlOh0DgX5rEkC4bsha5UQvfNhlJ8PRT/YohiAWu8M1Adu2ynGFhMy7Kw9ZSOf1sdx8pGDwSdlAdkFuVKPiiF4DM1zCjVcc8iAZfUSFBFEbopoCViYE2DjgfejuFoq4AZFcCnZihYMEJGoSrYGRlb1lugKgmR2V03JbzREMcP1sax9qQPBjUiogqK7gCB5Sk674bgxcXDo/jfayWMK6AIgh2pSXE4v184CJ2KlRw90X+mYcKKm7BamtCxZydOvfISmle9Bm/TKQhaBy1AgNWpGZGiyfryD5jjM5RljnSDtLd88YtfxJ///Oe0JZb7fMCkEyhaUF1dnXCMaQ9zFBQzHUk47yIINLkIoVGZh1PmSNwBp8zRqULozVDEND116hR++9vf4he/+AXjIpAKFXWRpJpSqoJwPve+Awgsmm1LGJk63tp+HHd8fwXeO9DSmetNkA058UqszIcwaQyMYF5C6Y8hfqrPVyRAkfkvSYWuyjAVkZWFsY2vi5thQRGAecUWfnBhCeaUBKAqAwt/d59QQx5B6A4QnEhBgu3mJMQ5WZGVzhPnQDeRH23HxTs34Z9eeQ4XHd6NAEVuqAZSNGFJOvSRIQgLT0KZcBpGXpx7rKIPMaUYVmAOpIIrIAXmwVKrIIpBSiycF2WODkA43Gbg31+J4LF9XlblYULhyoVdNmUdlb4YvjQTuH2WigKPBcO0cKBNwNM74nhyJ7CnnVpEm/BKBiYVafjweBE31nmZtLeP+C5s4+dI17SiOBoW8cv1cfxhm4gmzQvRMmBAhskqQJKOpPYjdEsKNFw/JoL7r/FhOCM6fjABAicnc+4HiX/RBqm3tiK6fRfOvLQa4ffegXnkKBAO2+JgJh/3KWtOpr5t5gJAoP2FHE3iB9A+k82DyIkXX3wx2/cozU7pdVqXHQc3U9993gEEegnUmvnuu+9mrZhJOImEI6hDI3ERhg8fnuARJIMEelCKPpAC47333pvoskVVEPR3Es5IZoS+7wACZx/wyWyaWPHqHnzthy+g/ky00znijRbYJJa8KpT5U6BPrIEu8RbDdteaTt0YOwLAFG/tn5OD0N0roB4OJUoMX56Sj8/XFaFI9UKmvheZGsWgflIRVolC44JUM3s7CAxS5IiEsTKNtGlb26NRBCGO16I+xJnIEdObTRDlnL9TuSPT9TcBVTewbMc7+NyLyzFv/y4ENI2J/RA4YKWl9EokwBjVAnlJI6wpp6HLQVj+eRBLr4ScdzFEsRqCJMOi/haMd0Cfy30lRSdP2xQ18LM3Q/jp2x7m1ZukSmhXf7D3JACKoOHa0SH896VeVOeL0ExgR7OB/9lg4NVDMitfJI6BLnINBPpzuVfDVaNNfGaWgullgp0+5CRcw4ri0R06frJWxIE2ny0BxhIZ7FeX6EW3EHhQjOELM6P47pIgfDKxP8jmqQdsztcIQve8Oq0l1OPVomqnUAc6Nu/EqedfQse6NyEfb4BJEUgmKErS1rSu0O9UhpqBnEK3CZ4LAIH2GKpgILGkrVu3ZnB163kpR/SJNIDIuSVlRdq/zuUg9+eGzjuA4HTMojbM1GyJGjaRUYisQcaiVsyEqEhAwtkECFSQKBJ9hsAAfYbklymXc+ONNzJgkZxeIEO+XwEC7VaGbuLhZzbjnvtfQVM4lhy8YqIwrJY86IO0ZC6MmoqkenC7cU3iE1yhnpXz2aiApn53ellQNHFDpYB/u3AERgdl1myIyvQymGHIGYBw5ykCCH4GENjBe93ww1FPtEyIhoVgLIp5+3bi64//ATOO1SMY1VlogVfN8Vw3i/mQfb0aQlUdMD9WDHXaZVCKlkFUayCIXogCr8VPoDTWXXDgwdtspxicDSeq63hsZxxfe0FE2KBOjiSJbLeUIKBFcsr5Ifz4SglLqi10GArW1Zv40apm7I6UIKRRmR3nLLDN3aI0AvVZEFAga7hwWAyfm+/BkpEqvBIQ0gW8cTSO768OYXsLaVYovKzyLF30unVAR5kniv9cBnx6qgTIkg0QUrf3+wEgsKJpXYcZ6UB87x4cf/JpdLzyBqSm09C1EOt7IRoydEpHUtSFle7wDEPqlkp9S8sFgOAI8dG+9Je//CWrPATmjwkCixxQ40FKs9NeRl2GM9mX4bwDCAmvo6kJv/rVr5geAoVz6N+p2yIRDQkoTJo0CYWFhSzsRaRE6ha5du1a9mfnXDIslTsuWrSoh4bC+w0g8HJEE4IhgLo43vvga/jJQ28hZNrqiIkQAXlfFqzCPMiXz4deXsz5CWyD4wCB/WJBYN3uKui4T7TIkqdggMh5tGeVqRouHu7DP08vweQClckrcypDZleKXIkgEEB4nZQUnQ3arlzgvANe5yibJgpCYSzYsRmfff4ZXHhwD3xGnEvykHElu/mSoLMSRkPxwRo7CuL8qZCWzYI4vAaCXACBiHcsxMDLHhPceyd6kfr62uuZgwUQDMvAuqM6vrzcwO52L0iAJ3kboZz/kuoOfO9yCQHRxLO7geVbgG0tPmj2gGSUQ+K+cCRmV+LwGhqfpGFMfhzzaxSU+4GWsIWNR3Rsb/YixBoL2VED9uHevVuKkhFg4wTFKH54hYJFlfSuFN4wKw1Adj4AhLyp02FKXHiK00ZFBnYN6uhq6DDb29G+Yxda176J9nXrYBw4AImlEnhqjCUSzM5UDVmYcRQyNDa7D9hcAAh0T7TfkJAfRSmp4o6c02wdzpgjDsL8+fNx//33Y8qUKR9sgOAYmwN23BwAACAASURBVNDrkSNHWFtNQmtEWHTaPVP0gBQWKfVA/0biSsQwpZdHB4ViKMpAxMarrrqKnde9j/b7DyCQl0UAQURbNIpv/ezv+N1TOxDvUmrI8+QsOF1ZDnHJBdCL8hwxQA4h7AWDyeEKJGtjq9c5AIOi45aBAgkYnS/hslFe3Dy2EHVFXkYWS2chTWdi5RxAoOqC5L2G7GJwcECExIu3vodPP/ss5u/ZCZUAFdt8iKnPBZBoi9RkEbHKEiizZ0FeNAfqpIkQ8wshsi57XTO52bDrYAEE2lTq203810sRPLYjgDhVdiRaWvNNuzoQwrJxJqIxA68dkXAi5EPc4qkvpoZse6eOFAIfq7x0lGwrChok0YBX4MTGmCFBE3ohJPYOldh7oY3PK0Zx+wwDdy9UMdJvwZI99neknmPIfYDwHQSnTmNEY0pzEfgyiDSq6dDa2xDetRMda19Hx7q3ENt/EIi0cSVQi8UT05m2GTt3KAGC8xCO80pdg0mIjxQVaf/J9kFRBIoeEB+BRP8YRywNwHqu+8uJCAIZkWSPiSzoEA/pgX//+9+zqEBvD0s3Tp87fPgwAwiPPfYY9u3bl0BsyWRDRxkxORVB30UtoZ02z93JHQ5AWLlyJb785S+z76F7IVlnUm6kUE5/DrouCWpQnoo0u3s76H5JAIqef+bMmf35mh6f6YwgWDjRHMId3/8bnn61nnkJnQdfaWXydieMgrhgFrSAr1vTE5IFptXXgwCi8FHfClGCIpgICiYKPBKqCxVcUO7FzGIF44s9qPCokO3GTJkauN0fMBcBQufCwasZKOxaGIlg4a6tuH3Fc5i7ewfy43FeumhzDkTTgiEJiBUWwJo9Hcql86FMngC5pBCCLLNyPSIpZrIC5GwDLNsAIWEf00AobmFNvY6vPB7FcS0AgzHdO6NM1OjLK8ZZG+ioST0XaNPiHmoim9PL3kR8GqfPNhPrEkgzgUdd7Dob3m/hnAdxd0hbQUdtQTvuWSzjpokKvFTKS900qalZGiSE3AcI30be5GkwRQE65VdI/CgcRnT7bpxa/Qr0jRuhH9gLMxxinTOYCodJXIzUQVJGFrWki+QSQKCINpHgyXkl55TmUbbWPdq3KioqmLowCSeRs5vJ78oZgLB582YGEOh3euiPfOQjoK5bDjuz+4Aiozu/qBqBNlsCCTt37mQkNSIkOuEdihgQQY2aXBAoIFnmcePGsWsnt3hO/g4yDF2feAsEEBoaGhhA+PznP3/eAgRiGluWjj1HWvC5bz2Bddtbesj1k/ofK0KaOxGYORmGR+0CECzobAAWCMA1FQKmDwvCq4jwi0CJR8KwgAfDgkCZLLJWuBbl1GkJEe0FP9Mrg329oQYIlL7Zqxm483Qcr0f9iCZHZmy2dzASwbzd23DnX/+G2fv2wafFWMki19nhGhWCz4fIuCpIl14E34J5ECoqICrE2yBdCdsrZpGYLBkyedG1LEYIpsXHUS7t/q00fyga9/Of/xxLlizp1+JE4ka6YeF0DPiX5U147mAe2gw18ZAsOM3C1lxt0hHZIVnwZI+1Z3LA0UGgu+Y/ZWkYu4kW84976fvAn9G5mgMjAL8Uw4fHteOblwYxqYSaNEkwWJqHxnjqL+T8AAhTWTMmLdyOeP0htKx7E2eeWQVt/x54IyHo9OxUZUO0WBIDY+kDE5IN2rI/Ort+Qy4BBHJcX3vtNSboR1EE2ocyuWk7T07XpD3psssuYx2Kx4wZ0yMSPtD3kDMAYceOHfjsZz+Lt956i23aJJ38f//3f4xHcDbjOiEdh7hIOR8CGMQgPXDgAFpbW5kBy8rKQA0uZsyYAZKpdIBBciim+3fQNSklQQJKX/va1xjooGgDNXki1mhRUVG/bD+UEQQCCDA1rHvvOD773Sex5zgJx3RdVpknIIiQl82BWVsNnXmtnY/KyEcWMLPQwv9eOgIT86jSkcRq+OJLpzKCGBO64Sp21JuPb2ipL6LpGnfoAYLFAQLjIPgQ5W0BuHcJIC8SwYJtW3H7357Dwm1boRJRUbRr8kURht8Dc0QpxHmz4Ft6EZSx1RA8Pka0Y5sgbWT2tsVSQNkzZcL0gxdBoJJFIG4QvyCK/1oN7GrxJLo6WskyyjTO6O9MtKOXbbk7SnDsxPIQnbocCTlmhgV64R04XU3pOxiII6JkFP92KXDTFA98MlXhdDaVSqd3Zi4CBNJHIcCjTJ+Gqu/cA9/oWkTrG9C64S2cXrUKsS1bIMYikEydpRKYJDvDTiJkatoEHTqLgnUrEU13Ivfz/FwACHwo8S7ATU1NeOCBB9gvcmCzcdA+SVV7RLy//vrrGY/ufVvmSDKVJDJBHjsd06ZNw0MPPdRF3fBsRnYiCfRzQm+E2JxftPGTiARxDOj3VMpAkiMTFCb66U9/io6ODha+IRVHinRQ1UR/UOFQAwQiGD323G588/7VONZKTZg6F0ees6UOgQoC112CeFkRdEni3W6dw7LgE0R8aISJ/7m4CsUeWjy7qt4xKDAYO1jSbQ09QAD2xu0IQsyLqF37SRS4wnAEC7dswSee/jvm7N6LYDwKkfLilNaVZJgjymDNmQLvJXMQmFYHMRBg7HjHhoNty85XPTgRBE5+Iw9Ux9FWHT9/XcNjmyR0RL3QKMxNe45pI65srLTdrskiFIKdO6bqCFFHUI7j0zMsfPViBSPzaR2h6EX/xnnuAQReXUBgVK6bgOJP3AK9LY7WdWsR27YNYmszTMOAxKtuc/LIFYCQDBLIWaXo2wsvvMCq5jJ50JpAaW6SdqbKPRIJzGT1gnOvORFBoJugDZjEj0jEiDZ5Ei0iOWQK75Pn7ihFncvIyXW6Tt6ne/6nr8XWAQd0T7t372Z19STMRNGEYcOGscoJim6cjRvR1yAYKoBA98V4G4aBH/36DfzijxvRHNO5J5YYDUSGF2EGAwh+ZDFiwQAMporYeQqRFPMk4DPjZHx7TiXyVIeY1Ll09GXjvmzUn5/nFECIexETTMg64DWiWLhlMz7z12cwe98eeHWNl4HKMuJ5PmgTR6P4hiugTh4HubgAIvUeIVCW5NUOhT2dhW4wUgwkOUm9Pg3BhKHF8e4xAT98MYI36oNop7JcQlLEiM98+XzvQ41yxrYiAgFoVdawoLID37/Kj1mVxEUgFVCuBtifd5OLAIE4FoJoQCjOR7SwGGpLDFbbGZhmHMSLkUkyPYkT0p85ms3P5BJAcOYOrUmU+iYy/J49e9i+ljyvB2IPSpsvXboU9913H2pra3vV/hnI9XMKIDhhGUopECigVAFNPBIx+tOf/sRynM6G3J8JmYqhktMV9GfiMNB3Exs1FAoxgELNnEgpi9IV/b2PoQQIuqEjEjfxxe88gSdfOYy4QRHCpFWXxcQFKBXDIF5xAbRAgCcNurgNBspVE9+aEsRtdaXwKSIDFUPFXnbebS4BhHUaRRAAr64zcPCl3z+N6Xt3QRGjUA0LouRF65jh8N2wGMXXXQJ4gxBlD7MhV0lMZcRm/5zBSjEQf8NJn8hWnDoC46V9Gr75jIW9IRE6lSKaHlsdMrvP7cwGqn6QLROqFMO4ojB++CE/Fo2R4ZFJxYM4I/1/STkJEAizUskzNbBi0T8LmmSyBm5c/ZCndAYlt9WPV5xrAMFxyKh6jtLURGx3Ku2cx0veQ5x0N0UBnP2QHLpkEOrsUbQXEYmdotkk8EdHplMLOQUQHMRF7P477rgDr7zyCkNbxBUghURCYAQSCDVlsoQjeRw6kQOnLHLVqlVM6/rgwYPsheXn57P7oCoGCu2cjwCB0i5tEQNf/M5fsOrN49CYrkFSioGPNKB6BGKLZsLwerkSYJe10ECVV8fP55XjiqoAVMrF9pJi6MccH9BHcgEgUC+Gu07HsVbzwBMJYcG23fjso09g2qEDTDHR9IkwKkshzKlD8TVLII2pghik8k8SmqLFV2Js+EHOzpzV7oMHEGg7Im4LLYgik1Buixt4bruO/309jk2nfIibvMti9g5HQYFvjjQtAqKO8aVhfH6RiI/UiSjwUZ8R6kk6sDKyXAMIRAI1RAsScQlsrRO2wREsoDFJJYygEvHsEo0H8m5zFSA4In2PPPII6BftJ/RvNLdoU6c9jqLlFJ2mfYU0DSgdQZw30uwhHh0TpDKpAkdgeyDp9xAXjoj8xNHrbyQrFXvnRIrBAQjktS9fvhz/8R//wTQO6ObIaBRKuf322zF79uxEuiET+ZbkcA+9NHoRhPJWrFiBP/7xj4zs6ACVefPmsbIVYorSSzz/AAJVfRiIasAzq7fh7a0nEHd0jthI4QskyfVs9hTgvbxylv9lC0Wyt2QB4wM6HlpagdlFKuvZIIg9OQipDL5MnjPkAMGiZk0m7j4dwfqwhQvf2oZbn16FOTt3wWuZiBYHoC6YjvxLLoBn6hhIJYWQqbKDbMy6DnaSETNpl4Fca7AAAh99nOBKoW6m0meZaI8bWLFZwy/WWdje6IGZ1ORnIM/V1TGwwQk1yGCxAQK8JlTRwOTCMD63WMFVdSrK/IBE45zpTwwMqOQaQOic/V0hmFP3wQATi/H0P2qSqfd1tuvkIkBw9hfaQ4hjRyXzFJWmcnz6t/LyctYokPYWikoTUCCuHI0P2oeomeCrr77KSv+pXJJ4bxdccAEjJC5evJgR5VNJvQ/E9jkFEOhmCDVRydTDDz/M0BNNSOIgUPcqKqNasGABSz0QYTATYRWnAoKkmOmFEN+ASlNOnz7NkBx9B6lTEdmEuAf0AgcCToYuxcDbC9I074hEEY7GWXTAaUdMXiv99LRm4mfbmvHXBgUR6hnAGOOdQ4y4d3MLNPzx2tEYpQqQWNQxHQ73QIbr2T879ADBwLGYgR82taP+rb245Y9/x6wdexFXAd/sySi4bhH8sydAKS4AqBOmSJ6Z7RTb9u0v6MyORTkje1A4CN0fgHUG1Nl4PNFm4eev6fjdehltcW/GH5XEw6i6h0EDS4REkQMliguqIrhriR9zaoACnwyJSIkZCu3kIkDIuGEH+YK5DBDIFAQIyAGm+eSo+ZLzSyCBSvCTeXbOnhSNRtkeSLoK9FmKHtD5VJVH52dqPJ7rVeUMQHCiCOTJE8L68Y9/jCeeeIIZxjkoHEMKiYSkBuLFd/UguJ6C8zKILEnAgIxPYIDACJU5knCTU3I5EGAydADB9tKY9G+n/m+ySAwty0dDGr722nE83+hFFBpXTkxoLYN5w9eUmfj11WNQwKIHnNg41MdQAgSWnjItdGgGtp9swv4f/QETdx9BoMiP4usvQfCiGVDKSyB6VaZ3wKsWOSs/w4rTGX0NQwYQWDMlA7ogIBY38Ls34rjvJQmNYU+G0wxMI5DZjKICXtFChV/DdVNN3HqhgEnlClSSG2bS15kb4y5AyOgwZRfLRYDQ2z5D/+boItAek7yXOBt+dyKjo8njpNezlWbv7a3kHECgm6QNeteuXUxJkEpE6uvr2Qbu8AQyP7w6r+i8NEJ1lNL45Cc/iSuvvJKFcxw55oEgt6EDCFyfnpeCO4udXU+e+HfgUJuGL718GG+2eKFbGgkAJrWDtlAsC/j8eD++dWEpFFI4EG1iXTZfSgrXHmqAQJ4olYLpER3NW3ZC6ojBX1EKuWY45KA/QeRMyEHY+sAZckpTsFD6pwwZQKDW5JYJQ7AQ10w8sj6O/14l4ViIeAiZOyiZocKAR9BRma9jTrWGpXVeLKxVMDJoQJVJsZEIifT/mavvdwFC5t6hc6VcBwiJ++ymuZHKXuLse91JjZm3Ys8r5hRASDYilRVS2H/NmjVMG2Hjxo0sj0NAwdG3TsW4qRqRrkVRCYpQkJgSpTOuvvpqpsNwNjnmVK/dHUkOhdRywrbd2tEkGvzQv5vAiYiG32w/iq3tAgxSSDOJX8AwOvvfqICEj9UWYG4ZpVpk5gIPhuxvX7YeSoDAgZfJogjE6CTiJ7OrIILaCvDMtu2nUr6mm7p1X882VD8fSoBAip+6QM1vTDy6IY7/WimjoYPUFW3bspp8ETJ0iJLJVP90g8Yjb9jE3kGnCCJP59j9GogMqQoG8jwGaoqBWSOBi2otzK4RUFWswMciBkTJc3I/mU2huQAh8yP6fAEImX/y7F4xZwECm8ymyQAB5WxIk4BklI8fP87KIAkkZAogOOxQyu9Q22cijFBtqdM682xyzP15NUMXQUjhbi0LMSJqxuJoJ50Yg1Tkklo5AgjKIko9ElSKHIhcTS1T7yGFOzzrKUMLEDiA6i7Ilwt2GYhNhxQgmDo0EdA1E39+K4IfvAgcbvXAEEh2WodXiGNEwMIFY2RUlwloCWvYd1JGY4uB1ggQigvQqbafleBakEULHgUo8loYUSigthQYVyGgdriA2jIRw4ICvCQIyrghvGw3W+/PBQgDGZW9f9YFCJm3qbMHE1mfqvfISe+e/hAEYqmd46BQPJX/UQ9s+nMmD6celCaq82eKLNAEo79nagI7OR0igTgkRLbk26UozjNl4vtyGSCwhk4mr0pnuXFGFmOdFGx7kyfcyeF27JEJuwx03Aw9QLC5HUkPkgt2GYhdhxYgmEzrX9ctrN4ewQ9e0LC10QevIqAyL44ZI01cP0fF3BoFhaoO3ZRwJirgZKuJ020WTrYY6IiZMCwCshYCXhHFhQoq8wSU5Qko8gsIKjpkkhim6ggmHcw7Njp1vdl6fy5AGMiodAFC5q139ivmZAThXAZwEEymJm93RETfnalr9/YcOQ0QWBbB0as3WfUCg4d25zv2PFTm1aVF9GAO17N/Vy4AhNywRObuYigBgknSy6IOSzfR2AYsf0/HuweiqCoVMH+iiumjFJT5eLrGkQgH659gdwRhqR7eK4FK9Ihsy1sXU/qAFMJ42R7rHWC3i+YttAdextjXG3ABQl8WSv/nbgQhfZul8gkXIPSDNJKKYc92Ts4DBN5hiNelU3dBuyFOspxSNgFUf23rAoT+Wu7snxsqgEBjzWBMAhOCacA0LIR1AVFNhCpb8MgCVYpCYq3KbbU5VotLcsxc7IcOakBELRwYgyCJg0CVC6yun8Y2+xxr72jzF7KvCuoChCyMVcFEBMBDLa34Q3sLTBJ46yZXQesWNTSiLsGkQJhtDYHMP+XgX/G8AwiDb6LMfmMuA4TMPungXs0FCJm391ABhOQnYR1I6bCraXjGk6/8nUA1qQ43ZTN0/0x/rpHyl3U50QUI/bPbuT7lRhAyb1MGsk2TCQbmJAchO488tFd1AUJ27O8ChMzbNTcAwtkpULkYyUrlLbgAIRUrpXeOCxDSs1eqZ7sAIVVLZeg8FyBkyJDdLuMChMzbNRcAQuafauiv6AKEzL8DFyBk3qZuBCE7Nj3nVV2AkB2juwAh83Z1AULmbUpXdAFC5u3qAoTM29QFCNmxqQsQhsCuLkDIvNFdgJB5m7oAITs2dQFCduzqphiyY9ezXtWNIGTH4C5AyLxdXYCQeZu6ACE7NnUBQnbs6gKE7NjVBQiDbFcXIGTe4C5AyLxNXYCQHZu6ACE7dnUBQnbs6gKEQbarCxAyb3AXIGTepi5AyI5NXYCQHbu6ACE7dnUBwiDb1QUImTe4CxAyb1MXIGTHpskA4dH2FhiuUFJGDO0ChIyYMfWLuByE1G2VzpkuQEjHWqmd6wKE1OyU7lluFUO6Fuv7fBcg9G2j/pzhAoT+WG0An3EBwgCMd46PpgIQ8vPzcccdd+D73/9+VvttZOcJB/+qLkDIvM3JpvF4HLt27cI111zDOtUmH9Qcjf5TBAuLfT58vbQURQntSK4hee72eZm/5/Phii5AyM5byihACAaD7sLbx3tyAUJ2BnI6AOF73/seG6fnqxJfdizY86ouQMispZ3GcBRBoPb1LkDInH3TAQiPPvooPvShD7m9GFIwvwsQUjBSJk9xAUImrdl5LRcgZN6uLkDIrE1TAgjUbEqQoHaLIDh3Qo2n0K3BXGbv8vy8miVYiELAQ60teLStFbrptKLtfB6nWZMLEFJ/xwMGCBS2vfPOO/GlL30JbgTh7IZPbit94MABfOUrX8HatWt7/QAN5Lq6OvzmN7/BtGnTUn+bH+AzCSD87W9/w7e//W2cPHmyhyXIpjRWqenIPffc40YQUhgrtDiQLe+77z488sgj0DStx6eoI97EiRPxox/9CIsWLXLteg67OmuArussxXDDDTfgxIkTiU84faioC6EPIub783FncSEKWWdLhgxSeGsf0FNEC2FLwWMtzfhzezPilgwBehdjOADhwQcfxFVXXeVGEFIYKjRmt23bxvb4d955B8n7GH1cEHj7tLMePp8P8+fPx4UXXghVVXtcIIV7+ECc4oSzycAtLS145plncPDgwV6fXRRFlJeX4/rrr8ewYcM+EPYZ6EMahoEdO3Zg5cqV6Ojo6BUgeDweNk4XL17MNrLug32g9/B++zzZiGz52muvscWBbNz9oHNorF555ZWoqalx7XqOQeCMORp3Z86cYW2H29vbuwAEttiKgGoJGK34MC/ghTcBDuz+xS5O6GplRswQoAkiNoVD2BwJwyAjCnYnUPtssr+iKAyYjR8/3k0xprBgkc0aGxuxYsUKNDQ09Db/zw0QaDMjYECGd3O6KVjcbqFJecjePDLnCrIsgzY0t2d5ajals8gzi0ajrEVpbweNVRqnZFf3SM0CZEsap0SsOxugojFKNqUx6x6pWYDsGg6Hu45VZ+MXANECVEGATJFyuiT9n4MeUvuKD9RZAjOShbhpIm4BbAWw8VSyIWiP8nq9bB1wj9QsQI4BratncRBczmxqZnTPci3gWsC1QGYskIQVermgG0LobhQWROAYAQIEBhAoVeMe2bVAnymG7H69e3XXAq4FXAt88CyQAAhEWuzy+C446G00MDCQiLJ88MbLUD2xCxCGyvLu97oWcC3gWsC1gGuBHLaACxBy+OW4t+ZawLWAawHXAq4FhsoCLkAYKsu73+tawLWAawHXAq4FctgCZwcINqNWYNTaziyZ1aVW182XdX+3giAy8gyxlE0SPDkLB9QSJIiWAcee3TOROTxmBvHWuHXInpIp2X9m/5J0D3QOtx5PUTpjNekcd5ie5Z1RqRgNUW5TUxBt+lfn6Z2mIwkffp7LDTvbFOCjkK+ZZmqWskl3gzipzuOv4pblayrRFLuPRIEPUVp/nVXCnft9vu9Om/Y8tVeAQPa3BBGwJFC1iFIkQSq02K7Xae/uC3Wf9/G+P4GX60owNQn6CR1ahw5DNHrQbQVBhsevYFSJBZ9KC7O76PY2OGjjsgQBhmhB0hW0hoBjp2OIa1wghUqfHFBAdqeSMcWfDzmQT+isE3yxRdg9elhAkslM0DuaoYVaoQkSFZN2hVgioIgKgt4yeEQVEOjnCU65a9QeFqCtyYRhRdHc0QTd7Crmk3y616eisMwPUWL6ie5xDguwtcAU0NocQ0dbFIJAdk2e1VyhUhREeEqHszWAynZdLZS+h5WpxRA7cwxGLNLj5LNGEDgQk+AJihh2lQ+llwiA13kpjmfswrPuFhUtBVajH/sfbUHbzhgM0YTQvR5HkFA9Usbdt+ehtpI8DRMir+x1jyQLEFAlRVVNBAxNwuvvmnjo8XY0tRocHdhwlUAENcBRFRUjJszFyKkXw7LI2+Djk67jAoSeQ8sUBejxMI5seR2Ne9+DbpFQUnIMxoIgCSgKlGLOuEsxPG8kj4yJpIfgWrSrRWmskVMlwLR0hGNNWPnu4wjF23qd04IooKq2DEtvmQLFT5Ecdy095+JnWdDDwPoX92P7+noIpIXSbQgKoghB8qP2o59BcNIF0CEx58s9zm4BMmH8ZD0alv8WHUf29IzJ9KakyE1qsTVYDUiouE3FiJsAyZe0iTEVKzeK0N30umjBPObHrh9oaFuvwewNIEDFtLHAr74jYfrYGCyTtjd3ye1uSxpdBkzoBBI0BX9b48F3H+jAiWZnHHZN0ChqANWzlqF24Y2grnmORWlTc7eznosEJbjikVbsf/MZNGx5GYbBpZY7kzQWaCMrzxuJZTNuRnXBJIi0ATKP17VoF4syb5WWRAmWoKM1fBKPvf5TtMXO9Lo6U9RgzLRy3HT3LHjyEwFxdy87mwUEE1q7gNV/3I2Nzx5gIorUn6HLQThLKcDEr98L7+yrIVkKZMtysdc5RhWlwWP1u7D/N/+K9j3v9pD77jWCwJZd1g0P8PlFlN0uo+JjBkR/spfrgoOedqccmADraAA7fxBH23oDltBTvpbCYNNHS/jf70qYMi4O0xIgCoa75HYzKEUBDDtQoMdVLF+j4DsPhHCiKTnRxWNdtMTKah5Gzr4cExZe12UDYwFx15HoMVxNS0Q80oZ9bz6N+i0vwzQ1W4im81Ti1JTnj8CSmR/DqIJJICaIQIjLPbriA4pXseWRLEQAoRGPvf4LtEWbeu2xQABh7NRy3Hz3XHgZQHCPviyghQysfHQnNjxHAIHSj10/YYkCBDWAurt+DN/sKwFBdnFsX0aFhdiR3Tj0q39Dx+4UAULnNUV48iyU36ag4mNm1whCsqvR5018QE4g7gZRlI56sSsBEHoCKcqVTRst4lffkTFlfJTFYSR3ze0xSJjlbM9M1zxYvkbGtx4I40Rzp7F4GoLHC2QWQbgcExbcANPOlDMSnpu+6XUCEv8gFm3D/jdW4MjmV2CaxC/oOhBFSCgpGIFlMz6KmsKJzGsTyXn4gEzpVB+TOVWMuyXBgIaW0An8+bX/6QIQuBKgyNYIUbYwZnopPvovc+DNJ+6HfSQUgVL95g/OebGwjlWP7sLGFQd4x8vuAEEQIao+1N11P3xzLudO7gfHPP1+UgIIB35NAOG91CIInYNVgppvYNjtKio/avUECP2+pffvB1ni5ZjKUwxvmjYBseuiS17ZlDEifvttBVPGRThAcIdyLwCBlYKAYjC65sPf1oi454FIJ0Ag3ixRwuzwgKr6UTPztWa9ggAAIABJREFUcoxfeBMj3/HeIfQHJx32/h13/XkyslE81oZ9a1fgyJY1sBihLmmsWoAkSCguGInLp9+M6qKJMAWT/Zt7dLcAZ9UTm0hHHC3hE/jLq7/sARAEi9hGAkTFwujpJb0ABBrRbkSh52JgIhbRsOoPu/H2ikOwKFzTAyBIEFUv6u76ObxzLoeYqNBxR+u5LBCr3439v/4m2ne/18NBOLcOgiVDzdddgJDG+HIBQhrG6uNU5pWlChCIL6O4ACEd67sAIR1r9XWuCZOFvSUYgoaWyAn8ZU0/AAIjOroAYUAA4av3wzPnckgsguCGZvsauS5A6MtCGfy5CxAyZ0wXIGTOlr1dyQUImbMvebQsHeYChMwZNflKVuoRhElfvT8RQXChVt+vwwUIfdsoY2e4ACFjpuRlim4EIXMG7XYlFyBkzrQuQMicLXu9UhoAgaUYZl9mc2XcCEJfb4YAwgFKMex5j3M7kg43xdCX9dL8uQsQ0jTYOU53AULmbOlGELJrSxcgZNe+VCKSMgfhq8RBuIzTlG2V0Czf3Xl5ec7RAqL1u3HoN/fwMkcXIGT3XboAIXP2dQFC5mzpAoTs2tIFCNm1bzoAYeKdP2MAgYTDGX/ZLWU4+8uxLEQb9uDQb+9BhxtByPIgthXC3SqGzNjZBQiZsePZruKmGDJnXxcgZM6WA00xEEDwzL4MEpU9uuDgnC/GNE3EGnbj0G+/5QKELA9hdnk3gpA5K7sAIXO2dCMI2bVlrgMER7CNyiz50dnejP/d0WtxdtROqfJOyyXrCiT0dnu9WsatnUKKAdSLQfVi/Fd/Bt8s4iBwhVo3gnD2t+EChIyP1HNf0AUImTO4CxAyZ0sXIGTXlrkMEGgemaJm94QRE7+TvJjAhK9M5mnLUNnPqJkcaZOSvggBC9aV1q7SoD+bds8Odl2mNSCyHh0iSDmWoEYWdDJSAAgkQCckAwS7lVt23/z5f3U3gjCI79AFCJkztgsQMmdLFyBk15a5DBBYfIAUHEUDpqB3xgosEYrpR4GnBOX5lShSKxD058PnC/KutJaOmBZGKNyCto4zaG47iZZoE2JWBIZMjeg0CIIB0VSY3oAAujb57Ermjd0fgEBoxdVY7/NdnNcA4VwtO0WRh8tSOadPK2XohPMFIGSiFSqxYB0mbIbM1+UyLkDIhlU7r+lyEDJn35wHCKYBUaR+LzJ8ajEK1GEYWTgGo8rGozSvCl4xH6KkMGBASq8sLs96S/CIgWnFETeiOBM+iaNn9qL+zA40R48hovOW1rxLD2cE8s4oGT7SAAi1X/0p/DMv4+q0LgfhnC+CUgza0b2Mg0Bljt2FpYa+zDFZU9spwWRhKgJ//HYtppvrDMBOMdhkgJAQzEq6Bu9ISVzWwctD5TxA4IYFdUtNPqhlcudsstm/CV+DdZhILAHO51yAkOFFcJAvN+QAgfUu6PnQCacv1cW9t1J3+7Pdf5TqJdN9FbkJEDqfXoIMvxzAyMLxqCmdheGFY1DgK4Yq+yCLHntTd1p986ZzfH/tvAZ1/9QsDZoeQUesCada63GweSsOntyKDr0JhqBzZXO7n0TnZzNg9TQBgm/mZaBEiQsQzj2ScxsgUCtOmDbutAGBBdbBj3JbksnRqEFduiwevCKwQFrmbJ+z6zjpZBqCIhPfJkUz+jy1pTUB04BsCvZCRICBzuEINxsynLkIEJxoAUElarSji9SzXoBIuvAMoHlhSYWwJD9AXgQUUBNKwewAzFYIejskxBjYoiAi5SZpEadMI9mTLSFZCOW5EYR0t6n0zh9KgMDnMW87QOCUxihNXNpcuP/Ku8mea4Gnz7Dxy8rZKJ9OnRD4ZmSydYX+S1or7OY9WfBvWW+A3FFS5PX/phhn9pQsGRXBSairmo8xpdNQoJZCkVUIoshsn2iL3umD2QMpGV7xd8T/4yfqRhwdWhOOtezH5iOvo75tK+JmB0xLYo2SJMtg3ASLuioOdKfuB0CQ3BRDCguChXj9XhykMse9m3IrgtDJm+ULAywZpkUNjvjkVkwJiqDCKwdRJJahWChHua8S+XIJvLSZ2SSUmKmh3ehAq3Eap+Mn0Bo/iZB5GmGhAzq1+jEFSOQyCyZMSWBS59TXPhu9vnIZIDBsxHKLKgxZhCFVQsibAjk4A4o6CYJcBkv2wKQwo2lBMFthaY0wOvbAbHsDZngPBLMFoqlBskwIInX/k2HRLzHea1vbFEboWU9xAcJArNf3Z4cSIJgmteDimzuxzR0Qy1vNc+Ap9tEUijkCdB1qxmVRa18j0WmSRR0ZUBBgkoNhp8OYI5EFcb3cAgh8/aRN2i/kYVzpbMwaexmK/CPZWsoohATymX3T8+4ZkEscBNBMRPU4WmJHsfvYWuxseBMtsSbokgHBMiARUIELEPqejUN3Rrx+Nw7+5lvo2JeDAEEgQMAGrADBJOQpIyjkYaRUhSp1HEZ4x6EqMBalngoUqcMQEAvgFXygkBk/LOiWyUJfUSuMDqMVzfETOB7Zj4bIfhyJ70VD7ADOaMcREaMwRJMtEHySZP6l5BpAcCY0/c5KnAQ/TM8IWAUXQC68DFJwFgSlDIIQJEgG6qnOPTJaQwgARGGaGhDbA71lI/TWl2GF34aon4JomRBNAghkUFrwM3u4ACGz9ux+taEACM54NE0BPEVoMCY9jToeDSCwwGKF3JuxwUJvlqBNP1CgIq9YhSWq0Iw4tKiBaCiGWEccjGwPgXUDTQYIBH75kpO5BSCXAAKP6AkoUMpQN3weZlQtRpGvAoJIHAM7dcB+G9jz0/fQO2PgztQRjZ/BnhPvYvORV9EYOQgdmv3aMhCzSSWCQKwD1QPiIFCKgZzAbEQ2szsrz311Z/5kbuxaiDfsZUqKoX2b0233nOVujjT/DYOFvGXTi1JhOMYGJqMubw4meGdjpK8WJZ5yeKWAPZgZ/u9CgWFRCN6KnYcmGWI1oVtxhMwOHI8dxuHwbmwPvYPtHe+gXt+NCJqZb0GeS6aPXAII3YmIFnyAbybk8o9DLL4UgjoKoujloVy+ZCZQE88YUJkTeWcSJRZg6e0wI1sRa3kasaZnoUYOQTYsWKIOzhcd2ILT/V28HwBC1yBtpkfbwK43+ACBuC98stL2r/hEFA73YVhVMYL5XoTaYjh68CRaToQBXUq09HW4Rt2f1psnY86SWoydOhyC7EXMiDNwEGqOoqmxFY1HTuP0sXaE2nTKNNprCO/vwVYSmv8ZGrK5BBAESPDLxZgzaimmjFyIPG8pZMrIOxPdSQcOcP1jAIG/TB6VIVU+rQP7T2/C+v3P4URoP0wGADNg5BQAArl9DCDcSQBh2fkJEHhQLZF2d8Z8F2pdj58ObB3QmJLit4YeIJDHyTZQThVgOW3LFJEnlGKy/0JcVHg5JufNRoWnGj7kQxJkiFJyKoDQKv+cs6vxNIXtEbBlh8apyZCtYFKu3YQmxNFitOBgeAfebn8ZG1pX4qi+D5oV5Sxd6nHPohcOGbL/Bs8lgEDGMhjPQ4AgytC9s6BWfgFS0TWw5AI2gSSRntt+XttzS9jBEVVheUQ732vFYMUPI9r0FIwTD0OJHIEh6pkIIvYw+vkOENjY7LY2Mq8m+R/ZYp2FmHcKQ3jQAALbQ+zsNXEFFBPFI/yYNLMaYyZXoHRkIVSvB/Gwhoa9J7Dxpe2o390MI0Y1+yZfJ1hkyyHR8YfzFSpYdN1UTJgxAp6gH6JXgCwSV0mEFtXReroNxw614MDORhzefRxtp2IwNREWiylwV4N4C3z/GtgmNpQAgZwi4hLQ6kpPlyeVY1b1lZhatQB5nhJCQpAYp5/Fafgv9tAD0yvgI5eux9doiviYhomoFsL+M5vwxv6n0RjZz9Z6zvgiLpjJtRbStXcaAGEcAYRZy2yy5NDMrRSmX49TOLnTXmu5UDRzeCnqTdYjdlipwqtKWg0BmsH3rK6zIr1vpmHAIggEEPZuGtoIAvEACHESAZEIcvTII8TRuLTwRlw57B9QrtZAJY/W/s8ZQ+ki0OQ8GfszbW6UjTQEtJmn8V74dTx7/E/YEd2IVuskJTIhEbGGSI0DWydyS0mRoikmyY1KsJRKWMO/Ck/FrRCVkkRPjnQqEXhQgYifGgztMGLH/xfmyb9A0FshCfGMkz7fNwAhaUxRGs1ZCPhU5tyYoTgGCyCwIUMkPlK2U0RUjs3DJR+ZibF1I6D6KNVAmxuBAcCMmdi/7TheeHwDTh0IQdQ5QDCYs08LZdIhAZ5CEeUji1AyrAiVNWUor8hDoMALX0CB168CioAoAY+dJ/H6s1txqj6KaCQGSyc2NO2TVP7HQ/IDOYYOIFgs1cdI2TDgEfyYVrkUi8ffAlXxcgcgw+mUc9nJorSkISKideC9E6ux/uAzCMXOgCAKQTdTIMEmAitpRm/TAAi1d/4EvlmX21yT8wMgcGeCAwIH8DGCqShBlTWUyXFMKvRjfnUhIqaJFw+cwbZWARHdgEz8m34etP6TDsKRB7+Djr1D3c2RsWA5WPeZBZiozsX15bdhTuFi5KEMkERWYNB9rqYLENg+1q0rFct1moBBdZ+Wjnr9AFaefhwvNf0Vp/XDMGiDy4Bwdy5FEAiMCYYEQSwCSj4GufpfIHoqIYpywj7p2pbZ1aS6aB1mdBO0+nshnnoJkMIDBlfdx7gLEPo561P82GAABGceGkyoR0JlbQBX3jwLY6ZWQpAku/LIjqmycLUJPWxi95ajWPHoBnQ0htmGYlJkwOYqOI/HFlXKgFkmDJNIcSY8eR4UDw+ioqYYo2qHYfjoUhQM98HjFxFp0fHuq/uwZe0hNB2LQNANW/2PWMvnK0DgLAtygSRBwdiSOVgw/mZU5I3lCUN7MU13nqc4hHqcRtEZAghUPtcaO4a3Dv0d7za8CA0xRiSVaN0ghyULAIFACCjFcMdPeIqBxVOGBnz3x36mYLB1WRZFqIKJQo+I6oCCmeV+zCrzoabAA68I6Aaw8kgbHt7TgWNRE7LNqenPdzoAof533x16gGCx0JKIoFCMCwLL8NHhn8No/1R4RB8rPWQlTvT7ANF8L6OW5cdINpT+sywJhmGgRW/E2tbnsOL073FQ2woTxMQf2JFrAIERD71zoY7+Dqz8+ZAF/8BtzCJBGkyzA9qpx2Ac/iFE/QQLT50tX9wfq7oAoT9WS/0z2QYInRwYEaYoQskHrr3lAky5cBS8QcqJc0nfTiKZXZ5nWoh2aNi+/iBefupttJ/WYJjkP3QLTFsCi5ApKlBQ7GPpSD1uQdOoVj8KQbRQUJ6P0VMrMWbKcFTWFEOEjP1bT+KNVTtwfN8pCDoPkXMGU/+PoYsgMHeIRVdKfaOwoPZG1JbNhVfxn5Pg2f8nPfcnWSKJLYIUmNVwon0/Xtr2KI5GdkE3Lci0dlBZa7r8hxQiCI7U8lgHIJwvJEWKGgiAIorIUyyMDIoYly9hclkA40sDKJRJBJtX57NEjm7ijeMd+NXuVjSEKGUzkCQDpRj24MjvhiSCwCMGzrQWiTwjFGJ+/rW4oewzqPVMgioHWX6b5aUY0zBbAMHJ7Tg8BYN5He1GK9a1PYc/Nfwcx6y9CbGP/qYacgkgkDnjKIJU/k9Qqu+CIBZzXscAQZhFJaOMDGpAC72H6KFvQWlbwzyZ8xkgdCcUJks78PRgspfZW+gyWVnDLrNLEMP4okmpNYeDYGdlGQcm+bAr9+1/sr+ze0SM/TOfXTavKe01f/AAAnl2Aqrq8nHLl5fBX+ixuUUEECgFqNu2lZltWJGeaSDeFsHaZ7djw+o9CLdRCWPX6CLvBWChcmwRFl8zA4FCFe3hGFrPhNGw7zgO7z2GWIvOKm3ySv2onTMCc5fWwR9QcbKhFS/+dSOO7W0B4p1CYNyI6UcThhIgEN/KI6mYOmIJFo69AXlSIQRZ6QIQksdIgvDWbQgzQrL9/GzNTvyc/4GFwLuNsi5jzz6fpZHpHVqApoVxoHEjXtz5MDqsDsYL65f/lyZA8M5chiHXQei+RHCCnD39uS0lwYIKEwU+BVOLVMytDGJMvozhXgkeiXLxov0cAgNWpEQT1y28fKgdj+wN4WTU5pSkPfs7PzBkAMGZwEzEhCrmLRnzfFfhtlHfwWjfJKjU5IPC3awaxR566c/N1EzTZYbQnRkJpNuKU3j79Cv4VcN/4ox0CIZJC5a9jqd5P7kAECi8RwcxizV1POSa/4Ba/hGmVyCRxkE/FsBOI1MYWAdFgwxazLUTiB39JYQTP4doxXnIOEPHYEUQeNrLEdXh27ZkAXISMmfTkIRl2MLJPbbu5EJqUsMb1VDenGRtmZoHr/VPMDTIG+beqkKAyhIR71IiSjllEqVR+LywK7VI554fHHQzsarEv9hlqWnaPdsAwbkd2jzVgIyF10/Dwg9NgqQoHKQmPUHyxuyIJllGDKeOt+PZRzfi0HunYJK3b5c9OgJdhqxj0twRuPbWBfAWkUwwld2S0pqFljNt2P7mfux4vR7NjRGYkoGaKWVYev0slI/Kw6njIaz4wzoc39UCSzNZmoErr6YfTRhKgEDjsSJYg2WTP4WqwjqIRGcjYoWDLe1yRA54uQdPPyTKVfK8NiSdeaOcvimxBZB/hno4EBijpkxdbcPPtr+KM8iZHVn6h5U/GojGW/Hs5gexv3Uj4sT36s/6kwJAcLo51n75x1AJIDDtizQnRYZO52wZmsuUTOGbD9fk4BEWYg34JRMj/MBFI4OYO7IA1UEP/CQwxcIv3N5c+ssBaBxQtOsmHt/diL/uCyFGRMX+2DPpOYcEILABwrUP2X+ypWCaMhf/OOpuTPVfDI9EZETKj6c/GQf+DmmTM7i3Qgu0FUOreQqrTv4JT535NU6a9RBNjvR6k4I91/fnEkBgKpS+OVBH/wBS0aW2Ot3A4AHbopjtiE0rwDSaYZx5DPr+f4WI2HkLELiiHEf49EfqJS9JJL7j2Itty3zTt4A4jQ8ql0vy7EmlMs+roKI0DyWFfvg8MjwKb1xDpxm6ho6Odhw/E8HRZg0xzeb2i3pSJQn9kQM5SWS1eWDKXs4ywO6HPDQdtKexKhXSo3DIPWlMjsECCGQ3X4EHV9w6D9MuroJIACGhedjzhhOiSYYBLa5h59v1WPnnd9B2IsLtYIse0dswYCJYpGBcXSWGVRWhsDwfJcPzkV/ig+SxoOkmmo51YMtru7Hz3QZEwxZqJpZh8YemYvjoEuzfeRyvPLkZJw60dHq3vXjKfZl1KAGCAhkzqpZi4fibEJDz2bpq1x0nICRxhliAwKkoSVKUdZ6NVZbRX1iohrl3vGqMtWzk86NHBIFhAkevwo6D2wCL85UsxPUodpx6A6/veQzN8VMQLIocpblzpwsQZhEHgVLWfb25zP+crxTcs2dQjK0pxLeh8lMDlaqJScU+TB4exOgiD0pUEUFRgCJS2o2LhnEnj7gxyfsjd0xOxUw8svUYXmyIwCDScx+CYn094ZABBHpARgwUgHKzBreN/DquKL4JPqEAFitf7Mke7o1/0JNw2PWRkz/T17mJycASZRzE0EJpWBoaY4fw0PEf4vW2vyFmtrNJ0Q0w92XrnKhicCIIhNWRvxiemnshkiBSkppcnw9yjhMY8cdhpiMEq3UV4rtug2CFmZJdpo7BjCBY9iQTTR0eCRgzsgTVFcWQZc64TnhdMBGJ69hxuBHHT7V16WlRHFSxZHYtLqyrQnGeB7IiQZQ7GcYEKGKxGPYfbcXzb+zFtkOnickBkXStncMC/IqK8SNLMKzYD8Eu86VoBj+4VxTRdew93oIjja2MpMfFf9Kz/WABBFrUGED4xDxMXdQ3QLAnJtNMICAUaoli9RNvY+urh6BFOt1eNndpOxQsSBKgqDJUv4K8Eh+KRwRQOboENXWVKC4PItYax463jmDDqj3oaI1g1IQCXPXx+fAVerBt/RGseeodRJvIUyYPOP0CwKECCPTGSVl26ZR/xPjyC6CwqoWeTG+SRY7pIWgmgSzKW3c/h0ekVDEPikK6MzxNEDdiiBthVlrnuHvJ85sIpIqoQlX8kERKX/LoROd4tlgq92T4KF7a/hAOtW2CafSjoVM/AQK/k97SgZlapXq/DhOmIw1JJv9toCSgYGJJAHXFHowrVFEZVFEoicwRIZsRxmKS44IATdMRjUQhyzJ8fl/SF3DH9kCbhv9/cyPePh2zo139d7LJPrGjezDoJEUWsKWcK6FPeHFZ4adwW9U3MEIexR6YQi2SQczmnpt99w0/oR5lD7xO3QOOdJlPRQPTVvVKxh09ihmcql02ZrgGAhtEJhCzdKxvfwEPNvw76o2dMGgFTROC5lIEQadNr+Ay+EbfB8E/kYUNE82r+jk/eGSINCbIkzZhCDGIHW8huv3DrHdDmuY6510MHkBgU5mFAmVTQ2mBFzcum4lZ48ogEdNeIlTPA30iKXZqwNt7j2L5y9twui2WeAaKGEwdXYJr543DpDHDObiQeIrBOUTTQHNEw5OvbMXz63YixnoI2EpfNqNgamUJblo2HVXD8vn8IEci6RoUMYhGdWzYewr/9/e3EKdAQz/WwMECCBRxohTDxTfMwPxrJkJS1XNGEBIAgdWAG9BjGo7tO4MnfrEG7WeIDU+RP4dL5Hi7nGPEiIy094kW/AEviioKMHNRLSbOrmLAatuGg3htxWYmqET/dtnNF0KSRLzwx9exZ8MJxOISLNGCnKZBBxcg2CFn5riLGFs0Hcum3o4SbwV7FtvzShp3FkLxU3h7/ys4eGY7DFAqgYCEM2j4Wu2TfBg/Yh4mjbyIEccNU8O+U1uw5cgadMTPMFCRTC6kUU2zJk8tx4WTrkB53mgmyNQVpxLM0BGKR7B2z1N499jfoRtamlCWl6vEIhpW/WE33l5xKCGi1WUBIS9d9YKlGOwIQmb77XSCdJ41sP/O/tz1mwheBRBDbdDErBFFmDK8AJVeBUWqAlWRmCNJaUybdsgAGbkJoUgM7R3tLAVXVJAPDzFwk70H6HjnRAS/3HwGByMkeZ9I8PRzReckxfqHiKS4iYc6k44sdnNkHZMgUqMQZSw+X/V9zC+4iukcsPAVhUUJIJi0yZCaYhyy6YFMzYKSdhnyumhAkSdBuTX6kc6AgMbKQUgAiFVA0PJO4SzEmaklOpuqFahsigKRlPuxs2tMIMgSIZkyoFCumF4PD+2c1A7jkaP3YlX7XxEzw5whnIZXnEsAgTVNKVgGz9gfAYFJrGlLJtQj2RhiJasUgtQghN9CZNu15y1A4PhQZmF68kn9Hgk3Lp2Bq+ePg0cmhE+bD3nptCSaLGrQ2BbFwyvW4+09JxDXKTfLPU9VNjGuMh+fvOYijB1RCFXpVqNsmohoBpa/ugVPvrINcYOTcp1cI5WB3bp4Aq5aNB15Pk40Y+CXRTi4zYkD0h6K4oWNh/HXl7chTuV6OQgQEtE88j4VAePmVuOmLyyC6lcZmfXc04rr/LMkjAXoMQvLH1iDHW8fhqFTftzJe9vvxiNh5MQ8TJ4xFpIso7G+Cfs3nUCkNQ4lKGLW0lrMWzaRiQNtXLkV6/++E6Kk4opb5zIOw6nDzXjmobVoPNTBFvt0ybaDCRDYvKM11KR+NQourv0HzB59JTwyefHJAMEp97bQGj2GFZt/i0PNVK3FYX7Xyg0LqqBiSsXFWDzp4wjIRdDNCNbvX4H1h59DxGjhY7yLuBIHaR4hiA/N+gJqSy+AxOSck7cYJx2mY0fDery07zGEYqfPkWA6yz6XNkBYaoPQfkyMrlsk2xsEJhtNORgRMFmfSFiUAqTfDSYQDlOy4IGJclXA+DIV04YFMakwgEqfgoBM4532GBtMOKJ8TAbYhKYZaI1oCIWjUCWgOC8Ar4ekkZLXD5oNGp472Ibf7GhBi24lAYR+PqdFUst7cOTh73KhpMEDCNyeIjy4OP863F5xD2r8dXxhSBBYLET1EPZENuNwdDfGBWZgjL8OXqkzrBI1wtjbsRlHovsw0jsBY321OBavx7bQBlQp1RgfmMUGMxk/qoWxPfouGqP1GOevwxhlPHZGN+JAdD9iZgSmoLPcLi0tpWoFZgTmoVgqB4tPMiRmImJ2YE3LM/j1sf/ESf2greTGm72kcuQSQCCJZKHgUshjfwgEpjMxqIykAJzoC71gIw6rYx2iO2+AYIbOywgCn+V8XNCmRoDggokVuPXqWagqy4PMUk12TtA+J6bpWL1xD/66ZjtOd5DQFk1WAbpgIj9Pwa2XTsWS2aMR8Hq7DBvDMhCLG3hqzRY88ep2aDqXBaPacPJaSwMivnHLJaitKmUhxkQdu015pDFqWDoONbbg9yvewuaDbTANTohM98h2BMHhEjA1REmEp0jBbd+4GsNG50NW7b4AZ71pAgadDZ0ogrPmsc1Y8/y70GN2GD3hxJmQ/DKW3jwVsxeMZ9EK8jaP7j2DDS9txaGdp5hg0iUfnorZl9Sh9WQ7Vj62Hoe2ncbYWcNwxa0XorA4gJcffxcbVu2CGSWkmF7YdrABgknqepYFP/Jx7bSvoLZ8Ng/xd7tvDtIstEQa8czW/w+Hm7bz4U4CUfaYZ3+3S5QnD1uIZXW3IaAUQtcjeGP/U9hw5AVEzRAb45yEm+zUWkx/4SMz78SEsnksz94d+RHQo/Lyo0078dz23+F06EhWAAKlCVkE4Uv3QZ251CbC8qcbyGGQboPACZzEnyDPnwAapc4JmJOPX+ITMTJPwIR8CdPKCjCqxIMCVYKP1lw2v3vLABJHhkicBtrCEcTiOrweFYVEVpQlUBEDpzPyg6yvCzoe3HISjx/sQIwcXVIAtn/ar2e0LJZiaHjo3xHaN5gAgXVvteAXi/GJ8m/gw2WfQZ5SyHIuzvPQpDoVP47fH/0p1rf+HQvzPoJP1XwVJUp54llPxo/iL8cewOutz2NWcAk+MfKLWNW4HE81/w4jpBrcWvFVzM5bDEXwoTHegIeO/wjbOtbLnjYpAAAgAElEQVTjspKb8bHy2/Hrhn/H2tbVCJlhm1FK6Q1gjGcyvlj9LUzzXcwFmqj1MTF1TR1HtD347113Ypf5BkNsqYIDuulcAAidnpsAM28BlLE/ghC8ADKxktOtP+5t1Nkok3kiRhhG28uI7/oERITSDx2eY1QPVoqBj8dONjDNy/JCHz52xVQsnDYKPomaWHGGtkOuMgwTDada8cu/vIpdJ6gttgXZEBEXgGBAxg0X1eKqRRNR4A90W09NhKIaAwhPvbYDOrGQKWQuiAgqGi6bMwY3Lp2FwiD1yLCBqSMwZgPrUFzDy+/sxVOrNuFMmMvXEls63SPbAIGZlUX72I4E0Wti8Yen4aKr6uDLp0jiuUuaaWOh6g3CCXrUwtO/eROb1h+ASeJfdHFKL5qciQBFRtWkQtROqkBldRmG15TAm6eg8WgT1j27E7vePYFgiYxr/vFCVI0dhsObj2P5b1+F1+fB5bfMRd2FI3Fo+2ms+P16NB8Npc1+H1yAQK2cuaxyiWckrpn6RVQXT7b5KV0dmQEBBCOCN/YRQPh7EkDoBpwIGJ8TIJDcO48EtYTr8fzWh3C4ZSdXuErnSCOCMPZL90GZQQCBx4YHdDAwAOgU5SPyMq2hpglFtJAnmhjhk1A3LA8TijyozfdgZJ4ClfYTxhUih8NmQXQjvLNod1xnZbkdUY1VhOUFFBQEvFBlxnqyxZY5AHD6DYWg4yfr6/Hy8Th0ipMz1eyBPSNFEBoogkDNmgYtgkAZBlgYLo3DnZX3YkHRlRAlzs7uREQmjsUO4f6Gf8W7oVWYJV6Or4//CSpUzlOgoz66Hw8e+0+s7ViBSZ6LcGf1D/DU0d/h2dDDkEwRi/wfwqeG34Ua32Qcomsd/QZ2xTbi0ryb8YWqe/DDfV/AW9HX4JP8GCZWQjGo85uFGnUybhn5ZYzxTmMsUBbVYKkuE2GrFb88+G2s7vgT4gilNb5yASAk7EuhWf8cqGPvg5i/yAYIqUVCzv7QDPnZZTtUAdUKrfkFGHs/BxFEgBrYYE3+3qECCHQPVK65cEYlPnH5DAwvJC4ATzUlahooNKcbeHHDTvz15S1oDpmQDIE1Hgv4RFw3dwyuWzIFBYGuAIEIpKFonAGE5a/vZABBoFSXLGBUiYi7PnYJRg0vYqmJTmDKFdZosdE0E3vrT+HRle9iz+FmaBaVCdveTVojlWEaxGNt2Ld2BY5sWcM68nV5f9SkU5BQXDASl0+/GdVFE3nfkjRZ01RpQRuoIgJVE8pw7acvQjmJFknEiel9PPLUAi0iOmJtBnZvasDzf9qIttOUv6bP0crIIycU6aVgtyFp8HhE5BfkoWriMMxZOomVM5483IyVf34PRw82YdaS0Vhy0yxQ4ciTv1qDhr3NmLZoLC65YSIMDVj9py3YsvZANznsvg07qACBzCIRMDIwIn8Srqz7LEYUjO2VpJoWQJAkTC6fj8sm384iCBpFEFIACLKo4Prpd2BC+UU9IgisoJxFggREoiexcsej2H3qbRYFS+tIFyBQBMFOHqf1Pd1PZkr9FnTmzhsIijpKvRJqCnyYWuxDXbEPVQUeBEnMiCIMogmdOEMmRR1YwaJdycAdU3ofhqGjIxJDW1hHXNPJP0Uw4ENhwAPVIe/b7AQmk28723ShE3EN319Xj01NZD+FyWyzuTCAw+EghPZt6QGossdBIOdStDBRXohvVP0YdcGZ3FNPqjGm7NSx2EH8rP5ubG17CdPUxfj6+PtRoY5OPC6lFh5q+C9saHkBY4Oz8dXqH+PJow/iuY7fAnocAbEM1xd/mgkvtRlh3H/0X7ArtgGX5t2Ef6r+Ju7d9wVsCW/APP/luGbErSgQS5kR8uUiFIqVUGUvJ9ZwFgIjiuh6GE83PYg/nPgJWsxTaXnFgw8QnA2ZRh8RrKgOnB5HZ8kx3TcD6ph7IRVcyoKDmeAgEPpn0jIsfdaE6Jm/wdp/FyQrxnPlogKmyW6RMiVXqmM6F2ki3aEECKT9Xx4EPn31XFw0fTQockqTNbk8Szd0nG4P4+Fn38ab248xkxuCAL9HwLWza3DD0unIz+sJEGhxePKVzXhm3W47giAj4FdxzaJxuGnROHgYOOjcPJlmB4VpqZdIexTLV7+FFzc1IKJx0SXqptmfPmODBhDIVTANyKbAqhmWfnwWZlwyDoqPk2YpvZeME+ziTwbWIy1R7Hr7CF565l00n4hCMBVOsGMloAQQqNM4Rf4kFgGkl0Chc0sxMGpKCT70qQUoGe5j1Qsv/XkzyqsKcN3nFqC8Ioj3Xj2Ml5ZvQl5pEDd9cR6KywN4Z/UhvPz4JsRD6W1ggwoQmA4GgTcTNcUzcPnE2zEsj5yqnmCrPwBhWd3tCKoEEMJ4Y99yO4LQwUPr3TUiLItVMXx4+lfOARC4NxyJNWHN7j9h64l10Mw0VWsHESDYGdTEHiRJFoKKhVLFwNTyIOZVFWBCvhdFCpUiE5GWNn4KEXBHkyke0P7Hog4iFFY+ajHuHKUUWlpb0RGJQ5M8LJNVHPSgMKCSlljS+sLZybRe8xWUA+btzSH85/pjOBKm76NyYeqWORCAwDkI9Q9RBGEwAQKLKoq4wHs17qr+b4z01jKZ064eg4Vj0UP4ScPX8V77SsxUl+Jfxv0CFWpNUgRhH3537HtY1/o8xvsuxF019+Lxht9gZcsjiMtxiKYHZUoN/rH8nzHONxUPHPsedkbXY2nRjfjsiO/h3n23Y1t4A2b7FuKKYZ9AUC5lg7VQKsZwpYbpMXC1KodNLiJuxrG2dTkeOPJvOGHUM28y1TTDYAIE1jqXVXHQYPICnvGAfzLr/mXFDsOKNcHwjYN/5NchFyxgIV0uUNP/gyYPl/4mshxhkBZ0NL8I1N8LmfKicg3grQKMU0D7O4B+lE0WEmUhTzedLx9SgEC0RQm4aHIFbrt2Lsry/ayiIVkVgWrwaRNbv/UIHvv7JhxriiIOEQEPcP3salx/6QwEgyQj3mlvAsVtHRE88dJmPPfmfmimzLgH00eX4uPXzsbo4QVQbM860ceAESMtdITiWLfpAP68ejNa4wQa7Os6YkppBm8GCyDYPCw2XiRVR+204bjikxehZJQPlqBy8iwZyY5eU5SFNtx4JI4NL+zExtXb0Ho6CovlW+1WbjaROWFa+9kpLeG4bYpXYryDC68dj8aDLXjigZcY5+PyW2aj7qJRaDwYwpMPvIxwOI5b7rwc1XVF2LOpESsfexdnjlL5aOrS4YMFEOxsDSSTgKGFsSUzcdnE21CWV9XrpE4HIND4nlRGEQTiIBQxR+mN/Q5AcDgI3YSSLAvqOQAC113g60U41opX9j+GbUdfg0bhmnSONADCmC/+CMrMpSyHn/Zax5oI0jPq8MkWSr0yxhTKmFniwYyyAEbkeRgRlDsLnfOPV+s5B4tnJSSlDRKs03WEQlF0hKOIUjMFCPCoCvIDXuQFvBRABNU2OFdhXD0mmCZCl5jEEizDwrP7z+DXO5rREqOHEyFSWMImS6ZjzsSdMpLiXjQQQNg/yACBDLMw73rcMeoHGKGO7gUgwAYI/5wACHeP+x8MV6vZ/dMGQSmG3x3/Hta1PI8JDCD8EI83/Bovtv4eshhAvlSCM+ZpTJJnYFnJdVjd/CL2xN7CpUXX47Mjv88AwqbwWngFPwrlcpgSLUhArToFn6y8E7WeqWyisQXK9mYIILwVeh4/P/QNHNUO5SxAcCY/63EhlUAa+U2IhVcDJPATa4AZb4Sl5EMKzICoUuSE8lUULUl72nQZe0zDg1ArAwgaDOMoEN7CSkJFuQaWUgpLPwrz2MMwzzwO0WhlITdT1NL66iEFCNQ4RRAwLE/FPyydhsUzx8Lj6QS4DCgxAwhoagvj+bU7sHLDAZyJCcjzCbjxompcc/E05Pk8XW1nGWgLxfD4S1ux4s0DMKFgeL6Em5bUYcG0KgS85FXwGnUHIFBJXyyu4e2dDfjj82/jRFscRrdoDIsg5CxAcNJSfE4HilQs+9jc/8fee4DHcV7nwu/UXewueiNBEgDB3klRVKcK1WVJlouk2MkfF7n7Xl+XXN/c2El+NyWx48R2nPyxndiyLcuWrGLLsnohJUqkRIkUSbH3gk60BbBt2v+c880Ai0Jgl9gFQXrGD00RmJ2dOfN953u/c97zHiy/sg5qkMKkLnnWDSMQQLAMG02HOvGbf38WvW391B+Mm/2IMXx6wO7ZjBd3BVhyWT3WfWAVrKSF33z/WXS2m7jspvm48j1LEO8Cfv0vz6CtsQs3fPASrF7XgLbjRGDciuN7W0WlRIbk5EkDCK4CMkVjKJBCAOG6BQQQZo4DEFrw+53/geOdu0Q6laIvaV0AmX6YT4DguADh8OQBBMKQ2VFNSQ9H5o1BQ6GDi6eHcUFlBPWFOko0GQES6FQoUjVSx2FQlVJMQk6tSNQc0EEsmeI5T/op5DvJfQZ0lbVSwkEdKi30HC8QkQAuWmJtBOGnGXvIQMK28YNNx/FsYwIx/h2d46bbzgQduBwho/EARxBiB3eMSBHnL8Xg6khdEREAoUavzwogeBP9RPIg/rv562kA4V48fOLHeKbnFyiVZ+KS0nXY2rcJrcYxNMjz0aek0GGcwNWl78XHZ1EE4aPYGnsZJnV6Q4BzxIT25khL8NmGv8WqyFUuB0Egcgp3pqwU3oj9Ed8/+r/RZB4d0yENfy+TGUHwVCod0jdXyqHW/x2c8jvgKGWgRAOLdDLSFQpdwuNNsG7Wq5CSBPGIlCgJLUuWKL0SGuwGYByH1fhj2B2/gWx1cYkUVZFkg03OJkDgzmqQKMuHJbXF+OT7L8eMyiJRZ+8uGmKMSjAtG0ebO/HQM29hy6FOhAoU3H3NfKxbswiFwUGAQGdTN9FE0sBjL+7E717ZA01RsW5NHe64ZjkqwjqX7fL1XYBA30EbjoMnT+HB597E1kNdrAHA7KS0YyoDhEFaCkVCJMiagllLynHnp65EYUWQuQgDAJ38hm0jFTPx5ot78dxDW2HFDZEApHHulh2Pt3DTNYi8VbuoCuvuXgldlfHbHz2PjlYbKy6pxy0fXg0zoeKBf3kaLYe7sPSq2bjpgxci2W/imfvfxL6tjaKqbQoDBNoizy5bkWEEgQDCv+N4525XN4YAQjofjKIlChYzB8GNIFgxbDr0GDYfe5qru2gRFH5EiIjzQphpBMEh7k03Xjz4K+xq3gjTzn8EQQhCZoeaKWlVE3Lw2VXluLhMR1gNstovC0uRvDylDTzUkbbP8gCCTCkHS4gDpiwTPb396IulYLhEZJJ/VhUJZSVhRIIsaM1RAPLS3JMord8Ip8/cJZvWrU7Dwv9+5gAO9oHJ0Ox9qF3BGYIDD4yICAJVMWyfXIBAofuLgrfif9V9C7MC1H50eIoBaEwcxXdPigjCBfq1+NK873EEwdOOOZmkCIIHENbg83X/iEdO/Dee6fklpum1+NSsv8ee3h14vPu/0ON0sBMJOjquKb0bH6v9Gv7p4D3YHn8NNcEFWBO+GiE5AAUqZgbmY03xlShRyiE5Gih6yZrZBBDsJF6JPoZ/P/5/0WqdmPIAge7ZcXRY+kJoVe+DUnEtpEAtJLkQjqyzFsVASdME8YFgcortqreL5havzMCJA2YXnOReGO2Pw2p/GpLTxOExxbbcUsHMR/PkAoShhqFn484LjoLCiIJbr2zALZcsRSRIi7grfeymeExbgmEa2HOkGQ8+9xZMy8Ff3noxFtVOg66nlylRq1YbtmVj847DePqVHZhRVYq7blnN7GVN0bluSohZiQgCgYG2zj488vx2bNhxHDHWPHDguHr3A1FOTxcgc/NOGkmRt7qs3JfixZ9K5aSgjXd9aDVWXjEXwUjAfWaXsU2Kk3ED29fvwVMPvAUzQWBNFdLWWQAEMkUwLGP2ihr2pge2NsJMyZizYjre/akLOYf7wL8+h/ZDUVQvKML7P301VE3CM798C7s3n5gkgLAGwaI0F59WTTPaq/RSDNTi11Fk1BYvxQ2LPoJpxYNp2fTPeVHGaKIdf9z1Exzr2CUifxxBEN9LKokknkQAgUiK1zFJsRiGFcNbx57G60eeRsyIisXKJajSZ0i+meaoLgfw7pWfxYLKkSRFkWIQEaS+RBee3ftz7GvbfIYkRRPP/WLvuEJJnGLgKgYBZbI6HAezIzK+cMkMLIooUFUS9XK5AVwF5iZMBoCj+Lcndc6bJiIiJ5Po6u1HPGkwJ0uEbWwEVAVV5cUIBAgUUyMxcqUK97gQlVKDaS0m4HLKTKFm2TgQ7ccXnj+KbkNlXyoCDIoruJTVUw6cTOPDoDLHn30NsckCCDwomaQoYYm6Fl+ouxeLIyshS7q7g/UEPICm5DEGCG9Fn8MFgSvxsdlfRZU2U9SbQkNnqg2/aLsXG6NPYWHwQnyx7tv4TeN/4ano/Zih1OGvZ38fISWMXzb9Mzb0P8nlOIUI49qSu/Hhur/Fd/b/D7wTfxUXh2/E+2s+g1LSTJApY1+EQqkUAep6Rtkf0t538RNNjEdP/Qi/bP5nRJ32jHcRPNnoGk069n7LQHQTNUYZ3ilOoPClDTJ+8lUNS+fFeQifUQMTN5QlKoYoQBUE1DI4wQZI4WVQiy+CXHQFFG06FEcTtd25kDpMQ+Xcuc1OwkoehtP1PKzeNyDFdsFJNkKyotypT4TL0pTHMhzLkwoQRgltCF9AojkO5teV4M9vvBCLZ1VBUYUYjefW2fzUojhloLkjyn/X11SgQB9Zl04LPs0PEjpq74gyibGipMAFoVRD7gp6cRWQjVjKwPq3DuHR53fhVG9qkLA0PMWQoU3TT5ssDoLwZPTH5sWI8qq0+y2bqeI996zFrEXToKiiP4N3WIaFpkPt+MW/PoNEh9ixEt8jU4AwoL5K809zCbUpgW0r64pxzd0rOHL47P2vo6clgbIZQbz/s1chUhbCs/e/hXc2klpfriMIImxMc4aEo2avqMBdf3URgkXp2gLjp/9Ys4CEe2QN5aEG3LLkHtSWLuLdp4hpDSt1hIN+M4aTXbvR2dvE408Iz1pImr040v4OGqMHIcsalk+7EusW/SXCWoQX8c5YKxo79vN5RAolcEc9WE4lTmBf05tImjHosobbV30W8ysvEhUuQ0qphTwwfWd3vBNP7/4RDnfsYBGsrA5Ks8WHA4Shi7/X7rn+0/8IfcU6LqnPMAAkPKm7bgUVBwsrdKysLMDCkiBqiwMoDGgIyBJrHlAUgDw2RUXJ65oyzVSF0wkUHYwSzyCZ4vbW7P0lmSWXwwENxYVhBAIa8yMU2li5jyA2BWLuiyiCNxeEymXMMvHSiR58Z0sb+g3hfMS5Y3U1Gc/C5LsFQGi8bxIBAvcCcLWlp6vz8D9n3MtljirtZl0EKl6Gg6bUcXz3xP/B6/1PoRzVWBq5AEG5ALakokafg0Wh5Xim81fY3Ps0FgcESfHBkz/GE333Y6Y8F3/T8APML1iOt3tfxn83f5sJiWEU4NrSP8NH676KfzrwWWyLb0B1YAYWBS+GrgTZ8c4KzMW6stsxg3LmHH2ngS12x/12J753+P/ipb7fwpBITTHzY9IBgrvgCOVvQUDk0hglDEufA23ah6FX3gVJKRF1/BPu5jjUFsyuN9oRP/5tSN1PAKk2SOjlWmEuPhsjXzyeVScXIIx9NwW6gqsuaMAHrl+FkpDKYMurCBE7JAF6RWh7UIlveIh6IEfuhmdFvbT4bq9DIUcvyK62g+bOPvz0d5vw+v4O1yGwrJLbTXI8C479+0kDCGm34fUJIadJSnSX3jwfa9+9HIVlYW5F7h00rhK9KTz84w04uLUVdlKUSmY7pkR56NCFRA0oKJlezNfqauyBaQJFFSru+tw6lFUX4dn7t2DnxiPMTM9tikEQz8j/0KZy9oqqUQBChu9UIrSjokCtxG0rPo655atdrpSIfYlWoOJa9BPDoh1/inf9/Ht20Uk0Rw/g5T2/x8n+3dCVAC6ceSMun3sngkqYP2cyYZQiBaJqhMZ63Epg24n1ePPwkzDsKArVUtx2wWdRX7bCnRNDGwyJ5m42Wvub8NTO/0Rjz/5s9/Xsl5NxC8/9Yg/e/MMxIaI1HCSTb9ODqPv0PyKwYh3n9jNNaXrjhImBNCcVIKQ63EipJiKhviiAOcUBzC0LY1okiAKFJIxE51UqJkoZNvpjKfQSODDITmI+sxYDaaMU6CgJB5mYyHLYLLUsAK93pIMZT/BKBGsddBlJPPBOOx480I+YOajuOxH/yvsa2wZxEBrv+385xTA84pIfDoKHiiikIpfhz6u+iDsqPjFUKIlHroOm2FH84MTf4bXE44grKRSYAUbAhgLUO4vxnrL/B3uSW/By7I9YHrgcn6v7Oh5rug+/6/0p6qR5+PLs72FBeDXidi9e7fkjfnziW+hDN64vvBMfq/0bfPvgF/Ba6ik4dgoBOwBToS6NxEFYis/UfQWrI9dBUlSW0aWwjekYOGrswb17/ycO2G9y7Ws2x2QDhEGPOuBaXZ16ckQhSJXvhV73VUj6XC6HyT1AsGAnD6PvnfeiIHFUSFvLSW5ZOtFgxVQCCLSgVRSH8JfvWoVLF9ZwqFCSR9bxi93Z+LvA042pgQyOW7nQ1p3Afz36Gl7b3yL4JKzeRlAwyx3YKF94NgCCmPYidULIvHh6EOvetxzLLpsDPSh059l+DDwt7HrjGP74603obRHhWK7amQjo5MWKdrTurp0WPVmFGnRwwwcuRuX0Erzyu+04sqt1QOwmk/mfGUlxKECoX16FO/9qDQoK3c1JJl80sOKJ4jfZKcD1i/8My2euQ0AJQWbyMDejSFscBS/IE6yybQtJo5fBwc4TG3Ho1DuI2X0o1ktxxfz3YfkMITxHBmdpb5ahp/RYnCWbD7Rux1tHN6DHaOSo66yCJbhx9T0oj9SNaNYk9Cyo2sfE4VM78Mzu+9ARb8y6myPNqHEBAt2NHkD9Z/6JAQIF8cX9Z3e4+3i3lS9FIQwUaA6KVaBMU1BbqGHljCIsrAihOihDMg309JmIJy1QR3Ju+EXRBdIMgc1VCsWREGsccAUEpyhFF9ahY1ksnAMbDKIakW6CROtkAt97vQmvNBsws8yajPf0kw8Q3MWfCSJSAGsjt+Oj0/8W9eGFg0qK7ChsRI1OvND5ON6MPolepR+6pcJiApyGWmkhrqu4HS3xE3irdwOWll6BtUXXY0fvm3jx1COYF16Am6o+gBKthgke3almPNf2MA7H9+GyiutxUeE1eL79EbzR8zz60MthOa5ZlVTM05bhPdM/hJn6vIGdCw2MmN2LF7oewU+av4UO8yTkLKnhZxMgUAqLtCcI70vcBrQY8vS/gD7jryCpMzl/JvpcnPkCNnyw0Tu0jRPo3fsJBPo3wbJI0poyxhTJmNhInkoAgd4rIf85NUX49HuvQG1FmHcDOVGmTDOqAAiijTSFYfsMG2/tPYmHX9iGox1JEN9Bs42BHvPjTf6xfn+2AIK3c5FosVY1zF42DTd8YDVqGirEuuYCBNgGOtsTePrBzdjzWjOclFvWOxGAwMBLlJmJvTUBWdFvI1gZREGwAH1tMSRiKUFOyxDsnRlAqMSdXxIphgy/xn2dLgdGpLWxpPJiXLP0gygO1gh5XgIIQyg1NJMIIEiiX43Zh51HXsbWE8+hyzgFw0lChY664hW4cvGdmFHc4EZ6OUHO30ljsbFzLzbu+x0a+w6gn4jHkBGSynH1vPdj8cyroAfCbt5/0L8IIjO1Oo9j+/GXsP7gw4hZXWcAECiCYI8ZQeBELQMEiiBcK3pHZOmDBpQPZerpQyBWlOAyf52b+1HvCRvFqoppYRlrpgVwWXUEikFFz15sT0ATUlssCmkoKwzBzUrymBJy96KPxekAgkjLOlAoBSADB3r68c1Xm7CnS3TSyOVxdgCC22SFRmqNPJc1Ca4ovRVBJeguT1wYz6StXlq+rVaYMEG9zS1JiJ2EpSIUyaVIOVTW0YsCuQRBpwBJKYkuqxXFahHCKOLcGY0FCp/FzX7Q/0JyMQqcEPqdbkStLhjc7IlCPwJdR6Qi1kKgTn2sgUBIzXHQYhzHzxr/Ec/3/hYpJyZeeRaz96wBBHfE0OJMQURuRBVcDHXWl6GWvhtQiJw5fGcx8WHGu0GrB4nWH8Fu/CFkKq2kjByR7SZ4+akEEDznQPnH6y+ow3uvWY5p5YVCOc5dbsTzjv3UYkkSZwnfRREt4S5EeM/9LacsbG4H3RtLsdbCU5sP4FBrL+88KDwpPu2WO7nc8mxMfjYBghDTMLlJlhpSsebGuVj7ruUIlwRdDXp6LgtmysbB7S146oE30NnY5xIVaWkStkrvLpj+7INpBS8jL5wyfYq+mqKIXH3DYWJhdlLAI4q6mCesbpPx3M8MIHgcBMFbq19eMQAQsnlvQ4U1HJSr03DTqo9idvkq3oCJEHn6OPQaX1EkwEYy1YEXdz6IrS0vwJYtqFIApfp0XNJwBxbNuBghbVDcy7sK+dZ9zZvx5Ds/Rbdziu1VhDIsrL4EaxfegcJAFffb4Px52hzgDYTjIJ6K4pV9D2LryfUwkRh3ngy3B70nDyC89cRRV9Ju+Fkypxhmf+YfoC8XSopZOyFPGlkWBEwicnLaYUAqWaxblAIndDYvZOOexdNQpZq88HPqjNpmU5+8cBAlhUHoVDnHm2XaNA2+Fw8cDK4vA4QE15O4AEGy8UZrL77xWiOaY56OzUS9q2s70kFoPICmn38tLcXgeSge/2NALEeFXmSi+iM6au5yoBRkHq7hiUg7SZ5wQVwdvgsfqf1rzNLmiO54JKrjhq5o9y8co2BopJnQ/bFXVCMGn/jXULa3N1QGz0w/13MN7lewnrbw0NyEh/8tI2knsDH6JH7WdC+OWrtAxdc8SLLYsZxNgCBy14IYY8sVkMvfD23GF2AH65ghq1EdeRZ5uUyclsjdGTBjO2Ac+RbknqyolNAAACAASURBVOfgUAmTYotw5wSOqQUQROiQwvyVIQfvuXIZ1l00H4UF1E10cBFKVwod7dHdQlCxy+N8J7GWxa7AG/fiGoM6CKTAFo2l8Nae43j0xbdxojM10BXOK+MSmdPs9hZnFSB4gJarGhwUVeu48rYVuOCqBdBCQoiGC3XtFBJRC9tePYAXf7cVsS7aPFBVjiA9ik6XIy09hOuQ7pSZWEYfIQAgQuhU+ZR+EeaFZJkfywwg0ILDNT1MUqxfVob3fWkNCopITje7d+c9Md0rdWG8rOHduHTubdDVsEtEThdEIwuTsqr4nkTqFF545yFsa3qBG+NVR+Zgce0VWFB9MUKBQigu6BXuWBjXsi0caNqEZ3b+N7qtLhTqlVhcdRFW1l6FiqJZUBRKDQ/N+QueGUVsbLT1n8SzO3+Mo11707pJZu4c6GkScQvP378HW//otnse9nGHdudaALM/RQDhmpxH97yvE10wxLitUIEPzinFyhKNowQihCKhvCiAklAAuiqiCWxF5iQM8jPGaosj7C7IpIZt4fGDp/D9bS2IJlyxsCw2reNZ2Wg8iMb7vo7YIeIgCJ6PNx/yCxCooJAa/sk2yu1Z+FDNX+Hm0g8gpBRR5GZQ7zxtgo+2Wz/d5Blajz6eGYb+XuSm3AXMljjsSBUVP2n6B2zs+z1SUg/vVhhmTHGAMGAfzk/TK9ZhRa5GcNYXoRRdAYuaDTFYU7N2fONZ1ftu2+iD2fkIzJPfBZIHIFG3uDPI/w3ZBdJAtV35a6MAv1sv429+GEdLl+tMuT2zAKI0A3UthPpVN2D+Fe/nXaI3yQQaPDMHnH4/5BgsiZQPbdRXhnD3tctx4cIZCOpedchQKeaRthO7ZrJZygTauuPo6o1hZkURikK6aCrKJNLBjqd0DR6plon+eAI7D7XjoefexolTCaQ4j05dJKk/gYhEZHNMBYAwQA6THFTOiuCmD16K+uU1kAOyYKETSLccJGMpvPr8Lmx+bg/iHZYrbE/vePQI3yBAENLjpJEvtoEEPlz2uLs38vQsBhbdM3C+ZwIQ6gggfPFCBAuzTTEMfcuUqqkvWYEbV3wYVYWzhcrfkGegpYy4FwS6HBhGL7Yd3oCjHbsxvbQWDdUr+HOKQiTywbRK+jWo+uRkxx5sPfwMS+Y3VC3jyolIQRlk0u6gEvZhO3aPiG6aCexpewMv7X4AnYk2d+3Jbj7Sq0rELLzwqz3Y+iSRFEduPiYLIAjlIlJKBAIKcFVlEO+tr0BQMuAoEgxJZoJjdXEIkYDGqQYBEIS0+IBdx9ibp0cV+kwDP93RjAf2dSNhDDaCymauj3XuWQMIrLHOLSotOLaMJeoafKL+K1gRuhqaUsClfWyILB1bLgwj9O1pAaJO30n0WKfwdNuv8NvWn6AdRKIx3R3Z1AYInoMVESwVtqoiqS1EaMbnEai4A1AKYZO4D0cXBhnzubDh4DUoPZMCks2In/xvWB0/hWZRz/fs9OyH39NUiiDQvYluHWIHQI2H5k+P4IO3XIj5M8uEyqLsCv6c1rgUbREAoamjD4+8sA07DrfjimVzcMMl81FdWsCE2eFy2KKMkhZFC/0JG6+/cwyPvLgdJ3tMGI4CjQGCVxed+ZudSgCBLac4mLmwHDd84FJUzyllDQnhWGlxN3mBeO2Z3dj83F7EO5Pc+4JW/9EAPM8LCvUGVRREVGgBKpNUEO+3YCQMmClKL3iJ+jMQkRi+eyUiHn2npMCSDHTHW/Dg+n9DNNE5AE45ypMWQRAAYQ2ChdmU4418v9QMKaKU4aKGW3Dx3JtQoEZcDoHnWAdTV6J4zETKNLjkVFN1bhMtSrkGVfyGAHU3ukFchaSVYB2ZoKK7JE6vvfNIJ872YGGwbjz9zv3Y3fYay9iLoHV2AIE2a5RiePFXe7H1ybMbQRA8UEESpYjB7KCDTy6dgUqN0thAvyGjtz+K4pCG2qpSlIZEh0eve+lwgOARm9MBmZeCJD5eeyKF777eiBdPxmGxM8jtgnlWAAI9hmxTW1KSrxS7IB0FuDR0E/685vOYF16BoEQtbckJ0MRyURYzcDN3cpmeSREDTmm44ROODvAAtnDKbsRr3c/igZP/jHankaiM3ELXVTWYWhEEWuT5oUUMxEupMLlGLoAZXgC16h4Eyt8DKJWM9r2uZqJrQ+6NK8g8xEQyYCeOINn8Mzjdj0I2qA9Dit+n2NF7oavM+AlTCyCIJGR6GJ/YyAtmFOGWKxZj+fzpKAzRDsztFcA7uKF5YFGKajPvZtP2w7j/2W04GQVKNeC6C+pwyxWLuM20LBH50SMpyJzD5cQROSbbQU8sgRe27MMfXt2HtjgtOhYUIjZmOhnc86YSQBB2VaAXaFiwZgbW3rYc0+pLRb0+pXY4mmSiryeFna8fxbZXDqDtSCds6g/mmpqDsrzWixBwsFDFvNUzsXhNLaqnl8FI2Th5qB2H3j6Jo/ubEYvaTOblcLHLOfAy6NnaMtMIgkgrKZBVkWJ475fWIBjxfF52iyZ7AQIcDkVbJMwsWoCrl7wfdeWLeAPmLSVDdRG89ttu+SfvHIQfEWJqI3kX6RFcLuOld+H1wnBFvcSQ8u5f6E5wszgrhZMdB/D7N3+ETrvJ9cJeRC/z56WAAVUxvPTAPjeCMLK6jMaJTBwETjFcPaD6mOW0GPd0kT63WJGXNgwVAeADc0qwvFTlxkxxQ0NXPA7bMRAJSJhRUYjq4jAiri6KyG6LFILguQhCt9gsp4084sXBwsHuGL6+sQnbTxmilDXrmT7GI5FQUtNBNP7s64gd9socJyHFMASBuv8gBF+IMlwWuQHvmf5RzA2uRECNuA2HRF6QWrkOFdoY932Ne4JYwES5Dm/GmKjkwKG2m+YpvNzzOB5u/QlOmLthSe7Ay5L96t1EfjgILhWNFencASSZsC3iGtAfqssPwwothl51N7TS2yBpNSxtTRPZAxSCCJe/g2qTbapiSDXBPPUAjFN/hJLaD9mKu6Fdrq8YfIQBUt7o9zS1AMLQexTDQ4aikAMIYe3yWbhkeT1KS8IIaho0t22riDiwKo1wnxQqNQw88cou/PalXeinmiVJRlWRjpsvmoub18xFOFTAC4g4BKhlcOXhMNtCY3svHnhqC97Yf4pV1oh7wkSoLI6pABC82xULrFicCiIBLLqwDlfftRRFpWEoKvXxcNNJloNEv4Fjh9qx7ZWDOLatEYl4ins3MG/Ddjg1oYQcXHjdQlx07WKUVEegqkTQk2CmTHS19uLgjka8/sJu9LTGmQjJ+d6BCp/xmCQjjZwJQBgkoLoAYWkZ3vMFUlL09B+ye3/iLgTDnmTMNbUQy6ZfhcsX3ILycM1AyF+w+UeZ+S5xzlvaM/MObvelMUSZBDggl2ugK9GK9bsfx56mjUhIcVgSpZ09vkwWz0vcibiNlx7Yi21PHecoyMgohAQpEEDtJ+9FYPk1rmhTfjyeYHqJa5MmwrXTgrhpZhBBWUMqJaMnFkOStRpsBBWgorAANeVFKA3pUFUVqrvRI0VU4sIprqDcQPkJuwwHpp3ExtY47n21CY39guSYyyeiCA8BhKb7vob44Z0jbJo3DsKofoojzgoCciEuDF2Dv6z9MuYWLIUsqVxJMFDjPCF16VG+2VXIEo5aoGWq14+aHXip+xE81P4fOGkeAZxkluVGI78rrwCBKhNov+OS2hSTOn0pSCjV0EquRKDqLqjhSwC1REQ9CGxlSbbKYn0ZzdCwbSqnosqGNpjRDYg1/wZq7xsI2D1Q3bwhOQlLFgzysYh1UxkgsGsmfoRMu30HETWFRbVlWHvRUqxYWIuigMTteKmbwxCAQEIzSYNTBI9u2MPdHwXJ0UFZAfDeq1fhmgvnojCsCgKe6KjhsvY9x2sinkjg1Z1NuO/x19FragJEZMn5mFoAYVDQiMauHlaw8NIZuPnOyxAu1YS8NbO6RGdL0ruPd6ewf1sjXl+/C02HTkGyFI6mSJrFkYMb/uxiVNSUiC6cHtmOnK5pwUlZaDl6Ci/9YQsOv90CO0XKrQTARTQz203KmQMEUeZ4piRFhpAsKWGyGmyJPB2Xz78ZF825CYqkC/EtV/9kYnM7s08zN4C7EDpI2knsb9mCp7f9DP1Wp2heJCtQKAqRBTYQ3yxSDBRB2PYUcRBOAxD0AGo/dS+TFFVWdczlcjq6DSgGtapExd1zilEe0NCfchDtj7MSpUkpRQmIWhq6UxZW1ZXikppSFJCksgSYimBqUUdXUXgyeL9UWho3UnjsSA/+fUsbug0hwJa7JxJKimYTCSV9HYmzDRA46+cODM0pRIO0BB+s/SxWhC5HiVLB5YpUdpgtg3i8oUtfSaEa3mFZhMostFsnsSH6ezzc9BO0ScdgSCnuVz9RfJYvgMDxD5McGGCoCkxtGqxgDbSCRQiWXAOl6DLISjUkKcDtP0X5l9tGdzwD5fL33i6WJoadgGUcQ6rrZRjdr0GK7YFqHIdsdzPIIQb+WPae8gCBm7dQzlmoGxYoNsKyhbkzK7B62WzUTS9FZVGEZYRJIIWcleHYaOuI4g8bdmDT3hZuXkQAgKAEBQ3CuoSbLpqNS1bOQUVJCBozysUugykz5H8dG919MWzYegBPvbYPcYMkzOklZinq5QCpZBQHN/4Bx3esZzGbIbsyas8sKSgrnokbVtyJutKFsEn8xVVDzeWwGYwkCKBAC5saVrBi7WysvXk5SqookkBhBE+SliIOFoyUg77OOPZuO4bdWw9x18aq2gpcdsMqVNSEoWiU3x9UaKR5RJsD8gUmyeK293E76Z2bj6K/k5qOubYei2I+6h5kfA7CaBGEOz6/BoGJkhR5XRHjQ3EUlAdn4uqld2Je1VIE1ULu+JNug3y8t8H3J/qyUNVDS+wY1u98FPvbXuVxI4pFqGwwawrCgJLiS78mgDBGBCENIIhy1dwtp6ezGz1PfVjF3XOLMD+sojNpIJ4wWU02JUtoNoCtHX3YG00ipCh437xy3DivHDUhHZoqNDhYtjmNjsfAjuZ5IoUf7jiF3+2PImYSL24irZlGfwLSQZgSEQS3spBBAjtVSUedMg+XFV6PK8puRX3BQoTVYqiUgx1WMnP6QZ1eIDb6WVzk4xBAoA5bCZxIHsCz7Q/hpc7foQXHYCsEDrzo/cQGVH4AguBxyBYNeRuGVgKl4l2QKz4EhZoyqeWAHHB7XdAoY7V3wTiYhAkirO4quLmvgHcSEskFp+BYMdhGO+zYW7Dbfg30vMCiVSJ6cHp7T3WAwE2y3Py40DIQKodEYKSmTiWREIoiGgoKglBUwfImpc7enj6caIuiOwkoVrr+gTBeYUjD9IoIqssjCMqk2A4YvAAQ4heF/L39MRxv70J3n8Hku/GiMaPNjKkUQRgOEHjNUxQOvy+9rA6XXr8Q5dOL2I4cVaHOoZ5NLAdGykJ/D40zC3oogHBxGCqL0rilZ964dHejHFQ0qMTRRl9XL/ZuO4k3NxxC69EuOIaIIGTjCTKPIFDCn1IMQP3SMngAIVvS3tD36aZPHYo6kQaJiopQPa6adzPmT1uFAr2QCbSDD5TNk2UDJ0TVEU39/lQ3thx5FpsOP4t+o9u9iOGqPLr596wu7TBJdf1v9uHtp09kFEEQvT2yDlVkc1cDaoskyfzuhjAuqyxAdyzBAIFSWi2GhDdOJbC7N4E+mzs4oFw1cOnMCG6bX4klFWEUqm7FzhCNBNEroz1u4qsbm7CpKQHDSg0ChBy9QvI+QgdhCkQQBizPu0wSmxBda0NyKeZqq3BR8TqsLr0KdYH5CKGQMrywZaoTF9bwhpVwxO7PBshFaQ1PvA5i9Dv6EgIktgXDMbC/fweeaP8lNvX9ET1OCyNbWsiYcOKSnbIbISOnaj6aNbELcEN3thSEUnQJ5Jq/ghJeKsiIXGbkErpImMPzi1nuhM7k2UV2nXYO1PRKlFNRxIYBgKuTYJutMLtfgN18H9T4G4ME0HMZIAzcu7CAcEXeWPVmsFuG5+YORfUMq/EP7KZEVM3L7YqEAgEuCjl6AG+4fhrl2rkS2+0bLwBCdsdUBAhsCTcK5boJLgNcuLIOa9+9GOUziwBVESWQbm6dzceDn+Iw7nsgdUSa+6eb0y4tiYAGvY9UwsKR3a145cntOLq7DbYholue/cfbt2UGEOhGhf4FA4Rl5Xj35y5CoHC8q4/3Xl2gzf1kaEzQmFMxPTIbF89Zh6XTL4aukaCclznx+hNmO2JGuw9WnRIcL5dHkrQNHDi1Ay/u+A3aYtTTwmuD5zL/z2TR5l4MDtb/Zg/efuqwS9Eeev88F7QA6j/5LWgr1g1p/jWeBSfyewICARm4YpqGu+aUoK8/jt6kifaUitdb49jTZ6DfFeNj0i1sRBQbS0ol3D6/GlfMKkMplfVyKMGNYnOw28bhPhNfePYADvdx4wQXYE3kbkd+lqoYmn/+jbNHUjzt4xBQtyxYlCp3AiiTKjFNq8f8yAVYU7oOc4PLUKyWo0AuGNgNUycxWtSJukXiljT0RMhzECDQ4sRizQ4V2tnUYwQpK44tfS/gd633YVfiTcTQCUfKsid5Bu8lXxGE9B0WE9ekAjgFi2CFV0IOr4YengtZq4GkVsFRizmFOqCcmMF9T+QUjwRKDptIngT6bLsVjnEKiB+H2bcHRt8OOLG3oBsnodoxDs2LSpHTH1M+gpCl0RhEDF+wWG89ywvl6PSpChA8kOABBUo5UsljVUMBrnv/xZi1qBLUcInKetOFZ87YLLzG2Uj1mzj6TgteeHQrjh/sGAAIHIQY5x1NDCBMjIMw/LkFSKJ8g4qywAxcULsWq2dfgwI9Ak3RBmlJOUgVMTThgS02A7QJa+w5gKe3PYiT3XthsWpierfKM3xLBBBiDjY8uAdvP31wQCgs/WpE+JPUAOo/8U1oLJSUg+8d43YHwbsg2DcUGPjEqpkw+pM4FrOxpb0PB3psJCxZaLWkHaTfocJAVUDHzXPL8e4FpaiLBNyUojgx5djY2pXA557aix4zwABsvHGYrXXpGcymQ2gigDCZQkkZ3ajLyhakIPEJ2vsGpBCq5ZloCCzFnNAyzAg0oDRQiSKlAoVqCQqVEoRRCEelHYPEebd0Mh6z6Wk3QX20nSROGU14o/sZPNX6axzEDqScOBRbdJPL9ZFvgOA5T8qt2ZIGm4AC9VxQymEF66GW3wK9/A7IWonQPeDGIPk9vIWcfJJJXA+jGanm/4TVuwUSlTqa7ZDsPiYwEqHHIyYKEt6fOEDgcuD8vp/TXX0qA4SBcT5QdkcLnoWZcytw8fVLMXv5dISLdSHSk4WQ2ai2cOvabctGKmrgpcd2YNOzezht4ZHCxnPMZwQQlpbj9s8JDsJESIojAAK7U9LwtyHLOkJyCRZUrsKy2Wsws3QOIrSBINEeDilkLic9mu3E5kBUhdm2iZbeY9i453Hsad7EmgfpXSUnNMpJIjom4eWHxgYIshZE3ce/CW3Z1SKtkudDcAXEyhWWTayqiXAq+HhfDM2xFOKWygCKfd4Qd0cpMhspKJgWcLC2Jox3z6/EstIwIiKLhh7TwSOHWvGvW9phWMQtMzgqlou4j2cWBgiNB9H082+6EQSvBNWL0OdJajmT9yIwlQiPsRFdzWtKK9CEUy1qIRJCgVqKEqUcZWoVqoM1WB6+DFdGbkWRXuqGZFwyykBUVzRkSUgp7OvbgQ0dj2F996M4JTXDlJJQaNfGACH3W7fJAAie1WiBVVy5BhKFNpUQrLIbEK79BpSCORxiG9pMyAMLuRhinu3IRVDIgN6ZDJN0D/rXI3nwryHF97CM8NBCS5dtz1KafgSB3qUPEDLxFhRypQVbQll1BCvWzsHSS2ejdHoRVO6sOQGCMZcJig6Tkulg85P78NxDbyGZMNxqoPxEEOqWluHWz17IVQy5PUTJK2dX3dJN1dIxrbAO86ctR0P1YlQW1yIcLIUqq24K90x8giulzPPewKnoCWza/zR2NG5Gv9nNu12ZeToTF6KiVTgVHw8gCKnluk98SwCESUiviiVM9PNgYjiVn3MjaFf2njlKomXz0P0Q/dSGQeNWAkJwsKRUxW1zKnFxTSGLLB2JJvDDLcewuZ34Z6TVQbwGV7EyhwOGAcIvvonE4R0Dqd+BVGm+ejFkev/UeMYr7ZdJtMQlH3FdMoNTqvMXDVTo36qjoV5Zhv9V/x0siVzICJ/r/Xm9ooiAA8u2uUHTm9FX8FzXQ3in/1X0OlRmI3qI88460xvM8rzJBQjU8kARZV+cd9SQCs1HaNZfQylYCsfug2NEWYWOcg6yVgwpMIPTECAiKAMyNx/pihh5ufR0d+sNcGbRMxkxxlEBO9EEx4oymYZZ0lohIOkwOx+H1XwfFKNVdJB0/0efFl9DoMJLMZwepJ1vKQYP2I3Y8WU5xnJ1+lSPIAx/TpKMYF17yUKoOICGpTOx/Io5qFtYiWCE5MQp6ZC+2Gao0kqLqdux0EwYWP/IDrz6xG7YaX11x4vDZRtBUDSgdrEACAHq5pirl+peJ50ALNpWkA9VoEtBlBdPx4yyOZhZMhfVZTNQGq5EgHs4qFz3RDcjCH7CfsOJzuwD3GZ83HXUltDedwJv7H8GO0++hqgZZWE01h110zcTfjyKIBBA+O1ebD9NioGJpXqAIwiqK5SUP0+f/kQU+hdEUUF5o2o98UYHhPlclcqhdhgUu2NbScD0kIzVVRFMKwzieDSO1072IGrpUKgqjBPnFF7I7WgRAOEbbpnjFIognNGgcYBSuwafa/gBrii5AZqksYYCDVoHKRhmDK1GC17ueAZ/aPkFWvTDLAMsumnlPmIw/BkmCyB43ytSf2In7igqTKkASmAloBXDNNogGTHKZjFxUNLLIRevhl5xE+SCVYBUxKBC9trZcYMcUU0vJpYo3yMER7wOx0xBMpphxTcgcWoDpL4DgNXF6RxN1mEGIoBTBDlxEKrVBJm+dwLH+QgQJmCOnH/0XAMII4CVIqOwSsdF183HkovrUFgegUbVIgPqfi55b7xUFkW/qAzPMtB2sgvP/Xor9m9pzqoKKCuAQGlRFZi1uAy3fdYrc8yt0x9uq/QUBs1q6tcQUEMoCVZhRkk9qspmobioHIVaCLKioThQiUK9FKoWGAIQPDouV9RQqahhIJo4hY27/4gdx19G3OkdkCP37iEXlVSke0AA4ZWH9mL7M6NzEHgTpAcw62PfgLziauamZVeLkvMplvUFhdelzbGgJZO2Ra4BwQjgzQBhKlUxZG22wQ+Q0cqdWfhSw3/g0sJroFKrZ8fm8CP1KN/T/zqebHsIm3tfQL9KREQHsqVxq+fxQtoTuK2Bj042QGBgwJUCbqqGG9wQEcli8RSqJRgAEyRHhyCsSD3kyr+AVno7VL2Oa8uFThXtG7j+wR2mLCnFjHvH7gH69sFsfxCpriegpJqhsQgIERMllhi1ZFHGpHBkQkRrJnL4AGEi1hv/s+c6QBA7NBtaSMLspVW49KZlmF5XhoKwUKLk/RnJ73JU4TQLMHthqtGnBcjE9g2Hsf7Rt9HbQaJpg1UM41nzTAHCrZ+5EHpE5khoPg+veZX3TF71lugqKnMUkoSFiBAuKwVY3XANrlx8CwoDJLrm3ZtbS0OfIQU+K46W6FG8vPNJHGrdhoTdyzHc9MRhNjYc6/kZIMSAjQ/vw/ZnDo1KUuR3rQUx6+PnLkBI9+f5HhNiV0lCScRB+DoSR945y0qKOZkBMmZIi/E3836ExfoK2LAQtXvQlDiAN6IvYX3XH9BsHkQKCQYFlAGnNr1nUid+Jrd7NgCCuE8P2w+wPQf6NAyW3jmQSY1RkpFQy6GU3IRA2buByBJY9G8qn/QUGAkkmNRWOA7TbANi62G2PQGn903IZpcoaxLN8bgUleRT2TXw1wtOyUQPHyBM1IJjf/7cBwgkTkSLlwLoNgrKJKy8eB4WLK9F9awSBAs1yNRu1yWrjbqTdSXXUykTh3e1YcOj29F04JRoAZ3Fpn6qA4SRI8FN4XKOXPS6EOqEVFqu4NK6m3HjyvejKED9MAZLdoX8LxBP9eBY2y68ceAlHGnfC0PqF2WOQqYjK3CVySgXEQRg429PDxC4F4MWQO3Hv8kRBOZg5cAPZXJ/uTxnOKga3ADm8lvEtejNktRyC6UYzgeAQFnG+frF+GL9dzFDmYG2VDNeiz6NN3qew1FjL6JOlwiHy7bQ/HZ5DJOhqEUGP3sAQdAwhGCPG03wyrO8OmQqQXTL7S1Hh60UAoE6oPASqCVXQQstBFTq/qhDpja7qSak+t+B0/kKkNwMKdkMkFhHenthTw6Yc420f6D8m2iWM9HZ6QOE3DuE9Cue8wCBOyNSC243feg4CAZVlFUXYO7yaVh52XyUTiuCFlRdFUaXme0aQaTnHBjxJE7sb8eLv9+Oxj3tsKmvQ5YlcmcEEBaV4V2fvgB6RJAsJ/MgPzEgE+Gaj6TDCSxYsonL6m7FjRf8GSLBsoFkI81p0zbQm+rFjqOb8fahDWiJH4VhCnY9k+jclCQvPjkUaSOeU4oAwsP7sePZwyJiOuz6IwACR0fOPYQwmt1yWeWSPs5EmeN5BRAUlEp1uLr0DmgpC9v6N+K4vR9JKeb2PPcUEcXAGOoS8j8FzyZA8CIJQ58y3fGkTxb351yjq8FSSwC9CrJawaqMsPthJlsAuxOa1cvKhyJOIWp+B4+0FIb7w1y5Oh8g5He8nvMAwR2QHsl5oJKMiLEqUFwaxpJLZmPZZXWoqi2BpAsRKpLxEgu6gkS/hX1bDuOlJ7aiszFFKuVu19HsKgvOFCDcwgBhMhVPB8eUy9AY+AEvsJSulRxcMvsm3LjqgyjSy4WGF0UOnCQauw/g9T3PYHfjNsSdBPHwmaE/GG7J04JMVQyJdIDgCTCkPc95EkHI76wfeXUGCL8kkuJ5kWKgykYVukyEOBspm9pqEks/TwMzy7d19gFCvh/WagAAIABJREFUdjdMm34KDFKlCEUOqJ+9uy8DbPolSbdmd81cne0DhFxZcvTrnBcA4TQmsixREqmFNITLdMxZUo0FK2pRVl0MPagilTDRcbIH77x5BAf3nEB/D4l4UAmZyXLm2Yr7nClAuPnTFyBA7Z6nwEGpWMWxQYmGSxpuxM0rP8AAIWkn0B1vx76mbdh6aANO9R5DyklwyZ3Y2U6C72WAIDEHYedzpM7oA4RcDZnzKoIgBqOXeyQRCgo1ebnvXJnszK9zzgEENxjA5TluqSMXNbi5SfGjs6Pk4wOEMx+HmXzyfAYIHFzwWmxLDlRdQrgogKLKImghHalYEn3t/ejvMmCSmqvXEpnTcBRnyG7RPlOAQBGEXAslZfLuR5wjibbiFEEggHDR7Otxw/K7IdkSDjRvx77mN3Gs4xCiyV6AG4xzC0mX+zQJ/sHVQdj4yPgAgaoYlBVXcxXKuVbFcEbvbiIfckmKLb/85vnBQSBbCFBAY5P0D0QvhfFU+SZiw2w+e84BBBLwYI4C/SFbkuSSKK+hHYXgFFAXsck/fICQX5uf7wCBrEfRRebPOroo3ZUt1gxxYAg9FEdjdU/CA9TIkcY8/VzNclN8xgDhUxdAL/R6FeT3fY91de7kIZPwmoWU42D5jLWYN20Fjrfux7FTu9CdaodlU3RF3KtI63hGytJYZ/CY3C8jJuHVR/Zj5/NjRxC4zJF0EHJElj6D2z1nPuIpKbbefz4BBK+xErNUBRluIA95ll/NOQcQBnYCLqGHwZYQ+/Da/4iQ6+QfPkDIr83/FAACi8swEBARAUkmxRRuc+U2dhKNzVzFj4HmV9nFD4QWCUcsuP23ge54Cx5c/2+IJjqHheAF1JYVCbMWVuCmT63iZlSCWHw2D5JlJzs5sBwHRXoFFElFLNUDg7gGzPamFIRrORY7m7yD7GvEJWx6ZD92vHDY1WoZ/v0S6yDM+Pg3oC6/ZkCsaPLu8tz7JgII1O659XyKIEzl13CuAYSpbEsfIOT37fwpAIT8WnDw6pkDBPEZWZExc2EFbv7kBaykOBUOjz2fL8b8RJ6RxNjMGLD50X3Y8cIh1lsYqZIosZJizSe+AX2pKHP0j/EsIHQQWn/5rfMnxTDeI5/N3/sAIXfW9wFC7mw52pV8gJA7+54ZQKjEzZ9c5QOEDF4DAQQj5uD1RymCMA5A+NjXoC67msut/WNsC1A8y2w+iNb770XyfNBBmOov3AcIuXtDPkDInS19gJBfW2YNEGSKIFTi5k+vYpKif4xtAeqvY8RsBgg7Xzw8ZgRh+se+Bs2PIGQ8pCwfIGRsqwmf6AOECZtw4AI+QMidLX2AkF9bnjFA+BQBBGrAM5kZ/fzaIh9XJ6noFEUQHtuHnS8eISWL06YYpt/zNe7m6KcYMnsTVvMhtN7/LT+CkJm5JnaWDxAmZr/0T/sAIXe29AFCfm2ZLUAgQmDtomrc8IlVCEaoPbAPEMZ6Q45N3RwdbPrdPux+kaoYRraQ9pQUZ9zzdcjLrzpnpZbzO1JHXt0HCJNocR8g5M7YPkDInS19gJBfW54pQLj+4ysRiPgRhDHfjtDEdgHCfux+aWyAMPOer0GiCAI1rvNx17gDfwIAQYFeZKH6Izpq7nKgFJydcrdxn3AKneADhNy9jJEAQcHf/DCGli531ovydVGCJQG6FkL9qhsw/4r3wabSNtZxcIW0/B3aiBfjkxRzOFYHyhypN4Q5Rpmj+E4vgnDdx1ZCDwvBIf8YwwKkgxAHNv+eAMLRsSMIH/0aJDeC4AsljT2qKBJDAKHtV9mQFD1pbUeBXugBBEApoOIS/xhigWEKQpkChGUNMn78VQ1L58XZNVCLZP8YagEGCFyXLcE0g3hsvYKvnA4gAND1oQBhQN2JlSB9Bzx8fNHGLJWM4uDGP+D4jvVwbNLQS7OTAyiSgrLimbh+xZ2oL10IahOs+OVjI6aq6IZI+goKtz3vjreeRgdhECDMWlSN6+5ZLgBCDhsbnZd+xLZgJKTMAcKyqziC4AOE048GAgfE7bBbDqOdAMLRXZm3eyYKCEnuaoXA9A9rmH63A7nA7Qd+Xo7A7B/K7Ww8dOlxAPtkCHv+IYnoZsPtYTJ0caKOlCsbgB/9rYplcxOwSdpVqBP5R5oFGDM5JDzjIGnqeHSDhr/7YT9aOgcjWaI7JcnEAlogiPoLrsXcte/lNt+Djbp8w442sBRLhhGPYv+mx3Fsx0uwqUvnMFPJkoSKopm4dtVdqC1dxMJkfth2NGsyRCCFA+p5iN5YG371ymhCSeKz1Cdi5oIqXPexVdAiSlatpf/UnASJN0kEEOIONv/hAHZxiiGtP5RnEGpVrwUx456/B9wUA6tk+o511CHjdTOlCEL7/f+YBUBwN7O08VKKFMz4iIzpdzqQQ76jHW5pr9Os93N2EyfD2HVvEtEtqdMMTRUrGiT86O80rGhIMiNX9EHwj0ELkAS0BNlWYcsmUqaGR9YH8LdDAIIAVrbbmlfTCSCsw7y1IsVAhwfifB8xytiyVZixKPZv/j1O7HgBlmOIjMzAqQ4kSUZVIQGEO1FXspBDu5bk15ePsObA/FXgOAZ6Y6349Ss/GEVJ0QMIMmYsqMQNHxPdHP1jDAvQpos4CDHgjT/sw571HgdhmM+kcRkIYuZH/hZYdiVHEEj50Y/Njm5bth71KGuiFAMBhN2ZRhAkli8mB60UaZhJAOH9NuSQz0EYbup0fDoQUWgMYfe3EujZnHKXqOERBAXL5sv4z69quLAhxYsZ9T7wj3R4IEYvo1zZhGnoeHS9iq/8gCII6RrwJAlNQW8JgUABZl9wLeYQQKCoAslwe03ffPw1YnhRUyIz3o39m5/Ase0vwXRTDOkOVZE1VBXWYt2qO1FbvIAjCKJbh3+kW4AyBMQr4GbotoFofyt+tfH7iCY6RjUUnTtrYTWu/dgq6GFfB2Hc0URljnEHbzy+D7sHAMLQT1FCwQ4UoPajfw8sv9rtq+GvWWPalsAXRxD+AYkjO0eAKUmSTrd1FfkbNRRA5bUSytbKkHSfg5BubAYH6d6Ucrb0g24VB38TQ/8+yum6RLk0p0rkuRnTVHzuLyKYO93btQlFeP/wLCBCthwJkCzYKQWv7rLx89/H0N3rTXpPF15kxQNKANPmX4iaxav5IiIv7AcYTzemVNuGlUzgxJ7NaD26Cwav+9aQUUit1UtC5Vg2dy0qIjWiFTIPen+sDrWrIwCCI3OqJp7swks7H0cs1Tc6QKDUzYwSrFi3AGrAJymO5/dkWDAMC3u3NKJxVxssHqfpY1ACjVVHVVC57m4otQthcaLRB1/j2dbuakXPK48g1Xp8xKmnAQgil0YvQFE0SBEbUsBHYqMZejR4RYuS3SfDiltwRmmVTLsNTQuiuMCATg0pfWc7cmCKFV5EAGiiO0CfqaOn34BtDwJVAdBEOZMqKXC0MDRdRGMG9rn+hnf0RYqjLBJsox+WEYMlakKGAQRyvAo0NQxFJmdruW1+xZvxD9cCA45ARF8d20DciDEJbPjh9Tyghk16QPP5iRkMIkrBUkt6K+nAStB/GyMAAiQFEgGHglJICjlW2qD5G6+xzUuLlQU72Q/YhqgOSTvGiCCIswbJIOKDIxtkZPB2/8ROEWSlsSxFO1v6PSV8fSeb0fDwBqJvrozMlelJA3ozp7Gr5zC8RS3T6/rnZWYB376Z2SmbswbXOH9nkI3deH0fth5lABBGIIpsv/NP7nya9GM5VN8pZD8kfJtlb7NMPpGJXccbz5l8j3/O6BbIxP6+7bK3wFTsSJn9U0z+J7IGCJN/i/43+hbwLeBbwLeAbwHfAmfbAqeNIHBKTaKMJKfURkk3+uEb8fJGj80OmGxU253t136+f78/NjN7w5zkGmMUZ3YV/6wztYDvHLKz3PB5PdT3DiZ2RW2Zz+3K3Lqny9yeFiCQAA0dJFLDYjTSoDMRv/Gd8GiulQ099jjO/K35Z2ZgAW9op5U++qqUGdiN+FvCZoKH4FUm+PM6M+Pl8Czf5GMakxd+zo3Tn0GhrlGnueMSad2ac3eE5/BlnZ+XygogDBmvkutHRgxif1SPuvfyBBH9rdkkzaT0cUjG91mMmRqeID/94f0WbwBc4mymF/DPOzMLDJSJihJo35NmYMYB8pwACGy5YSVksuMJK4vKEVsifRm/+i4D67Lm0WjHqBEERmxu9EtSZATcD3vs/Ey+8E/1HKGVIiFl2TA9Wdphtic0rCh+fW6mY8QjzlDJmGWla3Gkyf7xGKUyJ9JEsN3iEL/m5nQ2FkFYERW0HbLp6TVOyP6yLI9JvM30Xf6pnEf2MoyRZWMiZENzX4EkKaz2x4ePa8ceGlQ6ypomVOac4lLboRI+EmQooL6YtiKTljXnx21OkvvH2CEa0UfEts3MqhhYm0bEdRDWdKytaMDqslnQqc6UDM+H7GcZxGx3jSX+Uhyg3ezH0yffwb7oKa7dHX6Qw62pqcFdd93Ff/slZKcfvh4bmYDB9u3b8cQTT6C3t3fwA94ugmSZ5QCKSqoRrJzFO+JBeOB739Na2Ewh2nECse4WSI45Im9LC920adNw++23Y86cOf5YHcPTemOV/m5vb8ePf/xj9PT0pH3Cy5JrkOUg9JK5CDbcBqhhONRa0z9OawGyjmKZSDRvQH/LS5Atc0SwkNs7K2GUXv4uSDMWwSbny+DXP8bwsHCi7ejd8gRSp05kpqSYTp0p1gvwmTmX489nX4ywpAsHIeI7vtU9gODtAFyscNjowd+/9Rg2dhweFb+SDRcvXoyf/OQnWLFixQhxCt+wIy2QTCbxyCOP4Ctf+Qo7X++gRi4EBgiwqmoAZbVLUDZnNRzamQ34XH+sjjqmqPtgKo72w1vR3bgbzijOlADCokWL8J3vfAdr167lSIJfQjb6DPXskkqlcODAAdxxxx1oaWkZAhBEGkeGIhegYNYNKL7sXjh6hW/TcZwez3AzhuiOf0N01w8hkajPsPQB9Q2h7oIzP/FNSEuvhS1ppMXq8+XGsC2NRqv5ADp++fdIHdrmCqUJnR5a58fUQSD/WqwF8Pm5V+JDDZcjpAT8tWu8gWwDh1Pd+PJbDzNAGC3MQgBhyZIl+PnPf45Vq1b5ziGDUZVIJPDb3/4WX/7yl9HW1iY+4QidNBGlUaFqKorrVqJy7hqO2Q4uZL6a2kgTkxNw4BhJdBzajO4T77B87dBmTRSplRnMfu9738M111zDGwQfIIw9YAnM7tu3D+9617vQ1NQ09GRBO4AiBxGYdTvKLv82nECFn2MYz69SisHsR8+2f0H/zu/B4ZQYKSUOHgQQHD2Cmk9+G/LK67mJm781GN+52o370XHfV5A6tJUjLpx4dCSOAYwPEPQAPj+HAMIVCCn6+N/2p36GDRxJdeP/vPUwXskQIPBaN0zi8k/djMOff2yAIPgHAiCsQuXcC4cBBJ/vMdp4oryjDxByP9MogrB3714fIOTUtAIgRN/+Lvp3fj8jgOC4XV5zehvn4cXspv3o+JkPECbn1VrAEaMH/2frw3jl1KGMIgiTc2Pn9rfE4/ExIgijA4TBJ/YjCKNFEIj0eSYA4dweSfm/e4og7NmzB7feeqsfQciVuYlERwBh+78g5gOEXFmVr+MDhJyac5yL+QAhL9aeGEDwA42jvRTbPrMUQ15e8Hl00dMChDRyF5EUA7W3o/TybwPEQfB7sow5AiRbAITe7f+C/ne+75IPx04x+BGEzCaVDxAys1NuzvIBQm7sOOwqEwMIebmlc/6iAiCksuYgnPMPnucHOB1AoIIbj9vNAKHudpRc5nMQMnodlA7zAMJOARCkcTgIPkDIyLJ+BCEzM+XoLB8g5MiQQy/jA4Tcm9UHCLm3KV3RBwh5sOtwgEBtnbmd8+AxnKToA4TM3oMfQcjMTrk5ywcIubGjH0HIix3TL+oDhPyY2AcIebCrDxDyYFRxSR8g5M20o1zYBwh5sbYfQci9WX2AkHub+hGE/NgUPkDIk2F9gJA3w456YR8g5MXePkDIvVl9gJB7m/oAIT829QFCnuzqRxDyZ1gfIEyebX2AkHtb+wAh9zb1AUJ+bOoDhDzZ1QcI+TOsDxAmz7Y+QMi9rX2AkHub+gAhPzb1AUKe7OoDhPwZ9rwDCKdpUc2Ke6xNKA10SZxkq+J8AgjDGlQPM2V6J5T8WtkHCPmxr09SzINdfQ5CHowqLumTFPNm2lEufK5xEAZ6ezvc1EC0VKX/kRA36Z3bovERHCg2a3MD9G+vTe0k2XZqAoThfbypMYzNrWhFt1NXeD/NRiN7nElu51S3qQw1oOF2wMPFnXLf7c8HCPkZvD5AyINdfYCQB6P6ACFvRj3thc9RgMBRAmrQQX9bfTDjbbCMbl7jdL0cCFRCkUOQGR/Q/01uf4OpCRCGSThLVJftAQSFAYLMTWUGD+5OP2Ttp5a0BLhccMEAQRt2Un460vkAIT/uwQcIebCrDxDyYNTzBCCcUx3kzkGAwBEDCiDAgp1oRKLlNSSbNsGOn+CFSo3MQ7DuGqjlqyFrpVAkCbIPEESUYMhq7y7yoh+aaOQpS3Bs+g9hY8ICg7EAAhDpV/F+MzyC4AOEvHnHPFzYBwh5MKoPEPJg1PMAIBA48ADCOdHx8FwDCJYDWzZh2zKQ6kGs8XFE9/4GSt9JaEixRrwNDUbZQhQvvgeBqiugKBRJoKXNTTnkbegOXviciCBQ/MC2IUk2FEVCQFMQDKoIaBoCgSAUVYGkKLBsC9TxL5GII5WykExaME0bNuMAWURoRsQd/BTDJAyznHyFDxByYsahF/EBQh6Meq4DBMdNdVPemyKvDgdo+bCpL70EyNwmWTjUgf8axvPijVzezDvswmcRIAznGA6nu41Kf7MsWLIBx1Zgdx9Cz+5/Q6rpRci2xYRER3KgWoChqgg0/BkK538YargGkEWvdSIuCtt7/5Vmjxz2SJpqAEHY0uUZOIAsOwhoKgIBFUWFQcycUYW5dTVYOKsCxUURRCJhaJrKwMq0bcQTCUSjUbSe6sbe4504fOQkTnV0oz9mIp4y+RxBDaXvcSC7/51LmOCnGPLjFHyAkAe7nkWAwJE/dnYOJErDDsQAhc8TPxn0vgPMI1q/KBvrRQnJn0ICBRQ5psicLjeimO4rHdoU53Kmj/0+zimSIqdg2aIyG5acpOVY0MhosgxLl2FrKuyAClsh4GBDNql3hwOYNlTDgmyasPlCwr3aDCREODfvx1kECGQCbzAOAUzuQ/OiNmzRdnjbaoGiM8n2Lejb8V1Y3bsIjQ18SnJsyFCAilUIrfgSgmUrIVGKwR389MIsSjt4lQ50yRx3WD77AIHcgJj6Ho+AnpiIm2FdQlVJCMsW1eOS1YuwfPE8VFYUIaBRKsYddRQJEz5mAMx6yQbLdtDTl8SxEy148+09eG3bQRw80YyeeAJJzlrICNCkoOEueRUlEx/JPkCYuA1Hu4IPEPJg17MEEMgv2pQmpMWEAIKk8HpE64lCa5LjwHHJ3OQlKRKryzJU2YEumyhUJBRpMiIaoEo2TElBvwHEkjb6UkBKkpGkKC6xlRgseA5C5sg5xW/zfZxbAMFDV4oMqDKkoA6pJAS5qhiYUQptZgXU0iJoRWFIKhHBHFjJFFI9fTDaozCPt0Nq6gQ6orCiMSBh8ksc3Ovm2dxnESCIXDdgOTZitomkZUKVZAQUDbosFnTObqehBNuxYNPu3zGROvUmend8H3bHdkG2G1jKbEi2DitYjsjy/4HIrFshKSEeytRTzXAsmLbFxEVNlqETIHNTQ7my9tkHCIQNCAgpDDjJAZSGAmiYUY7LVszHVRetQE11KfSAClVVICsC0I5AZC5IYJzmEhVsUIrH4T9GykBPLIkde49iw+s7sXN/I5rae5E0yIkQRLFc4qPYu0zk8AHCRKx3+s/6ACEPdj1LAIHmKM06WTERUS2U6xJKAhqKAhoUigQ6DroNCz0pB7YjI6w4mBUCFhZpWFAZRm1pEGW6hADtJGSavRJSloS+pIW2viSOdMSxq8PAgV6gMemg3zBhWwQTVBGVndgUz+hFnFMAQfC6ZNgFGpyGaoRWz4UyuxJKeRHkwgLYGkUWvNCOu9gxAKA36QBJC1Z3P8yWbhh7TiCx7RCc9h5ISREyHyUQnpERMz7pbAEEB7AsCwnLwPFYF95sP4bmWA/Cio65JdVYXlmLUiUATVGGLN62Q9REsooJq/cgojv/Pxgnn4fkGC6QoMFqQbZ1HrT67DsQWfRJOAXV6HeAtmQCJ/ui6Ek60KCiOhjE3NIQinSVwUk6GMnYhqOcePYBgogzWpKKoC5hbk0xbly7GhdfsAh106sQKQgMpGQIqFmWDcu2YdhUHQKYpiV+5thQCETJAkwpxDdQAVWVoSjCXhR6TBo2OqMx7Dl0HC++uhUvv7kXnf0mEx4Vx+Ckgw8QJjKi8vdZHyDkwbaTDBAockB/aKOjScCiEhtX1RVgeVkQ08M6IorKab+k46AnZaIzbsJ2JBQHVEwLSigt0FCgqbTHheJGH1zWMu8LODJOXCRLRkfcQmNfCts6k1h/JIp9XTaiji42BG7kMQ8WHbjk1AYIbmLcy4/bqgx7ZjkKr1qOggvmQioPcTqB2N+yLcHq7oPV2Qf0xICUAYfSDAU61NIw1NIIlFCQX4Bh2UDCgH3kFKIbtsN44wDU/pQIEru5obwY/SwChGTKwFudx/HgwTdwMNaJFMUGZKBQCmBd5TzcOX8NyvQCXqC8hZtSM7QjJpjgGFHED9yP2N6fAkafq3dA8QVqrapCMTWkSlagf+kXcVKfi8M9fWhOJNBnWzApBO7oKLItLCzWcXV9NSoC+iBPYYJI+OwCBDfsZ0sctbrqwvn4y9vXYsm8mdD1ADRNgyxTbtGCadnojRk4fLwJB4804kBjB1ra2tHX24d4PIakbTNpsbggjMriUtTWVGF2fTUa6mdg5rRyBAgAc2JSpNZMI4XOnn48v2knfvPUJhw9cQoKRX04dTExo/oRhLx4gMlv9zwa2Wi8R/NCWOnCHBMbTuN948R+P4kAwQ3swbEtFMgWbmvQcOf8MiwpkqFT1FpVoEgKpxko+WBS22nbALWXlqAwdFc5BStSksTjElvT9CS32NBSlMDk0nIbKctCY8LCk0eieOxgP47EVLecXCQ301h2E7PlsE9PaYAg4gGAKQNWKAB9VQMi162EWlsBWddhUR05GVpVYNom+v/4FoyNe6D0xDmfaylgLoKsa5CLQlDmTENgcS3UukpIxWGoJmD1x5DYcRTJJ98CGjtgWyKH5MVvclodcRYAgkC7wMlYFD/bvwmvtR1CwqG4gMtJkGRUqiH8xZw1uHLWfIQVjYcx+waP80F2dlJINr6Enre/Cyl6FIakwlBMGJaCTkNFS1zH8UQh+ud9AH2VVyElhWDbBofWOEsnEVPBAb2162aVY01VESKyConR3cTWs0kHCDz5yX4WLNYoAKpLi/GudWvwvpsvx/TyQg4bWpYEy1EQjcVxrLkNb2zfizfe3ouWU/2IxkykDBMmcWJssSNhl0ApGMjQZAWqpkIPaigrDGBubSUuv2gFls2vRVVpBCGdnIxIU/QlDGzddQT3PfRH7DhwEglTsJvE/KFzBnIWGTsPHyBkbKqsTpzUCAKNAUcimgpsIhTbEhSbeFcuIWmUO+d4q2TywiU7urvQsadNK8EV83XyqHLjmHjSAILgrEm2hAoNuHOBig8uKMW0AgVBiu4RH2GAT+TREQek5dzdJ0UNFVgSxRhsyMxKFP6RbcqRCeEDmGzvEZEdh8nJlLLY0hrHg7t78OopBQma4eynabM2KtU8q/E5/OQpDRBooaIdk1kWgnz1EhRetgTStGJIlg3zaBsSR5qh1ZQjsGgWoMlI7TyJnodehra/hQ0tdr8OVHaWMgxdhlReCLWhGlhei8iiesiVhXBMG+au4+h/4W3+W4mbvJP2QkkTsnD6h88SQKBw9pZTJ/Gfe1/B8Vg324WGkuLOcMqLX1NSj48svhzVBYWcD2Ng6/IzyFlQlYgRPYDW7T9A/8kX0Z5S0JaU0ZoMoCtho8eS0I8ApJpLEJx7N2ytAopjwoIG2V1ExfUcLC8N4KbaKlQFdF7EIJP7Uc8YJUw6QOCpKISjZMnCjOoS3HHjZbht3SWooXSXTGkDE739SWzdfQSbt+7D2+8cQmNLO/pTJgya/EztHDup5VJEocJGUHZQVhjBvIZZuGjFXFy6egFHGAK6yqWTsYSBPYcb8cvHXsRrWw+hN2EweBCAgxjW2blzHyDkbNYPudDZAAg0CAQZWxBhGSCc9qCTqByXpioBeBpDRFQe+gGuup0qUYVJAgg85yGhSHFwc62Oj64oxLxIgImHp0uXCmKhW+rg2p4wQcpxEHds9CVN9CctGDZBeSIvSigKqijSFOiUguA9APkaAShoHvcZDnZ2JPHI/iiePWmj13Rg0LmOF03I3didsgCBBiTzDcrDCNx4AUJXLYUcCcCOxtG/ZR+Sr+0BWnugLpqJyHsvh1xfCSuWRPylnbAfeg1WX4IjD8T/YPIdAzWBnA1NhlMWhra4FqFrliMwr4YNnzzcit4/bIb09jFIKYpO5M7QfKWzBBBMx8HLLYfwk72voiXZx86CDi+KYMnAwlAFPrtwLZYVT4MtOIui1oYCCY6MfstCW7QV+3c9jAPb7kePpaLH0JC0ZNiMgG04sgMnPA3Fiz4Ep3gxqMLBlAKQYbrpGzHFFhTruLWuGtMLdJe6T8vlcIXA/5+984Cy4jzS9tPp5smBMOQBRBKIjHLOWZZkWZKz1v7Xae1dr+1dZ2/2b1v2ru2Vd2XLQbJWspItCeUASiAEIovMEGeYPHPz7fSf+vpeGBACBsSA9/zNmTMcuKH766+r3qp6660jX/uBBgiB5FEAourLw9x2/flcdeEcBleVq+sreB5NLe088dxrvLpkA9ukkI01AAAgAElEQVRbUuSEEFvkIat1UhHaoQFCqR6p8gDyWjEiukF1ZYSJo+u55pI5zJ0xgYp4RDGaC47Pms27ueeBF1i4bD1ZxX1yVLuvOIf+HCcbQDhYJu/94rD0Z12O9bUDChCEs1Xs0BJHJXtWfva2yxxwMcqZlbqdFDBQfV7Fsuv+xvBQAOHAe7W3ZFlEGbog6OLxvmRoBwwg6OpZmlrt8+UZlcwZZBA2Iyr4PBRAEPsomQLRQUn5sLXXYVVbhne6szSnIenoFIQ/hEtY96iNGIwrD3PaoBgTakJUm74qW0jGUHVG4JF3XbYmXX69Ns0T23J0uy6GUl19f53WyQkQisbMjYcIXTqd2GUzsKoSuC09Ksr3XlmL15VS2QEvHiZy+UwS15+Oa+nQniJ1/0KcxRsg7+yNkpWxLaZalWOUKDoaojBxKIM/cgnm4Cps38FZ30zqgYX47+xC8wIiyPt2nCCAIOu0vKOZn7+zkC2pjiBNFoxX2HvUWBFub5zFVUMnoxk6ru+TcV06czbbU1l2ZLK0ZrKk2lfR/PbdaIUsmrRBqta6IDRRkYkRJjriaiKjrsLWQuo7DF+ZpUARwfM4e2gl5w2posI0A7ElzcU4bDz93ndhoAGCXK5EAeXxMNddOIOP33QJNdVlmJpPNu+xYv027n9yIYvfXq+0C1SLU580fwkWHM5pF2MPtbZ7/btEEpqslsOI+ihXXTCXay46gyG15ZhmQGBcunIL//6bx1nd1IbnOnt1Evqzj08mgHAoJxI8n+9/arU/a9Wf1w40QPB8g7hVYGilQ3k4EI+RtuODOpJSmsDzKeRcetWPQTYfVlnFvu95N0Doi0APbjMDrRoBuaXQJCh/HvMxQABB5qBIt8KNY+AzU2qpjZkYhlkcVHfwa1bBhJQHHIftWZf5m5O8vjOrnHt7wcP2TVVyCNrCPXTfVVmDqKkzNG4xt8bnsrEJptREKS+SyFUpwhNeQoG1vR4/W97Jwl0FchJkvZ/+6qQa1nTARhEnZcxsJP6hszGHVuN3Z+iZv4TcC8sxU3mVexEHLn2ohaEVVH30YqzJw1X7mLe5lY67n8Lc1oHhBJB4r6CFAgfFfslYCG3uOMpvORettixghtou3uLNdN//Esae3mPeu/t9wAkCCHLtu7JJlUF4vW0LiueueniL3FkfKQ5w1qCx3N54Bq6v05rLsb0ny850ng7HI62GDBmEczvJrLsHt32jIuqUgIYqQxTXNVw/h9gpH6YQqRUGCaYXpMeihs+gsMnlo4cyMiZMfWElBHyHY5neMOAAAaloaZw1cwJ//anrGVlfrlQQC67D0tXbuecPz7Nk1VZFLNKE71EU7gpSu5J5kJ9Ay+NQRwAQAvCl/qisg8QZQQQmpYdBlTGuvXgu111yBsOk/IZPJp3nqYXL+dm98+nszSuOw3tFje/1/ScMIBRLW2o/FR9cWcNASDIQn5LMlKq3Snuuep7lyQ2ILIda1b3DxlTJLBCxKWXbA5ghYLWo2VFK16p7V4J0pfbeo1dNGWiAIN1FQ8uT/J+rwswbH8Is9dOrIEGuTRY8MAQl3yIOLVvwaO2xWbvVZcV6h3V7TNpSJnZAUghSjOq3j2761MZdqmOi7bG/XLi6X8UPdnyXth6Nrsy+p/39wAcDNu7Z16iPuvzdzDIuGyZaJmZQAjiEaqw8ejnXZUNvgXtWtvPCToce1wiEzlRGQGIs2b0BgyDgIQV7P49JuWYzudLnxonlXDAkzqBoIKimAl7pdMDj1ZYMP1nazZqeIHBRCgmiy7A3R3z0buykySAI0aIU2Ur3gTu4gsq/uBRz/BC0nEPqiSXkXl6F1p2hlKKSyEIiXUIm3sQGaj5+MeaQSkxfo/O5ZeQefYNwW1oZDik3lLJrmqGp7gdz5liiV87CGFOP151RJYpQfQWa1IVeWEH20TcwMjbuEaSDj+gWnCCAILup1ynwp63LeXDnCnqdXJHYEiS9PddTPfa1RiUXjZqH48dpt23yjmyygHEbbF4N38mgNT9HduPT+G56L7luL0lGMwglRhAdfyt+1RRlMMp0jbKIxqh4iOnVlTSURQnJk/U+HQMNEMRNjBpSxZc+cS0XzJusSJ25gs2arTv56W/ns3TdTrWeqvbf5xoPH2O9e0H2N6CKObI/V8P3qKmI8YHL5nHrdWdTlYgqV9mTyvIf9z7Jky+tIpXJ91t97UQCBFWywlPGTjQ0snmb3pyPxAWuCxFT6rQaiYhBJKQHOEEZW0n2BiumTO4Bi6/4YJqrOko8V8PPedCbR+vNqZKib+h4iTBGeQgjJtLX4juFLV50cnsZ54eDdu+9sY8nQFCO6kCugGYwrCrHd2+xuHh6BGnsCtyQpL2LAEE5nP0XK9DqtMkXPFo6Pf64xOax12Fzp6VKjuLQAg6TRjxmc908h4unyHMtHTvFAGyvPFqwHinb5YEFeV5YHfTxyz5V48qONeodoAyCZEDGJBx+cNZgptXGUDzhQ0yulXUQobOm3jz/vbqTh7fm1L6TduhSzksvlnGD4muJ11HMt8q+E6DqOzREXW5sjKuOiSEJK1iyYkdTV77AHzb38LPlvSQdaTnXlUR+sB+E23X0x0kDEIrlL3UlXlWMyNVziF86XaVSsq+/Q/5/XkHrzhYjhn2bWQCCq2voEYvQVbOouHg6RnkMuytF7/8swHttPXohSIOrGyB3tb6c0MyxxM6ejFFfgZvMknzubfW77JLpqsuh0NJN5r6XYXmTYo+qccZHv87BO08QQBAgVXAc3u7Yyc82vsrWTBea7VGwA2AgRkscnOaHmTJkOqPqxisQprZsHyaSivZ9Dyu5hp5Vv8PP7FThgqcIhsHUQV3zCYfj1Iy8lPox11BVVsHQhMGQRJj6sEWZdEmIUNCxGoU+92KgAIKso5x3LGxx4xVn8pEbzqW+Mo7vamzevov/uPcpFi5vIuc4GF4pzj/WTXPg+/dv+Qi0E32G1ZfxsevO5boL5xCNRnB9hzVNrfzbTx9m9aYdiKZFf3bwiQIIilzsO+Rcn13dDqu3Z1i5I8+WVofulKYMbtzSGFymM25oiBmNESYMDVEWFoU60fEoRbDGPr9TdJrqmjwXtyeHt64Ld9ke/A0d+M3d6JkCumFATRRvdAXaafUYUwbB0Ar0sEExkayY6seydY83QDiwbOVpBg1Veb53i8lFAhD2th+UbGKQOtgHEIpxrMqgBBkWEedpTjr8z0KbX74IybyJLgRG9f8GteUFPn15npvPLCfS1x+prGNwyKf2Zh1+9FCG+1+PFGWEPWW7+7MvD/o0DRBAEB7BpDKfOy9qoDFhSPNcAEzf4xFXmRjH5ammJD9anmFHWiyoi1PMl8rfFSukyB5VPAXfxFX2NCCK7i2vaT71YZfbxiW45ZRy6qPS/VXMwLo2u7PwvTf28HqLT1LujRa07cv9OZbjpAEIe0UjBcVPGU79/7kSvzKKs72drrufIryplWK1YO/1BsRDcIygU84bXkPl7ecTmTJSyTFn3tpE8sEFmDu6VFdCPmrCqHrKL5uJNW2UGnzjd6bpnP8m3mvr8B2H8JWzKbtsJnbExH3lHZL3L0BPZlV70J8TQChtLNmkQo4RAltzIcuPlz/PoubNJFNpcnlb/V/Qc+uhGxZDKsYwd8xsDF1QrsTGfdKBqv7tY+TbyK6/H2fPUgQBu1pIWYCIlqdMz1MbN5g0/mwmz/oMlZUjCetSMw/adwLrekB0dyw7GBhIgCDiKBNGDuYLH7+aedPHYugGPckcv3vkae559DUynhXUEQ8Y5XyMl9jn7Qf2hEqvdWBMRlVH+N6XPsr0yY1YIY1MweO/7n+W3z++gFTWfhe4PtQ5nQiAoDKCnksmn2Njh85dT7Xw0po0rTmNnBfB8yOBpC0FTM8lYumMq81x29lVXDOnmrqYScwqZrxU90axtlj0UE7OxW3NUnh0DYV7FxFpyhFKaZiiQ66wsBhdDc/0yNQZOOeMJP7x0/Fn1BKKyx42Alr5MSS/TjhAkOv0IGu7dOR8Jdet2rpLTA4dQrpP1LBJWD4hS8jDBq5js6XL44u/6GFNcwzftYIShQ+VCZ/bL3C4ck6QQXjXoWYUQE/O5e4n8zy1JKSAtqeLZsf7wB8ZIIAgpa0pVQZ3nj+EMXFDKaYeDiC0ZmzuXN7Fg006ti3PoIOtVGVdyvQCFUaBqliImK7jFGw6shpdboSUgIUSEvWlRdUnb5g0ljl88dQ4V4yMEzHERgsYcBXJ8YXmPP/2RgebsvIMyHh5IVUem9c6aQCCAvmyeaVt5No5VFw7Dy+dIzV/CfYTS/FzhaBeI7i1GCWUqARBFc3Hi4bQz5pA1U1nY1TG8VI5kn9cRG7ROrTqMozZ40jMHo9RV6a+y9nWRmb+WxSWbMSUtjDBc8OrqfjwhYRPG0VhVwe9v3kBd0XTYRnnR+QAjnMGoZRdVBoQQozxPfKeT2/BYXM6zebebp58Zwlv71hP3gkQZumQ9+iaiRUq57yJZxEPV6marzwDyh6WojBpefJsjJ3Pk9v8JGG3R0UNgyyHsdECw2I+iYhPrHwMFad+icjgM9EMUf4KkLZkYo5V9+DAtT7eACGo5gm6B/E/V583k89/5EpqKxOI5tai1Rv5wX89yqZdXQpoyQAr5ZuOy1CVA7yTGEclZaVTZoW45PSJfPET11JfW6EUGl9ftYkf/vejbNje2ifyPTzYHTCAsHdfBcSr7pzHi++k+PHDLaxsNcmJmIlqWdbwJKetuYroaqheclM5pLiW4+ZZOp+8eBCnNkRUJkEi/VK0XNKY8FZ3krlrMdoj64h0SsYs+PKAE1IMZNXvoCPHCUFuaj3hvz6b0EUj0MrDSpwmINkd3XGiAYI8z5IRXdaU5ccPJdnaKZmAfRLruqGTiMDkER7Xzwsze6yFaRhKMj2b1vj+w2keXhwh7ZTKOcKxMUmYeUKmozKIwnNQKqDFgWWOqIcWbVLWCZEtBKQ8Kfe8H6qfA8VBkLMdU+7xgzPrOa06SvgISgybewv87cJWVnTo2FK2KfKthoVy3DA2zrmjyhlWJnL3KCe/M+3z+s4UT2/LsanLJSeg1PcUQJD9ngg5fHJCmDsmV1AestA8EQqU//PpzNt867V2ntlZUHMcJMCT1sdjOU4agCAVKUee0jG1lH/4AiKThlFoaqfnnudg3W5VEQuptrCg/7xUE1coS3GwfGRzO/UJEreeT3TOWMXGL2xro7Cni+iQWqiNK1Kj05PFX7+T1ILVaBub0SW6KhoIzzKIXjWb+A2nq/RO9vElFB55A895H2oMxwkgqFNXqf4imc316bBttiZTbE7m2JGyVf2v4LvsTjWzdPMSenNd6MUUYKl2Kb22rm4xY/g0RtSPRzOFECO1Shk8JK12AS9MfiqSy4lu+h0jnK0MjnpUWy5RzcWU4SS6h27WEDnlU0Qn3ErIjO5NI74fAcNAAgRFBtIMTE8yJQYVZSZ/eetl3HL5WViaR3syzT2PvMxD8xepKF0RxEs3ZF/vwbE8o4d5b5CiLfm3EYMr+Zu/uJazZ5xCyLfY3dXDj371GE8vXovrSelD9oi4zkMPehlIgKCGgWk+uVyBZ1Zn+eH8Lt7Z5ZMVnkApKFD12ZKxCybnlRCurECN6XHDDIu/vLKacfVRoSWp3JfvaTgFB7ctTf77i7AeXUu4tSAKasVm1f1Fg4KvKKbZhbsUMUlOqiDytXMIXdKIHrPULA0FLI6i1nCiAYJk8mzHZ/Emh2/9LsvWPaGgPbm0nJpiHRG2Clw5y+OL18UZWi5OyCWb1fjV82l+9lyEZEYIiQ6+L7VuXRGQaxIeQ2pchtfqVMV1BSxcx6cj6bGzw2VnF3SmTbKulH9KoPvPp8QguL8u4vP1GWVcMSpBTOaqHEK1VLK3a7vyfP7FVrakgmdUgHyEAleMNPnctGqGletYAjqLPC9HWsptl029Ng+tS7Jgl01r3g3Yh7pBbczh05Pj3DK2ijLRQCmms+TZyNsOv1nfxc9XZmm3iwTS/y0ZBNmhTsjAnDeOylvPQa+Mkl2wjtz9C/B6MiryFFVEtbGKgEAIIkI+LGg+rgnhijLMYbVYZ04iPnc8RsjCd1yF3MQcGjmb3MbdpF9bi7F6J353Ck1ouX32qBoTPWkEFXdcitZQgb1kM5lfPK30F475OA4AocStKNlOSSwJGHilpZ0VHb10ysYSzX9pWUAn6/ayomkpuzq2719LVZUGDVvXGFI+jNPGzqbMKldEJBGakqpYmWnQEI8ypMJiiNdCaN3PiLcsxNLEMYraIviGpxyq5luYw6+gbNZXCIVrj+uci+OZQSgBBHGsAhDGjazkG5+7hVkTxqgOhQ279vAPP/49qza0IJHSPqehePfHvGUO/wH7lxyiIY0PXX06d9x0KRWRGMl8gV8/8jy/m7+I3lRKRRSeKh2dHAAh0M7ysT2XNbuzfO/Bdp7fIOCgH6sn+9PTGFLm8qmLY3zsvCrqpSQgOioeOL0FCve8if4fSwnvyirAK5oSiqzXJyGzH8mvGHlJAFIIQf6SEUS+eT7WaYPRRET/zxQgSFwpAGHRJoev/y7HtpZQUFpRF1Q0hb6D6TucO8nn6x+JMrpOaauSyfnc83xGAYTerLTk5fFV9qDAGWMcLpkd45QxJjUJjYhRalz2yRQcOpLwzg6HJ950WbTZJO9axfkliqZ4bMcAlRjE4Ud1n1vHWXx2WiV1qqMg9J4cCgUQOgt89qU2NmcMDMfDNmQujcMZ9R5fnFXPKVUmEU1XAEH2q8qKy5wWt0BLAX7/Ti+Pb8rQnpcOlCznDjP51LQ6JlaFiJr7vlseI9uxeWVPjn99q5e13UUZ/GOph51cbY4ablmY8FWzqLxqNr7v0vGbF/EWrMV2hdah8lZoloEfDskcXfSKGPqgCsJD6gg11CotA8qi+DELR7oUitGHtJ/5W1rIPLscd/V2Qj15PEfYzKWxz/sTafWqBIkPX4Bx7gTcra30/vRJ2NbeZ8zxUe7n4wYQig+Zq5PzfTanszy2qY1eRwgxysUFrG4lDpxnU/M7rNuxFkcrvEst0tZ9IlY5pzfOoSHRQEIzGBoxGVtdzujKBHWmjiWowUmT2XwvhXf+C9dLq9qtamdUo7SFxOSgV0+mbM63CVWcFtTqjiLiOpKVPt4AQdZOanm273P+nEYFEIbVVqnZCq8uX8fX/+039GaCrNa+48QABEPzmTttDN/6q1sYXlNN3nGY//Jb/PT3z9Lc3qMyB1LuKbH932t9ByqDoNZMiMgFl/9e2MkPn7DZnZJUrEDdIzzUFg9hWB6zR3p876ZKzh0nKp0hfNvHXddN6rbfULaxoEqzUvcWoCT3VFoYS8fBugBkzK7I4jqVOrkvzaT882dhJETg6880gyCKqLbL4s0+f//bAlv3hNEVs1FKaELiFGU5g7Ce5Zo5Ll/5YDn18QA4dGU1/u+DnTy8JEHakTKPTnnI5sqZBT59VTlDK01CMi9E5g8gImmyz4KOBzXZ1XbY3uFx9zNZ/rhYhumGVSlIZcCOJRU+QABBOAiyENOqDb42u5KZNRYhQzoKDm7bZD2begp89dU23ujUMNxA8VACqLiR59QylwtHJJg3JMHwcoMKGQGvyhACvkSvwqQ977F8T471HVnqYwanD0swLKYTlvKvLvyQ4JBAUcYNNCU9/vmtLp7ZVkCTTO4huiyO5Ok6aUoMsvZ6XTmhW84kcc4k1aff9dZG9NYkummgRSz0SEj9IL+jIbSohRYx0CwLX1C9LJogJscjn86ghy30aFilKbMLVpO+/2Ws3rza2Epu2JNoN0gJ77UT8qyETUKXz6DstnNx23vpvOdZ9GXbUAXnYzmOG0AoGlNXJ+V6vNHSygstaQrBzlHtX2IUgzjBoy3ZzPLNS+m1u4NyTfHhVL3nQlAKxbl49CyuHDuVUeVlVIdDVCjpTw2zKMPseQWczrfofP1b+PZOlTwzPEMZXKUvrjl44VrKJn+WaOOtaNIupkaUFg1yqRVqL3Hx6Bf2+AOEQLdAhnzddtVs/urjV1KZiJPOOvzhmdf48a+exBFP0udxLaWpj/6qjvSdxVrvPkuh5jb845c/xJTRDfIosHjFOv71F4+wZWenGt8gscXJAhDktGXwVGvK5Y6fb2PBZoOsbOf+lPmVfxPZVJeaqMffX1vBp88tJ2yYeD0Fcve8jf71l4jkZQ8Kn0FUUqUzSQDCPhLuwQCC4p2LZLvlk7t8BOHvXUhoUn0gR34UgPdElxjkvjuOx8pteX76RIqWjiCjtLdMpUEiDOOHulwxL8rsRpES1sg5Pit2eXzrnm7Wt4pmjE7CyHP9XJ87rogyrFq6SMRh+eTyHpm8ECB9ohbEpcPEDPROHMdm426fux7P8PzaEBkncHJ/DgChJFdWZmh8YIzF56bVUhcJOCkH2wsCEDoyDj9f0c69W7PkbdlLkl2V13sqk5AwfOoiFkMSOqMrDMZWGYypDDM8GqEqYhLSXNW5k3c9TEMjKrOFpLQhf/o4fzVX17PpzsOdb/dy/yabnF8IAutjOE4agCA1FmN4LdZHziU6fQymzGBwbHmO1eK7horj9t4IScmovmbHwc8U8HqyOF1J3I4UfmsPudZOjAkNlJ81BS0exl3fTOevn8Pc0ioWqaTxoerqgfxoILMSpB193NljqP/cNXj5Al0PvYL3/Gp0sbbHchwXgCDnHwjH+K7oHTi8unsXL7fncD2rSA4s6qsXxWFyhQyrmlawvWtrMORDIipTwwzphMMm0WicC4dO4o5JcxkRL1Nrrjaa2msBwU0yPH6umc5F/4TXvgDNkxKMSPfIK8XCO3haDGvQBVTO+wcwE0HPcFCIw+/N4eds9HgYEiElcKX6zaWM1M81Pt4AITgdDdv1+cyHLuBTt1xEPBymO5nj5/c9we+fXKRS2fuf90CUF0oLte+bBXc11FXxnS/dzLxTRyu+wZqNO/jOT37PuqY2lcoMxIBOlhKDGD+Ht5sdbv7+VlpyFp5K//evVUCArprbprncfmacf76pnpqYgbu1h+zXnib+WBOmU6x7B+o0CvT1zSCou3zAbQsCCF2VzvKTq9C+dz7hy8ahlSZr9nOvnmiAIFBAAFlv1mZzq69anQOme6CJIisUDmvUVRrUxH0VqTqOzrrdeX7zUprHl+hkbEtNJJwxMs/XPhhh+hipoZvK/rT0Ojy3LMv63QbJPFRGXaY3whkTo9RVSLTtY+d9XliZ5Qd/dNmyJ1YUAwsEzAPN1X5agAHKIBSF51Vn1ylxh2/PHcycwWFC5sEBgoCenOPy4s4UP1zeyfqkoUq9fVlDMgZa7KLsW0srUGZ6DIpZjC2PMrFGZ8agiJKmT5jis4KyTcCBCcoSfQ8BCGlH4+5VvfzXujxJp3BI4bAj2bonDUAQkqE5ZjChj19AaGIDRsHDyeaKEoiqGRdP5iPImOZ0Dqc3jdOTxm5P4XWm0LuyaMksWianfnsyKW/KMCpvPZ/wuCEKQHSIeNKyDUSNkJqUp5Cr1JZFPTFvq04J+XxNSE3j6xn02WvUCN/UU8vIPvy6ShEdkzbocQMIpZEGPmnfYWVHG082dVLQwrjq4XdUP6zqdZYH1C+wo20Ta3Ytx7cgEQsREUaspWHpJl7IYFy4is9MOpvpVQ37RkDv44UFmQcnRXLzA2TW/Byj0K02cEkwSfgM8qNFh1E5998wEpPxUh725lbSK7eSX7MNvSeHUxun8rxphM88Bb0qhmX0X1nxuAOEoFytovG/+ujlfOKG84iFLNq70/zoVw/zxxffVvPe+2nWjuT57PdrBDQPri7nG5+7kXNmjQfNZMPWFr7543tZu6VF1TkDN3Do2u/xLjHsixh90jmHx1Yk+dw93fRKcN9vYlVpIp5EZz4XTTT56ccHMbraxFm+h8LnniC2uG2flknRsKrEwyFvWqBeqanhJB75ISH47oWEb5+KFgqIdv09TjxAKBIwpXRSBGHibwLQH1xNiewc/JtPOuvy26d7uPd1i109EYXw45bHxy8y+OQlFjUJcXweLd0u9zzdwaNLwnRkQ9iO2BOf4fUuHzwTPnhWnOoyHd3V2NFlc+djeR59I+hwCiJByWYEgmz9OgYIIKj5QIiqp06V5fH5iQlum1xNTIYAHmQviI2UQXl7cjZ/2pLkl6t62VOIqGtUV6iyu8XFVwPrgptQHAVHPBxiQjlc1GBx6ehyBsdMNRhKyojB8Mf9NQ7k+9Kup3gLP1+To1182VHs0b5rf9IABFkYs3EwsTsuVtMWneZuOh5+BcMO2pqEMyDdBlq2IILzSu3QzzsBaHAFBQc1xYDO7+NGLbxxg6m47gyi00YFNZruTEB4FC6DUrkIbogrG8x28TN5paaoVBUtncTscUpxMPXCCjL3v4IhMm7HEhgeJ4BQYrDLdYv0pmzIZ7e1sSWVV0zw4KQNJJ9QoYskqknG6+K15uXscnsIq9Zu2ZaGIm/J1Ms4Bh8bM4drGiaTMEKIBFsf4njAXfAKFHrW0P7a1wilmorTM4t8B6GMOC44cfyyD6K1TKGwsg1v9S681l78TA5sF4RIOqKS+CfPp/L6eYQqo4GkcD+w70AChM/dfil33HQB8ZBFR0+aO3/1GI++8JaqPh2I6Ptl5N6nF4sRG1JbyTc+fxNnz2hU93T91ma+9eP7WLNlD+ZJAhBKlyvnm8zY/P6Nbr76QJakF4wU6t9RBAgIaczgzJEe/3lHPRMGhXDe3EXhc08SXd6u6rp9YdyRAASlyegZeJqHXW3gf+c8QnfMQgv/uQKEwOkr2rZKlwT6JCWAUBrYFFiEQEdYOFyrthf4w0KPPy2GpGcxorrA395ocdk0k4hpYrs2C1fm+O69OTb2lGMIcdk1FA/MDfvMGp3j728MM2NMTJV20oUCf3jd4x//R7qrSrX0QCK43yZ2gACCGpamRrxDxPK5dXjwwdoAACAASURBVFSIv541iLJQ0IXQ9ygBYPEtBd8RwU5eburhgQ0p1qS0oIymDOo+7U+VwSp+jtwfV7OERUNtyOXiBoOPTamhsTyMpfgvgi72BwhS0hCRtoc2JPnxqix7ctJ22k+wdcCDd9IABLk4o3EQiU9ejDW6HntLK+3/+IDSJygtmnQyiMMWgSM1wlSVBwJjorguhoFXEcUfWklkyhhC00ZiNtRgxcPBppPXOx5+oaAAQakbQkUJlhGABiW0Emi+q+FY6QK9z71N9oFX0eU9/bNc+7/6OACE4mXtBTuKzer5bE9mWdrcyW4ZCIJGRPMZHAszpiJKQzxM2s5w/+Y3ealtA74v0xnkyoRcqGOb8jeNc2tH88mx8xgerVQto+ooLoAyMp6H46boWvRt2P0ikFNauE4K9F4L2k16tufJ7aghumcckd44piLfBH27pUMZp5kjqfvWzSRmjcLXJV2skmlHtNrHHyAEipJSYvjkB87hc7ddTlksQncqx38/9By/efglHDdYwWNF7Ed0wYd4kWRtRgyp4Xt/cxszJwxVsrgr39nK9372IOu3dRQNxonPIOwDCD7JrM0Di7v58v1JkiJI1n8PURT7Ctj2Z43xuOuOBsbXhbDf2o0tAGFp67sGbB8RQFCBR5AZy9dZCiBEPj4TPyRDh45sf/a9XSdDBsH1bTozNjv26ColXdJRDFyzhmF4iORDQ6VFeUwGAPm4ToHmLp9/ebCHBetijG+Ar91kMqtRukUsxVF4+e0kD77i0qscaUFxkizXoGD41Jbn+cTFCaY3xhVIczybl1bDF36RJ624IUrXOtBG6K+RHSCAIG3giuQr5QBT44bhYb45t46KQwCEoKIaqFOJLsnKbpunN/eyvC3LLlujIwcFacVTaYXArwVzV8Q/yZqoZl0SRo4Pj43x8al1DIkFa3VgzlJ8aMHO86ctaX60usCOVOF/F0DQR9cT/ej5xCYMw9/dTcs37sWUrEHxCQscerCQwn5VeuEScciAppiFccpQIjMaiU4ZhV5ThicoX417lt7F4D353Z3klm5C60qrzEORdI8ZC6MlImhVCfTqcoy6CiW2RG+WDqkx/2kZukTEx3IcJ4Cw19gWMyKyGW3fo9f26JKSjOepiLcsbBGRFJWgWtfl8abV3LftLXrdbLEWKwxkUTgLOuUbomV8YcoFTK9swJC6dTGFEHSmycCbYLSxvf4+0kvvwdmzh0JzgUKLTmG3htsBflr0K8qJ+KMxC3VK8EPYwKX2zNKcB3twGZVfvY6am89QHBBNlzM4MktxPAFCAIqE4W1guy43XDCVr37qJqor42TyNk8uXM6//OxBsraUcaQ3PKgx6ppHJGIpQpjUIUvjoUsYK7iyA6/vIJ5R/VMQ4im9S01D9NMSEZOC65ErlFLG0j0SRH2nNjbwD1++nXHDa7Btj5cXreDOXz9BU0uySMYtKb+/92Y+3iWGvgAhYxd4cUOOT/xsF10Fozjdrh/OV6VlpaQlddk8V50W4icfGUxDeQh7bTv5L84n+tIuLKn/9lnyIwUISjFQh9zoMsVBiNw4SaZ1HRUYPOEAQQTUPJtlTTb/8Uiepi5TBVpqlxU7M8KWx4halwumWlw2M0JVXEaNQ8F2WbShwPd+m2HY0DhfvTHEhGFB9Cyp9GTWpTsj2dlgxkNpKJnKDuseVTEhQAthOrDdizb6fO4/03QlhUguk10VhbTfFISBE0qSBQqUZ6VCfckgk385azBVYQGmgQR3KZtbysSUBoSpgWOSTcEnbfvsSBZY35FjY9pla6/L7h6HPWmXHlcnL0VhNQXXQlfkJpnfoDEikuVvZ9dw1eiEUvWUcmHfQ02NdG0W7SnwT292s7InEG1W/BIR/xI32Lev9wh82UmTQVCrO7Sa8IfOIjGrEbrS7Pn271UXgxzFTpz9BolJqkdIbQyqIDR7PLGzJhKur5RpLri5Am53ivyODrXAscmjFD23sHYnXb96jti2TpSWhEJ4IjNs4FuGAhpebRnhsydRfeEM/K40bfe/gP7qRrSTsIvh4PdYGK2ltrt9FjEgxwSHbNxl7bv4z3cWsjnXuW9CWx8DGtLgjlPO5IqGyUQNkRAOXLYaQpIt4PakcXb1kl3xAt2v3ktuyw7sLg0vp6GLGMreGWUGYb+BUGE4ZknatThuOjgnH6c2RsVXrqfq9nODc1ScxZMBIATW09EspeM/b+JQvvmFD9M4sg7bc1ixbidf//5v2NXRpUR5JNo0dZ0h9XGuuGgebW2dvLZsLXu68zh2sc+8WIDcX8U9cPR9a1jBNwc6B3K/ZN0jImM9vJ5z505l7eZdvLRorVLMVG2Bvk5It7j8zCl8+S+upa6qgly2wINPLeBXD73Inp7gBIREejjwNVAAQa7J9mw2tPvc9oMtbOySiYEHDg86jCUrdurIWkXMPH95cYJvXFNNWUjHbs6R/eeXidy9kpAdiH3tzYIdloMQgDJl3A2d3NyhGP9wAeGzhisthCPdn33P/sQDBFHs83hzo8M3fmezrVWyI8UzVHsjcIK6ZjOxIc/ffTDGvEYLXTcUz6YrZfNXP0sRLbP4ynURxg22ip0xBRxXxxaFRRmIVVJSDJBtkKXYOwQyaGtc1uTwV7/ooaM3juuJYFMpk3lkz/3edR2gDIKUmVQyQHJRuseMSof/vHAk9RGhLepBxrnPzVZjAFyfVMFVQ68MM+gQEaVPWUsZklfwfboLLruSBbb2OKzuzLOmI8PWtEZ3QQavBcBfPtnSs9w4IsTfnl5HZchUn9P3UHw636cl63Dnkj08ttMjr+ywTO4V0rgo2b4783Cop+ukAQgqQVuVIHTDXCouPBW/YLPnx09grN4hq6wyB1JekLkLpbZEx9IxRtaRuHoe5uxG1UojME24BOnlm0m+ugp/0x7MukqqP3UF+thBeC09tP/ueWILN1CQKEDMZVGzWSm56hpuIkTk+rmUXz0Pr7mbnruewlu3OxAxP5bjOGcQ9tssh+krlv9uzqW5Z+1rPN+2MTASBz6Xnse5dWP49KRzqQnHMWXoVcHFS+XJLdtE5wvLyC3ejt7WjJ/fgK114ohx6BONBP3VMk66lrA9AtONYRUnd6oJmwr8+dBYR9W3b6HsoqmBBG4/huIc7wyCShNqpsp8DKuJ8bXPfJDz501URM1tzd385O5HWLB0LQVHXJSBZZicNnkEf/eZG6mOh1i4aA33P/E6W3d3kRdCbNEiq1r73jV/N0BQ1Xj53mIJTWSFzzhtFJ/4wAWMHz2ch59byk9/+xQZ4eGoTnOf6kSUT99yER+4fB6xSIie3jw//93jPPTcm6QKQZQYDIk59DFQAEEY9WLUunI+3/6fZh5406fHVoOXj/hJC7Z6SDmmYdU+37uhjFtnlylyrZP18Z7ZSvaO/yHRa6gJhqW46/AZhAAgSPTlRDwyt0wi/s1LsIaVKTvx5wwQlmx0+DsBCC2BVK8cpeuRDiVH86hPuHz1OoObzgqrmSPyqryb58t358j78OVrY4wfZCneh+MW2NmWp6ndVKXxoOv3wF22T/FT7tnGZp+7nszSlbQQ+SBPlBmDQt0R3/sg2hHCdJrkih+RXvWT4FlQWgz7DukU8EMJhn76++inXbxfe+uRf5mUm1RDN67pMNzKcf/loxgVE79hqqynqhWIQ5fsqu+xM+/x7JYe1rVkqQ7pXDelhtHlFmFDMrmSqZXXi80MngOZ5bI16fHQxm7+sC5DhmjQaec7eLrH2XUa3zm9mrEVESxjnw6CWgYFXjwKnsPitjz/+mo7K1KiYuuiawVskdIvjTE/wos+aQCCqvmHTEKXTKXsxjNUja/7sSV4Ty5Dkzmvpdq3BiHhJUZN3CnDiV8+C31iA5ogqq4MhXd2kXxtNe47OwhlHDRRUkyECN18JuWXz5KCD6mFa0j/8lmlvqZAQTGaVXZbFnl4FRWfuhxt4lDsd3bS87MnCbWmjq2DQW7IAAKEw91/cQAZx+G5He/wiw2vkpIZY8Wa6l5dBGmZ02N8dtTpTCuU4W5oobB0C9nF6/G2t6Lng/V1NJuC2UxOa1ajdA8szYogVYgYEXcURqG6OBkvMCKuCLfXlxO9YR7Vn7yI0KCKINroh9798QYIwdAUUeXziIcNbrv2HO64+UISYYtUzuWJFxZz1+/n0y5jg8U6ajrxiMEXPnwZV5w1lVgsxqad7Tz7yhLeensdza0pUhmXrLToFrMJgYGWso3oUgTGWoxyxAwpeefRI2o4a95pXDj3NKoTIZp2tvHDux9j0ZrtymAZMp8Am6mnDOMrf3kzExuHYmgeG7a18/3/eoxFqzfjFAWSAn32Qxf6BwogiGGU/Sbqfs+uTvLtBzpY3SZx05E7iZIccyJU4JrpUb56ZTWTBoWVLor0kHu7MiS/9hiRp3dhpTysIkhQBvUwlQyVKtZ8MuNjaN88n8h1p6KHg+zBnz9AcNjWEgyoUoF+SQ9FnBUeDVU+f3+jxdWzzL0AIefY/O0v87RnPL56fZRpIy0VPctzcN+LPdz9FGTU7AwF/YsGNVAYDQK7fcU1x9PI2VLiEBJoUJbodwfDAAME5ackqNQdynybn5w/iHPrLcIhAUpqZKASihM7uCvncPeqNh7ZkqXLTxByC0yvyPGJ6XWcXhej0pRR5YHCrbTbqsBKFIVdj61Zh6++sIPVvTIHIyDJSvfE9Dqd78wuY7p0fJkHAAS12jLK3CZp69yzuoe7VidJYiEzIoX0GDxZR07yOWkAgmqLE871jFGUffh8jGGVFJZuJ3PPC3h7ugOgWLIZEQttxhjKr5itRjPLv3u7Osm8tBJ35Xa8tl50CefUOgRRmjdvLFV3XKqUFt1t7TT/3weJd+TQ3QAVSjSrPl/XCJ05gfKPXYgfCZFZsFqNfTbSSnbo2I4TChBKmyJIV6v0l+eztqeFH658jianF034AbJcticyZ/jdWaxtnVzZUcZlLWHC27vQu3Oqg0TIiHK/RJJV6mO21U3aaMJBnGSwTCpdWSSSynCdqD+MkDMMX1oqw6YaoMWkYSTOnkLs7ImYw6owlb54UFM+Uh9xPAFCEGUGUY0i0uo6p582mi999AomjGpQxM71Tc385Dd/YtGy9WqUqwIUuseImhgfv+5CLjprBvGYRaZQYHdLN+s27WLNhh1s3NVJR2cn+YKN4zhK2VOG3FimSSIeY0h9DROG1zPplOE0jhpMfbUQvAyadrZz32MLeHHJWnpyASgRtnhVTOcjN13EjZedRXkigufmeez5Zfzn759nV1cqGBQjyZmTCCBI9KcYKR7s6cny8xd6uOfVLK1pXa13aScd/MEruhNf+vVtThtu8eUrq7l4UpmqdSvH57nYOQ9/0S7sb76IuaqNUFY6E4rM/UMErCpzZGjkKwy44zRCn5uDWR9HM0Qcpx8ciT4nf1KUGFyXJZscvnlvgaY9pgJS+wCCOHOfkFFg9nj4mxvDTB0qHRuGapnuTrt8/qdp2jLwdzeFOWdKGFNapx2Hp5fm+acHPJp7wzjCI1IOX6Jk1AC3wZUewnkUpCD3W8Z3N3eEgtxXkad3VAZ2gDII0mGhVEilPIBD2IePnGLymVPrqI2ZAT9BXZ6J57ks6crx1QUtbE+Z2Krc6hE3XSZWGlw7upxzh8aoiWqEDZFZLhVbIeP6rOu1+ebLu9mYCSPzGZRaj69x2iD4zuxyplXGsIqt+qU1C2byBiPNfVdn0Z4s33l9F+uykoXoM4PlyLE3Jw1AUAPwBGEOqiB267lEzhiP15ak576XcBdvwJBZz7JMpo4xZxyJG85AH1ajmtPtVdtIzn8TY3ObaoPsO59A0tVKZWpUHeV3XEzolAa8ZJaOu57EWLETrRB03ko0K8azUBmh4pZziF00FacrTeqB19BeDAbd9Jtde+BuPwEAQUUFytCWUrZCAgswpKD8tlyKX69/jWf3rJf2B7TOHPaGVvIbWvC3daF1pJlZSPBRhjBE2DOKPLjvCEg0YkizJK0mclrHXptuiOSyJ2lyV02GDBnlhOJTCZ06ntjMscSnNWKNqUevLkOLSS0zYIb3Y/+q7zqeAEEB02LSs5iIpb4qwWduv4xrzp9OxBLH7/HiGyv44S8epi0lMXEgBWhIR0F9GddeOIsrLpxDXW2FKkG4rkc6k6MrnaOru5fedJZUJovnOurzyhNxKsoTVJUlKI+HiYgcnTKqHm+/s5X7H32ZN5Y3kc5LpGYrABM1Lc6YNpKv/OVNDK2vVEJj7T1J/vHnf+ClxetUR6kalbz/bKL3tMcDlUEIarrBuGWRit3Q6vDvT7XxyJt5ujxT2o5UmB9EpMU7oa5B0T4VBpA07ZiKAl+4up4bZ1UoBTqF+lVEJ1kZ8DMuhUfW4vzHG4RX92DYPoZXHLsZoNn94ioFf02dTLmBf/MkYp+dB6dUqbpvMKnw6I4TDRDEUbhunpXbHe76U5qmLtHzD2rcou4nqxAL+ZwyDC6aFWbueJm1YOC7PgXXZ/kWm6/8KktHTueL11h88JwYcfGU0jnV5vKrZ9I8/IpOSgsGtDmmTdyzuXiqzwfOi1FfHownzuYdnnrT5ZcviCKHlBiO4RgggFDKuxUTzQr4TCt3+cczBzGhVsowxWvwBNw6vNme469f2k1LTgTkim2jElJoUG14zKwzmTc4xIT6KGUKOUEy57KxI8PLO9O82uKQIh6UxUSYDo+zB2t8Z27Q7miWWvX3Ll2QgQlsPuxM5/mHN3fz5A55TgIuwhFHXaVL2b2Bjnu+TmHzMlUKUZ+hJMpVNui9G47kqypCYb7YeA4fHXMWMemVP5ajmOaXVkXz/ClUfOIiNMcj/eZ6sve9TLgjjUwJ1SXivO189MbBilVuv7WJ5EOvEt3Vq4ZVqIEXfc4juCCwK6OEPnA6VRefplIwqceXknt8KUbKUchPyHMSLegzx1D24fPQGyrJrdlB8u7nCW3rwlUG51gu8MSUGPYCBKUjLhGVjA8VmxugzUyuwKKN6/jp4w+xZ8VGsmt2E0t6qodZxKPEhI4gwq2hIUwnJo2Q+xYhWFpVG/O0ArlwMyl9B5pvY3jySkWbxTFdzKEGZVMH0XDz19FGz8Avj2GEQ1hGsVuh1EV5hMTEvnfieAOEA++6RBBnz5zA33zqGhqHV+O5Gp09aR6Y/yq/fPDZYFqdtCgpxUKXeEjjzNmT+OANFzJhzHDilqaU04Qq6HryE5CLZDHF94hWgaGiCnHoPnlfp703w8uvLefBR55jZ3uSjKMHuE8cpOYytXEo3/7Shxk9tIqQpQUp+9fX8P1fPkpbR+oIG0b3XemAAYQ+i6sIi45DS6/Nfz7dyQNvdtKcDGETxguUYYKHqCjypHsREkaWyYNsvnJTA2eMNRQ40HTpHpfCi2Sjgj+SnbG7MzgvbCV758vEV/QQzsoHytjo4CQkQAhsqIMT8clKmeLW6YQ/MRN9WEwNf5MC+/7UsP7ZhBMOEBRgcpR6ZU/WUOJfpTVSQM0TXQSNsO4SjziEJKPny0wLj868x50P9fLQWyHynsHZp9j83QejTBwk/ASDvFugJ+Pz7FsuzyxL09qjEbIczphs8YGzEoyoFRKtEBQ8NnQ4/OBBm+dWW0fAiDnMGg8QQHj3WWjUGBpfnZ3gmkaZIGqimBpFgLA9U+BfFjXzTHNIAQbhMakMhCudeSaGZlBmSckrhSFCSTIYzDdx9BB5RySWraCjpxjc+ZjcOKzAN88eQaUp7agHd0ilUlFn3uHfV3TxmzVpHFl3UQ/tpyU4aTIIAl4Vy1Ie/xG1lH3yEqzxg3E7UyQffh0WroWGaiLXz0Of1aiyOc7bW0k/sRitqU1lEg6WLZRNr4glknI8cyI1t58PMRN77S46fj6fcHtWkVykz98dWkn8A2cSm92Il8+TfGop9vzlGBlh5R45aeo9t/MJyiCIzROmuyLhihpksoCzs53sxu1kVm5n8ztbuGvtG2zv7sEpFEfpSsueRBuiza7pXBqq4Qq9hnJ3H0AI7KlASRdLBpGEe+ixmnC1HvSEhzUIIg0WxjCw6nS0aovw9L+gvPFD6FZlcchJsFrB+NejOwYaIIgBKI+F+fBN53Lr1WdTEQ4psS0Z/fzbR55n/ktv09adDSSDRV1SxnuEYMTQSuZMG8eMSWM4ZfRQ6irLCVnm3qyJ1C1lHVRq2/PIZPLsbO1i1frtvPH2elau206qp4B0NroClvFUevKU0fV84gMXcf7cKUr2tWA7qnzxj//xAKu37Fb91/11aicCILgiRKb2qk9byufV9V28tDLNsh0uu7pd8vmgDmgaHmUhj7FDI5w+1uKiKVFObUgQjXiKba/mkStTvK9VVoym64gKq429phXv+Sa8RbvQN3dgdGdUWc03NDzJ1gyK400fjHHBOKzTG2BoGMOSCE/SyPKpR38MOEDQTRoqc3z3FoOLp0eDrno1+KaYWSlKTu8nIFVkbwbNiJ4iGXembJ5cWuCuJx32JCOqpbQiZvPR8zRuPV/UFAXYSjbAIWtHaE85ZLKaGrtdkzApi2oYpofvOrQlXe5/Jc/vXpa5MPF+R7XvWv0TBBAkE2ticsUI+KuZlYwUrlvRCUvwlXUdlnbY/GJ5F0s6HKXxoTrBlCsRuyCtnS66L4AhEJiTyZqKJaDryqYKX0iNOdd8GsLwtTlVXD6iDKsoS3+wnVgCCD15h5+v6eHuFSlskQKQ7pQ/V4CggHsxyPXDJv7MRio+dgGURfA2t9LxhwWUTWskcd40nJiJs3I7ufsX4gk4UN0FxQTKgV5GCZ2A+DV//FAqpMwwokapKnb860MYWzoCR1gRQb9oGmWXzyKUCJNbt53e376Isb1baYxrRabv0ZuGE5dBkLWVQUN+qkBueRP5V9ZhL28it3UnXkdaqZo9oO/hjXyvmgZZIs6JcpiawqD5TDOj3GYMYZgnU/KKR5BnQgZqG5qJ02CRH7IJvWIbkaEeoaE+RiW4EXmdHUR2NadTO+sb6InRfUBBkCo+2mOgAUKgIuAzZngNn7/1ai6YNYlQRP7NZUdrDw899Tp/fOlNOjvzqu3G1TxcXZy/T8TQqK8qp3FkA6Maqqmvq6ayLE48GlYRssx0T2XzdHYnad7TwaamZnbsbqUnk8Px9KBkI45Kh4jhMu2U4dxy7XmcPn0clSIIJjK2ezq5+6EXeeyFJTjCJzlyOsfeW3AiAIKQQBVfSIF6XWlLtKYKrG8t0NRsk+ottnqGobYcxo2IMbI6RJUlg4L0IDmmgoziCOz9pMGD94qtyLsuetKBbUm8TXtgdzdkbVW+pCqOOboGbWwdWl0MXdLnelEsST5XP1Dgtn+79ngDhANzviJ/3lCV3w8gKK57sXMrCMr251ME1A8BEC4Z22F3l8Pzyxweec1nQ7vMXJB6jIHuewwtt7n+bI2rZpuMHhxSrXxyLwKHJ6+RgCOQTxdtlpYOh6eW5rhvocPWTim3hQ/bcnvYFT5BACHoSjYYEnX47PRyrh0Rp1xkl+Wfi2Nn0i4sbklz/4ZuXt5ZwPbC6nL2llSU+K/YXNE6CKTCBSI4mmRgHcWVkTtUZTnc1mjxsak1akCUcELeSyVRadQAnQWHO1d18ttVGTVBUrRZ+jvj5KTJIBT3ZDGaBDceJvaBMwmfPxkrEiLX1IxVXYFeGcfZ3k73vS9irdyhZinIaojKoiIaHsAdChjOwS3xBlcQvv1cKuaMx7Nduu96BnvxBgkIiZ01hfDVszAHV8KubtofXoD+5mZVqyy17R12ox7uBScogyCnZYsi5IurSf3qZVi1HS2VVWsmR1pzWRjq4ZFcC91KNSVAm0ogRoZmaS4jMfmgOYRZvoh0KMpzMHq7LITTWEdizkRC04ZhW69SaL+fiJXG1131OYrVqwySgRauoXLuP2MMmqsU2GSTB9LKgaTH0RwDDxCCunnYMpg8ehj/5/armTV5OBEzQP8tHT0sXLqWPzz6Mjuae5U+umSgVIYr8DfB30MmsViUWCRMWEItmXbnueTyEn3lyWYLaDKqXPFFSkIn8t1hqqM6580ezzVXnMPEscOIh4IRzl1Jm/vnv84Djy+gM5VVKeNSzbQ/a3siAEJwfoETD/Ij4mQ8VX5xpOSlHJOAdQ/TFLVNcdZCGpPygwxZCz4hiIbfnZEqVnEUQ784r0mtjxA0VGZNODBSSJbJg8U2WwF14kTVdwSPxlFnuuTcjidAKN3ffVg7cOSDylLccaXJ6ePDhIv141K/QLC39kfngtMyGZeWLoeNu13W7XBYs9OktVfmD+5tTAj2sQY1cYeZox3OmRpixiSTIRW+mjooQYNUhrK2T3faZ81Oh+eXpHlzfYjtvRZK9eBwbSRHsmlPEEAIfJZJWPOYXqfxtbnVnFpuYikCqwQEUmDUybgeG3sKzN+a4dnNaZpzqDZRSfeLLoHcC9sQkBAAK2mnllyaOPUIPkPCPteMinLz+DgjKyw1KkBpMRywE0u+Luh48NmVtvmnN1t5skmeDckeyHoHduZIj5MGILzrhGWxhtUS+dCZxKaPVouiZgSmC/T8YSHOCyvR8rL8RfGTIunuXdziIlSTNfHiYYzrZ1N91RyVKux9bDHJBSsITxpB1TVnotUnFIExNf8t0s8sI5aRdp/AQByC7Hyka31C2hxLiof5rW3s/ueHsZ9fSyTnKDVFMZKSwsqZGmuNNPfld9DkBRKfgdRnsJMEICR0jcusWq606okl4ugjatEnNBCZ20jk1NEYQ6vQ4yG8nmV0L/keRu86fJnwJqN1+4yTFenf2KmfJT7uQ5hmZWDYVa3+yJUTD1zwgQYIpe+XtQ2HQsya2qjmM0wbO5xISFKHOtmCx9pNO3js2Vd5c/Um9nSmyAsJVKktBuOjAzUCYXtL5CxAqiR6K4Y30GgPhnSLwwxGFMt+ryyr4EOXzeWGy+ZSU1uJ6CP4rqumS85/eSm/fvRlmlu7ggmZrYwrowAAFkxJREFUR3mcOICw74T7DnR6L1mPvW1zR8FdKT0bB1uiY/ncQy35QAAEBZKKsn6Cf6JWgdpEngpTbKWJvZdNV4pkS+XTorEUPpYDybxOb8FQY4qDLNR7exZpqS2PFhg9xGXCcIOhVRbRsI7tO7T3+Gzf4bFxV4G2XpOME1N8LxHvUdFZfzzWwRb3BAIEyeYZfjCJUUZAf3pqHSMTYcULktyqsoHSpuh5dLker+/J81JTitUdWVqyLlnbEpkf0JUgs1oJGescMXQqLJ1Ty30uHBnjnGFl1IQN9X+qjHbQdQjAm2odxmNJW55vvtrCumQUTxeGuabmivRnuU9egKBmUZg4UxuCIT7jh+KaBm57kq5HXsVftBEtnVfDhdQWC8iV77p2lVUp/buhowsB8sPn4cs8glXbsHe2UTYzmCTop7KkX11L/qm3Mff0BsGMpDyL6KAfwOvgN/AEZRCE/Z56eQ2d33wAe0sHlrquIKI1pE8caDFtHnWaedXtxRWSjTj2opMS6VQrYTF76DBunTaHxjlTiZzWiCFdJCLaHgRwysV7+T2k1v47uU0PqvKEigP7tAmKobdGXkr11L/BiI0sEmeCefT92bh9F/hEAgQFEsIGs04dzUevv4DTJowgHo6o6ED2TXtPiuVrN/PyG8tZt2UXrdIZk/XIi4ynK2BBwIGstQwCM4ubWMV1QctSkYkfaAsGLWOSMfjGZ25icuOwQEJcUrftPTzz6nLufexF2rsyivh4NH36pXU9GQCCCtAOI/i1N2o+CoBwJJ9/LGt4MCMwoABB+Z1AArjEJVBOqG8rS1HlsMR4VYGUsnkiu17sfFFiZofmCClNE5UuD+R9hT+nMjZa0L6r+Ram7O9iz7+U3YLs4jFb1QEUStr/jgZUDblICSRNqvUst51SyW0TKxkSk+7RYM1UdlTpm7jYmk9nXmNrd441HXm29np0Z13V2aTAgalTFrEYltAZWxNmXEWIwWGURL7SWJHPOyjwL3areZpqc0y6Pr9d18tPVyVJujJm21Z2WAZl9cfOntQAwRUHFTWwJg4heuUsomOHq+l/2V1tZBdvwH97K87uDrRMQTGQZQEOjPRVv3NALA1SkNNHU/kXl6LVleHLVEi5yzLkqStN5rU12C+tQtvds7dVJPjcwwuqHFGgdqIAguvS+/RyOr/7B9jWox5eVUIoAiv5S1r3WEgnD+Z2iZIB+ZCPnwih15crfQJjeBWNE0bzmQuuZOaQ0SADSuSNxYdARS2KYJYju+1x0m//CN3uVHX5oN1MUyha3Jw57GKqT/sbDOEhqHMIuAz92bgnA0DYdw6BdsHYkbXccOlczpk1kcE1VRhScpBozIWeVIqNTTtUVmHLrk52tnTT0Z0inc5QKNjF+ngwIdA0NaIxg7J4lEQkrLgILW09qh9a7l1DfRnf+sKHmDtlvFr/nnSWB558hfv++BJdyfdBr0OchCiS2gU6Ni+ie8dqJZ2j0vt9Fl4M1aRJk/jxj3/M+eeff0yA5Iien/8FLxpogBAMbSy2ZxQJCgHM7LN7D0jzi9ML7EORhlxMhx/SlRfHFKt5Cup5F4MrUXQJBCjt9KJia6DFogBaPxQz3/P2n6AMQnD+yrIpxVMBYcPCLjeMjnDNuDJGlIUJFwXPSlMqlR5BgJyUXcirzgVJEAZS1AIqhI8V0j31rKvAQP3e1yZ5UNBa/FwhThYclzc689y5pIPlnUpBoZiFDMBif46TGiAEg4M81c5hj66l7Mp5WFNH4cYs9KyDv7OD7Momcqu3YrX0ohUcXMnXCBortuCpdK6UJyImXnmE0NRRlF07F7M6oYSBhIvgtiZJvvg2vLEBOlJq8wZoOKgXC8Hxz7nEII4589YW2r77ILwtbYhCuioSO4sz2AVAbYgU+CU72C3z3UdVY04ajD66DqM6jsyElvnkN46exi2jZ2OIWEyQtAqcRnHBbc2h0L6S7LIf4HcvkykLKk2u7qVMf9QsYhPuoHzi7Rjh2qLCWhEg9Gfn9nnticog7D2FIusbw2JwVYRLzpjI5RfOY+SwwcRCISlpK6AknQmFgksm59CVTNORTNLZ1Us6nSefd5VTtiyDaCxEeXmMyrIEMSvEinVbeGT+K2za0Yltu5ghn09/6FJuvfJc4hFLCQz9+6//xBMvvlmM2oqGWBn2o+sO+f8A4Sg342HeNlAAQZ2GOGQV+Svtv6JAluT0DlTg239AUmk7B3YioH8H/vy9vUsgihYYSlWwEF5RkXSqcl97SR99+CFFG33MK32iAIJalCJvQJVipYvGo86ES4db3DqhitFlEUKWrIsone4jbKrnUjr39mYhglXYS9ZW6xgETQE/vnQHSkOhSqoGJQEPT9lX29PY2pvn35e38UyzjyMyIqrcVCSO9hMhnNQAYe+eLEp3unXlxC44jeg5k/GrY4otK0Q74Q3YTa04G3eT3d2uhjQJWPCEKBMNExpUjTG8jtDYIYSEhBizFPFJy+TJbW6m7fHFGOtbiKedoNrbh4hUInj1E3gdfM+foAyCmvLVnqb1rvkU7nsVozunqlRSihRlwLyMc62Kkpw6mMcbfZaMMchVx/CsgH1cOkQxbVb5EL42/UrKrLASNupLlFFKXqKMl28nteUPZNfdRzjfqRj8cp9cPUwuPJK6079NuG6GKiEdnfvaf3lPOEAono4yrL6n5rWPG1HHDVedwzlzplArwFR6pDVJsSp5nyA2O4ByHkyz23co4+xpZL0Ca7bs5Ff3PcXSVVvJeXDK6EF8+/M3M2HUIFWu+OMzi7jzvx8k6QkhVNj2Ml1S7HSo6CD616b7/wHCMbutg37AgAKE/c6gtLOOzJKV6uF7N+SRvG3vm9596cG3FxVS3++lPVEAYZ/fDq5IPc8iPW8QxWZepc3HZwxlem2UMlPUKYuTSlVWoAS6AuAlQK4EwUpLLY49qPLIg1yaJKxSNEX7EbRNKpsr80Jcm6Y0/HZlO39qsun2QsGshyO5d+9xT05egHDACQdLD27MxBrXQGzeRELjhmDUJPCEAS5OXZjIIvQhv2VRVd2miKQldSM3QlBWJgttSTLLNpB8az3mnjRWIXif4hwcI1P5Pff/CQIIktJyCg7Ozk7a7l+Au2gTfkcSK2rhNVRhThtN1elTKIyq5rnMdn65dTEZEQ0u8jdK1yN1w2HhBF+cfAFTq4cRLrXaFDegIn15nlIE9HKtpLbOp7D7WYxCFxJdu2WNJMZcQ6R+LrpVrkh0/5sAgqyToHhJEwqpNqRrnDpuBOfOO5WJp4xgaH01ZbEIMcvCNHQ11KZkFYpJ4OBhLtlyebalNcdwKLgOybTDS2+sYMHrq/9fe+cWG8dVxvH/XPbm9a6vqRPfmqRuolwosRuC2lJIBEUU0gpReAKei+gDAqnkAR4rHoJIUoknkEgLfQqUFngB0golVUWbqhdoQ9PGTuo4tRvHl+567d2dnQv6vjNjrx17b56x184ZycrFM2d3/nPmzG/O+b7vj49Hx/HNhz+Pb339i2zlPTw2jqdPv4hX3hlBPk9LORQg5a4JcOpUMXqUH6ElIJTXqJY91g8Qavm2G+SY9QSEJRJx3g2Ni46GqGJiW9TEV7fH8GBPHHuSGpLkv0AVEDkDRywnEACIWRrhybBw/5PhE9VTAPJUPtlxEFZURLjUN0GGxVMQOQuYNGxcms7jz5dn8fqohUxBheMZDd0ugCDMLABF13i5QO1qhX5XByJ9ndC6t0BNxqDSfK4q3nyFRzwV53CgUJ7zeArZ4RvIXxkDhm9CGU/ByRo0/roBOSJmxo+4mWVvrXUABIZcXp+y4BQc5KfnYFLe98wc1KgGtS2BUGsSajQCCla+WkjjFxf+hutmRqSQFnUuS7XRqIfxne7P4ts770VCpeCXJbEDJkFWgXW38mlYc9fg5NKAHoLa0AE91glFi7LzmV8BYPUyg+Bd84UpWhUhVUNjQxh3tCXQu7UVO3q2oG97J7Z3d+CO5gR0XefUOoIKDxJ4qtA0Oc0xl7f42HhUVJ2czc/hxuQcrgyPwUYOh/r3oSXeAMMw8f5HN/C7My/jjbc/xGzO5EqNNg0kjkhxqmaTgFCNWpXvKwGhcq0q3rOOAEEsTZNHDY27XM0MTSEDPfEQ7mnRMdARwZ62GNpiOiIaEKIldLo/XRtpggt6vzUcCynDxgfTefxvIofrcxZM20ZLGOhqiqElqiGiOMjkgGtpE5dTJgZnLIxlqYqqcJPk1OqViyFXJO+GmUHgtzOOphUPc4umaGhgpZzlxgispgbo9LBrSUBNNABkZGHZsLI5WKk5ONMzsCdnoJDpUtZkV0euKsVAIHy+521gV0FcJVVfJ0AQ6RgijYZK+5LdMBcw4dzxhVVq01GQdSz8+r//wivjg8hxkNHCRjqFVAVHttyFH+77Mpr18CLXRTHFTg8k8h4X5iBU754L4HApUbLk9dKaanPDW07fegQELt9Lg4VN8TCUxEmFSqiiooZYLIREPILmhhCakk2Ix+OIUKlFqjlh28jlskinZ5BOZ/iafe6eXXj48CHs2rmNpymppxYsE6ZtsGGLroV4PdMoWLhy/RM8/49X8c9zb2Eqw6GFHERVbcKjBISKxs+qd5KAULVk5Q+oI0AQb5fC04KW+kSxKIMzEChgsUm3sTWmoCsZRndCQ0cDAYSCMKfxq8jkbUxnTYxlTAynDIzkbEwVFMwxcDgMBVRsjcMaqM6CSSWuFeTohYzGdfYV4uLiIuaEx9vatw0FCMXrYgtv+eJ/hROja59JMwj04PMiRqngOD2k3KIxLJfbmPfW5ksQYrnrsG6A4J6w59s0n1IollQYEXh1xuEH1MuffIjfXH4V40aWrXE93U3NRoOq4bFt+/Hdu+9jgyAvlaf47bl4JV1cAzddyk13XNWi2DIa1xsgeDDrFqLmbywKwogZGU9PAgbKBGCDKjd4iH5HQCV+aOpRRSyqobUphvsOHcAjhwewvbMdjbEwdM0tgkQpaVyFjSKjCxibmMQzL57HH//+GoyCqJ1QLfNKQCh3M9f2ewkItelW8qi6AgTxTb3nk4i6EGu1XuA8LS3QRHdIdfiHPVfcCA16eSOXXQo2LNCLMOPGgmupGLrn80vcO5tHjfm6NbRMITJXxPL6arYNBQirOdG6OHZdAaGMAq6rHuXPj8xN47cXz+FCagzkjckdXoR0YGc0icf3fAkHWrvYeKUSDwUvl92vJYWlZ1KPgOBPf3PXu3g2xuLZh+6OZuy5uxe77uzCju4OdG9tR1tzArEoubuRgZOD6XQGv//LeTz313Oc9SACSasbKCQg+HMFl7YiASEAXesJEGo6vaJ0jlU+0Gv6+BIHSUDwW9FS7dU5IIjCtkDBKOD18St4YeQ9fDgzwc5vtJbeE2/CV3r24GtdezkWgWsfVvfcCUTtzQsIC2Hh3vIN/UnV1BpiEbQ2J9F1Rxu2tTahtTWJRDKGkKZiciqF8xfexeD1m1xJmGYWqr1MEhAC6aprUmo5mG9ex61ueECoX20lIKzltaljQOBJKndaipzt0nYeg5lpDKZvIm1kEVfD2NHUhruat6AlFEWIQvDdp061Dx+/Jd+8gOBW+eLlCVHpywuAFNnpopCKrlKhJg2hUIjTVgtGHtl8nmt5uKs7EhD87nQ1tidnEGoUrtRhEhACEFU0KQEhMGmXabjOAYEzczn3XlT7EuVVOGGOa6+Rv5hbc4PNa1ZZANE35TcvIPDFcMt4uoDAa5BuMMl8hTzXPo4xQMTfeN4NEhB862a+NCQBwRcZFzciASEAUSUgBCbqig3XMSB439l7oCw6h+LcfC9N15ttqIM1hs0LCHQVFpYZynbYKnYt15ZcYiinUG2/l4BQm24lj5KAEICoEhACE3UjA8Lai7L6T9zcgLB6fWppQQJCLaqVP0YCQnmNqt5DAkLVklV6gFxiqFQpP/bbADMIfpzmWrchAcF/xSUg+K8ptSgBIQBdJSAEIKqcQQhMVDmDsLbSSkDwX28JCP5rKgEhGE3ZStmcxcx/TmD23ac5/oaKtRVvVFTICTei8/HjUA88BGe+znlA32mTNCtnENbyQsoZhEDUloDgv6wSEPzXVAJCMJpKQAhIV5nFEJywy7YsASEQwSUg+C+rBAT/NZWAEIymEhAC0lUCQnDCSkBYO20lIPivtQQE/zWVgBCMphIQAtJVAkJwwkpAWDttJSD4r7UEBP81lYAQjKYSEALSVQJCcMJKQFg7bSUg+K+1BAT/NS0FCMXlLlQ1ikjvo2h54DiccPuqDXeCOZP6aZXMkGxzFul3ZJCi31dFBin6rWip9mQMQiBqS0DwX1YJCP5rWhIQ6JduQTKNAKHnUbQSIETaqzbaCuab12+rDpmZMSD8ChmZxeDrhZKA4KucpRujqrlXCykce/NPOD8x5FbJW3wMOR7u27cPzz77LPr7+9fw223cj5KA4P+1o1LbtmFgcug1fDryHiwynhVu1fOb11dPnTqFI0eOzFtW+/9tNk+LK9VB4DOkMtoOwIBAMwj3S0Co5MpLQKhEpdr2kYBQm241HUWueh8ZKfyUAWFQAkJNKt56UGlAoP116CEdTXf2Y0vfQflGVoHuHiBMDP0bqZGLEhAq0KySXSoDhBgivY9IQKhEUB5FHTiWWGLIvHtq+ToI5FESkXUQKpR0fjf74w8w+czPYQy9BTiW6wOjuD48CvHsyltzJIYf7XwQ39/5AOJauNrPvr32pzcDh2YQPsWxN5/HuYkh7thLN3or279/P06fPo2BgYHbS6Mqz5YeYrTlcjmcOXMGx44dw/j4+MIbLhlOsVeEBl2PoLX3M2jddYhNqLyN/rbebpRVnvaa7M7W30YWE0NvIHXtImyHbLsWa6WqKvbu3QuaQTh8+DDPINCP3JZXgPorAcKlS5dw9OhRjI6OFu1IFlyiZ+pqHLHebyB5/y/lEkMFnYnNy8wMUu+cwMx7p6A4BQqvW3SkSm6okQS6fnAcuOch2Co5pJZ8vFXwyZt/F5pBmDr9M+SH3p4HBIdd+ig0pgQgkLyNkSi+130vjnb1I6qGNr9aqzhDvvHh4LqZwomLL+HNqZEi696FhmmA7evrw1NPPYXdu3ev4hNvn0MJEM6ePYuTJ09iamqq6MS9AUCDpkXR1rEDyR0HXGgQu6lyjFi2o1iqDceaw9Tw+0iPXoFiG7D52b8AAAQI1FeffPJJHDx4UMJBmVuOAKFQKODq1at44oknMDExUXQEuXU6UFRAVeKId3wBjQM/gRNuvn1u5BrPlO5hpTCL1KU/IDP4HBzFuKUlBoRoHD2P/RjO7vtgKipshlkJtKVkd24OY/qFkzBG3gdlixRvKwICA4QDhHUNPaEkWiIJUClLua2sAAOCYyPvmLia/RRTxhxrSFouER2NjY3o6elBPB6XklaggG3bmJ6exsjICA/AYit+8itQEEIoHIMWa1o0gyB77XICO3BUsvwuwMzNwszNQWHT78WdlWCW+mhXVxcSCRoD5GBbrrsSJBDQXr58mWcTil4NRIyHSm9mYWh6O7REJ6CExGArtxUUEDOEpJA1OwJ7dhiW6twiGfVNVVcRau+DEm+DQ0b2Sx54UuIlzyL6p5lH4eZHsLMZeDO23l7/B9qBqbLAoHcsAAAAAElFTkSuQmCC;" vertex="1" parent="1">
          <mxGeometry x="72" y="2707" width="67.22" height="53.9" as="geometry" />
        </mxCell>
        <mxCell id="yzngNBAAONycKxXUEeyZ-55" style="edgeStyle=orthogonalEdgeStyle;rounded=0;orthogonalLoop=1;jettySize=auto;html=1;dashed=1;dashPattern=1 1;endArrow=classic;endFill=1;" edge="1" parent="1" target="yzngNBAAONycKxXUEeyZ-52">
          <mxGeometry relative="1" as="geometry">
            <mxPoint x="108.79999999999995" y="2676" as="sourcePoint" />
          </mxGeometry>
        </mxCell>
        <mxCell id="yzngNBAAONycKxXUEeyZ-54" value="Web crawler" style="text;html=1;align=center;verticalAlign=middle;resizable=0;points=[];autosize=1;strokeColor=none;" vertex="1" parent="1">
          <mxGeometry x="72" y="2592" width="77" height="18" as="geometry" />
        </mxCell>
      </root>
    </mxGraphModel>
  </diagram>
</mxfile>
